<?xml version="1.0" encoding="iso-8859-1"?>
<!-- Generator: Adobe Illustrator 23.1.1, SVG Export Plug-In . SVG Version: 6.00 Build 0)  -->
<svg version="1.1" id="Diagram" xmlns="http://www.w3.org/2000/svg" xmlns:xlink="http://www.w3.org/1999/xlink" x="0px" y="0px"
	 viewBox="0 0 730 606.834" style="enable-background:new 0 0 730 606.834;" xml:space="preserve">
<g>
	<g>
		<path d="M317.715,248.915h-69.433c-0.43,0-0.779-0.349-0.779-0.779v-45.26c0-1.564,1.272-2.836,2.836-2.836h65.318
			c1.564,0,2.836,1.273,2.836,2.836v45.26C318.494,248.567,318.145,248.915,317.715,248.915z M249.061,247.358h67.875v-44.481
			c0-0.705-0.573-1.279-1.278-1.279H250.34c-0.705,0-1.279,0.574-1.279,1.279L249.061,247.358L249.061,247.358z"/>
	</g>
	<g>
		<path d="M314.116,245.694h-62.232c-0.43,0-0.779-0.349-0.779-0.779v-39.069c0-1.426,1.16-2.585,2.584-2.585h58.621
			c1.425,0,2.584,1.159,2.584,2.585v39.069C314.894,245.345,314.546,245.694,314.116,245.694z M252.662,244.136h60.675v-38.29
			c0-0.567-0.46-1.027-1.027-1.027h-58.621c-0.566,0-1.027,0.46-1.027,1.027V244.136z"/>
	</g>
	<g>
		<path d="M294.571,272.574h-69.433c-0.43,0-0.779-0.349-0.779-0.779v-3.086c0-0.43,0.349-0.779,0.779-0.779h69.433
			c0.43,0,0.779,0.349,0.779,0.779v3.086C295.35,272.225,295.001,272.574,294.571,272.574z M225.917,271.016h67.875v-1.528h-67.875
			L225.917,271.016L225.917,271.016z"/>
	</g>
	<g>
		<path d="M294.572,272.574c-0.215,0-0.429-0.088-0.583-0.262c-0.286-0.321-0.257-0.813,0.065-1.099l22.882-20.34v-1.002
			l-21.848,19.42c-0.142,0.127-0.327,0.197-0.517,0.197h-69.433c-0.324,0-0.613-0.2-0.728-0.502
			c-0.115-0.302-0.031-0.644,0.211-0.859l23.144-20.572c0.321-0.287,0.814-0.258,1.099,0.065c0.286,0.321,0.257,0.813-0.065,1.099
			l-21.613,19.212h67.088l22.923-20.376c0.229-0.203,0.557-0.254,0.836-0.129c0.28,0.126,0.46,0.405,0.46,0.711v3.086
			c0,0.222-0.095,0.434-0.262,0.582l-23.144,20.572C294.94,272.509,294.755,272.574,294.572,272.574z"/>
	</g>
	<g>
		<path d="M294.361,606.834c-1.246,0-2.489-0.008-3.73-0.023c-0.86-0.011-1.549-0.717-1.538-1.577
			c0.011-0.861,0.711-1.597,1.577-1.538c2.405,0.03,4.823,0.029,7.23,0.001c0.828-0.044,1.566,0.678,1.576,1.539
			c0.01,0.86-0.679,1.566-1.539,1.576C296.747,606.826,295.555,606.833,294.361,606.834z M305.174,606.632
			c-0.833,0-1.524-0.659-1.556-1.499c-0.032-0.86,0.638-1.583,1.498-1.615c2.39-0.09,4.819-0.212,7.219-0.362
			c0.855-0.046,1.598,0.598,1.652,1.457c0.054,0.859-0.599,1.598-1.457,1.652c-2.426,0.152-4.881,0.275-7.297,0.366
			C305.214,606.632,305.194,606.632,305.174,606.632z M283.387,606.626c-0.02,0-0.04,0-0.06-0.001
			c-2.428-0.092-4.883-0.217-7.297-0.37c-0.858-0.055-1.51-0.795-1.456-1.653c0.055-0.858,0.782-1.499,1.653-1.456
			c2.387,0.152,4.815,0.275,7.218,0.366c0.859,0.032,1.53,0.757,1.497,1.615C284.911,605.967,284.22,606.626,283.387,606.626z
			 M319.678,605.721c-0.798,0-1.478-0.61-1.549-1.421c-0.076-0.857,0.557-1.612,1.414-1.688c2.407-0.213,4.827-0.457,7.191-0.727
			c0.85-0.104,1.627,0.516,1.724,1.371s-0.516,1.627-1.371,1.724c-2.39,0.273-4.836,0.52-7.269,0.735
			C319.771,605.719,319.724,605.721,319.678,605.721z M268.886,605.708c-0.047,0-0.093-0.002-0.14-0.006
			c-2.421-0.215-4.867-0.464-7.269-0.74c-0.854-0.098-1.468-0.871-1.37-1.725s0.865-1.468,1.725-1.37
			c2.375,0.273,4.795,0.519,7.189,0.732c0.857,0.076,1.49,0.833,1.414,1.689C270.363,605.098,269.683,605.708,268.886,605.708z
			 M334.116,604.075c-0.765,0-1.431-0.563-1.54-1.342c-0.12-0.852,0.475-1.639,1.326-1.758c2.394-0.336,4.798-0.704,7.144-1.093
			c0.851-0.136,1.651,0.433,1.792,1.281c0.141,0.849-0.432,1.651-1.281,1.792c-2.372,0.394-4.803,0.767-7.223,1.105
			C334.261,604.07,334.188,604.075,334.116,604.075z M254.447,604.053c-0.073,0-0.145-0.005-0.219-0.015
			c-2.393-0.336-4.823-0.709-7.222-1.109c-0.849-0.141-1.422-0.944-1.28-1.793s0.945-1.422,1.792-1.28
			c2.373,0.396,4.777,0.765,7.143,1.097c0.852,0.12,1.446,0.908,1.326,1.759C255.879,603.49,255.211,604.053,254.447,604.053z
			 M348.453,601.692c-0.732,0-1.385-0.518-1.528-1.263c-0.162-0.845,0.391-1.661,1.235-1.823c2.35-0.452,4.731-0.943,7.078-1.457
			c0.841-0.19,1.671,0.347,1.855,1.187c0.184,0.84-0.347,1.671-1.188,1.855c-2.373,0.521-4.781,1.017-7.156,1.473
			C348.65,601.683,348.551,601.692,348.453,601.692z M240.112,601.663c-0.098,0-0.197-0.009-0.297-0.028
			c-2.386-0.461-4.793-0.958-7.156-1.478c-0.84-0.185-1.372-1.015-1.186-1.856c0.185-0.841,1.014-1.375,1.856-1.186
			c2.336,0.513,4.718,1.005,7.078,1.461c0.845,0.163,1.397,0.981,1.234,1.824C241.496,601.146,240.843,601.663,240.112,601.663z
			 M362.648,598.58c-0.7,0-1.337-0.475-1.511-1.185c-0.206-0.835,0.305-1.679,1.14-1.884c2.332-0.575,4.685-1.186,6.995-1.818
			c0.834-0.231,1.687,0.262,1.914,1.09c0.227,0.831-0.261,1.686-1.09,1.915c-2.335,0.639-4.715,1.257-7.073,1.838
			C362.897,598.565,362.772,598.58,362.648,598.58z M225.917,598.542c-0.123,0-0.249-0.014-0.374-0.046
			c-2.368-0.584-4.747-1.204-7.072-1.843c-0.83-0.228-1.317-1.085-1.089-1.915c0.228-0.831,1.086-1.318,1.915-1.089
			c2.299,0.632,4.652,1.244,6.993,1.822c0.835,0.206,1.345,1.05,1.139,1.885C227.253,598.068,226.617,598.542,225.917,598.542z
			 M376.667,594.745c-0.669,0-1.288-0.434-1.491-1.108c-0.247-0.823,0.219-1.692,1.042-1.941c2.284-0.688,4.603-1.419,6.893-2.174
			c0.819-0.267,1.699,0.174,1.967,0.992c0.269,0.817-0.174,1.698-0.992,1.967c-2.315,0.763-4.661,1.503-6.97,2.198
			C376.967,594.724,376.816,594.745,376.667,594.745z M211.878,594.691c-0.149,0-0.301-0.021-0.451-0.067
			c-2.356-0.712-4.708-1.455-6.989-2.211c-0.817-0.27-1.259-1.151-0.99-1.968c0.271-0.817,1.151-1.26,1.968-0.989
			c2.256,0.746,4.582,1.482,6.912,2.186c0.823,0.248,1.289,1.118,1.04,1.941C213.165,594.257,212.546,594.691,211.878,594.691z
			 M390.448,590.206c-0.639,0-1.238-0.397-1.466-1.032c-0.29-0.81,0.132-1.702,0.941-1.992c2.265-0.811,4.537-1.658,6.753-2.515
			c0.805-0.31,1.706,0.087,2.015,0.89c0.311,0.802-0.087,1.704-0.889,2.014c-2.241,0.868-4.538,1.723-6.828,2.543
			C390.8,590.176,390.622,590.206,390.448,590.206z M198.037,590.119c-0.175,0-0.352-0.029-0.526-0.091
			c-2.29-0.822-4.599-1.684-6.863-2.564c-0.802-0.311-1.2-1.214-0.888-2.016c0.311-0.801,1.21-1.201,2.016-0.888
			c2.239,0.869,4.523,1.723,6.788,2.535c0.81,0.291,1.231,1.182,0.94,1.993C199.274,589.724,198.675,590.119,198.037,590.119z
			 M403.965,584.976c-0.61,0-1.19-0.36-1.439-0.958c-0.331-0.794,0.045-1.706,0.839-2.037c2.218-0.924,4.446-1.885,6.622-2.857
			c0.784-0.352,1.706,0.001,2.057,0.787c0.351,0.785-0.001,1.707-0.787,2.057c-2.2,0.983-4.452,1.955-6.693,2.889
			C404.367,584.937,404.164,584.976,403.965,584.976z M184.456,584.849c-0.2,0-0.404-0.039-0.6-0.121
			c-2.234-0.933-4.495-1.912-6.718-2.907c-0.785-0.352-1.136-1.274-0.784-2.059c0.351-0.785,1.273-1.136,2.058-0.785
			c2.2,0.986,4.436,1.954,6.645,2.877c0.794,0.332,1.169,1.243,0.837,2.037C185.644,584.489,185.065,584.849,184.456,584.849z
			 M417.205,579.063c-0.582,0-1.14-0.326-1.406-0.886c-0.371-0.777-0.042-1.707,0.734-2.077c2.163-1.032,4.34-2.105,6.473-3.189
			c0.768-0.392,1.705-0.084,2.094,0.682c0.39,0.767,0.084,1.705-0.682,2.094c-2.155,1.096-4.356,2.18-6.542,3.224
			C417.659,579.014,417.43,579.063,417.205,579.063z M171.168,578.897c-0.226,0-0.455-0.049-0.672-0.153
			c-2.205-1.056-4.411-2.147-6.559-3.243c-0.766-0.391-1.07-1.329-0.679-2.095s1.328-1.07,2.096-0.679
			c2.124,1.084,4.307,2.164,6.488,3.209c0.776,0.371,1.104,1.301,0.732,2.077C172.306,578.571,171.748,578.897,171.168,578.897z
			 M430.139,572.488c-0.554,0-1.089-0.295-1.371-0.816c-0.41-0.756-0.128-1.702,0.629-2.111c2.102-1.137,4.225-2.319,6.307-3.514
			c0.747-0.426,1.699-0.169,2.126,0.577c0.427,0.746,0.169,1.699-0.577,2.127c-2.105,1.206-4.25,2.401-6.374,3.55
			C430.644,572.428,430.389,572.488,430.139,572.488z M158.206,572.284c-0.251,0-0.506-0.061-0.741-0.189
			c-2.129-1.155-4.277-2.356-6.384-3.568c-0.746-0.429-1.002-1.381-0.573-2.127c0.429-0.746,1.381-1.003,2.127-0.573
			c2.084,1.199,4.209,2.387,6.316,3.53c0.756,0.411,1.036,1.356,0.626,2.112C159.295,571.989,158.759,572.284,158.206,572.284z
			 M442.731,565.266c-0.525,0-1.039-0.267-1.332-0.748c-0.446-0.735-0.213-1.694,0.522-2.141c2.066-1.254,4.127-2.541,6.127-3.826
			c0.724-0.462,1.687-0.255,2.153,0.469c0.464,0.724,0.255,1.687-0.47,2.153c-2.022,1.297-4.105,2.598-6.192,3.867
			C443.286,565.193,443.007,565.266,442.731,565.266z M145.599,565.029c-0.276,0-0.556-0.073-0.809-0.227
			c-2.087-1.273-4.171-2.579-6.194-3.883c-0.723-0.466-0.931-1.43-0.465-2.153c0.467-0.724,1.431-0.932,2.153-0.465
			c2.001,1.29,4.062,2.582,6.128,3.84c0.734,0.448,0.967,1.406,0.519,2.141C146.637,564.763,146.124,565.029,145.599,565.029z
			 M454.952,557.423c-0.499,0-0.99-0.239-1.291-0.685c-0.483-0.712-0.296-1.68,0.417-2.163c1.97-1.333,3.966-2.722,5.931-4.126
			c0.701-0.499,1.673-0.339,2.173,0.362c0.5,0.7,0.338,1.673-0.362,2.173c-1.987,1.419-4.005,2.822-5.996,4.171
			C455.556,557.336,455.253,557.423,454.952,557.423z M133.375,557.157c-0.301,0-0.606-0.087-0.874-0.27
			c-1.999-1.359-4.015-2.766-5.991-4.183c-0.699-0.501-0.859-1.474-0.358-2.173c0.501-0.698,1.474-0.861,2.174-0.358
			c1.955,1.401,3.949,2.794,5.927,4.138c0.711,0.483,0.896,1.452,0.413,2.163C134.364,556.919,133.874,557.157,133.375,557.157z
			 M466.776,548.979c-0.473,0-0.94-0.214-1.245-0.622c-0.517-0.688-0.379-1.664,0.308-2.181c1.907-1.435,3.833-2.92,5.722-4.416
			c0.674-0.535,1.654-0.42,2.187,0.255c0.534,0.674,0.421,1.654-0.255,2.187c-1.908,1.512-3.854,3.014-5.783,4.464
			C467.431,548.877,467.103,548.979,466.776,548.979z M121.563,548.69c-0.327,0-0.657-0.102-0.938-0.314
			c-1.949-1.471-3.892-2.976-5.775-4.472c-0.674-0.535-0.786-1.515-0.25-2.189c0.534-0.672,1.515-0.785,2.188-0.25
			c1.863,1.481,3.785,2.969,5.714,4.425c0.687,0.518,0.823,1.495,0.305,2.182C122.501,548.477,122.034,548.69,121.563,548.69z
			 M478.172,539.958c-0.447,0-0.89-0.191-1.198-0.561c-0.551-0.661-0.461-1.643,0.2-2.193c1.859-1.549,3.709-3.127,5.501-4.695
			c0.647-0.567,1.632-0.502,2.197,0.147c0.567,0.647,0.501,1.631-0.147,2.197c-1.81,1.584-3.68,3.18-5.558,4.744
			C478.877,539.84,478.523,539.958,478.172,539.958z M110.186,539.655c-0.352,0-0.706-0.119-0.997-0.362
			c-1.851-1.545-3.717-3.144-5.546-4.748c-0.646-0.568-0.711-1.552-0.143-2.199c0.567-0.647,1.552-0.71,2.198-0.144
			c1.81,1.589,3.657,3.17,5.488,4.699c0.66,0.552,0.748,1.534,0.197,2.194C111.075,539.464,110.632,539.655,110.186,539.655z
			 M489.112,530.386c-0.42,0-0.84-0.169-1.147-0.503c-0.582-0.634-0.54-1.619,0.092-2.202c1.76-1.617,3.533-3.287,5.268-4.961
			c0.619-0.595,1.604-0.58,2.203,0.041c0.596,0.619,0.579,1.605-0.041,2.203c-1.752,1.69-3.543,3.377-5.321,5.012
			C489.867,530.25,489.489,530.386,489.112,530.386z M99.27,530.075c-0.377,0-0.755-0.136-1.055-0.413
			c-1.773-1.634-3.558-3.319-5.306-5.011c-0.619-0.598-0.635-1.584-0.037-2.203c0.599-0.618,1.585-0.633,2.203-0.036
			c1.73,1.674,3.497,3.342,5.251,4.959c0.632,0.583,0.673,1.569,0.09,2.202C100.109,529.907,99.691,530.075,99.27,530.075z
			 M499.578,520.286c-0.395,0-0.791-0.149-1.094-0.449c-0.612-0.604-0.619-1.59-0.014-2.203c1.692-1.715,3.381-3.468,5.02-5.211
			c0.589-0.628,1.573-0.657,2.202-0.068c0.627,0.589,0.657,1.575,0.068,2.202c-1.655,1.761-3.362,3.533-5.072,5.266
			C500.382,520.131,499.98,520.286,499.578,520.286z M88.838,519.977c-0.403,0-0.805-0.155-1.11-0.465
			c-1.701-1.728-3.402-3.499-5.055-5.263c-0.588-0.628-0.556-1.613,0.071-2.202c0.628-0.587,1.614-0.556,2.202,0.072
			c1.636,1.745,3.319,3.497,5.002,5.208c0.603,0.612,0.595,1.599-0.018,2.203C89.627,519.828,89.232,519.977,88.838,519.977z
			 M509.542,509.688c-0.369,0-0.74-0.131-1.038-0.397c-0.641-0.574-0.695-1.559-0.121-2.2c1.601-1.788,3.204-3.622,4.763-5.451
			c0.558-0.653,1.54-0.73,2.196-0.174c0.654,0.559,0.732,1.541,0.174,2.197c-1.576,1.848-3.195,3.7-4.814,5.507
			C510.396,509.513,509.97,509.688,509.542,509.688z M78.911,509.39c-0.428,0-0.854-0.175-1.162-0.52
			c-1.615-1.808-3.227-3.658-4.793-5.498c-0.557-0.655-0.478-1.638,0.177-2.195c0.654-0.557,1.637-0.478,2.195,0.177
			c1.549,1.821,3.145,3.652,4.743,5.441c0.573,0.642,0.518,1.626-0.124,2.2C79.651,509.259,79.28,509.39,78.911,509.39z
			 M518.985,498.618c-0.345,0-0.692-0.114-0.981-0.348c-0.667-0.542-0.77-1.523-0.228-2.191c1.531-1.888,3.045-3.798,4.497-5.677
			c0.524-0.681,1.505-0.805,2.184-0.28c0.681,0.526,0.806,1.504,0.28,2.184c-1.467,1.898-2.996,3.828-4.542,5.736
			C519.888,498.421,519.439,498.618,518.985,498.618z M69.51,498.339c-0.454,0-0.904-0.197-1.211-0.577
			c-1.517-1.872-3.038-3.797-4.521-5.72c-0.525-0.681-0.399-1.659,0.282-2.184c0.682-0.525,1.659-0.398,2.185,0.282
			c1.468,1.903,2.974,3.809,4.475,5.662c0.542,0.668,0.439,1.65-0.23,2.191C70.201,498.225,69.854,498.339,69.51,498.339z
			 M527.885,487.098c-0.32,0-0.644-0.098-0.922-0.302c-0.693-0.51-0.842-1.485-0.333-2.178c1.428-1.942,2.848-3.922,4.22-5.887
			c0.492-0.708,1.463-0.877,2.169-0.385c0.705,0.492,0.877,1.463,0.384,2.168c-1.386,1.986-2.82,3.986-4.262,5.95
			C528.836,486.878,528.364,487.098,527.885,487.098z M60.654,486.851c-0.479,0-0.952-0.22-1.257-0.637
			c-1.424-1.942-2.851-3.937-4.24-5.927c-0.492-0.706-0.319-1.676,0.386-2.169c0.707-0.49,1.677-0.317,2.169,0.386
			c1.376,1.971,2.787,3.946,4.197,5.868c0.509,0.694,0.359,1.668-0.335,2.177C61.296,486.752,60.973,486.851,60.654,486.851z
			 M536.224,475.162c-0.296,0-0.595-0.084-0.861-0.26c-0.716-0.476-0.912-1.443-0.436-2.159c1.318-1.986,2.641-4.033,3.933-6.085
			c0.458-0.729,1.422-0.947,2.148-0.489c0.728,0.458,0.947,1.42,0.489,2.148c-1.305,2.074-2.642,4.142-3.973,6.148
			C537.222,474.918,536.728,475.162,536.224,475.162z M52.361,474.957c-0.505,0-1-0.245-1.3-0.698
			c-1.345-2.03-2.673-4.09-3.95-6.123c-0.457-0.729-0.238-1.69,0.491-2.148c0.729-0.456,1.69-0.236,2.148,0.491
			c1.263,2.012,2.578,4.051,3.909,6.06c0.475,0.717,0.279,1.683-0.439,2.159C52.955,474.872,52.656,474.957,52.361,474.957z
			 M543.98,462.836c-0.272,0-0.547-0.071-0.796-0.219c-0.739-0.441-0.982-1.396-0.542-2.136c1.24-2.082,2.464-4.191,3.637-6.27
			c0.424-0.748,1.373-1.011,2.122-0.591c0.749,0.423,1.014,1.373,0.591,2.122c-1.185,2.1-2.422,4.231-3.674,6.333
			C545.028,462.566,544.51,462.836,543.98,462.836z M44.65,462.682c-0.531,0-1.049-0.272-1.34-0.761
			c-1.244-2.091-2.473-4.211-3.651-6.302c-0.422-0.749-0.157-1.7,0.593-2.121c0.75-0.427,1.7-0.158,2.121,0.592
			c1.166,2.07,2.382,4.169,3.614,6.238c0.44,0.739,0.197,1.696-0.542,2.136C45.196,462.611,44.921,462.682,44.65,462.682z
			 M551.137,450.146c-0.247,0-0.499-0.059-0.732-0.184c-0.76-0.405-1.047-1.349-0.641-2.107c1.12-2.099,2.241-4.265,3.334-6.437
			c0.385-0.768,1.323-1.081,2.091-0.692c0.769,0.386,1.078,1.322,0.692,2.091c-1.103,2.195-2.237,4.384-3.369,6.504
			C552.233,449.847,551.694,450.146,551.137,450.146z M37.535,450.06c-0.557,0-1.096-0.299-1.376-0.825
			c-1.137-2.135-2.263-4.311-3.346-6.467c-0.386-0.769-0.076-1.705,0.693-2.091c0.766-0.384,1.705-0.075,2.091,0.693
			c1.072,2.135,2.186,4.287,3.311,6.401c0.405,0.76,0.117,1.703-0.642,2.107C38.032,450.001,37.782,450.06,37.535,450.06z
			 M557.684,437.128c-0.223,0-0.449-0.048-0.664-0.149c-0.778-0.368-1.11-1.297-0.743-2.074c1.033-2.185,2.05-4.404,3.023-6.593
			c0.35-0.785,1.267-1.142,2.057-0.791c0.786,0.35,1.14,1.271,0.791,2.057c-0.983,2.212-2.01,4.452-3.053,6.658
			C558.827,436.798,558.267,437.128,557.684,437.128z M31.032,437.119c-0.584,0-1.143-0.329-1.409-0.891
			c-1.038-2.194-2.063-4.429-3.045-6.641c-0.349-0.786,0.006-1.707,0.791-2.056c0.788-0.351,1.707,0.006,2.056,0.792
			c0.971,2.188,1.986,4.4,3.013,6.572c0.368,0.778,0.035,1.707-0.742,2.074C31.481,437.071,31.255,437.119,31.032,437.119z
			 M25.131,423.836c-0.61,0-1.19-0.361-1.438-0.959c-0.925-2.224-1.842-4.505-2.725-6.778c-0.311-0.802,0.086-1.705,0.888-2.016
			c0.801-0.314,1.704,0.086,2.016,0.888c0.874,2.25,1.781,4.508,2.697,6.709c0.331,0.794-0.046,1.706-0.84,2.036
			C25.533,423.798,25.33,423.836,25.131,423.836z M563.6,423.804c-0.199,0-0.402-0.039-0.597-0.12
			c-0.794-0.331-1.17-1.242-0.84-2.036c0.924-2.22,1.834-4.485,2.706-6.731c0.311-0.803,1.213-1.201,2.016-0.888
			c0.801,0.311,1.2,1.214,0.888,2.016c-0.88,2.269-1.8,4.557-2.734,6.8C564.791,423.443,564.211,423.804,563.6,423.804z
			 M19.87,410.287c-0.638,0-1.236-0.395-1.465-1.028c-0.828-2.294-1.636-4.615-2.399-6.9c-0.273-0.816,0.167-1.699,0.983-1.971
			c0.816-0.273,1.699,0.168,1.971,0.984c0.755,2.261,1.555,4.559,2.374,6.829c0.293,0.809-0.127,1.702-0.935,1.995
			C20.225,410.258,20.046,410.287,19.87,410.287z M568.879,410.208c-0.175,0-0.354-0.029-0.529-0.092
			c-0.808-0.292-1.228-1.185-0.936-1.995c0.816-2.261,1.618-4.567,2.382-6.855c0.273-0.815,1.151-1.258,1.971-0.984
			c0.815,0.273,1.256,1.155,0.984,1.971c-0.773,2.311-1.582,4.641-2.406,6.926C570.115,409.814,569.516,410.208,568.879,410.208z
			 M15.259,396.504c-0.666,0-1.282-0.43-1.488-1.099c-0.717-2.328-1.414-4.685-2.069-7.006c-0.234-0.827,0.248-1.688,1.075-1.922
			c0.827-0.237,1.688,0.247,1.922,1.076c0.648,2.296,1.338,4.629,2.048,6.935c0.253,0.821-0.208,1.694-1.03,1.947
			C15.566,396.482,15.411,396.504,15.259,396.504z M573.493,396.398c-0.151,0-0.305-0.022-0.458-0.069
			c-0.822-0.254-1.284-1.125-1.03-1.947c0.706-2.293,1.394-4.627,2.046-6.935c0.233-0.827,1.097-1.314,1.922-1.076
			c0.828,0.233,1.31,1.094,1.076,1.922c-0.658,2.332-1.354,4.689-2.067,7.006C574.775,395.968,574.159,396.398,573.493,396.398z
			 M11.307,382.517c-0.694,0-1.327-0.466-1.507-1.169c-0.603-2.348-1.187-4.735-1.735-7.096c-0.194-0.838,0.328-1.675,1.166-1.869
			c0.84-0.196,1.675,0.327,1.869,1.165c0.542,2.337,1.12,4.701,1.717,7.023c0.214,0.834-0.287,1.682-1.121,1.897
			C11.566,382.502,11.436,382.517,11.307,382.517z M577.44,382.411c-0.128,0-0.259-0.015-0.388-0.049
			c-0.834-0.214-1.336-1.063-1.122-1.896c0.599-2.333,1.176-4.696,1.716-7.025c0.194-0.836,1.022-1.36,1.869-1.165
			c0.838,0.194,1.36,1.03,1.165,1.868c-0.545,2.353-1.128,4.741-1.732,7.097C578.768,381.943,578.135,382.411,577.44,382.411z
			 M8.022,368.36c-0.723,0-1.371-0.506-1.524-1.241c-0.492-2.373-0.962-4.785-1.398-7.169c-0.155-0.846,0.406-1.657,1.252-1.812
			c0.842-0.154,1.658,0.406,1.813,1.252c0.431,2.36,0.897,4.748,1.384,7.096c0.174,0.843-0.367,1.667-1.209,1.842
			C8.233,368.349,8.126,368.36,8.022,368.36z M580.721,368.249c-0.105,0-0.211-0.01-0.317-0.032
			c-0.843-0.174-1.384-0.998-1.21-1.841c0.488-2.359,0.953-4.747,1.382-7.099c0.154-0.847,0.973-1.409,1.812-1.252
			c0.846,0.154,1.406,0.965,1.252,1.812c-0.434,2.375-0.904,4.787-1.396,7.169C582.092,367.743,581.444,368.249,580.721,368.249z
			 M5.408,354.063c-0.752,0-1.415-0.547-1.536-1.313c-0.379-2.386-0.735-4.818-1.06-7.227c-0.115-0.853,0.484-1.637,1.336-1.751
			c0.852-0.121,1.637,0.484,1.751,1.336c0.321,2.385,0.674,4.793,1.049,7.154c0.135,0.85-0.445,1.648-1.294,1.783
			C5.571,354.057,5.489,354.063,5.408,354.063z M583.33,353.952c-0.081,0-0.162-0.006-0.245-0.019
			c-0.85-0.134-1.43-0.932-1.295-1.782c0.375-2.376,0.727-4.783,1.047-7.155c0.114-0.852,0.891-1.46,1.751-1.336
			c0.852,0.115,1.45,0.898,1.336,1.751c-0.321,2.394-0.677,4.826-1.057,7.226C584.746,353.404,584.084,353.952,583.33,353.952z
			 M3.467,339.66c-0.783,0-1.458-0.589-1.546-1.386c-0.269-2.417-0.511-4.862-0.72-7.268c-0.075-0.857,0.559-1.611,1.416-1.686
			c0.848-0.074,1.612,0.559,1.687,1.417c0.208,2.381,0.448,4.802,0.713,7.195c0.095,0.855-0.521,1.625-1.376,1.72
			C3.582,339.657,3.524,339.66,3.467,339.66z M2.201,325.182c-0.815,0-1.5-0.634-1.553-1.458c-0.155-2.426-0.284-4.88-0.382-7.293
			c-0.035-0.86,0.633-1.585,1.493-1.62c0.868-0.049,1.584,0.634,1.619,1.494c0.097,2.389,0.225,4.819,0.379,7.221
			c0.055,0.858-0.596,1.599-1.455,1.654C2.268,325.181,2.235,325.182,2.201,325.182z M1.608,310.674
			c-0.847,0-1.541-0.679-1.557-1.529C0.017,307.24,0,305.331,0,303.418l0.004-1.577c0.004-0.858,0.701-1.551,1.558-1.551
			c0.003,0,0.005,0,0.008,0c0.86,0.004,1.554,0.705,1.55,1.565l-0.004,1.563c-0.001,1.895,0.017,3.786,0.051,5.671
			c0.015,0.861-0.67,1.571-1.53,1.586C1.627,310.674,1.617,310.674,1.608,310.674z M587.154,302.535
			c-0.855,0-1.551-0.69-1.558-1.545c-0.019-2.404-0.066-4.835-0.139-7.225c-0.026-0.86,0.649-1.578,1.509-1.604
			c0.833-0.064,1.579,0.649,1.604,1.509c0.074,2.414,0.122,4.869,0.141,7.296c0.007,0.86-0.686,1.563-1.545,1.57
			C587.162,302.535,587.158,302.535,587.154,302.535z M1.682,296.14c-0.015,0-0.03,0-0.045-0.001c-0.86-0.023-1.537-0.74-1.513-1.6
			c0.068-2.436,0.165-4.891,0.288-7.297c0.044-0.859,0.766-1.52,1.635-1.477c0.859,0.044,1.52,0.776,1.476,1.635
			c-0.122,2.383-0.218,4.815-0.285,7.226C3.214,295.47,2.521,296.14,1.682,296.14z M586.708,288.014
			c-0.822,0-1.51-0.643-1.555-1.473c-0.13-2.402-0.288-4.831-0.471-7.217c-0.067-0.858,0.575-1.606,1.433-1.672
			c0.855-0.085,1.606,0.574,1.673,1.433c0.185,2.41,0.346,4.862,0.477,7.288c0.046,0.859-0.612,1.593-1.471,1.64
			C586.765,288.013,586.736,288.014,586.708,288.014z M2.422,281.625c-0.039,0-0.078-0.001-0.117-0.004
			c-0.858-0.064-1.502-0.811-1.438-1.669c0.179-2.415,0.389-4.862,0.625-7.276c0.084-0.857,0.847-1.489,1.702-1.399
			c0.856,0.084,1.483,0.846,1.399,1.702c-0.233,2.389-0.441,4.814-0.618,7.205C3.913,281.002,3.23,281.625,2.422,281.625z
			 M585.589,273.523c-0.79,0-1.467-0.599-1.547-1.402c-0.237-2.365-0.509-4.782-0.806-7.186c-0.106-0.854,0.5-1.632,1.354-1.737
			c0.853-0.106,1.632,0.5,1.737,1.354c0.301,2.428,0.575,4.87,0.814,7.259c0.086,0.856-0.538,1.619-1.394,1.705
			C585.694,273.521,585.641,273.523,585.589,273.523z M3.835,267.161c-0.062,0-0.126-0.004-0.189-0.011
			c-0.854-0.103-1.463-0.88-1.359-1.734c0.291-2.397,0.615-4.833,0.964-7.239c0.124-0.852,0.913-1.442,1.765-1.318
			c0.851,0.124,1.441,0.914,1.318,1.764c-0.345,2.383-0.666,4.796-0.954,7.168C5.283,266.581,4.611,267.161,3.835,267.161z
			 M583.8,259.1c-0.76,0-1.424-0.556-1.538-1.329c-0.355-2.393-0.739-4.796-1.143-7.141c-0.146-0.848,0.424-1.653,1.272-1.799
			c0.846-0.141,1.653,0.424,1.799,1.272c0.408,2.368,0.795,4.795,1.153,7.212c0.127,0.851-0.461,1.643-1.312,1.769
			C583.953,259.095,583.876,259.1,583.8,259.1z M5.921,252.777c-0.087,0-0.174-0.007-0.262-0.021
			c-0.848-0.144-1.42-0.948-1.276-1.796c0.405-2.397,0.843-4.815,1.303-7.188c0.163-0.844,0.975-1.393,1.825-1.233
			c0.844,0.163,1.396,0.981,1.233,1.825c-0.454,2.349-0.888,4.742-1.289,7.115C7.327,252.24,6.667,252.777,5.921,252.777z
			 M581.339,244.777c-0.729,0-1.38-0.514-1.526-1.257c-0.464-2.362-0.961-4.744-1.478-7.079c-0.186-0.84,0.345-1.671,1.185-1.857
			c0.843-0.189,1.672,0.346,1.857,1.185c0.52,2.359,1.022,4.764,1.492,7.15c0.166,0.844-0.383,1.662-1.228,1.828
			C581.539,244.768,581.439,244.777,581.339,244.777z M8.68,238.508c-0.11,0-0.222-0.011-0.333-0.035
			c-0.841-0.184-1.374-1.013-1.191-1.854c0.514-2.358,1.066-4.753,1.64-7.118c0.203-0.837,1.047-1.344,1.881-1.147
			c0.836,0.203,1.349,1.046,1.146,1.881c-0.568,2.341-1.114,4.712-1.623,7.047C10.042,238.011,9.397,238.508,8.68,238.508z
			 M578.204,230.585c-0.701,0-1.337-0.475-1.511-1.185c-0.575-2.334-1.184-4.689-1.811-7.001c-0.224-0.831,0.266-1.686,1.096-1.911
			c0.835-0.227,1.686,0.265,1.911,1.095c0.634,2.335,1.248,4.714,1.829,7.072c0.205,0.836-0.305,1.679-1.141,1.884
			C578.452,230.571,578.327,230.585,578.204,230.585z M12.11,224.384c-0.133,0-0.269-0.017-0.404-0.053
			c-0.831-0.223-1.324-1.077-1.101-1.908c0.625-2.33,1.289-4.697,1.974-7.032c0.242-0.826,1.106-1.299,1.933-1.057
			c0.825,0.242,1.298,1.107,1.056,1.933c-0.678,2.312-1.336,4.655-1.955,6.963C13.427,223.926,12.798,224.384,12.11,224.384z
			 M574.401,216.558c-0.671,0-1.291-0.437-1.492-1.114c-0.685-2.304-1.404-4.627-2.141-6.907c-0.264-0.818,0.186-1.697,1.004-1.961
			c0.822-0.261,1.698,0.187,1.961,1.004c0.743,2.303,1.47,4.651,2.161,6.978c0.245,0.824-0.225,1.691-1.05,1.937
			C574.697,216.537,574.548,216.558,574.401,216.558z M16.204,210.44c-0.157,0-0.317-0.023-0.475-0.074
			c-0.819-0.262-1.272-1.139-1.01-1.958c0.736-2.303,1.512-4.635,2.306-6.93c0.28-0.812,1.17-1.243,1.981-0.963
			c0.813,0.282,1.244,1.168,0.963,1.981c-0.786,2.273-1.554,4.581-2.283,6.861C17.476,210.018,16.863,210.44,16.204,210.44z
			 M569.937,202.727c-0.644,0-1.246-0.402-1.47-1.044c-0.797-2.281-1.626-4.567-2.465-6.797c-0.302-0.805,0.104-1.704,0.91-2.007
			c0.802-0.302,1.704,0.103,2.007,0.91c0.847,2.253,1.684,4.563,2.49,6.868c0.284,0.811-0.145,1.7-0.956,1.984
			C570.281,202.699,570.108,202.727,569.937,202.727z M20.956,196.704c-0.181,0-0.365-0.031-0.544-0.098
			c-0.806-0.3-1.216-1.198-0.915-2.004c0.849-2.276,1.738-4.578,2.643-6.839c0.319-0.799,1.228-1.188,2.025-0.868
			c0.799,0.319,1.187,1.226,0.868,2.024c-0.895,2.24-1.776,4.519-2.616,6.772C22.182,196.318,21.588,196.704,20.956,196.704z
			 M564.822,189.122c-0.616,0-1.2-0.368-1.444-0.975c-0.908-2.245-1.845-4.49-2.786-6.674c-0.341-0.79,0.023-1.706,0.813-2.046
			c0.787-0.344,1.706,0.023,2.046,0.813c0.951,2.205,1.898,4.473,2.814,6.741c0.323,0.797-0.063,1.705-0.861,2.027
			C565.215,189.085,565.017,189.122,564.822,189.122z M26.376,183.161c-0.205,0-0.413-0.041-0.613-0.126
			c-0.79-0.339-1.157-1.254-0.818-2.045c0.956-2.232,1.954-4.486,2.966-6.702c0.357-0.783,1.279-1.131,2.064-0.77
			c0.782,0.357,1.127,1.281,0.77,2.064c-1.001,2.193-1.989,4.425-2.935,6.635C27.556,182.807,26.981,183.161,26.376,183.161z
			 M559.064,175.777c-0.589,0-1.153-0.336-1.416-0.907c-1.003-2.18-2.042-4.37-3.089-6.508c-0.378-0.773-0.058-1.706,0.715-2.084
			c0.772-0.376,1.706-0.059,2.084,0.715c1.057,2.161,2.106,4.373,3.119,6.575c0.36,0.782,0.018,1.707-0.764,2.066
			C559.504,175.731,559.282,175.777,559.064,175.777z M32.436,169.899c-0.229,0-0.461-0.05-0.68-0.157
			c-0.773-0.376-1.096-1.308-0.719-2.082c1.059-2.176,2.163-4.38,3.282-6.55c0.394-0.765,1.334-1.064,2.098-0.67
			c0.765,0.394,1.065,1.333,0.67,2.098c-1.108,2.149-2.201,4.33-3.249,6.485C33.568,169.577,33.014,169.899,32.436,169.899z
			 M552.701,162.768c-0.563,0-1.106-0.306-1.383-0.841c-1.1-2.118-2.242-4.257-3.396-6.356c-0.415-0.754-0.139-1.701,0.615-2.115
			c0.754-0.416,1.701-0.14,2.115,0.615c1.166,2.121,2.32,4.282,3.431,6.423c0.396,0.763,0.098,1.704-0.665,2.099
			C553.188,162.712,552.944,162.768,552.701,162.768z M39.121,156.946c-0.253,0-0.509-0.061-0.746-0.191
			c-0.755-0.413-1.032-1.36-0.619-2.114c1.168-2.136,2.375-4.283,3.591-6.384c0.43-0.744,1.383-1,2.128-0.569
			s0.999,1.384,0.568,2.129c-1.203,2.079-2.398,4.205-3.554,6.319C40.206,156.653,39.672,156.946,39.121,156.946z M545.723,150.072
			c-0.536,0-1.059-0.277-1.348-0.775c-1.212-2.085-2.456-4.168-3.697-6.191c-0.45-0.733-0.22-1.692,0.513-2.142
			c0.731-0.449,1.691-0.221,2.142,0.513c1.254,2.043,2.511,4.148,3.736,6.254c0.432,0.743,0.18,1.697-0.564,2.13
			C546.259,150.004,545.99,150.072,545.723,150.072z M46.416,144.333c-0.277,0-0.557-0.074-0.811-0.228
			c-0.734-0.449-0.965-1.408-0.517-2.142c1.257-2.058,2.566-4.145,3.891-6.202c0.465-0.723,1.429-0.932,2.153-0.465
			c0.724,0.465,0.932,1.429,0.466,2.153c-1.312,2.036-2.608,4.102-3.852,6.139C47.453,144.069,46.941,144.333,46.416,144.333z
			 M538.143,137.717c-0.51,0-1.011-0.25-1.309-0.712c-1.296-2.005-2.638-4.026-3.988-6.008c-0.485-0.711-0.301-1.68,0.41-2.164
			c0.712-0.486,1.681-0.3,2.164,0.41c1.365,2.003,2.721,4.046,4.031,6.071c0.466,0.722,0.26,1.686-0.462,2.154
			C538.726,137.637,538.433,137.717,538.143,137.717z M54.306,132.089c-0.301,0-0.605-0.087-0.873-0.269
			c-0.712-0.484-0.897-1.452-0.414-2.164c1.354-1.994,2.761-4.015,4.184-6.006c0.5-0.699,1.472-0.861,2.173-0.362
			c0.7,0.5,0.862,1.472,0.363,2.173c-1.408,1.97-2.801,3.971-4.141,5.945C55.295,131.849,54.805,132.089,54.306,132.089z
			 M529.98,125.734c-0.485,0-0.962-0.226-1.267-0.65c-1.401-1.954-2.838-3.909-4.273-5.813c-0.518-0.688-0.381-1.664,0.305-2.181
			c0.687-0.519,1.664-0.382,2.181,0.305c1.45,1.924,2.903,3.899,4.318,5.873c0.502,0.7,0.341,1.672-0.358,2.173
			C530.612,125.64,530.294,125.734,529.98,125.734z M62.773,120.241c-0.326,0-0.655-0.101-0.935-0.312
			c-0.688-0.517-0.826-1.494-0.309-2.181c1.448-1.926,2.95-3.876,4.466-5.795c0.533-0.676,1.513-0.791,2.188-0.257
			c0.675,0.532,0.79,1.512,0.257,2.187c-1.501,1.9-2.988,3.83-4.421,5.737C63.713,120.026,63.246,120.241,62.773,120.241z
			 M521.249,114.154c-0.459,0-0.915-0.203-1.222-0.59c-1.49-1.88-3.02-3.765-4.55-5.603c-0.55-0.661-0.46-1.644,0.201-2.194
			c0.661-0.549,1.645-0.459,2.194,0.201c1.545,1.858,3.092,3.762,4.597,5.662c0.534,0.674,0.421,1.654-0.254,2.188
			C521.929,114.044,521.587,114.154,521.249,114.154z M71.798,108.82c-0.35,0-0.703-0.118-0.994-0.359
			c-0.662-0.55-0.753-1.531-0.204-2.193c1.545-1.862,3.14-3.737,4.74-5.572c0.566-0.65,1.549-0.717,2.197-0.151
			c0.648,0.565,0.716,1.549,0.151,2.197c-1.584,1.817-3.162,3.673-4.691,5.516C72.689,108.628,72.245,108.82,71.798,108.82z
			 M511.966,103.002c-0.435,0-0.866-0.181-1.174-0.533c-1.57-1.798-3.19-3.607-4.815-5.379c-0.581-0.634-0.538-1.618,0.095-2.201
			c0.633-0.579,1.618-0.539,2.201,0.095c1.642,1.789,3.278,3.618,4.865,5.435c0.566,0.648,0.499,1.632-0.149,2.197
			C512.694,102.875,512.329,103.002,511.966,103.002z M81.361,97.849c-0.376,0-0.752-0.135-1.051-0.409
			c-0.635-0.581-0.678-1.566-0.097-2.201c1.629-1.78,3.312-3.575,5.002-5.334c0.596-0.621,1.581-0.64,2.202-0.045
			c0.621,0.596,0.64,1.582,0.044,2.203c-1.673,1.742-3.338,3.518-4.951,5.279C82.203,97.678,81.783,97.849,81.361,97.849z
			 M502.157,92.307c-0.409,0-0.816-0.159-1.122-0.477c-1.676-1.74-3.383-3.47-5.072-5.14c-0.611-0.604-0.618-1.591-0.012-2.203
			c0.604-0.611,1.591-0.618,2.203-0.012c1.707,1.687,3.432,3.436,5.125,5.193c0.597,0.62,0.579,1.606-0.041,2.203
			C502.936,92.162,502.546,92.307,502.157,92.307z M91.441,87.359c-0.401,0-0.802-0.154-1.106-0.461
			c-0.606-0.61-0.602-1.596,0.009-2.203c1.709-1.695,3.477-3.405,5.254-5.084c0.625-0.591,1.612-0.562,2.202,0.063
			c0.591,0.626,0.563,1.611-0.063,2.203c-1.759,1.661-3.508,3.354-5.2,5.031C92.234,87.209,91.838,87.359,91.441,87.359z
			 M491.836,82.097c-0.383,0-0.767-0.14-1.068-0.424c-1.76-1.657-3.55-3.303-5.319-4.89c-0.64-0.575-0.694-1.56-0.119-2.2
			c0.573-0.641,1.559-0.693,2.199-0.119c1.787,1.603,3.595,3.265,5.374,4.941c0.627,0.589,0.656,1.575,0.066,2.202
			C492.663,81.933,492.249,82.097,491.836,82.097z M102.016,77.377c-0.426,0-0.851-0.174-1.159-0.516
			c-0.575-0.64-0.523-1.625,0.117-2.2c1.804-1.621,3.652-3.243,5.494-4.82c0.653-0.56,1.637-0.484,2.196,0.17
			s0.483,1.637-0.17,2.196c-1.823,1.561-3.652,3.165-5.437,4.769C102.759,77.245,102.387,77.377,102.016,77.377z M481.024,72.399
			c-0.358,0-0.717-0.123-1.011-0.373c-1.809-1.546-3.676-3.102-5.551-4.625c-0.668-0.542-0.77-1.523-0.227-2.19
			c0.539-0.668,1.523-0.772,2.19-0.227c1.895,1.538,3.784,3.111,5.612,4.674c0.654,0.559,0.731,1.542,0.172,2.196
			C481.901,72.214,481.464,72.399,481.024,72.399z M113.062,67.925c-0.453,0-0.901-0.196-1.209-0.574
			c-0.543-0.667-0.442-1.649,0.225-2.191c1.88-1.53,3.805-3.058,5.722-4.542c0.679-0.525,1.659-0.402,2.185,0.279
			c0.527,0.68,0.402,1.658-0.278,2.185c-1.896,1.467-3.802,2.979-5.662,4.493C113.755,67.811,113.407,67.925,113.062,67.925z
			 M469.747,63.239c-0.333,0-0.667-0.105-0.951-0.325c-1.906-1.472-3.848-2.936-5.774-4.348c-0.694-0.508-0.843-1.484-0.334-2.177
			c0.508-0.694,1.485-0.842,2.177-0.334c1.945,1.427,3.908,2.905,5.835,4.393c0.68,0.526,0.806,1.505,0.281,2.185
			C470.674,63.031,470.213,63.239,469.747,63.239z M124.555,59.032c-0.479,0-0.951-0.22-1.256-0.635
			c-0.51-0.694-0.36-1.668,0.333-2.178c1.955-1.436,3.952-2.867,5.936-4.252c0.707-0.492,1.677-0.319,2.169,0.385
			c0.492,0.705,0.32,1.676-0.385,2.168c-1.964,1.371-3.94,2.788-5.875,4.209C125.199,58.934,124.876,59.032,124.555,59.032z
			 M458.032,54.643c-0.307,0-0.618-0.09-0.889-0.28c-1.968-1.371-3.982-2.736-5.985-4.057c-0.718-0.474-0.916-1.44-0.442-2.158
			c0.475-0.718,1.439-0.916,2.158-0.442c2.024,1.336,4.06,2.716,6.05,4.102c0.706,0.492,0.879,1.462,0.387,2.168
			C459.008,54.411,458.524,54.643,458.032,54.643z M136.468,50.721c-0.506,0-1.001-0.245-1.301-0.699
			c-0.474-0.718-0.277-1.683,0.441-2.158c2.016-1.333,4.081-2.663,6.137-3.951c0.73-0.457,1.691-0.236,2.147,0.492
			c0.457,0.729,0.236,1.69-0.493,2.147c-2.034,1.276-4.078,2.591-6.073,3.91C137.062,50.638,136.763,50.721,136.468,50.721z
			 M445.897,46.635c-0.282,0-0.568-0.076-0.824-0.236c-2.034-1.272-4.115-2.535-6.182-3.755c-0.74-0.438-0.987-1.393-0.55-2.134
			c0.438-0.74,1.395-0.984,2.134-0.55c2.089,1.234,4.191,2.511,6.249,3.796c0.729,0.456,0.951,1.417,0.496,2.147
			C446.924,46.375,446.417,46.635,445.897,46.635z M148.774,43.016c-0.532,0-1.051-0.273-1.342-0.764
			c-0.439-0.74-0.194-1.696,0.547-2.135c2.1-1.243,4.228-2.467,6.325-3.637c0.752-0.419,1.7-0.15,2.119,0.6
			c0.419,0.751,0.151,1.701-0.601,2.119c-2.074,1.158-4.179,2.369-6.256,3.599C149.317,42.946,149.043,43.016,148.774,43.016z
			 M433.375,39.239c-0.257,0-0.517-0.063-0.757-0.197c-2.111-1.176-4.253-2.333-6.365-3.442c-0.763-0.4-1.056-1.341-0.656-2.102
			c0.4-0.763,1.345-1.057,2.102-0.656c2.136,1.12,4.301,2.29,6.434,3.478c0.751,0.419,1.022,1.367,0.603,2.118
			C434.452,38.951,433.921,39.239,433.375,39.239z M161.442,35.939c-0.56,0-1.101-0.302-1.38-0.833
			c-0.401-0.761-0.108-1.703,0.653-2.103c2.146-1.13,4.331-2.245,6.496-3.315c0.769-0.381,1.704-0.065,2.086,0.706
			c0.381,0.772,0.065,1.706-0.706,2.087c-2.141,1.059-4.303,2.162-6.425,3.278C161.934,35.881,161.686,35.939,161.442,35.939z
			 M420.489,32.481c-0.231,0-0.466-0.052-0.688-0.16c-2.169-1.069-4.368-2.118-6.534-3.119c-0.781-0.36-1.122-1.286-0.761-2.067
			c0.36-0.782,1.286-1.123,2.067-0.761c2.19,1.011,4.412,2.072,6.605,3.152c0.772,0.38,1.089,1.314,0.709,2.086
			C421.615,32.162,421.063,32.481,420.489,32.481z M174.442,29.511c-0.588,0-1.151-0.335-1.414-0.903
			c-0.362-0.781-0.022-1.707,0.759-2.069c2.212-1.024,4.45-2.027,6.651-2.98c0.787-0.342,1.706,0.02,2.048,0.811
			c0.342,0.789-0.021,1.707-0.811,2.048c-2.177,0.942-4.39,1.934-6.579,2.948C174.883,29.466,174.661,29.511,174.442,29.511z
			 M407.272,26.378c-0.206,0-0.415-0.041-0.617-0.128c-2.205-0.951-4.455-1.888-6.686-2.783c-0.798-0.32-1.185-1.228-0.866-2.026
			c0.321-0.798,1.226-1.184,2.026-0.866c2.256,0.906,4.531,1.853,6.761,2.815c0.789,0.341,1.153,1.257,0.812,2.047
			C408.45,26.026,407.876,26.378,407.272,26.378z M187.741,23.752c-0.617,0-1.2-0.368-1.445-0.975
			c-0.322-0.798,0.064-1.706,0.862-2.028c2.225-0.897,4.51-1.785,6.789-2.638c0.804-0.298,1.703,0.109,2.004,0.914
			c0.302,0.805-0.107,1.703-0.913,2.005c-2.254,0.843-4.513,1.721-6.715,2.608C188.133,23.715,187.935,23.752,187.741,23.752z
			 M393.756,20.954c-0.18,0-0.365-0.031-0.544-0.098c-2.233-0.832-4.528-1.653-6.823-2.44c-0.814-0.279-1.247-1.165-0.968-1.978
			c0.28-0.814,1.164-1.25,1.978-0.968c2.321,0.796,4.642,1.627,6.9,2.468c0.806,0.3,1.217,1.198,0.916,2.003
			C394.982,20.566,394.388,20.954,393.756,20.954z M201.306,18.678c-0.646,0-1.25-0.405-1.472-1.05
			c-0.281-0.812,0.151-1.7,0.964-1.98c2.297-0.793,4.631-1.566,6.937-2.296c0.823-0.261,1.696,0.195,1.956,1.014
			c0.26,0.82-0.195,1.696-1.015,1.955c-2.281,0.723-4.589,1.487-6.861,2.272C201.647,18.651,201.475,18.678,201.306,18.678z
			 M379.972,16.222c-0.154,0-0.312-0.023-0.467-0.072c-2.296-0.723-4.632-1.425-6.944-2.087c-0.827-0.237-1.305-1.1-1.069-1.927
			c0.238-0.826,1.102-1.303,1.927-1.069c2.337,0.67,4.7,1.38,7.021,2.111c0.82,0.259,1.277,1.133,1.018,1.953
			C381.248,15.797,380.634,16.222,379.972,16.222z M215.16,14.288c-0.676,0-1.299-0.443-1.496-1.126
			c-0.239-0.826,0.237-1.689,1.064-1.929c2.326-0.671,4.696-1.323,7.044-1.939c0.836-0.216,1.683,0.281,1.901,1.112
			c0.218,0.833-0.28,1.683-1.112,1.901c-2.323,0.608-4.668,1.253-6.968,1.919C215.448,14.269,215.303,14.288,215.16,14.288z
			 M365.952,12.203c-0.129,0-0.261-0.016-0.391-0.05c-2.341-0.606-4.702-1.185-7.018-1.723c-0.838-0.194-1.36-1.03-1.166-1.869
			c0.194-0.838,1.032-1.36,1.869-1.165c2.342,0.543,4.73,1.129,7.096,1.741c0.833,0.216,1.333,1.066,1.118,1.898
			C367.278,11.738,366.645,12.203,365.952,12.203z M229.219,10.612c-0.707,0-1.347-0.485-1.515-1.203
			c-0.196-0.838,0.323-1.675,1.161-1.872c2.357-0.552,4.757-1.082,7.135-1.575c0.846-0.178,1.667,0.367,1.842,1.209
			c0.175,0.843-0.367,1.667-1.209,1.842c-2.352,0.488-4.726,1.012-7.057,1.558C229.456,10.599,229.336,10.612,229.219,10.612z
			 M351.795,8.92c-0.103,0-0.209-0.01-0.314-0.031c-2.356-0.484-4.743-0.941-7.097-1.361c-0.847-0.151-1.411-0.959-1.26-1.807
			c0.151-0.847,0.961-1.408,1.807-1.259c2.38,0.424,4.794,0.887,7.176,1.375c0.843,0.173,1.386,0.997,1.213,1.84
			C353.168,8.413,352.52,8.92,351.795,8.92z M243.448,7.661c-0.739,0-1.395-0.527-1.531-1.281c-0.153-0.847,0.409-1.657,1.256-1.81
			c2.392-0.432,4.816-0.838,7.205-1.207c0.85-0.131,1.646,0.451,1.777,1.302c0.131,0.85-0.452,1.646-1.302,1.777
			c-2.364,0.365-4.762,0.767-7.127,1.195C243.634,7.653,243.54,7.661,243.448,7.661z M337.49,6.367
			c-0.078,0-0.157-0.006-0.237-0.018c-2.352-0.358-4.76-0.693-7.158-0.996c-0.853-0.107-1.458-0.887-1.35-1.74
			c0.108-0.855,0.886-1.459,1.741-1.351c2.424,0.306,4.859,0.645,7.237,1.008c0.85,0.129,1.435,0.924,1.305,1.774
			C338.91,5.816,338.246,6.367,337.49,6.367z M257.81,5.444c-0.772,0-1.442-0.574-1.543-1.36c-0.11-0.853,0.494-1.634,1.347-1.743
			c2.398-0.307,4.84-0.589,7.258-0.838c0.843-0.081,1.62,0.533,1.709,1.39c0.088,0.856-0.534,1.62-1.39,1.709
			c-2.392,0.246-4.807,0.525-7.18,0.83C257.943,5.439,257.876,5.444,257.81,5.444z M323.071,4.548c-0.052,0-0.105-0.002-0.158-0.008
			c-2.367-0.238-4.789-0.45-7.198-0.63c-0.858-0.064-1.502-0.811-1.438-1.669c0.064-0.857,0.813-1.496,1.669-1.438
			c2.436,0.182,4.885,0.397,7.28,0.638c0.856,0.086,1.48,0.85,1.393,1.706C324.538,3.95,323.861,4.548,323.071,4.548z
			 M272.266,3.961c-0.806,0-1.489-0.621-1.552-1.438c-0.066-0.858,0.576-1.606,1.433-1.672c2.411-0.187,4.865-0.344,7.292-0.468
			c0.85-0.034,1.592,0.616,1.636,1.475c0.044,0.859-0.617,1.591-1.475,1.636c-2.401,0.124-4.828,0.279-7.213,0.462
			C272.347,3.96,272.306,3.961,272.266,3.961z M308.579,3.466c-0.026,0-0.052-0.001-0.078-0.002
			c-2.402-0.118-4.833-0.207-7.223-0.265c-0.86-0.021-1.54-0.735-1.52-1.595c0.02-0.861,0.717-1.526,1.595-1.52
			c2.417,0.059,4.873,0.149,7.301,0.269c0.859,0.043,1.522,0.773,1.479,1.632C310.093,2.818,309.404,3.466,308.579,3.466z
			 M286.782,3.215c-0.841,0-1.534-0.671-1.556-1.517c-0.022-0.86,0.657-1.575,1.517-1.597c2.43-0.064,4.888-0.097,7.305-0.1
			c0.001,0,0.002,0,0.002,0c0.859,0,1.557,0.696,1.558,1.556s-0.696,1.559-1.556,1.56c-2.392,0.003-4.824,0.037-7.228,0.098
			C286.81,3.215,286.796,3.215,286.782,3.215z"/>
	</g>
	<g>
		<path d="M307.429,253.03h-58.632c-0.43,0-0.779-0.349-0.779-0.779s0.349-0.779,0.779-0.779h58.632c0.43,0,0.779,0.349,0.779,0.779
			S307.859,253.03,307.429,253.03z"/>
	</g>
	<g>
		<path d="M302.801,257.145h-58.118c-0.43,0-0.779-0.349-0.779-0.779s0.349-0.779,0.779-0.779h58.118
			c0.43,0,0.779,0.349,0.779,0.779C303.579,256.796,303.231,257.145,302.801,257.145z"/>
	</g>
	<g>
		<path d="M297.657,261.259h-57.603c-0.43,0-0.779-0.349-0.779-0.779s0.349-0.779,0.779-0.779h57.603
			c0.43,0,0.779,0.349,0.779,0.779S298.087,261.259,297.657,261.259z"/>
	</g>
	<g>
		<path d="M246.65,261.259c-0.21,0-0.419-0.084-0.572-0.251c-0.292-0.315-0.272-0.808,0.045-1.1l8.929-8.229
			c0.315-0.291,0.809-0.272,1.101,0.046c0.291,0.315,0.271,0.808-0.045,1.1l-8.929,8.229
			C247.028,261.191,246.839,261.259,246.65,261.259z"/>
	</g>
	<g>
		<path d="M254.364,261.259c-0.202,0-0.404-0.078-0.557-0.234c-0.301-0.307-0.295-0.801,0.012-1.101l8.415-8.229
			c0.308-0.3,0.801-0.295,1.101,0.012c0.301,0.307,0.295,0.801-0.012,1.101l-8.415,8.229
			C254.757,261.185,254.56,261.259,254.364,261.259z"/>
	</g>
	<g>
		<path d="M261.564,261.259c-0.202,0-0.404-0.078-0.557-0.234c-0.301-0.307-0.295-0.801,0.012-1.101l8.415-8.229
			c0.308-0.3,0.801-0.295,1.101,0.012c0.301,0.307,0.295,0.801-0.012,1.101l-8.415,8.229
			C261.957,261.185,261.761,261.259,261.564,261.259z"/>
	</g>
	<g>
		<path d="M268.765,261.259c-0.202,0-0.404-0.078-0.557-0.234c-0.301-0.307-0.295-0.801,0.012-1.101l8.415-8.229
			c0.308-0.3,0.802-0.295,1.101,0.012c0.301,0.307,0.295,0.801-0.012,1.101l-8.415,8.229
			C269.158,261.185,268.961,261.259,268.765,261.259z"/>
	</g>
	<g>
		<path d="M275.965,261.259c-0.202,0-0.404-0.078-0.557-0.234c-0.301-0.307-0.295-0.801,0.012-1.101l8.415-8.229
			c0.309-0.3,0.801-0.295,1.101,0.012c0.301,0.307,0.295,0.801-0.012,1.101l-8.415,8.229
			C276.358,261.185,276.161,261.259,275.965,261.259z"/>
	</g>
	<g>
		<path d="M283.68,261.259c-0.202,0-0.404-0.078-0.557-0.234c-0.301-0.307-0.295-0.801,0.012-1.101l8.415-8.229
			c0.308-0.3,0.801-0.295,1.101,0.012c0.301,0.307,0.295,0.801-0.012,1.101l-8.415,8.229
			C284.073,261.185,283.876,261.259,283.68,261.259z"/>
	</g>
	<g>
		<path d="M290.367,261.259c-0.218,0-0.434-0.09-0.588-0.267c-0.282-0.325-0.249-0.816,0.076-1.099l9.444-8.229
			c0.323-0.284,0.815-0.249,1.099,0.075c0.282,0.324,0.249,0.816-0.076,1.099l-9.444,8.229
			C290.731,261.196,290.549,261.259,290.367,261.259z"/>
	</g>
	<g>
		<path d="M298.082,261.259c-0.217,0-0.434-0.09-0.588-0.267c-0.282-0.325-0.249-0.816,0.076-1.099l9.444-8.229
			c0.324-0.284,0.815-0.249,1.099,0.075c0.282,0.324,0.249,0.816-0.076,1.099l-9.444,8.229
			C298.445,261.196,298.263,261.259,298.082,261.259z"/>
	</g>
	<g>
		<path d="M239.963,261.259c-0.21,0-0.419-0.084-0.573-0.251c-0.291-0.315-0.271-0.808,0.045-1.1l8.929-8.229
			c0.315-0.291,0.809-0.272,1.1,0.046c0.292,0.315,0.272,0.808-0.045,1.1l-8.929,8.229
			C240.341,261.191,240.152,261.259,239.963,261.259z"/>
	</g>
	<g>
		<path d="M269.884,266.402h-9.772c-0.328,0-0.621-0.206-0.732-0.514c-0.112-0.308-0.018-0.653,0.234-0.863l3.086-2.572
			c0.14-0.117,0.316-0.181,0.498-0.181h9.257c0.315,0,0.599,0.19,0.719,0.481c0.121,0.291,0.054,0.626-0.169,0.849l-2.571,2.572
			C270.289,266.32,270.091,266.402,269.884,266.402z M262.263,264.844h7.299l1.014-1.014h-7.095L262.263,264.844z"/>
	</g>
	<g>
		<path d="M371.754,270.65c-0.118,0-0.238-0.013-0.358-0.042l-54.037-12.727c-0.838-0.197-1.356-1.035-1.159-1.873
			c0.197-0.838,1.038-1.358,1.873-1.159l54.037,12.727c0.838,0.197,1.357,1.035,1.159,1.873
			C373.1,270.166,372.461,270.65,371.754,270.65z"/>
	</g>
	<g>
		<path d="M395.904,383.3c-0.1,0-0.202-0.009-0.304-0.029c-0.844-0.167-1.392-0.987-1.226-1.83l12.197-61.656
			c0.167-0.845,0.986-1.392,1.83-1.226c0.844,0.167,1.392,0.987,1.226,1.83l-12.197,61.656
			C397.283,382.787,396.632,383.3,395.904,383.3z"/>
	</g>
	<g>
		<path d="M478.109,381.245c-0.633,0-1.228-0.388-1.46-1.016l-22.094-59.602c-0.299-0.807,0.113-1.703,0.919-2.002
			c0.805-0.297,1.704,0.113,2.002,0.919l22.094,59.602c0.299,0.807-0.113,1.703-0.919,2.002
			C478.472,381.214,478.29,381.245,478.109,381.245z"/>
	</g>
	<g>
		<path d="M454.508,267.316c-0.182,0-0.365-0.031-0.545-0.098c-0.806-0.301-1.216-1.198-0.915-2.004l27.549-73.793
			c0.301-0.807,1.2-1.216,2.004-0.915c0.806,0.301,1.216,1.198,0.915,2.004l-27.549,73.793
			C455.733,266.929,455.139,267.316,454.508,267.316z"/>
	</g>
	<g>
		<path d="M408.098,267.316c-0.709,0-1.35-0.487-1.517-1.207l-18.184-78.649c-0.194-0.839,0.329-1.674,1.167-1.869
			c0.84-0.188,1.674,0.33,1.869,1.167l18.184,78.649c0.194,0.839-0.329,1.674-1.167,1.869
			C408.332,267.303,408.214,267.316,408.098,267.316z"/>
	</g>
	<g>
		<path d="M331.162,361.72c-0.395,0-0.789-0.149-1.093-0.448c-0.613-0.603-0.62-1.589-0.017-2.203l43.674-44.344
			c0.602-0.613,1.59-0.621,2.203-0.016c0.613,0.603,0.621,1.589,0.016,2.203l-43.673,44.344
			C331.967,361.565,331.565,361.72,331.162,361.72z"/>
	</g>
	<g>
		<path d="M578.558,292.114H468.282c-0.86,0-1.558-0.698-1.558-1.558c0-0.86,0.698-1.558,1.558-1.558h110.276
			c0.86,0,1.558,0.698,1.558,1.558C580.115,291.416,579.418,292.114,578.558,292.114z"/>
	</g>
	<g>
		<path style="fill:#FF3369;" d="M680.096,292.114h-7.269c-0.86,0-1.558-0.698-1.558-1.558c0-0.86,0.698-1.558,1.558-1.558h7.269
			c0.86,0,1.558,0.698,1.558,1.558C681.653,291.416,680.956,292.114,680.096,292.114z M665.558,292.114h-7.269
			c-0.86,0-1.558-0.698-1.558-1.558c0-0.86,0.698-1.558,1.558-1.558h7.269c0.86,0,1.558,0.698,1.558,1.558
			C667.116,291.416,666.418,292.114,665.558,292.114z M651.02,292.114h-7.269c-0.86,0-1.558-0.698-1.558-1.558
			c0-0.86,0.698-1.558,1.558-1.558h7.269c0.86,0,1.558,0.698,1.558,1.558C652.578,291.416,651.88,292.114,651.02,292.114z
			 M636.483,292.114h-7.269c-0.86,0-1.558-0.698-1.558-1.558c0-0.86,0.698-1.558,1.558-1.558h7.269c0.86,0,1.558,0.698,1.558,1.558
			C638.04,291.416,637.342,292.114,636.483,292.114z M621.945,292.114h-7.269c-0.86,0-1.558-0.698-1.558-1.558
			c0-0.86,0.698-1.558,1.558-1.558h7.269c0.86,0,1.558,0.698,1.558,1.558C623.502,291.416,622.805,292.114,621.945,292.114z
			 M607.407,292.114h-7.269c-0.86,0-1.558-0.698-1.558-1.558c0-0.86,0.698-1.558,1.558-1.558h7.269c0.86,0,1.558,0.698,1.558,1.558
			C608.965,291.416,608.267,292.114,607.407,292.114z"/>
	</g>
	<g>
		<g>
			<circle style="fill:#FFFFFF;" cx="587.163" cy="289.518" r="27.319"/>
			<path style="fill:#FF3369;" d="M587.162,318.394c-15.923,0-28.877-12.954-28.877-28.877s12.954-28.877,28.877-28.877
				s28.877,12.954,28.877,28.877S603.085,318.394,587.162,318.394z M587.162,263.756c-14.205,0-25.761,11.556-25.761,25.761
				s11.556,25.761,25.761,25.761s25.761-11.556,25.761-25.761S601.367,263.756,587.162,263.756z"/>
		</g>
		<g>
			<g>
				<path d="M596.269,291.958h-6.667v6.667h-4.878v-6.667h-6.668v-4.88h6.668v-6.667h4.878v6.667h6.667V291.958z"/>
			</g>
		</g>
	</g>
	<g>
		<rect x="366.437" y="251.751" style="fill:#FF3369;" width="119.565" height="73.925"/>
	</g>
	<g>
		<path d="M283.185,353.354h-26.269c-0.86,0-1.558-0.698-1.558-1.558v-17.513c0-0.86,0.697-1.558,1.558-1.558
			s1.558,0.698,1.558,1.558v15.955h24.712c0.86,0,1.558,0.698,1.558,1.558S284.046,353.354,283.185,353.354z"/>
	</g>
	<g>
		<circle cx="256.582" cy="324.723" r="3.98"/>
	</g>
	<g>
		<g>
			<defs>
				<polygon id="SVGID_1_" points="232.538,302.626 256.582,324.723 280.626,302.626 				"/>
			</defs>
			<clipPath id="SVGID_2_">
				<use xlink:href="#SVGID_1_"  style="overflow:visible;"/>
			</clipPath>
			<g style="clip-path:url(#SVGID_2_);">
				<path d="M264.273,326.281c-0.86,0-1.558-0.698-1.558-1.558c0-3.382-2.751-6.133-6.133-6.133c-3.381,0-6.133,2.751-6.133,6.133
					c0,0.86-0.697,1.558-1.558,1.558c-0.86,0-1.558-0.698-1.558-1.558c0-5.1,4.149-9.248,9.248-9.248
					c5.099,0,9.248,4.149,9.248,9.248C265.83,325.583,265.133,326.281,264.273,326.281z"/>
			</g>
		</g>
		<g>
			<defs>
				<polygon id="SVGID_3_" points="232.538,302.626 256.582,324.723 280.626,302.626 				"/>
			</defs>
			<clipPath id="SVGID_4_">
				<use xlink:href="#SVGID_3_"  style="overflow:visible;"/>
			</clipPath>
			<g style="clip-path:url(#SVGID_4_);">
				<path d="M269.271,326.281c-0.86,0-1.558-0.698-1.558-1.558c0-6.138-4.993-11.131-11.131-11.131s-11.131,4.993-11.131,11.131
					c0,0.86-0.697,1.558-1.558,1.558c-0.86,0-1.558-0.698-1.558-1.558c0-7.856,6.391-14.247,14.247-14.247
					c7.855,0,14.246,6.391,14.246,14.247C270.828,325.583,270.131,326.281,269.271,326.281z"/>
			</g>
		</g>
		<g>
			<defs>
				<polygon id="SVGID_5_" points="232.538,302.626 256.582,324.723 280.626,302.626 				"/>
			</defs>
			<clipPath id="SVGID_6_">
				<use xlink:href="#SVGID_5_"  style="overflow:visible;"/>
			</clipPath>
			<g style="clip-path:url(#SVGID_6_);">
				<path d="M274.269,326.281c-0.86,0-1.558-0.698-1.558-1.558c0-8.894-7.235-16.13-16.129-16.13c-8.894,0-16.13,7.235-16.13,16.13
					c0,0.86-0.697,1.558-1.558,1.558s-1.558-0.698-1.558-1.558c0-10.612,8.633-19.245,19.245-19.245
					c10.611,0,19.244,8.633,19.244,19.245C275.827,325.583,275.13,326.281,274.269,326.281z"/>
			</g>
		</g>
	</g>
	<g>
		<g>
			<defs>
				<polygon id="SVGID_7_" points="185.582,335.42 165.837,356.904 185.582,378.389 				"/>
			</defs>
			<clipPath id="SVGID_8_">
				<use xlink:href="#SVGID_7_"  style="overflow:visible;"/>
			</clipPath>
			<g style="clip-path:url(#SVGID_8_);">
				<path d="M165.837,365.334c-0.86,0-1.558-0.698-1.558-1.558c0-0.86,0.697-1.558,1.558-1.558c2.93,0,5.314-2.384,5.314-5.314
					c0-2.931-2.384-5.315-5.314-5.315c-0.86,0-1.558-0.698-1.558-1.558c0-0.86,0.697-1.558,1.558-1.558
					c4.648,0,8.429,3.781,8.429,8.43C174.266,361.552,170.485,365.334,165.837,365.334z"/>
			</g>
		</g>
		<g>
			<defs>
				<polygon id="SVGID_9_" points="185.582,335.42 165.837,356.904 185.582,378.389 				"/>
			</defs>
			<clipPath id="SVGID_10_">
				<use xlink:href="#SVGID_9_"  style="overflow:visible;"/>
			</clipPath>
			<g style="clip-path:url(#SVGID_10_);">
				<path d="M165.837,369.801c-0.86,0-1.558-0.698-1.558-1.558s0.697-1.558,1.558-1.558c5.393,0,9.78-4.388,9.78-9.781
					s-4.387-9.781-9.78-9.781c-0.86,0-1.558-0.698-1.558-1.558s0.697-1.558,1.558-1.558c7.111,0,12.895,5.785,12.895,12.896
					C178.733,364.015,172.948,369.801,165.837,369.801z"/>
			</g>
		</g>
		<g>
			<defs>
				<polygon id="SVGID_11_" points="185.582,335.42 165.837,356.904 185.582,378.389 				"/>
			</defs>
			<clipPath id="SVGID_12_">
				<use xlink:href="#SVGID_11_"  style="overflow:visible;"/>
			</clipPath>
			<g style="clip-path:url(#SVGID_12_);">
				<path d="M165.837,374.267c-0.86,0-1.558-0.698-1.558-1.558s0.697-1.558,1.558-1.558c7.856,0,14.247-6.391,14.247-14.247
					c0-7.856-6.391-14.248-14.247-14.248c-0.86,0-1.558-0.698-1.558-1.558s0.697-1.558,1.558-1.558
					c9.574,0,17.362,7.789,17.362,17.363C183.2,366.479,175.411,374.267,165.837,374.267z"/>
			</g>
		</g>
	</g>
	<g>
		<g>
			<defs>
				<polygon id="SVGID_13_" points="171.369,413.077 170.054,442.227 198.989,445.993 				"/>
			</defs>
			<clipPath id="SVGID_14_">
				<use xlink:href="#SVGID_13_"  style="overflow:visible;"/>
			</clipPath>
			<g style="clip-path:url(#SVGID_14_);">
				<path d="M174.472,449.048c-0.445,0-0.886-0.19-1.195-0.557c-0.553-0.659-0.466-1.642,0.193-2.194
					c1.087-0.912,1.754-2.193,1.878-3.607c0.124-1.414-0.311-2.792-1.223-3.879c-1.884-2.244-5.243-2.538-7.487-0.655
					c-0.659,0.552-1.642,0.466-2.194-0.193c-0.553-0.659-0.466-1.642,0.193-2.194c3.56-2.987,8.887-2.521,11.875,1.04
					c1.448,1.724,2.136,3.909,1.94,6.152s-1.254,4.275-2.979,5.722C175.18,448.928,174.825,449.048,174.472,449.048z"/>
			</g>
		</g>
		<g>
			<defs>
				<polygon id="SVGID_15_" points="171.369,413.077 170.054,442.227 198.989,445.993 				"/>
			</defs>
			<clipPath id="SVGID_16_">
				<use xlink:href="#SVGID_15_"  style="overflow:visible;"/>
			</clipPath>
			<g style="clip-path:url(#SVGID_16_);">
				<path d="M177.343,452.47c-0.445,0-0.886-0.19-1.194-0.557c-0.553-0.659-0.467-1.641,0.192-2.194
					c2.002-1.679,3.229-4.037,3.457-6.639c0.228-2.602-0.572-5.138-2.251-7.14c-3.466-4.131-9.648-4.672-13.779-1.205
					c-0.66,0.553-1.643,0.466-2.194-0.193c-0.553-0.659-0.467-1.641,0.192-2.194c5.448-4.569,13.598-3.859,18.168,1.59
					c2.214,2.639,3.268,5.982,2.968,9.414c-0.3,3.431-1.919,6.54-4.557,8.754C178.051,452.35,177.696,452.47,177.343,452.47z"/>
			</g>
		</g>
		<g>
			<defs>
				<polygon id="SVGID_17_" points="171.369,413.077 170.054,442.227 198.989,445.993 				"/>
			</defs>
			<clipPath id="SVGID_18_">
				<use xlink:href="#SVGID_17_"  style="overflow:visible;"/>
			</clipPath>
			<g style="clip-path:url(#SVGID_18_);">
				<path d="M180.214,455.891c-0.445,0-0.886-0.19-1.194-0.557c-0.553-0.659-0.467-1.642,0.192-2.194
					c2.915-2.446,4.703-5.881,5.035-9.671c0.332-3.792-0.833-7.485-3.279-10.4c-2.446-2.915-5.881-4.703-9.672-5.035
					c-3.791-0.336-7.484,0.834-10.399,3.28c-0.66,0.553-1.643,0.465-2.194-0.193c-0.553-0.658-0.467-1.641,0.192-2.194
					c3.553-2.981,8.053-4.404,12.673-3.995c4.621,0.404,8.806,2.583,11.787,6.136c2.981,3.552,4.401,8.054,3.996,12.674
					c-0.405,4.62-2.584,8.805-6.137,11.786C180.922,455.771,180.567,455.891,180.214,455.891z"/>
			</g>
		</g>
	</g>
	<g>
		<g>
			<defs>
				<polygon id="SVGID_19_" points="198.324,268.524 169.388,272.29 170.704,301.44 				"/>
			</defs>
			<clipPath id="SVGID_20_">
				<use xlink:href="#SVGID_19_"  style="overflow:visible;"/>
			</clipPath>
			<g style="clip-path:url(#SVGID_20_);">
				<path d="M169.374,280.72c-1.976,0-3.872-0.687-5.404-1.972c-0.659-0.554-0.745-1.536-0.192-2.194
					c0.553-0.659,1.535-0.744,2.194-0.193c1.088,0.913,2.463,1.34,3.879,1.224c1.414-0.124,2.695-0.791,3.608-1.878
					c0.912-1.088,1.347-2.465,1.223-3.879c-0.124-1.415-0.79-2.695-1.878-3.607c-0.659-0.553-0.745-1.535-0.193-2.194
					c0.553-0.658,1.535-0.745,2.194-0.193c1.725,1.447,2.783,3.479,2.979,5.722c0.196,2.243-0.493,4.427-1.94,6.152
					s-3.479,2.784-5.722,2.979C169.872,280.71,169.622,280.72,169.374,280.72z"/>
			</g>
		</g>
		<g>
			<defs>
				<polygon id="SVGID_21_" points="198.324,268.524 169.388,272.29 170.704,301.44 				"/>
			</defs>
			<clipPath id="SVGID_22_">
				<use xlink:href="#SVGID_21_"  style="overflow:visible;"/>
			</clipPath>
			<g style="clip-path:url(#SVGID_22_);">
				<path d="M169.366,285.188c-3.024,0-5.923-1.052-8.267-3.018c-0.659-0.554-0.745-1.535-0.192-2.194
					c0.552-0.658,1.535-0.745,2.194-0.193c2.002,1.679,4.543,2.479,7.139,2.251c2.603-0.228,4.961-1.455,6.64-3.457
					c3.467-4.131,2.926-10.312-1.206-13.779c-0.659-0.554-0.745-1.536-0.192-2.194s1.535-0.745,2.194-0.193
					c5.447,4.571,6.16,12.721,1.589,18.168c-2.214,2.64-5.323,4.258-8.754,4.558C170.129,285.17,169.746,285.188,169.366,285.188z"
					/>
			</g>
		</g>
		<g>
			<defs>
				<polygon id="SVGID_23_" points="198.324,268.524 169.388,272.29 170.704,301.44 				"/>
			</defs>
			<clipPath id="SVGID_24_">
				<use xlink:href="#SVGID_23_"  style="overflow:visible;"/>
			</clipPath>
			<g style="clip-path:url(#SVGID_24_);">
				<path d="M169.374,289.646c-3.94,0-7.899-1.33-11.146-4.054c-0.659-0.554-0.745-1.535-0.192-2.194
					c0.552-0.658,1.535-0.745,2.194-0.193c6.017,5.05,15.021,4.261,20.072-1.755c5.049-6.019,4.262-15.023-1.756-20.073
					c-0.659-0.554-0.745-1.536-0.192-2.194c0.552-0.659,1.535-0.744,2.194-0.193c7.333,6.154,8.293,17.128,2.14,24.461
					C179.259,287.537,174.333,289.646,169.374,289.646z"/>
			</g>
		</g>
	</g>
	<g>
		<path style="fill:#FFFFFF;" d="M399.212,309.794c-0.834-0.089-1.537-0.205-2.114-0.346V307.2c1.141,0.116,2.582,0.172,4.324,0.172
			c0.781,0,1.371-0.105,1.768-0.316c0.398-0.212,0.596-0.586,0.596-1.125v-0.519c0-0.422-0.125-0.745-0.375-0.969
			c-0.249-0.224-0.605-0.337-1.066-0.337h-1.211c-1.41,0-2.463-0.307-3.162-0.923c-0.698-0.615-1.047-1.62-1.047-3.017v-0.692
			c0-2.665,1.53-3.997,4.593-3.997c0.717,0,1.46,0.049,2.229,0.145c0.769,0.095,1.46,0.208,2.075,0.336v2.248
			c-1.754-0.115-3.081-0.172-3.977-0.172c-0.73,0-1.282,0.112-1.653,0.336c-0.371,0.225-0.557,0.638-0.557,1.24v0.384
			c0,0.487,0.137,0.842,0.413,1.066c0.276,0.225,0.695,0.337,1.258,0.337h1.403c1.229,0,2.168,0.337,2.815,1.009
			s0.97,1.554,0.97,2.642v0.807c0,1.077-0.199,1.913-0.596,2.508c-0.397,0.596-0.954,1.006-1.671,1.23
			c-0.718,0.224-1.608,0.337-2.671,0.337C400.826,309.929,400.044,309.883,399.212,309.794z"/>
		<path style="fill:#FFFFFF;" d="M407.397,299.494h2.941l1.633,7.687l2.037-7.687h2.345l2.037,7.687l1.48-7.687h2.94l-2.69,10.319
			h-3.152l-1.845-6.284l-1.902,6.284h-3.094L407.397,299.494z"/>
		<path style="fill:#FFFFFF;" d="M424.183,297.871c-0.071-0.071-0.106-0.163-0.106-0.279v-1.883c0-0.269,0.135-0.404,0.404-0.404
			h2.191c0.115,0,0.204,0.039,0.269,0.116c0.064,0.076,0.096,0.172,0.096,0.288v1.883c0,0.257-0.123,0.384-0.365,0.384h-2.191
			C424.352,297.976,424.253,297.941,424.183,297.871z M424.134,299.494h2.844v10.319h-2.844V299.494z"/>
		<path style="fill:#FFFFFF;" d="M431.149,309.468c-0.487-0.23-0.84-0.615-1.057-1.153c-0.218-0.538-0.314-1.262-0.289-2.171
			l0.096-4.363h-1.614v-1.825l1.711-0.461l0.384-2.883h2.248v2.883h2.422v2.287h-2.422v4.343c0,0.512,0.089,0.871,0.269,1.076
			c0.18,0.205,0.43,0.333,0.749,0.384l1.307,0.116v2.113h-1.864C432.282,309.813,431.635,309.698,431.149,309.468z"/>
		<path style="fill:#FFFFFF;" d="M437.47,308.757c-0.757-0.782-1.134-2.134-1.134-4.055c0-1.37,0.166-2.447,0.5-3.228
			c0.333-0.782,0.819-1.332,1.46-1.653c0.64-0.32,1.454-0.481,2.44-0.481c1.243,0,2.441,0.16,3.594,0.481v1.634h-2.71
			c-0.615,0-1.095,0.089-1.441,0.269c-0.346,0.18-0.599,0.5-0.76,0.961c-0.16,0.46-0.239,1.127-0.239,1.998
			c0,0.859,0.079,1.509,0.239,1.951s0.414,0.743,0.76,0.903c0.346,0.161,0.839,0.24,1.48,0.24h2.825v1.614
			c-0.488,0.154-1.083,0.282-1.788,0.384s-1.383,0.154-2.036,0.154C439.29,309.929,438.226,309.538,437.47,308.757z"/>
		<path style="fill:#FFFFFF;" d="M446.061,295.17h2.844v5.381c0.384-0.333,0.88-0.621,1.489-0.865
			c0.608-0.242,1.208-0.365,1.797-0.365c2.114,0,3.171,1.224,3.171,3.671v6.822h-2.844v-6.457c0-0.474-0.134-0.839-0.404-1.095
			c-0.269-0.257-0.628-0.384-1.076-0.384c-0.705,0-1.416,0.257-2.133,0.769v7.167h-2.844L446.061,295.17L446.061,295.17z"/>
	</g>
	<g>
		<g>
			<rect x="273.481" y="335.629" style="fill:#FF3369;" width="63.056" height="38.986"/>
		</g>
		<g>
			<path style="fill:#FFFFFF;" d="M287.074,348.04h2.463l1.916,8.404l2.238-8.404h2.189l2.222,8.404l1.916-8.404h2.463l-2.85,11.913
				H297.2l-2.415-8.404l-2.431,8.404h-2.431L287.074,348.04z"/>
			<path style="fill:#FFFFFF;" d="M306.2,348.04h3.011l3.735,11.913h-2.479l-0.757-2.496h-4.057l-0.741,2.496h-2.447L306.2,348.04z
				 M309.147,355.317l-1.465-5.233l-1.465,5.233H309.147z"/>
			<path style="fill:#FFFFFF;" d="M314.25,348.04h5.023c0.998,0,1.819,0.279,2.463,0.837c0.644,0.559,0.966,1.643,0.966,3.252
				c0,2.791-1.111,4.186-3.333,4.186c-0.344,0-0.789-0.029-1.336-0.088c-0.548-0.059-1.015-0.116-1.401-0.169v3.896h-2.383
				L314.25,348.04L314.25,348.04z M318.999,354.174c0.429,0,0.754-0.161,0.974-0.484c0.22-0.321,0.33-0.837,0.33-1.545
				c0-1.309-0.419-1.964-1.256-1.964h-2.415v3.993H318.999z"/>
		</g>
	</g>
	<g>
		<g>
			<rect x="358.387" y="370.824" style="fill:#FF3369;" width="63.056" height="38.986"/>
		</g>
		<g>
			<path style="fill:#FFFFFF;" d="M364.785,383.234h5.024c0.998,0,1.819,0.279,2.462,0.837c0.645,0.559,0.967,1.643,0.967,3.252
				c0,2.791-1.111,4.186-3.333,4.186c-0.344,0-0.789-0.029-1.337-0.088c-0.548-0.059-1.014-0.116-1.4-0.169v3.896h-2.383V383.234z
				 M369.535,389.368c0.429,0,0.754-0.161,0.974-0.484c0.221-0.321,0.331-0.837,0.331-1.545c0-1.309-0.418-1.964-1.255-1.964h-2.415
				v3.993H369.535z"/>
			<path style="fill:#FFFFFF;" d="M374.67,386.502h1.835l0.548,1.32c0.343-0.451,0.711-0.803,1.102-1.055
				c0.391-0.253,0.84-0.378,1.345-0.378c0.279,0,0.515,0.026,0.708,0.08v2.447c-0.558-0.054-0.896-0.08-1.014-0.08
				c-0.461,0-0.859,0.075-1.192,0.225s-0.649,0.386-0.949,0.708v5.378h-2.383V386.502z"/>
			<path style="fill:#FFFFFF;" d="M381.52,385.141c-0.06-0.059-0.089-0.137-0.089-0.233v-1.578c0-0.225,0.113-0.338,0.339-0.338
				h1.835c0.096,0,0.171,0.032,0.225,0.096c0.054,0.065,0.08,0.145,0.08,0.241v1.578c0,0.215-0.102,0.321-0.305,0.321h-1.835
				C381.662,385.23,381.579,385.2,381.52,385.141z M381.48,386.502h2.383v8.645h-2.383V386.502z"/>
			<path style="fill:#FFFFFF;" d="M385.698,386.502h1.964l0.419,0.885c0.354-0.29,0.778-0.534,1.272-0.732
				c0.493-0.199,0.977-0.298,1.449-0.298c0.977,0,1.668,0.279,2.077,0.837c0.408,0.559,0.611,1.31,0.611,2.254v5.699h-2.383v-5.393
				c0-0.409-0.109-0.719-0.33-0.934c-0.22-0.215-0.523-0.322-0.91-0.322c-0.59,0-1.186,0.215-1.787,0.644v6.005h-2.383
				L385.698,386.502L385.698,386.502z"/>
			<path style="fill:#FFFFFF;" d="M396.935,394.857c-0.408-0.193-0.703-0.515-0.885-0.965c-0.183-0.451-0.264-1.058-0.241-1.819
				l0.08-3.655h-1.352v-1.529l1.433-0.386l0.321-2.416h1.884v2.416h2.028v1.916h-2.028v3.638c0,0.429,0.074,0.73,0.225,0.902
				c0.15,0.171,0.359,0.279,0.628,0.321l1.095,0.097v1.771h-1.562C397.885,395.147,397.343,395.051,396.935,394.857z"/>
			<path style="fill:#FFFFFF;" d="M402.875,394.841c-0.559-0.258-0.963-0.703-1.216-1.336c-0.253-0.634-0.378-1.524-0.378-2.673
				c0-1.18,0.118-2.09,0.354-2.729c0.236-0.638,0.626-1.086,1.167-1.344c0.542-0.258,1.307-0.386,2.294-0.386
				c0.88,0,1.573,0.086,2.077,0.258c0.505,0.171,0.872,0.473,1.103,0.902c0.23,0.429,0.346,1.035,0.346,1.819
				c0,0.837-0.238,1.433-0.716,1.787s-1.173,0.531-2.085,0.531h-2.173c0.021,0.461,0.09,0.818,0.209,1.071
				c0.118,0.251,0.328,0.434,0.628,0.547s0.74,0.169,1.32,0.169h2.528v1.4c-0.57,0.119-1.085,0.21-1.546,0.274
				c-0.461,0.065-0.998,0.096-1.609,0.096C404.201,395.227,403.433,395.099,402.875,394.841z M405.58,390.253
				c0.333,0,0.571-0.067,0.716-0.202c0.145-0.134,0.218-0.362,0.218-0.683c0-0.473-0.108-0.802-0.322-0.991
				c-0.215-0.188-0.579-0.282-1.095-0.282c-0.375,0-0.667,0.062-0.877,0.186c-0.209,0.124-0.362,0.341-0.458,0.652
				s-0.145,0.751-0.145,1.32H405.58z"/>
			<path style="fill:#FFFFFF;" d="M410.184,386.502h1.835l0.548,1.32c0.343-0.451,0.711-0.803,1.102-1.055
				c0.391-0.253,0.84-0.378,1.345-0.378c0.279,0,0.515,0.026,0.708,0.08v2.447c-0.558-0.054-0.896-0.08-1.014-0.08
				c-0.461,0-0.859,0.075-1.192,0.225s-0.649,0.386-0.949,0.708v5.378h-2.383V386.502z"/>
		</g>
	</g>
	<g>
		<g>
			<rect x="450.529" y="370.824" style="fill:#FF3369;" width="63.056" height="38.986"/>
		</g>
		<g>
			<path style="fill:#FFFFFF;" d="M467.247,383.234h1.917l4.99,7.856v-7.856h2.383v11.913h-1.916l-4.975-7.856v7.856h-2.399V383.234
				z"/>
			<path style="fill:#FFFFFF;" d="M481.478,383.234h3.011l3.735,11.913h-2.479l-0.757-2.496h-4.057l-0.74,2.496h-2.447
				L481.478,383.234z M484.424,390.511l-1.464-5.233l-1.465,5.233H484.424z"/>
			<path style="fill:#FFFFFF;" d="M491.154,395.131c-0.699-0.075-1.289-0.171-1.772-0.29v-1.883
				c0.955,0.096,2.163,0.145,3.622,0.145c0.655,0,1.149-0.089,1.482-0.266s0.499-0.491,0.499-0.942v-0.435
				c0-0.354-0.104-0.625-0.314-0.812c-0.209-0.188-0.507-0.282-0.893-0.282h-1.014c-1.18,0-2.064-0.258-2.648-0.773
				c-0.585-0.515-0.878-1.358-0.878-2.528v-0.579c0-2.232,1.283-3.348,3.848-3.348c0.6,0,1.223,0.04,1.867,0.121
				c0.644,0.08,1.224,0.174,1.739,0.282v1.883c-1.47-0.096-2.582-0.145-3.333-0.145c-0.611,0-1.073,0.094-1.384,0.282
				c-0.311,0.188-0.466,0.534-0.466,1.038v0.321c0,0.409,0.115,0.707,0.346,0.894c0.231,0.188,0.582,0.281,1.055,0.281h1.175
				c1.03,0,1.816,0.282,2.359,0.846c0.542,0.564,0.812,1.301,0.812,2.214v0.676c0,0.902-0.166,1.601-0.499,2.1
				c-0.333,0.5-0.799,0.843-1.4,1.03c-0.601,0.188-1.347,0.282-2.238,0.282C492.506,395.244,491.851,395.206,491.154,395.131z"/>
		</g>
	</g>
	<g>
		<g>
			<rect x="358.387" y="167.615" style="fill:#FF3369;" width="63.056" height="38.986"/>
		</g>
		<g>
			<path style="fill:#FFFFFF;" d="M381.23,180.026h5.023c0.999,0,1.819,0.279,2.463,0.837c0.644,0.559,0.966,1.643,0.966,3.252
				c0,2.791-1.111,4.186-3.332,4.186c-0.344,0-0.789-0.029-1.337-0.088s-1.014-0.116-1.4-0.169v3.896h-2.383L381.23,180.026
				L381.23,180.026z M385.979,186.16c0.43,0,0.754-0.161,0.975-0.484c0.22-0.321,0.33-0.837,0.33-1.545
				c0-1.309-0.418-1.964-1.255-1.964h-2.414v3.993H385.979z"/>
			<path style="fill:#FFFFFF;" d="M392.822,191.561c-0.613-0.316-1.082-0.918-1.409-1.803c-0.328-0.885-0.492-2.155-0.492-3.808
				c0-1.588,0.169-2.822,0.508-3.702c0.338-0.88,0.817-1.49,1.44-1.827c0.623-0.339,1.423-0.507,2.399-0.507
				c0.73,0,1.417,0.056,2.061,0.168c0.644,0.114,1.197,0.244,1.658,0.394v1.852c-0.321-0.075-0.778-0.139-1.368-0.193
				s-1.208-0.081-1.852-0.081c-0.644,0-1.138,0.099-1.482,0.298c-0.343,0.199-0.592,0.574-0.748,1.127
				c-0.155,0.553-0.233,1.382-0.233,2.488c0,1.095,0.07,1.916,0.209,2.463c0.14,0.548,0.381,0.929,0.725,1.143
				c0.343,0.215,0.853,0.322,1.529,0.322c1.309,0,2.383-0.054,3.22-0.161v1.835c-0.955,0.311-2.206,0.466-3.751,0.466
				C394.239,192.035,393.434,191.877,392.822,191.561z"/>
		</g>
	</g>
	<g>
		<g>
			<rect x="450.529" y="167.615" style="fill:#FF3369;" width="63.056" height="38.986"/>
		</g>
		<g>
			<path style="fill:#FFFFFF;" d="M473.373,180.026h5.023c0.999,0,1.819,0.279,2.463,0.837c0.644,0.559,0.966,1.643,0.966,3.252
				c0,2.791-1.111,4.186-3.332,4.186c-0.344,0-0.789-0.029-1.337-0.088c-0.548-0.059-1.014-0.116-1.4-0.169v3.896h-2.383
				L473.373,180.026L473.373,180.026z M478.121,186.16c0.43,0,0.754-0.161,0.975-0.484c0.22-0.321,0.33-0.837,0.33-1.545
				c0-1.309-0.418-1.964-1.255-1.964h-2.415v3.993H478.121z"/>
			<path style="fill:#FFFFFF;" d="M484.964,191.561c-0.612-0.316-1.082-0.918-1.409-1.803c-0.328-0.885-0.492-2.155-0.492-3.808
				c0-1.588,0.169-2.822,0.508-3.702c0.338-0.88,0.817-1.49,1.44-1.827c0.623-0.339,1.423-0.507,2.399-0.507
				c0.73,0,1.417,0.056,2.061,0.168c0.644,0.114,1.197,0.244,1.658,0.394v1.852c-0.321-0.075-0.778-0.139-1.368-0.193
				c-0.59-0.054-1.208-0.081-1.852-0.081c-0.644,0-1.138,0.099-1.482,0.298c-0.343,0.199-0.592,0.574-0.748,1.127
				c-0.155,0.553-0.233,1.382-0.233,2.488c0,1.095,0.07,1.916,0.209,2.463c0.14,0.548,0.381,0.929,0.725,1.143
				c0.343,0.215,0.853,0.322,1.529,0.322c1.309,0,2.383-0.054,3.22-0.161v1.835c-0.955,0.311-2.206,0.466-3.751,0.466
				C486.381,192.035,485.576,191.877,484.964,191.561z"/>
		</g>
	</g>
	<g>
		<path style="fill:#FFFFFF;" d="M458.992,270.65h-65.545c-0.86,0-1.558-0.698-1.558-1.558s0.698-1.558,1.558-1.558h60.84
			l-5.194-3.862c-0.69-0.514-0.834-1.49-0.32-2.18c0.515-0.69,1.489-0.831,2.18-0.32l8.969,6.67c0.538,0.402,0.76,1.102,0.549,1.74
			C460.26,270.219,459.663,270.65,458.992,270.65z"/>
	</g>
	<g>
		<path style="fill:#FFFFFF;" d="M402.415,287.758c-0.323,0-0.649-0.1-0.929-0.307l-8.969-6.67c-0.538-0.402-0.76-1.102-0.549-1.74
			c0.211-0.637,0.807-1.068,1.479-1.068h65.545c0.86,0,1.558,0.698,1.558,1.558c0,0.86-0.698,1.558-1.558,1.558h-60.84l5.194,3.862
			c0.69,0.514,0.834,1.49,0.32,2.18C403.36,287.541,402.891,287.758,402.415,287.758z"/>
	</g>
	<g>
		<rect x="680.273" y="268.777" style="fill:#FFFFFF;" width="48.169" height="41.482"/>
		<path style="fill:#FF3369;" d="M728.442,311.816h-48.169c-0.86,0-1.558-0.698-1.558-1.558v-41.482c0-0.86,0.698-1.558,1.558-1.558
			h48.169c0.86,0,1.558,0.698,1.558,1.558v41.482C730,311.118,729.302,311.816,728.442,311.816z M681.831,308.701h45.054v-38.366
			h-45.054V308.701z"/>
	</g>
	<g>
		<path d="M693.428,282.433h2.383v11.913h-2.383V282.433z"/>
		<path d="M699.497,294.331c-0.699-0.075-1.289-0.171-1.772-0.29v-1.883c0.955,0.096,2.163,0.145,3.622,0.145
			c0.655,0,1.149-0.089,1.482-0.266s0.499-0.491,0.499-0.942v-0.435c0-0.354-0.104-0.625-0.314-0.812
			c-0.209-0.188-0.507-0.282-0.893-0.282h-1.014c-1.18,0-2.064-0.258-2.648-0.773c-0.585-0.515-0.878-1.358-0.878-2.528v-0.579
			c0-2.232,1.283-3.348,3.848-3.348c0.6,0,1.223,0.04,1.867,0.121c0.644,0.08,1.224,0.174,1.739,0.282v1.883
			c-1.47-0.096-2.582-0.145-3.333-0.145c-0.612,0-1.073,0.094-1.384,0.282c-0.311,0.188-0.466,0.534-0.466,1.038v0.321
			c0,0.409,0.115,0.707,0.346,0.894c0.231,0.188,0.582,0.281,1.055,0.281h1.175c1.03,0,1.816,0.282,2.359,0.846
			c0.542,0.564,0.812,1.301,0.812,2.214v0.676c0,0.901-0.166,1.601-0.499,2.1c-0.333,0.5-0.799,0.843-1.4,1.03
			c-0.601,0.188-1.347,0.282-2.238,0.282C700.849,294.443,700.193,294.406,699.497,294.331z"/>
		<path d="M707.353,282.433h5.023c0.999,0,1.819,0.279,2.463,0.837c0.644,0.559,0.966,1.643,0.966,3.252
			c0,2.791-1.111,4.186-3.332,4.186c-0.344,0-0.789-0.029-1.337-0.088s-1.014-0.116-1.4-0.169v3.896h-2.383L707.353,282.433
			L707.353,282.433z M712.102,288.568c0.43,0,0.754-0.161,0.974-0.484c0.22-0.321,0.33-0.837,0.33-1.545
			c0-1.309-0.418-1.964-1.255-1.964h-2.414v3.993H712.102z"/>
	</g>
	<g>
		<g>
			<path d="M138.538,295h-22.893c-1.044,0-1.893-0.85-1.893-1.893v-36.051c0-1.043,0.849-1.893,1.893-1.893h22.893
				c1.043,0,1.892,0.849,1.892,1.891v36.054C140.43,294.151,139.581,295,138.538,295z M115.645,256.72
				c-0.185,0-0.336,0.15-0.336,0.336v36.051c0,0.186,0.151,0.336,0.336,0.336h22.893c0.184,0,0.334-0.15,0.334-0.335v-36.054
				c0-0.184-0.15-0.334-0.334-0.334H115.645z"/>
		</g>
		<g>
			<path d="M136.298,289.91h-18.412c-0.923,0-1.675-0.751-1.675-1.675V259.24c0-0.924,0.751-1.675,1.675-1.675h18.412
				c0.923,0,1.674,0.751,1.674,1.674v28.997C137.972,289.159,137.221,289.91,136.298,289.91z M117.886,259.122
				c-0.064,0-0.117,0.053-0.117,0.118v28.995c0,0.065,0.053,0.118,0.117,0.118h18.412c0.064,0,0.117-0.053,0.117-0.117v-28.997
				c0-0.064-0.052-0.117-0.117-0.117H117.886z"/>
		</g>
		<g>
			<circle cx="127.091" cy="291.666" r="1.069"/>
		</g>
		<g>
			<path d="M97.695,310.434c-0.467-0.05-0.863-0.115-1.187-0.194v-1.263c0.64,0.065,1.45,0.097,2.428,0.097
				c0.439,0,0.77-0.06,0.993-0.178c0.223-0.119,0.335-0.329,0.335-0.631v-0.291c0-0.238-0.07-0.42-0.21-0.546
				c-0.14-0.126-0.34-0.189-0.599-0.189h-0.68c-0.791,0-1.383-0.172-1.775-0.518c-0.392-0.345-0.588-0.91-0.588-1.693v-0.388
				c0-1.496,0.859-2.244,2.579-2.244c0.403,0,0.82,0.026,1.251,0.081c0.431,0.054,0.82,0.117,1.165,0.189v1.263
				c-0.986-0.065-1.73-0.097-2.233-0.097c-0.41,0-0.719,0.063-0.928,0.189c-0.208,0.126-0.313,0.358-0.313,0.696v0.216
				c0,0.274,0.077,0.474,0.232,0.599c0.155,0.126,0.39,0.189,0.707,0.189h0.787c0.691,0,1.217,0.189,1.58,0.566
				c0.363,0.378,0.545,0.873,0.545,1.484v0.453c0,0.604-0.112,1.074-0.335,1.409s-0.536,0.565-0.939,0.691s-0.903,0.189-1.5,0.189
				C98.602,310.51,98.163,310.485,97.695,310.434z"/>
			<path d="M102.885,304.652h1.316l0.28,0.593c0.295-0.223,0.59-0.394,0.885-0.513c0.295-0.119,0.644-0.177,1.047-0.177
				c0.352,0,0.651,0.074,0.895,0.221c0.244,0.147,0.432,0.347,0.561,0.598c0.295-0.222,0.622-0.415,0.982-0.577
				c0.36-0.161,0.708-0.242,1.047-0.242c0.662,0,1.133,0.184,1.414,0.55c0.28,0.367,0.421,0.895,0.421,1.586v3.755h-1.597v-3.614
				c0-0.274-0.074-0.482-0.222-0.626s-0.35-0.216-0.609-0.216c-0.209,0-0.423,0.043-0.642,0.13c-0.22,0.086-0.419,0.194-0.599,0.323
				c0.028,0.187,0.043,0.328,0.043,0.421v3.582h-1.597v-3.614c0-0.274-0.074-0.482-0.221-0.626c-0.148-0.144-0.351-0.216-0.61-0.216
				c-0.395,0-0.795,0.144-1.198,0.431v4.025h-1.597v-5.794H102.885z"/>
			<path d="M113.086,310.116c-0.27-0.262-0.405-0.62-0.405-1.073v-0.518c0-0.46,0.16-0.826,0.48-1.1s0.797-0.41,1.43-0.41h1.478
				v-0.4c0-0.195-0.032-0.347-0.097-0.458c-0.065-0.112-0.187-0.195-0.367-0.248c-0.18-0.054-0.446-0.081-0.799-0.081h-1.737V304.9
				c0.712-0.216,1.485-0.323,2.32-0.323c0.762,0,1.332,0.144,1.71,0.432c0.378,0.287,0.566,0.787,0.566,1.5v3.938h-1.262
				l-0.259-0.615c-0.079,0.079-0.22,0.172-0.421,0.28s-0.441,0.202-0.717,0.281s-0.559,0.119-0.847,0.119
				C113.714,310.51,113.356,310.378,113.086,310.116z M115.605,309.285c0.244-0.075,0.399-0.131,0.464-0.167v-1.349l-0.971,0.065
				c-0.547,0.044-0.82,0.281-0.82,0.712v0.238c0,0.41,0.237,0.615,0.712,0.615C115.156,309.399,115.361,309.361,115.605,309.285z"/>
			<path d="M118.864,304.652h1.23l0.367,0.884c0.23-0.302,0.477-0.537,0.739-0.707c0.263-0.168,0.563-0.254,0.901-0.254
				c0.187,0,0.345,0.018,0.475,0.054v1.64c-0.374-0.035-0.601-0.054-0.68-0.054c-0.309,0-0.575,0.051-0.798,0.151
				c-0.223,0.101-0.436,0.26-0.637,0.475v3.604h-1.597V304.652z"/>
			<path d="M124.647,310.25c-0.274-0.129-0.472-0.345-0.594-0.647s-0.176-0.708-0.162-1.219l0.054-2.449h-0.907v-1.025l0.96-0.259
				l0.216-1.618h1.262v1.618h1.359v1.284h-1.359v2.438c0,0.288,0.05,0.49,0.151,0.604c0.101,0.116,0.241,0.188,0.421,0.216
				l0.734,0.065v1.186h-1.047C125.283,310.445,124.92,310.38,124.647,310.25z"/>
			<path d="M127.732,304.652h1.338l0.259,0.55c0.539-0.424,1.075-0.637,1.608-0.637c0.698,0,1.214,0.26,1.548,0.777
				c0.335,0.518,0.502,1.255,0.502,2.213c0,0.992-0.153,1.735-0.458,2.228c-0.306,0.493-0.837,0.738-1.592,0.738
				c-0.273,0-0.552-0.031-0.836-0.096s-0.542-0.158-0.772-0.281v2.86h-1.597L127.732,304.652L127.732,304.652z M131.125,308.843
				c0.176-0.241,0.265-0.67,0.265-1.289s-0.087-1.058-0.259-1.316c-0.173-0.26-0.41-0.388-0.712-0.388
				c-0.359,0-0.723,0.107-1.09,0.323v2.751c0.137,0.086,0.304,0.154,0.502,0.205s0.393,0.075,0.588,0.075
				C130.714,309.204,130.949,309.084,131.125,308.843z"/>
			<path d="M134.044,302.224h1.597v3.021c0.216-0.188,0.494-0.349,0.836-0.486s0.678-0.205,1.009-0.205
				c1.187,0,1.78,0.687,1.78,2.061v3.83h-1.597v-3.625c0-0.266-0.076-0.471-0.227-0.615c-0.151-0.144-0.352-0.216-0.604-0.216
				c-0.395,0-0.795,0.144-1.198,0.431v4.025h-1.597v-8.221H134.044z"/>
			<path d="M141.391,310.224c-0.381-0.184-0.66-0.489-0.836-0.917c-0.176-0.428-0.265-1.02-0.265-1.776
				c0-0.784,0.088-1.389,0.265-1.817c0.176-0.428,0.455-0.727,0.836-0.896c0.381-0.168,0.899-0.254,1.554-0.254
				c0.662,0,1.183,0.088,1.565,0.265c0.381,0.176,0.66,0.479,0.836,0.907s0.264,1.026,0.264,1.796s-0.086,1.369-0.259,1.797
				c-0.172,0.428-0.449,0.73-0.831,0.907c-0.381,0.175-0.907,0.264-1.575,0.264C142.29,310.499,141.772,310.408,141.391,310.224z
				 M143.582,309.113c0.143-0.075,0.251-0.233,0.323-0.475c0.072-0.241,0.108-0.609,0.108-1.106c0-0.496-0.036-0.865-0.108-1.105
				c-0.072-0.241-0.18-0.4-0.323-0.475c-0.144-0.076-0.356-0.114-0.637-0.114c-0.273,0-0.482,0.038-0.626,0.114
				c-0.144,0.075-0.252,0.233-0.324,0.475c-0.072,0.24-0.108,0.609-0.108,1.105c0,0.497,0.036,0.865,0.108,1.106
				s0.18,0.4,0.324,0.475s0.352,0.114,0.626,0.114C143.225,309.226,143.438,309.188,143.582,309.113z"/>
			<path d="M146.667,304.652h1.316l0.28,0.593c0.237-0.195,0.522-0.358,0.852-0.491c0.331-0.134,0.655-0.2,0.971-0.2
				c0.655,0,1.119,0.187,1.392,0.561s0.41,0.878,0.41,1.511v3.819h-1.597v-3.614c0-0.274-0.074-0.482-0.221-0.626
				c-0.148-0.144-0.351-0.216-0.61-0.216c-0.395,0-0.795,0.144-1.198,0.431v4.025h-1.597v-5.793H146.667z"/>
			<path d="M153.982,310.24c-0.374-0.172-0.645-0.472-0.814-0.895c-0.169-0.425-0.254-1.021-0.254-1.791
				c0-0.792,0.079-1.401,0.238-1.829c0.158-0.428,0.419-0.728,0.782-0.9c0.364-0.172,0.876-0.26,1.538-0.26
				c0.59,0,1.054,0.058,1.392,0.173s0.584,0.316,0.739,0.603c0.155,0.288,0.232,0.695,0.232,1.22c0,0.561-0.16,0.96-0.48,1.198
				c-0.32,0.237-0.786,0.356-1.397,0.356H154.5c0.015,0.309,0.061,0.549,0.14,0.717c0.079,0.169,0.22,0.292,0.421,0.367
				c0.201,0.076,0.496,0.114,0.885,0.114h1.694v0.938c-0.381,0.08-0.727,0.141-1.036,0.184c-0.309,0.044-0.669,0.065-1.079,0.065
				C154.871,310.499,154.357,310.413,153.982,310.24z M155.795,307.166c0.223,0,0.383-0.046,0.48-0.135
				c0.097-0.09,0.146-0.243,0.146-0.459c0-0.316-0.072-0.537-0.215-0.663c-0.144-0.126-0.388-0.189-0.734-0.189
				c-0.252,0-0.448,0.042-0.588,0.124c-0.14,0.083-0.243,0.228-0.308,0.437c-0.064,0.209-0.097,0.504-0.097,0.885H155.795z"/>
		</g>
	</g>
	<g>
		<g>
			<path d="M154.26,378.736H99.923c-1.408,0-2.552-1.145-2.552-2.552v-38.56c0-1.407,1.144-2.55,2.55-2.55h54.34
				c1.407,0,2.551,1.144,2.551,2.55v38.56C156.812,377.591,155.667,378.736,154.26,378.736z M99.921,336.63
				c-0.548,0-0.993,0.445-0.993,0.993v38.56c0,0.549,0.446,0.995,0.995,0.995h54.337c0.549,0,0.995-0.446,0.995-0.995v-38.56
				c0-0.548-0.446-0.993-0.993-0.993H99.921z"/>
		</g>
		<g>
			<path d="M153.032,373.392H101.15c-0.43,0-0.779-0.349-0.779-0.779v-34.077c0-0.43,0.349-0.779,0.779-0.779h51.882
				c0.43,0,0.779,0.349,0.779,0.779v34.077C153.811,373.044,153.462,373.392,153.032,373.392z M101.929,371.835h50.324v-32.519
				h-50.324V371.835z"/>
		</g>
		<g>
			<path d="M127.091,377.204c-0.993,0-1.801-0.808-1.801-1.801c0-0.993,0.808-1.801,1.801-1.801c0.993,0,1.8,0.808,1.8,1.801
				C128.892,376.396,128.084,377.204,127.091,377.204z M127.091,375.16c-0.134,0-0.243,0.11-0.243,0.243
				c-0.001,0.267,0.486,0.267,0.486,0C127.334,375.269,127.225,375.16,127.091,375.16z"/>
		</g>
		<g>
			<path d="M113.695,388.374h-2.19v-1.435h5.988v1.435h-2.201v6.549h-1.597V388.374z"/>
			<path d="M118.006,394.594c-0.27-0.262-0.405-0.62-0.405-1.073v-0.518c0-0.46,0.16-0.826,0.48-1.1
				c0.32-0.274,0.797-0.41,1.43-0.41h1.478v-0.4c0-0.195-0.032-0.347-0.097-0.458c-0.065-0.112-0.187-0.195-0.367-0.248
				c-0.18-0.054-0.446-0.081-0.799-0.081h-1.737v-0.928c0.712-0.216,1.485-0.323,2.32-0.323c0.762,0,1.332,0.144,1.71,0.432
				c0.378,0.287,0.566,0.787,0.566,1.5v3.938h-1.262l-0.259-0.615c-0.079,0.079-0.22,0.172-0.421,0.28
				c-0.201,0.109-0.441,0.202-0.717,0.281c-0.277,0.079-0.559,0.119-0.847,0.119C118.633,394.988,118.275,394.856,118.006,394.594z
				 M120.525,393.763c0.244-0.075,0.399-0.131,0.464-0.167v-1.349l-0.971,0.065c-0.547,0.044-0.82,0.281-0.82,0.712v0.238
				c0,0.41,0.237,0.615,0.712,0.615C120.075,393.877,120.281,393.839,120.525,393.763z"/>
			<path d="M126.141,394.826c-0.263-0.108-0.516-0.259-0.761-0.453l-0.259,0.551h-1.338v-8.232h1.597v2.837
				c0.252-0.136,0.522-0.251,0.809-0.345c0.287-0.093,0.554-0.141,0.799-0.141c0.496,0,0.893,0.102,1.192,0.308
				c0.299,0.205,0.516,0.528,0.653,0.97c0.136,0.442,0.205,1.03,0.205,1.764c0,0.978-0.162,1.707-0.486,2.184
				c-0.323,0.479-0.82,0.718-1.489,0.718C126.711,394.988,126.403,394.934,126.141,394.826z M127.188,393.305
				c0.169-0.251,0.254-0.683,0.254-1.295c0-0.467-0.044-0.825-0.13-1.073s-0.199-0.412-0.34-0.491
				c-0.14-0.079-0.308-0.119-0.502-0.119c-0.352,0-0.715,0.107-1.09,0.323v2.751c0.345,0.187,0.708,0.28,1.09,0.28
				C126.779,393.682,127.018,393.556,127.188,393.305z"/>
			<path d="M130.543,394.486c-0.299-0.305-0.448-0.782-0.448-1.43v-6.365h1.597v6.128c0,0.309,0.047,0.53,0.14,0.664
				c0.093,0.133,0.248,0.214,0.464,0.242l0.442,0.065v1.154h-0.831C131.296,394.944,130.841,394.792,130.543,394.486z"/>
			<path d="M134.367,394.718c-0.374-0.172-0.645-0.472-0.814-0.895c-0.169-0.425-0.254-1.021-0.254-1.791
				c0-0.792,0.079-1.401,0.238-1.829c0.158-0.428,0.419-0.728,0.782-0.901c0.364-0.172,0.876-0.26,1.538-0.26
				c0.59,0,1.054,0.058,1.392,0.173s0.584,0.316,0.739,0.603c0.155,0.288,0.232,0.695,0.232,1.22c0,0.561-0.16,0.96-0.48,1.198
				c-0.32,0.237-0.786,0.356-1.397,0.356h-1.457c0.015,0.309,0.061,0.549,0.14,0.717c0.079,0.169,0.22,0.292,0.421,0.367
				c0.201,0.076,0.496,0.114,0.885,0.114h1.694v0.938c-0.381,0.08-0.727,0.141-1.036,0.184c-0.309,0.044-0.669,0.065-1.079,0.065
				C135.256,394.977,134.741,394.891,134.367,394.718z M136.18,391.644c0.223,0,0.383-0.046,0.48-0.135
				c0.097-0.09,0.146-0.243,0.146-0.459c0-0.316-0.072-0.537-0.215-0.663c-0.144-0.126-0.388-0.189-0.734-0.189
				c-0.252,0-0.448,0.042-0.588,0.124c-0.14,0.083-0.243,0.228-0.308,0.437c-0.064,0.209-0.097,0.504-0.097,0.885H136.18z"/>
			<path d="M140.377,394.728c-0.274-0.129-0.472-0.345-0.594-0.647s-0.176-0.708-0.162-1.219l0.054-2.449h-0.907v-1.025l0.96-0.259
				l0.216-1.618h1.262v1.618h1.359v1.284h-1.359v2.438c0,0.288,0.05,0.49,0.151,0.604c0.101,0.116,0.241,0.188,0.421,0.216
				l0.734,0.065v1.186h-1.047C141.013,394.923,140.65,394.858,140.377,394.728z"/>
		</g>
	</g>
	<g>
		<g>
			<path d="M155.23,454.641H97.345c-0.43,0-0.779-0.349-0.779-0.779V416.13c0-1.375,1.119-2.495,2.494-2.495h54.454
				c1.375,0,2.494,1.12,2.494,2.495v37.731C156.008,454.292,155.66,454.641,155.23,454.641z M98.124,453.083h56.327V416.13
				c0-0.516-0.42-0.937-0.936-0.937H99.06c-0.516,0-0.936,0.421-0.936,0.937V453.083z"/>
		</g>
		<g>
			<path d="M152.228,451.955h-51.881c-0.43,0-0.779-0.349-0.779-0.779v-32.571c0-1.259,1.024-2.284,2.284-2.284h48.872
				c1.259,0,2.284,1.024,2.284,2.284v32.571C153.007,451.607,152.658,451.955,152.228,451.955z M101.126,450.398h50.324v-31.792
				c0-0.401-0.326-0.726-0.726-0.726h-48.872c-0.401,0-0.726,0.326-0.726,0.726V450.398z"/>
		</g>
		<g>
			<path d="M135.935,474.364H78.05c-0.43,0-0.779-0.349-0.779-0.779v-2.573c0-0.43,0.349-0.779,0.779-0.779h57.885
				c0.43,0,0.779,0.349,0.779,0.779v2.573C136.714,474.015,136.365,474.364,135.935,474.364z M78.829,472.807h56.327v-1.015H78.829
				V472.807z"/>
		</g>
		<g>
			<path d="M135.935,474.364c-0.215,0-0.429-0.088-0.583-0.262c-0.286-0.321-0.257-0.813,0.065-1.099l19.033-16.919v-0.489
				l-17.999,15.999c-0.142,0.127-0.327,0.197-0.517,0.197H78.05c-0.323,0-0.613-0.2-0.728-0.502s-0.031-0.644,0.211-0.859
				l19.295-17.151c0.32-0.286,0.813-0.257,1.099,0.065c0.286,0.321,0.257,0.813-0.065,1.099l-17.763,15.79h55.54l19.074-16.954
				c0.229-0.203,0.557-0.254,0.836-0.129c0.28,0.126,0.46,0.405,0.46,0.711v2.573c0,0.222-0.095,0.434-0.262,0.582l-19.295,17.151
				C136.304,474.299,136.119,474.364,135.935,474.364z"/>
		</g>
		<g>
			<path d="M146.654,458.071h-48.88c-0.43,0-0.779-0.349-0.779-0.779s0.349-0.779,0.779-0.779h48.88c0.43,0,0.779,0.349,0.779,0.779
				S147.084,458.071,146.654,458.071z"/>
		</g>
		<g>
			<path d="M142.795,461.501H94.344c-0.43,0-0.779-0.349-0.779-0.779s0.349-0.779,0.779-0.779h48.451
				c0.43,0,0.779,0.349,0.779,0.779S143.225,461.501,142.795,461.501z"/>
		</g>
		<g>
			<path d="M138.508,464.931H90.485c-0.43,0-0.779-0.349-0.779-0.779s0.349-0.779,0.779-0.779h48.023
				c0.43,0,0.779,0.349,0.779,0.779C139.286,464.583,138.938,464.931,138.508,464.931z"/>
		</g>
		<g>
			<path d="M95.984,464.931c-0.21,0-0.419-0.084-0.573-0.251c-0.291-0.315-0.271-0.808,0.045-1.1l7.444-6.86
				c0.316-0.291,0.81-0.272,1.101,0.046c0.291,0.315,0.271,0.808-0.045,1.1l-7.444,6.86
				C96.362,464.863,96.172,464.931,95.984,464.931z"/>
		</g>
		<g>
			<path d="M102.415,464.931c-0.202,0-0.404-0.078-0.557-0.234c-0.301-0.307-0.295-0.801,0.012-1.101l7.016-6.86
				c0.308-0.3,0.801-0.295,1.101,0.012c0.301,0.307,0.295,0.801-0.012,1.101l-7.016,6.86
				C102.808,464.857,102.611,464.931,102.415,464.931z"/>
		</g>
		<g>
			<path d="M108.418,464.931c-0.202,0-0.404-0.078-0.557-0.234c-0.301-0.307-0.295-0.801,0.012-1.101l7.016-6.86
				c0.308-0.3,0.801-0.295,1.101,0.012c0.301,0.307,0.295,0.801-0.012,1.101l-7.016,6.86
				C108.811,464.857,108.614,464.931,108.418,464.931z"/>
		</g>
		<g>
			<path d="M114.421,464.931c-0.202,0-0.404-0.078-0.557-0.234c-0.301-0.307-0.295-0.801,0.012-1.101l7.015-6.86
				c0.309-0.3,0.801-0.295,1.101,0.012c0.301,0.307,0.295,0.801-0.012,1.101l-7.015,6.86
				C114.814,464.857,114.617,464.931,114.421,464.931z"/>
		</g>
		<g>
			<path d="M120.424,464.931c-0.202,0-0.404-0.078-0.557-0.234c-0.301-0.307-0.295-0.801,0.012-1.101l7.015-6.86
				c0.308-0.3,0.801-0.295,1.101,0.012c0.301,0.307,0.295,0.801-0.012,1.101l-7.015,6.86
				C120.817,464.857,120.62,464.931,120.424,464.931z"/>
		</g>
		<g>
			<path d="M126.855,464.931c-0.202,0-0.404-0.078-0.557-0.234c-0.301-0.307-0.295-0.801,0.012-1.101l7.016-6.86
				c0.308-0.3,0.801-0.295,1.101,0.012c0.301,0.307,0.295,0.801-0.012,1.101l-7.016,6.86
				C127.248,464.857,127.051,464.931,126.855,464.931z"/>
		</g>
		<g>
			<path d="M132.43,464.931c-0.218,0-0.434-0.09-0.588-0.267c-0.282-0.324-0.249-0.816,0.076-1.099l7.873-6.86
				c0.324-0.284,0.816-0.248,1.099,0.075c0.282,0.324,0.249,0.816-0.076,1.099l-7.873,6.86
				C132.793,464.869,132.611,464.931,132.43,464.931z"/>
		</g>
		<g>
			<path d="M138.861,464.931c-0.218,0-0.434-0.09-0.588-0.267c-0.282-0.324-0.249-0.816,0.076-1.099l7.873-6.86
				c0.323-0.284,0.816-0.248,1.099,0.075c0.282,0.324,0.249,0.816-0.076,1.099l-7.873,6.86
				C139.225,464.869,139.043,464.931,138.861,464.931z"/>
		</g>
		<g>
			<path d="M90.409,464.931c-0.21,0-0.419-0.084-0.573-0.251c-0.291-0.315-0.271-0.808,0.045-1.1l7.444-6.86
				c0.316-0.291,0.81-0.272,1.101,0.046c0.291,0.315,0.271,0.808-0.045,1.1l-7.444,6.86
				C90.788,464.863,90.598,464.931,90.409,464.931z"/>
		</g>
		<g>
			<path d="M115.354,469.219h-8.147c-0.328,0-0.621-0.206-0.732-0.514c-0.112-0.308-0.018-0.653,0.234-0.863l2.573-2.144
				c0.14-0.117,0.316-0.181,0.498-0.181h7.718c0.315,0,0.599,0.19,0.719,0.481c0.121,0.291,0.054,0.626-0.169,0.849l-2.144,2.144
				C115.759,469.137,115.56,469.219,115.354,469.219z M109.358,467.661h5.673l0.586-0.586h-5.556L109.358,467.661z"/>
		</g>
		<g>
			<path d="M110.88,489.824c-0.309-0.295-0.464-0.777-0.464-1.446v-6.096h1.597v5.837c0,0.467,0.237,0.701,0.712,0.701h2.525v1.446
				h-2.945C111.664,490.266,111.189,490.119,110.88,489.824z"/>
			<path d="M116.269,489.936c-0.27-0.262-0.405-0.62-0.405-1.073v-0.518c0-0.46,0.16-0.826,0.48-1.1s0.797-0.41,1.43-0.41h1.478
				v-0.4c0-0.195-0.032-0.347-0.097-0.458c-0.065-0.112-0.187-0.195-0.367-0.248s-0.446-0.081-0.799-0.081h-1.737v-0.928
				c0.712-0.216,1.485-0.323,2.32-0.323c0.762,0,1.332,0.144,1.71,0.432c0.378,0.287,0.566,0.787,0.566,1.5v3.938h-1.262
				l-0.259-0.615c-0.079,0.079-0.22,0.172-0.421,0.28c-0.201,0.109-0.441,0.202-0.717,0.281s-0.559,0.119-0.847,0.119
				C116.896,490.331,116.538,490.199,116.269,489.936z M118.788,489.106c0.244-0.075,0.399-0.131,0.464-0.167v-1.349l-0.971,0.065
				c-0.547,0.044-0.82,0.281-0.82,0.712v0.238c0,0.41,0.237,0.615,0.712,0.615C118.338,489.219,118.544,489.182,118.788,489.106z"/>
			<path d="M122.046,484.473h1.338l0.259,0.55c0.539-0.424,1.075-0.637,1.608-0.637c0.698,0,1.214,0.26,1.548,0.777
				c0.335,0.518,0.502,1.255,0.502,2.213c0,0.992-0.153,1.735-0.458,2.228c-0.306,0.493-0.837,0.738-1.592,0.738
				c-0.273,0-0.552-0.031-0.836-0.096s-0.542-0.158-0.772-0.281v2.86h-1.597C122.046,492.825,122.046,484.473,122.046,484.473z
				 M125.439,488.664c0.176-0.241,0.265-0.67,0.265-1.289s-0.087-1.058-0.259-1.316c-0.173-0.26-0.41-0.388-0.712-0.388
				c-0.359,0-0.723,0.107-1.09,0.323v2.751c0.137,0.086,0.304,0.154,0.502,0.205s0.393,0.075,0.588,0.075
				C125.028,489.025,125.263,488.905,125.439,488.664z"/>
			<path d="M129.47,490.071c-0.274-0.129-0.472-0.345-0.594-0.647s-0.176-0.708-0.162-1.219l0.054-2.449h-0.907v-1.025l0.96-0.259
				l0.216-1.618h1.262v1.618h1.359v1.284H130.3v2.438c0,0.288,0.05,0.49,0.151,0.604c0.101,0.116,0.241,0.188,0.421,0.216
				l0.734,0.065v1.186h-1.047C130.106,490.266,129.743,490.201,129.47,490.071z"/>
			<path d="M133.483,490.045c-0.381-0.184-0.66-0.489-0.836-0.917c-0.176-0.428-0.265-1.02-0.265-1.776
				c0-0.784,0.088-1.389,0.265-1.817c0.176-0.428,0.455-0.727,0.836-0.896c0.381-0.168,0.899-0.254,1.554-0.254
				c0.662,0,1.183,0.088,1.565,0.265c0.381,0.176,0.66,0.479,0.836,0.907s0.264,1.026,0.264,1.796s-0.086,1.369-0.259,1.797
				c-0.172,0.428-0.449,0.73-0.831,0.907c-0.381,0.175-0.907,0.264-1.575,0.264C134.382,490.32,133.864,490.228,133.483,490.045z
				 M135.673,488.933c0.143-0.075,0.251-0.233,0.323-0.475c0.072-0.241,0.108-0.609,0.108-1.106c0-0.496-0.036-0.865-0.108-1.105
				c-0.072-0.241-0.18-0.4-0.323-0.475c-0.144-0.076-0.356-0.114-0.637-0.114c-0.273,0-0.482,0.038-0.626,0.114
				c-0.144,0.075-0.252,0.233-0.324,0.475c-0.072,0.24-0.108,0.609-0.108,1.105c0,0.497,0.036,0.865,0.108,1.106
				s0.18,0.4,0.324,0.475s0.352,0.114,0.626,0.114C135.317,489.047,135.529,489.008,135.673,488.933z"/>
			<path d="M138.759,484.473h1.338l0.259,0.55c0.539-0.424,1.075-0.637,1.608-0.637c0.698,0,1.214,0.26,1.548,0.777
				c0.335,0.518,0.502,1.255,0.502,2.213c0,0.992-0.153,1.735-0.458,2.228c-0.306,0.493-0.837,0.738-1.592,0.738
				c-0.273,0-0.552-0.031-0.836-0.096s-0.542-0.158-0.772-0.281v2.86h-1.597L138.759,484.473L138.759,484.473z M142.152,488.664
				c0.176-0.241,0.265-0.67,0.265-1.289s-0.087-1.058-0.259-1.316c-0.173-0.26-0.41-0.388-0.712-0.388
				c-0.359,0-0.723,0.107-1.09,0.323v2.751c0.137,0.086,0.304,0.154,0.502,0.205s0.393,0.075,0.588,0.075
				C141.74,489.025,141.975,488.905,142.152,488.664z"/>
		</g>
	</g>
	<g>
		<path d="M147.72,129.941c-0.721-0.688-1.081-1.811-1.081-3.371v-14.212h3.723v13.609c0,1.09,0.553,1.635,1.66,1.635h5.886v3.371
			h-6.867C149.548,130.972,148.441,130.628,147.72,129.941z"/>
		<path d="M162.084,130.456c-0.889-0.427-1.539-1.14-1.95-2.138s-0.617-2.377-0.617-4.138c0-1.827,0.205-3.24,0.617-4.238
			c0.411-0.998,1.06-1.695,1.95-2.088c0.888-0.394,2.096-0.591,3.622-0.591c1.542,0,2.758,0.205,3.647,0.616
			c0.889,0.412,1.538,1.115,1.95,2.113c0.411,0.998,0.617,2.394,0.617,4.188c0,1.795-0.201,3.191-0.604,4.189
			c-0.403,0.998-1.048,1.702-1.937,2.112c-0.889,0.412-2.113,0.617-3.672,0.617C164.18,131.098,162.973,130.884,162.084,130.456z
			 M167.191,127.865c0.335-0.175,0.587-0.545,0.754-1.106c0.167-0.562,0.251-1.422,0.251-2.579c0-1.157-0.084-2.016-0.251-2.578
			c-0.168-0.562-0.419-0.931-0.754-1.107c-0.336-0.175-0.83-0.264-1.484-0.264c-0.638,0-1.124,0.088-1.459,0.264
			c-0.336,0.176-0.587,0.546-0.754,1.107c-0.168,0.562-0.251,1.421-0.251,2.578c0,1.157,0.084,2.017,0.251,2.579
			c0.167,0.562,0.419,0.931,0.754,1.106c0.335,0.176,0.821,0.265,1.459,0.265C166.361,128.13,166.855,128.041,167.191,127.865z"/>
		<path d="M175.466,129.589c-0.99-1.023-1.484-2.793-1.484-5.308c0-1.795,0.218-3.203,0.654-4.227
			c0.436-1.022,1.073-1.744,1.912-2.163c0.838-0.419,1.903-0.629,3.194-0.629c1.627,0,3.195,0.21,4.704,0.629v2.138H180.9
			c-0.805,0-1.434,0.118-1.887,0.353c-0.453,0.234-0.784,0.654-0.993,1.257c-0.21,0.603-0.314,1.475-0.314,2.616
			c0,1.124,0.104,1.974,0.314,2.553c0.209,0.578,0.54,0.972,0.993,1.181c0.453,0.21,1.098,0.315,1.937,0.315h3.698v2.112
			c-0.638,0.202-1.418,0.369-2.339,0.503c-0.923,0.135-1.811,0.202-2.666,0.202C177.847,131.123,176.456,130.612,175.466,129.589z"
			/>
		<path d="M187.075,130.204c-0.629-0.611-0.943-1.446-0.943-2.503v-1.207c0-1.074,0.373-1.929,1.12-2.567
			c0.746-0.637,1.857-0.955,3.333-0.955h3.446v-0.931c0-0.453-0.076-0.809-0.227-1.069c-0.151-0.261-0.436-0.453-0.855-0.579
			c-0.419-0.126-1.04-0.189-1.862-0.189h-4.05v-2.163c1.66-0.503,3.463-0.754,5.408-0.754c1.778,0,3.107,0.336,3.987,1.006
			s1.321,1.836,1.321,3.497v9.181h-2.943l-0.604-1.434c-0.185,0.185-0.512,0.403-0.981,0.654c-0.47,0.251-1.027,0.47-1.673,0.654
			c-0.645,0.185-1.304,0.277-1.974,0.277C188.538,131.123,187.704,130.817,187.075,130.204z M192.949,128.268
			c0.57-0.175,0.93-0.305,1.082-0.389v-3.145l-2.264,0.151c-1.275,0.1-1.912,0.654-1.912,1.66v0.554
			c0,0.956,0.554,1.434,1.661,1.434C191.9,128.532,192.379,128.444,192.949,128.268z"/>
		<path d="M201.589,129.953c-0.696-0.712-1.044-1.823-1.044-3.332v-14.842h3.723v14.288c0,0.721,0.109,1.237,0.327,1.546
			c0.218,0.311,0.579,0.5,1.082,0.567l1.031,0.15v2.692h-1.937C203.346,131.023,202.285,130.666,201.589,129.953z"/>
		<path d="M215.273,130.204c-0.629-0.611-0.943-1.446-0.943-2.503v-1.207c0-1.074,0.373-1.929,1.12-2.567
			c0.746-0.637,1.857-0.955,3.333-0.955h3.446v-0.931c0-0.453-0.076-0.809-0.227-1.069c-0.151-0.261-0.436-0.453-0.855-0.579
			c-0.419-0.126-1.04-0.189-1.862-0.189h-4.05v-2.163c1.66-0.503,3.463-0.754,5.408-0.754c1.778,0,3.107,0.336,3.987,1.006
			s1.321,1.836,1.321,3.497v9.181h-2.943l-0.604-1.434c-0.185,0.185-0.512,0.403-0.981,0.654c-0.47,0.251-1.027,0.47-1.673,0.654
			c-0.645,0.185-1.304,0.277-1.974,0.277C216.736,131.123,215.902,130.817,215.273,130.204z M221.147,128.268
			c0.57-0.175,0.93-0.305,1.081-0.389v-3.145l-2.264,0.151c-1.275,0.1-1.912,0.654-1.912,1.66v0.554
			c0,0.956,0.554,1.434,1.661,1.434C220.098,128.532,220.576,128.444,221.147,128.268z"/>
		<path d="M228.743,117.464h2.868l0.855,2.063c0.537-0.704,1.111-1.253,1.723-1.648c0.612-0.393,1.312-0.59,2.1-0.59
			c0.436,0,0.805,0.042,1.107,0.126v3.823c-0.872-0.083-1.4-0.126-1.584-0.126c-0.721,0-1.342,0.118-1.861,0.352
			c-0.52,0.235-1.015,0.604-1.485,1.107v8.402h-3.723V117.464z"/>
		<path d="M241.472,130.494c-0.872-0.403-1.505-1.098-1.899-2.088c-0.394-0.99-0.591-2.381-0.591-4.176
			c0-1.845,0.185-3.266,0.554-4.264c0.369-0.997,0.977-1.698,1.823-2.1c0.847-0.403,2.042-0.603,3.585-0.603
			c1.375,0,2.457,0.134,3.245,0.403c0.788,0.268,1.362,0.738,1.723,1.409s0.541,1.618,0.541,2.842c0,1.308-0.373,2.239-1.12,2.792
			c-0.746,0.554-1.832,0.831-3.257,0.831h-3.396c0.033,0.721,0.142,1.279,0.327,1.673c0.185,0.393,0.512,0.678,0.981,0.855
			c0.469,0.176,1.157,0.264,2.063,0.264H250v2.188c-0.889,0.186-1.694,0.328-2.415,0.428c-0.721,0.1-1.56,0.151-2.515,0.151
			C243.542,131.098,242.343,130.897,241.472,130.494z M245.697,123.325c0.52,0,0.893-0.104,1.12-0.314
			c0.227-0.21,0.34-0.566,0.34-1.069c0-0.738-0.168-1.253-0.503-1.547c-0.336-0.293-0.906-0.44-1.711-0.44
			c-0.587,0-1.044,0.096-1.371,0.289c-0.327,0.194-0.566,0.532-0.717,1.019s-0.226,1.174-0.226,2.063L245.697,123.325
			L245.697,123.325z"/>
		<path d="M253.256,130.204c-0.629-0.611-0.943-1.446-0.943-2.503v-1.207c0-1.074,0.373-1.929,1.12-2.567
			c0.746-0.637,1.857-0.955,3.333-0.955h3.446v-0.931c0-0.453-0.076-0.809-0.227-1.069c-0.151-0.261-0.436-0.453-0.855-0.579
			s-1.04-0.189-1.862-0.189h-4.05v-2.163c1.66-0.503,3.463-0.754,5.408-0.754c1.778,0,3.107,0.336,3.987,1.006
			s1.321,1.836,1.321,3.497v9.181h-2.943l-0.604-1.434c-0.185,0.185-0.512,0.403-0.981,0.654c-0.47,0.251-1.027,0.47-1.673,0.654
			c-0.645,0.185-1.304,0.277-1.974,0.277C254.719,131.123,253.885,130.817,253.256,130.204z M259.13,128.268
			c0.57-0.175,0.93-0.305,1.082-0.389v-3.145l-2.264,0.151c-1.275,0.1-1.912,0.654-1.912,1.66v0.554
			c0,0.956,0.554,1.434,1.661,1.434C258.082,128.532,258.56,128.444,259.13,128.268z"/>
		<path d="M273.216,117.464h3.069l0.654,1.384c0.554-0.453,1.216-0.835,1.988-1.145c0.771-0.31,1.526-0.465,2.264-0.465
			c1.526,0,2.607,0.436,3.245,1.308c0.637,0.872,0.956,2.046,0.956,3.522v8.905h-3.723v-8.427c0-0.637-0.172-1.124-0.516-1.459
			s-0.817-0.503-1.421-0.503c-0.922,0-1.853,0.336-2.792,1.006v9.383h-3.723v-13.509H273.216z"/>
		<path d="M290.271,130.494c-0.872-0.403-1.505-1.098-1.899-2.088c-0.394-0.99-0.591-2.381-0.591-4.176
			c0-1.845,0.185-3.266,0.554-4.264c0.369-0.997,0.977-1.698,1.823-2.1s2.042-0.603,3.585-0.603c1.375,0,2.457,0.134,3.245,0.403
			c0.788,0.268,1.362,0.738,1.723,1.409s0.541,1.618,0.541,2.842c0,1.308-0.373,2.239-1.12,2.792
			c-0.746,0.554-1.832,0.831-3.257,0.831h-3.396c0.033,0.721,0.142,1.279,0.327,1.673c0.185,0.393,0.512,0.678,0.981,0.855
			c0.469,0.176,1.157,0.264,2.063,0.264h3.949v2.188c-0.889,0.186-1.694,0.328-2.415,0.428c-0.721,0.1-1.56,0.151-2.515,0.151
			C292.342,131.098,291.143,130.897,290.271,130.494z M294.497,123.325c0.52,0,0.893-0.104,1.12-0.314
			c0.227-0.21,0.34-0.566,0.34-1.069c0-0.738-0.168-1.253-0.503-1.547c-0.336-0.293-0.906-0.44-1.711-0.44
			c-0.587,0-1.044,0.096-1.371,0.289c-0.327,0.194-0.566,0.532-0.717,1.019s-0.226,1.174-0.226,2.063L294.497,123.325
			L294.497,123.325z"/>
		<path d="M304.282,130.519c-0.637-0.301-1.099-0.804-1.384-1.509c-0.285-0.704-0.411-1.652-0.377-2.842l0.126-5.71h-2.113v-2.389
			l2.239-0.604l0.503-3.773h2.943v3.773h3.169v2.994h-3.169v5.685c0,0.671,0.117,1.141,0.352,1.409
			c0.234,0.269,0.561,0.437,0.981,0.504l1.711,0.15v2.767h-2.44C305.766,130.972,304.919,130.821,304.282,130.519z"/>
		<path d="M310.344,117.464h3.849l2.138,10.063l2.666-10.063h3.069l2.666,10.063l1.937-10.063h3.848l-3.522,13.508h-4.125
			l-2.415-8.226l-2.49,8.226h-4.05L310.344,117.464z"/>
		<path d="M333.915,130.456c-0.889-0.427-1.539-1.14-1.95-2.138s-0.617-2.377-0.617-4.138c0-1.827,0.205-3.24,0.617-4.238
			c0.411-0.998,1.06-1.695,1.95-2.088c0.888-0.394,2.096-0.591,3.622-0.591c1.542,0,2.758,0.205,3.647,0.616
			c0.889,0.412,1.538,1.115,1.95,2.113c0.411,0.998,0.617,2.394,0.617,4.188c0,1.795-0.201,3.191-0.604,4.189
			c-0.403,0.998-1.048,1.702-1.937,2.112c-0.889,0.412-2.113,0.617-3.672,0.617C336.011,131.098,334.803,130.884,333.915,130.456z
			 M339.021,127.865c0.335-0.175,0.587-0.545,0.754-1.106c0.167-0.562,0.251-1.422,0.251-2.579c0-1.157-0.084-2.016-0.251-2.578
			c-0.168-0.562-0.419-0.931-0.754-1.107c-0.336-0.175-0.83-0.264-1.484-0.264c-0.638,0-1.124,0.088-1.459,0.264
			c-0.336,0.176-0.587,0.546-0.754,1.107c-0.168,0.562-0.251,1.421-0.251,2.578c0,1.157,0.084,2.017,0.251,2.579
			c0.167,0.562,0.419,0.931,0.754,1.106c0.335,0.176,0.821,0.265,1.459,0.265C338.191,128.13,338.685,128.041,339.021,127.865z"/>
		<path d="M346.215,117.464h2.868l0.855,2.063c0.537-0.704,1.111-1.253,1.723-1.648c0.612-0.393,1.312-0.59,2.1-0.59
			c0.436,0,0.805,0.042,1.107,0.126v3.823c-0.872-0.083-1.4-0.126-1.584-0.126c-0.721,0-1.342,0.118-1.861,0.352
			c-0.52,0.235-1.015,0.604-1.485,1.107v8.402h-3.723L346.215,117.464L346.215,117.464z"/>
		<path d="M356.855,111.779h3.723v10.364h1.585l2.968-4.679h3.774l-3.975,6.364l4.378,7.144h-3.774l-3.421-5.484h-1.535v5.484
			h-3.723L356.855,111.779L356.855,111.779z"/>
		<path d="M378.527,130.406c-0.813-2.139-1.22-4.683-1.22-7.635c0-2.8,0.419-5.29,1.257-7.471c0.839-2.18,1.937-4.167,3.296-5.962
			h3.32c-1.275,2.096-2.285,4.226-3.031,6.39c-0.746,2.163-1.12,4.511-1.12,7.043c0,2.566,0.344,4.872,1.031,6.918
			c0.688,2.045,1.727,4.234,3.119,6.565h-3.32C380.45,134.494,379.34,132.544,378.527,130.406z"/>
		<path d="M388.274,129.941c-0.721-0.688-1.081-1.811-1.081-3.371v-14.212h3.723v13.609c0,1.09,0.554,1.635,1.66,1.635h5.887v3.371
			h-6.867C390.102,130.972,388.995,130.628,388.274,129.941z"/>
		<path d="M405.303,112.358h4.703l5.836,18.614h-3.874l-1.182-3.899h-6.339l-1.157,3.899h-3.823L405.303,112.358z M409.906,123.728
			l-2.289-8.175l-2.29,8.175H409.906z"/>
		<path d="M418.006,112.358H421l7.797,12.275v-12.275h3.724v18.614h-2.994l-7.773-12.275v12.275h-3.748V112.358z"/>
		<path d="M437.401,129.84c0.737-2.147,1.106-4.494,1.106-7.044c0-2.566-0.34-4.872-1.019-6.918
			c-0.678-2.045-1.723-4.226-3.131-6.54h3.345c1.426,1.778,2.541,3.727,3.345,5.848c0.805,2.121,1.208,4.659,1.208,7.61
			c0,2.817-0.411,5.312-1.232,7.484c-0.822,2.171-1.929,4.163-3.321,5.974h-3.345C435.648,134.125,436.663,131.986,437.401,129.84z"
			/>
	</g>
	<g>
		<path d="M568.421,324.012h3.814c0.813,0,1.455,0.218,1.925,0.654s0.704,1.203,0.704,2.299c0,0.773-0.131,1.346-0.392,1.72
			c-0.262,0.374-0.617,0.656-1.065,0.847l1.719,3.701h-1.881l-1.483-3.414c-0.4,0-0.897-0.008-1.496-0.024v3.439h-1.845
			L568.421,324.012L568.421,324.012z M571.911,328.336c0.357,0,0.632-0.101,0.822-0.305c0.191-0.204,0.287-0.559,0.287-1.066
			c0-0.49-0.096-0.828-0.287-1.015c-0.191-0.188-0.465-0.281-0.822-0.281h-1.645v2.667L571.911,328.336L571.911,328.336z"/>
		<path d="M577.095,332.978c-0.44-0.212-0.762-0.565-0.965-1.059c-0.204-0.495-0.305-1.178-0.305-2.05
			c0-0.906,0.101-1.605,0.305-2.099c0.204-0.495,0.525-0.84,0.965-1.034c0.44-0.196,1.038-0.293,1.795-0.293
			c0.764,0,1.366,0.101,1.806,0.305c0.441,0.204,0.763,0.553,0.966,1.047c0.203,0.495,0.305,1.186,0.305,2.075
			s-0.1,1.581-0.299,2.075c-0.2,0.495-0.519,0.844-0.959,1.047c-0.441,0.204-1.047,0.305-1.819,0.305
			C578.133,333.295,577.535,333.19,577.095,332.978z M579.625,331.694c0.165-0.087,0.29-0.27,0.373-0.548
			c0.083-0.279,0.125-0.705,0.125-1.278c0-0.573-0.042-0.999-0.125-1.277c-0.083-0.279-0.208-0.461-0.373-0.549
			c-0.166-0.087-0.412-0.131-0.735-0.131c-0.316,0-0.557,0.044-0.723,0.131s-0.291,0.27-0.374,0.549
			c-0.083,0.278-0.125,0.704-0.125,1.277s0.042,0.999,0.125,1.278c0.083,0.278,0.208,0.46,0.374,0.548
			c0.166,0.087,0.407,0.131,0.723,0.131C579.213,331.825,579.458,331.781,579.625,331.694z"/>
		<path d="M583.668,332.772c-0.337-0.357-0.505-0.855-0.505-1.495v-4.736h1.844v4.187c0,0.357,0.081,0.604,0.243,0.741
			s0.405,0.206,0.729,0.206c0.232,0,0.471-0.044,0.716-0.131s0.463-0.206,0.655-0.355v-4.648h1.857v6.692h-1.533l-0.323-0.686
			c-0.773,0.507-1.529,0.761-2.268,0.761C584.475,333.308,584.003,333.13,583.668,332.772z"/>
		<path d="M591.885,333.009c-0.315-0.15-0.545-0.399-0.685-0.747c-0.141-0.35-0.204-0.818-0.187-1.409l0.062-2.828h-1.047v-1.184
			l1.109-0.299l0.249-1.869h1.457v1.869h1.571v1.484h-1.571v2.816c0,0.332,0.058,0.565,0.174,0.698
			c0.117,0.133,0.279,0.216,0.487,0.249l0.847,0.074v1.371h-1.209C592.62,333.233,592.2,333.158,591.885,333.009z"/>
		<path d="M596.483,332.997c-0.432-0.2-0.745-0.545-0.94-1.034c-0.196-0.491-0.293-1.18-0.293-2.069
			c0-0.914,0.091-1.618,0.274-2.112s0.484-0.841,0.904-1.04c0.42-0.2,1.011-0.299,1.776-0.299c0.681,0,1.217,0.067,1.607,0.2
			c0.39,0.133,0.675,0.365,0.854,0.698c0.178,0.333,0.268,0.801,0.268,1.408c0,0.648-0.185,1.109-0.555,1.383
			c-0.369,0.275-0.908,0.412-1.613,0.412h-1.682c0.016,0.357,0.071,0.634,0.162,0.828c0.091,0.196,0.253,0.337,0.486,0.424
			c0.232,0.087,0.573,0.131,1.022,0.131h1.956v1.084c-0.44,0.091-0.84,0.162-1.197,0.212c-0.357,0.05-0.773,0.074-1.245,0.074
			C597.509,333.295,596.915,333.196,596.483,332.997z M598.577,329.445c0.258,0,0.442-0.052,0.555-0.155
			c0.112-0.103,0.167-0.281,0.167-0.529c0-0.366-0.083-0.622-0.248-0.767c-0.166-0.145-0.449-0.218-0.848-0.218
			c-0.291,0-0.517,0.048-0.679,0.143c-0.161,0.095-0.28,0.264-0.355,0.505c-0.075,0.241-0.112,0.581-0.112,1.021L598.577,329.445
			L598.577,329.445z"/>
		<path d="M602.14,326.541h1.421l0.424,1.022c0.266-0.349,0.551-0.621,0.854-0.816s0.65-0.293,1.04-0.293
			c0.216,0,0.398,0.021,0.548,0.063v1.894c-0.432-0.042-0.694-0.063-0.785-0.063c-0.357,0-0.664,0.059-0.922,0.174
			c-0.258,0.117-0.503,0.299-0.735,0.549v4.162h-1.845L602.14,326.541L602.14,326.541z"/>
	</g>
</g>
</svg>
