<svg width="652" height="400" viewBox="0 0 652 400" fill="none" xmlns="http://www.w3.org/2000/svg">
<rect x="510" y="34" width="120" height="146.151" rx="4" fill="white" stroke="#3A3836" stroke-width="2"/>
<rect x="510" y="193" width="120" height="146.151" rx="4" fill="white" stroke="#3A3836" stroke-width="2"/>
<rect x="305" y="82" width="120" height="209" rx="4" fill="white" stroke="#3A3836" stroke-width="2"/>
<path d="M372.065 158.309H383.991C385.096 158.309 385.991 159.204 385.991 160.309V167.366C385.991 168.47 385.096 169.366 383.991 169.366H372.065V158.309Z" fill="url(#paint0_linear_294_2282)"/>
<path d="M371.644 144.897H383.819C384.923 144.897 385.819 145.792 385.819 146.897V153.214C385.819 154.319 384.923 155.214 383.819 155.214H371.644V144.897Z" fill="url(#paint1_linear_294_2282)"/>
<path d="M345 144.75H383C384.795 144.75 386.25 146.205 386.25 148V152.418C386.25 154.213 384.795 155.668 383 155.668H345C343.205 155.668 341.75 154.213 341.75 152.418V148C341.75 146.205 343.205 144.75 345 144.75Z" stroke="#6B6B6B" stroke-width="1.5"/>
<path d="M345 158.359H383C384.795 158.359 386.25 159.814 386.25 161.609V166.027C386.25 167.822 384.795 169.277 383 169.277H345C343.205 169.277 341.75 167.822 341.75 166.027V161.609C341.75 159.814 343.205 158.359 345 158.359Z" stroke="#6B6B6B" stroke-width="1.5"/>
<path d="M371.706 159.179V168.94" stroke="#6B6B6B" stroke-width="1.5" stroke-linecap="round"/>
<path d="M371.644 144.897V155.214" stroke="#6B6B6B" stroke-width="1.5" stroke-linecap="round"/>
<path d="M371.644 172.114H383.819C384.923 172.114 385.819 173.01 385.819 174.114V180.431C385.819 181.536 384.923 182.431 383.819 182.431H371.644V172.114Z" fill="url(#paint2_linear_294_2282)"/>
<path d="M345 171.967H383C384.795 171.967 386.25 173.422 386.25 175.217V179.635C386.25 181.43 384.795 182.885 383 182.885H345C343.205 182.885 341.75 181.43 341.75 179.635V175.217C341.75 173.422 343.205 171.967 345 171.967Z" stroke="#6B6B6B" stroke-width="1.5"/>
<path d="M371.644 172.114V182.431" stroke="#6B6B6B" stroke-width="1.5" stroke-linecap="round"/>
<circle cx="347.963" cy="150.213" r="1.60684" fill="#6B6B6B"/>
<circle cx="347.963" cy="163.818" r="1.60684" fill="#6B6B6B"/>
<circle cx="347.963" cy="177.422" r="1.60684" fill="#6B6B6B"/>
<path d="M352.524 208H350.053L353.819 197.091H356.791L360.552 208H358.08L357.27 205.512H353.334L352.524 208ZM353.92 203.712H356.69L355.347 199.584H355.262L353.92 203.712ZM361.865 208V197.091H366.169C368.646 197.091 370.078 198.62 370.078 200.788C370.078 202.966 368.619 204.463 366.11 204.463H364.171V208H361.865ZM364.171 202.615H365.737C367.058 202.615 367.703 201.869 367.703 200.788C367.703 199.701 367.058 198.977 365.727 198.977H364.171V202.615ZM373.883 197.091V208H371.577V197.091H373.883ZM348.019 220.151L345.942 220.279C345.83 219.752 345.361 219.32 344.573 219.32C343.87 219.32 343.316 219.64 343.321 220.13C343.316 220.524 343.598 220.785 344.36 220.95L345.841 221.249C347.428 221.574 348.2 222.282 348.206 223.464C348.2 225.078 346.682 226.16 344.562 226.16C342.394 226.16 341.063 225.196 340.849 223.63L343.081 223.512C343.22 224.178 343.758 224.525 344.568 224.525C345.361 224.525 345.889 224.178 345.899 223.694C345.889 223.283 345.564 223.022 344.85 222.879L343.433 222.596C341.835 222.277 341.063 221.483 341.068 220.258C341.063 218.681 342.442 217.712 344.536 217.712C346.602 217.712 347.817 218.644 348.019 220.151ZM353.363 226.16C350.844 226.16 349.304 224.54 349.304 221.946C349.304 219.422 350.865 217.712 353.273 217.712C355.435 217.712 357.119 219.086 357.119 221.866V222.49H351.547V222.495C351.547 223.715 352.266 224.466 353.401 224.466C354.157 224.466 354.743 224.141 354.972 223.518L357.071 223.656C356.751 225.174 355.387 226.16 353.363 226.16ZM351.547 221.083H354.983C354.977 220.109 354.295 219.406 353.31 219.406C352.303 219.406 351.595 220.151 351.547 221.083ZM358.599 226V217.818H360.799V219.246H360.885C361.183 218.234 361.934 217.701 362.85 217.701C363.079 217.701 363.361 217.733 363.564 217.781V219.794C363.351 219.725 362.919 219.672 362.605 219.672C361.604 219.672 360.869 220.364 360.869 221.371V226H358.599ZM372.614 217.818L369.754 226H367.197L364.336 217.818H366.733L368.432 223.672H368.518L370.212 217.818H372.614ZM377.226 226.16C374.706 226.16 373.167 224.54 373.167 221.946C373.167 219.422 374.727 217.712 377.135 217.712C379.298 217.712 380.981 219.086 380.981 221.866V222.49H375.409V222.495C375.409 223.715 376.128 224.466 377.263 224.466C378.019 224.466 378.605 224.141 378.834 223.518L380.933 223.656C380.613 225.174 379.25 226.16 377.226 226.16ZM375.409 221.083H378.845C378.84 220.109 378.158 219.406 377.172 219.406C376.166 219.406 375.457 220.151 375.409 221.083ZM382.462 226V217.818H384.662V219.246H384.747C385.045 218.234 385.796 217.701 386.712 217.701C386.941 217.701 387.224 217.733 387.426 217.781V219.794C387.213 219.725 386.782 219.672 386.467 219.672C385.466 219.672 384.731 220.364 384.731 221.371V226H382.462Z" fill="#3A3836"/>
<path d="M445.671 304.033C445.643 304.047 445.618 304.065 445.598 304.088C445.578 304.111 445.562 304.138 445.552 304.167C445.542 304.195 445.538 304.226 445.54 304.256C445.542 304.287 445.55 304.316 445.564 304.344C445.624 304.464 445.648 304.599 445.633 304.733C445.618 304.866 445.563 304.993 445.477 305.096C445.44 305.144 445.423 305.204 445.429 305.264C445.436 305.323 445.466 305.378 445.512 305.417C445.559 305.455 445.619 305.474 445.679 305.469C445.74 305.464 445.796 305.436 445.836 305.391C445.98 305.219 446.071 305.008 446.096 304.785C446.122 304.563 446.082 304.337 445.981 304.137C445.954 304.082 445.905 304.041 445.847 304.022C445.789 304.002 445.726 304.007 445.671 304.033V304.033Z" fill="#BCBCBC"/>
<path d="M539.93 141H536.063V130.091H539.962C543.254 130.091 545.267 132.136 545.267 135.535C545.267 138.944 543.254 141 539.93 141ZM538.369 139.024H539.834C541.885 139.024 542.966 137.969 542.966 135.535C542.966 133.111 541.885 132.067 539.84 132.067H538.369V139.024ZM549.266 141.154C547.706 141.154 546.55 140.334 546.55 138.715C546.55 136.888 548.004 136.344 549.623 136.195C551.046 136.057 551.605 135.988 551.605 135.46V135.428C551.605 134.757 551.163 134.368 550.39 134.368C549.575 134.368 549.091 134.768 548.936 135.311L546.837 135.141C547.152 133.649 548.441 132.712 550.401 132.712C552.223 132.712 553.874 133.532 553.874 135.482V141H551.722V139.865H551.658C551.259 140.627 550.476 141.154 549.266 141.154ZM549.916 139.588C550.912 139.588 551.621 138.933 551.621 138.076V137.207C551.349 137.388 550.54 137.506 550.044 137.575C549.245 137.687 548.718 138.001 548.718 138.64C548.718 139.263 549.219 139.588 549.916 139.588ZM559.986 132.818V134.523H558.447V138.486C558.447 139.114 558.761 139.285 559.214 139.285C559.427 139.285 559.667 139.232 559.779 139.21L560.136 140.899C559.907 140.973 559.491 141.091 558.905 141.112C557.259 141.181 556.167 140.387 556.178 138.784V134.523H555.059V132.818H556.178V130.858H558.447V132.818H559.986ZM563.798 141.154C562.237 141.154 561.081 140.334 561.081 138.715C561.081 136.888 562.535 136.344 564.155 136.195C565.577 136.057 566.136 135.988 566.136 135.46V135.428C566.136 134.757 565.694 134.368 564.922 134.368C564.107 134.368 563.622 134.768 563.467 135.311L561.369 135.141C561.683 133.649 562.972 132.712 564.932 132.712C566.754 132.712 568.405 133.532 568.405 135.482V141H566.253V139.865H566.189C565.79 140.627 565.007 141.154 563.798 141.154ZM564.448 139.588C565.444 139.588 566.152 138.933 566.152 138.076V137.207C565.88 137.388 565.071 137.506 564.575 137.575C563.776 137.687 563.249 138.001 563.249 138.64C563.249 139.263 563.75 139.588 564.448 139.588ZM570.208 141V130.091H572.478V134.192H572.547C572.85 133.527 573.506 132.712 574.875 132.712C576.67 132.712 578.188 134.107 578.188 136.92C578.188 139.658 576.734 141.133 574.869 141.133C573.548 141.133 572.861 140.371 572.547 139.69H572.446V141H570.208ZM572.43 136.909C572.43 138.369 573.058 139.327 574.15 139.327C575.263 139.327 575.871 138.337 575.871 136.909C575.871 135.492 575.274 134.517 574.15 134.517C573.048 134.517 572.43 135.45 572.43 136.909ZM582.035 141.154C580.474 141.154 579.318 140.334 579.318 138.715C579.318 136.888 580.773 136.344 582.392 136.195C583.814 136.057 584.373 135.988 584.373 135.46V135.428C584.373 134.757 583.931 134.368 583.159 134.368C582.344 134.368 581.859 134.768 581.705 135.311L579.606 135.141C579.92 133.649 581.209 132.712 583.17 132.712C584.991 132.712 586.643 133.532 586.643 135.482V141H584.491V139.865H584.427C584.027 140.627 583.244 141.154 582.035 141.154ZM582.685 139.588C583.681 139.588 584.389 138.933 584.389 138.076V137.207C584.118 137.388 583.308 137.506 582.813 137.575C582.014 137.687 581.486 138.001 581.486 138.64C581.486 139.263 581.987 139.588 582.685 139.588ZM595.211 135.151L593.133 135.279C593.021 134.752 592.553 134.32 591.764 134.32C591.061 134.32 590.507 134.64 590.512 135.13C590.507 135.524 590.789 135.785 591.551 135.95L593.032 136.249C594.619 136.574 595.392 137.282 595.397 138.464C595.392 140.078 593.874 141.16 591.754 141.16C589.586 141.16 588.254 140.196 588.041 138.63L590.273 138.512C590.411 139.178 590.949 139.525 591.759 139.525C592.553 139.525 593.08 139.178 593.091 138.694C593.08 138.283 592.755 138.022 592.041 137.879L590.624 137.596C589.026 137.277 588.254 136.483 588.259 135.258C588.254 133.681 589.634 132.712 591.727 132.712C593.794 132.712 595.008 133.644 595.211 135.151ZM600.555 141.16C598.035 141.16 596.496 139.54 596.496 136.946C596.496 134.422 598.056 132.712 600.464 132.712C602.627 132.712 604.31 134.086 604.31 136.866V137.49H598.738V137.495C598.738 138.715 599.457 139.466 600.592 139.466C601.348 139.466 601.934 139.141 602.163 138.518L604.262 138.656C603.942 140.174 602.579 141.16 600.555 141.16ZM598.738 136.083H602.174C602.169 135.109 601.487 134.406 600.501 134.406C599.495 134.406 598.786 135.151 598.738 136.083Z" fill="#3A3836"/>
<path d="M557.303 289.082V287.266L561.857 280.091H564.744V287.234H566.097V289.082H564.744V291H562.539V289.082H557.303ZM562.582 287.234V282.605H562.497L559.626 287.149V287.234H562.582ZM571.912 291.24C569.163 291.234 567.496 289.141 567.506 285.556C567.512 281.982 569.174 279.942 571.912 279.942C574.644 279.942 576.322 281.987 576.317 285.556C576.311 289.152 574.655 291.24 571.912 291.24ZM571.912 289.327C573.158 289.327 573.968 288.07 573.962 285.556C573.962 283.079 573.153 281.833 571.912 281.833C570.665 281.833 569.861 283.079 569.855 285.556C569.85 288.07 570.66 289.327 571.912 289.327ZM582.707 280.091V291H580.401V282.28H580.337L577.839 283.846V281.801L580.54 280.091H582.707ZM527.492 305.516V300.818H529.761V309H527.583V307.514H527.498C527.13 308.473 526.246 309.107 525.015 309.107C523.369 309.107 522.251 307.94 522.245 306.028V300.818H524.515V305.623C524.52 306.587 525.074 307.189 525.931 307.189C526.746 307.189 527.498 306.614 527.492 305.516ZM533.846 304.27V309H531.576V300.818H533.739V302.262H533.835C534.203 301.308 535.081 300.712 536.296 300.712C538 300.712 539.119 301.884 539.119 303.79V309H536.85V304.195C536.855 303.194 536.307 302.597 535.396 302.597C534.479 302.597 533.851 303.215 533.846 304.27ZM543.241 309.154C541.68 309.154 540.524 308.334 540.524 306.715C540.524 304.888 541.978 304.344 543.597 304.195C545.02 304.057 545.579 303.988 545.579 303.46V303.428C545.579 302.757 545.137 302.368 544.365 302.368C543.55 302.368 543.065 302.768 542.91 303.311L540.812 303.141C541.126 301.649 542.415 300.712 544.375 300.712C546.197 300.712 547.848 301.532 547.848 303.482V309H545.696V307.865H545.632C545.233 308.627 544.45 309.154 543.241 309.154ZM543.89 307.588C544.887 307.588 545.595 306.933 545.595 306.076V305.207C545.323 305.388 544.514 305.506 544.018 305.575C543.219 305.687 542.692 306.001 542.692 306.64C542.692 307.263 543.193 307.588 543.89 307.588ZM554.855 305.516V300.818H557.125V309H554.946V307.514H554.861C554.493 308.473 553.609 309.107 552.379 309.107C550.733 309.107 549.614 307.94 549.609 306.028V300.818H551.878V305.623C551.883 306.587 552.437 307.189 553.295 307.189C554.11 307.189 554.861 306.614 554.855 305.516ZM563.292 300.818V302.523H561.752V306.486C561.752 307.114 562.066 307.285 562.519 307.285C562.732 307.285 562.972 307.232 563.084 307.21L563.441 308.899C563.212 308.973 562.796 309.091 562.21 309.112C560.564 309.181 559.472 308.387 559.483 306.784V302.523H558.364V300.818H559.483V298.858H561.752V300.818H563.292ZM567.215 304.27V309H564.946V298.091H567.151V302.262H567.247C567.62 301.298 568.451 300.712 569.692 300.712C571.396 300.712 572.525 301.873 572.52 303.79V309H570.251V304.195C570.256 303.189 569.713 302.597 568.791 302.597C567.865 302.597 567.22 303.215 567.215 304.27ZM578.003 309.16C575.52 309.16 573.976 307.461 573.976 304.941C573.976 302.406 575.52 300.712 578.003 300.712C580.485 300.712 582.03 302.406 582.03 304.941C582.03 307.461 580.485 309.16 578.003 309.16ZM578.013 307.402C579.137 307.402 579.723 306.353 579.723 304.925C579.723 303.498 579.137 302.443 578.013 302.443C576.868 302.443 576.282 303.498 576.282 304.925C576.282 306.353 576.868 307.402 578.013 307.402ZM583.505 309V300.818H585.705V302.246H585.79C586.089 301.234 586.84 300.701 587.756 300.701C587.985 300.701 588.267 300.733 588.47 300.781V302.794C588.257 302.725 587.825 302.672 587.511 302.672C586.509 302.672 585.774 303.364 585.774 304.371V309H583.505ZM589.643 309V300.818H591.912V309H589.643ZM590.783 299.763C590.112 299.763 589.558 299.247 589.558 298.613C589.558 297.984 590.112 297.468 590.783 297.468C591.459 297.468 592.013 297.984 592.013 298.613C592.013 299.247 591.459 299.763 590.783 299.763ZM593.687 309V307.647L597.693 302.688V302.629H593.826V300.818H600.425V302.294L596.665 307.13V307.189H600.564V309H593.687ZM605.793 309.16C603.274 309.16 601.734 307.54 601.734 304.946C601.734 302.422 603.295 300.712 605.703 300.712C607.866 300.712 609.549 302.086 609.549 304.866V305.49H603.977V305.495C603.977 306.715 604.696 307.466 605.831 307.466C606.587 307.466 607.173 307.141 607.402 306.518L609.501 306.656C609.181 308.174 607.818 309.16 605.793 309.16ZM603.977 304.083H607.413C607.407 303.109 606.726 302.406 605.74 302.406C604.733 302.406 604.025 303.151 603.977 304.083ZM614.044 309.133C612.18 309.133 610.726 307.658 610.726 304.92C610.726 302.107 612.244 300.712 614.039 300.712C615.408 300.712 616.063 301.527 616.367 302.192H616.436V298.091H618.7V309H616.463V307.69H616.367C616.053 308.371 615.366 309.133 614.044 309.133ZM614.764 307.327C615.856 307.327 616.484 306.369 616.484 304.909C616.484 303.45 615.866 302.517 614.764 302.517C613.64 302.517 613.043 303.492 613.043 304.909C613.043 306.337 613.65 307.327 614.764 307.327Z" fill="#3A3836"/>
<path d="M162.707 187.707C163.098 187.317 163.098 186.683 162.707 186.293L156.343 179.929C155.953 179.538 155.319 179.538 154.929 179.929C154.538 180.319 154.538 180.953 154.929 181.343L160.586 187L154.929 192.657C154.538 193.047 154.538 193.681 154.929 194.071C155.319 194.462 155.953 194.462 156.343 194.071L162.707 187.707ZM142 188L162 188L162 186L142 186L142 188Z" fill="#3A3836"/>
<path d="M304.707 187.707C305.098 187.317 305.098 186.683 304.707 186.293L298.343 179.929C297.953 179.538 297.319 179.538 296.929 179.929C296.538 180.319 296.538 180.953 296.929 181.343L302.586 187L296.929 192.657C296.538 193.047 296.538 193.681 296.929 194.071C297.319 194.462 297.953 194.462 298.343 194.071L304.707 187.707ZM284 188L304 188L304 186L284 186L284 188Z" fill="#3A3836"/>
<path d="M509.707 249.707C510.098 249.317 510.098 248.683 509.707 248.293L503.343 241.929C502.953 241.538 502.319 241.538 501.929 241.929C501.538 242.319 501.538 242.953 501.929 243.343L507.586 249L501.929 254.657C501.538 255.047 501.538 255.681 501.929 256.071C502.319 256.462 502.953 256.462 503.343 256.071L509.707 249.707ZM489 250L509 250L509 248L489 248L489 250Z" fill="#3A3836"/>
<path d="M509.707 127.707C510.098 127.317 510.098 126.683 509.707 126.293L503.343 119.929C502.953 119.538 502.319 119.538 501.929 119.929C501.538 120.319 501.538 120.953 501.929 121.343L507.586 127L501.929 132.657C501.538 133.047 501.538 133.681 501.929 134.071C502.319 134.462 502.953 134.462 503.343 134.071L509.707 127.707ZM489 128L509 128L509 126L489 126L489 128Z" fill="#3A3836"/>
<rect x="462" y="114" width="26.8723" height="26.8723" rx="4" fill="white" stroke="#3A3836" stroke-width="2"/>
<path d="M481.708 122.077L472.731 131.054L469.545 127.869C469.159 127.483 468.58 127.483 468.194 127.869C467.808 128.255 467.808 128.834 468.194 129.22L472.055 133.081C472.248 133.274 472.441 133.371 472.731 133.371C473.02 133.371 473.214 133.274 473.407 133.081L483.06 123.428C483.446 123.042 483.446 122.463 483.06 122.077C482.674 121.691 482.095 121.691 481.708 122.077Z" fill="#049D40"/>
<rect x="462" y="236" width="26.8723" height="26.8723" rx="4" fill="white" stroke="#3A3836" stroke-width="2"/>
<path d="M481.034 244.415L470.415 255.033" stroke="#B70700" stroke-width="2" stroke-linecap="round" stroke-linejoin="round"/>
<path d="M470.415 244.415L481.034 255.033" stroke="#B70700" stroke-width="2" stroke-linecap="round" stroke-linejoin="round"/>
<line x1="441" y1="188" x2="426" y2="188" stroke="black" stroke-width="2"/>
<path d="M461 126H451C445.477 126 441 130.477 441 136V238C441 243.523 445.477 248 451 248H461" stroke="#3A3836" stroke-width="2"/>
<g clip-path="url(#clip0_294_2282)">
<path d="M551.778 77.446V108.564C551.778 111.819 560.306 114.223 569.945 114.223C579.583 114.223 588.111 111.819 588.111 108.564V77.446" stroke="#6B6B6B" stroke-width="1.5" stroke-linecap="round" stroke-linejoin="round"/>
<path d="M588.111 77.4461C588.111 80.7007 579.583 83.1049 569.945 83.1049C560.306 83.1049 551.778 80.7007 551.778 77.4461C551.778 74.1916 560.306 71.7874 569.945 71.7874C579.583 71.7874 588.111 74.1916 588.111 77.4461Z" stroke="#6B6B6B" stroke-width="1.5" stroke-linecap="round" stroke-linejoin="round"/>
<path d="M588.111 93.0051C588.111 96.2597 579.583 98.6639 569.945 98.6639C560.306 98.6639 551.778 96.2492 551.778 93.0051" stroke="#6B6B6B" stroke-width="1.5" stroke-linecap="round" stroke-linejoin="round"/>
<path d="M557.702 106.538V111.913" stroke="#6B6B6B" stroke-width="1.5" stroke-linecap="round" stroke-linejoin="round"/>
<path d="M566.002 107.588V112.963" stroke="#6B6B6B" stroke-width="1.5" stroke-linecap="round" stroke-linejoin="round"/>
<path d="M557.702 91.8398V97.2152" stroke="#6B6B6B" stroke-width="1.5" stroke-linecap="round" stroke-linejoin="round"/>
<path d="M566.002 92.8896V98.265" stroke="#6B6B6B" stroke-width="1.5" stroke-linecap="round" stroke-linejoin="round"/>
<path d="M580.952 91.84C582.7 91.84 584.117 90.4064 584.117 88.6379C584.117 86.8694 582.7 85.4358 580.952 85.4358C579.205 85.4358 577.788 86.8694 577.788 88.6379C577.788 90.4064 579.205 91.84 580.952 91.84Z" fill="url(#paint3_linear_294_2282)"/>
<path d="M580.952 107.588C582.7 107.588 584.117 106.154 584.117 104.386C584.117 102.617 582.7 101.184 580.952 101.184C579.205 101.184 577.788 102.617 577.788 104.386C577.788 106.154 579.205 107.588 580.952 107.588Z" fill="url(#paint4_linear_294_2282)"/>
<path d="M580.952 91.84C582.7 91.84 584.117 90.4064 584.117 88.6379C584.117 86.8694 582.7 85.4358 580.952 85.4358C579.205 85.4358 577.788 86.8694 577.788 88.6379C577.788 90.4064 579.205 91.84 580.952 91.84Z" stroke="#6B6B6B" stroke-width="1.5" stroke-linecap="round" stroke-linejoin="round"/>
<path d="M580.952 107.588C582.7 107.588 584.117 106.154 584.117 104.386C584.117 102.617 582.7 101.184 580.952 101.184C579.205 101.184 577.788 102.617 577.788 104.386C577.788 106.154 579.205 107.588 580.952 107.588Z" stroke="#6B6B6B" stroke-width="1.5" stroke-linecap="round" stroke-linejoin="round"/>
</g>
<path d="M570 221C557.8 221 548 230.8 548 243C548 255.2 557.8 265 570 265C582.2 265 592 255.2 592 243C592 230.8 582.2 221 570 221ZM570 229C572.4 229 574.7 229.6 576.7 230.7L557.7 249.7C556.6 247.7 556 245.5 556 243C556 235.3 562.3 229 570 229ZM570 257C567.6 257 565.3 256.4 563.3 255.3L582.3 236.3C583.4 238.3 584 240.5 584 243C584 250.7 577.7 257 570 257Z" fill="url(#paint5_linear_294_2282)" stroke="#6B6B6B" stroke-width="1.5" stroke-linecap="round" stroke-linejoin="round"/>
<path d="M639.871 51.4046L648.276 54.1378L639.871 56.8823L637.138 65.2869L634.405 56.8823L626 54.1378L634.405 51.4046L637.138 43L639.871 51.4046Z" fill="white" stroke="#3A3836" stroke-width="2" stroke-miterlimit="10"/>
<mask id="mask0_294_2282" style="mask-type:luminance" maskUnits="userSpaceOnUse" x="454" y="303" width="81" height="34">
<path d="M533.721 303L454 305.84L455.109 336.985L534.83 334.146L533.721 303Z" fill="white"/>
</mask>
<g mask="url(#mask0_294_2282)">
<path d="M534.369 334.023C534.295 331.287 533.641 328.597 532.451 326.132C531.354 323.817 529.705 321.807 527.649 320.28C525.753 318.877 523.49 318.056 521.135 317.919C518.822 317.821 516.533 318.417 514.561 319.63C513.203 315.488 510.734 311.799 507.422 308.965C504.408 306.39 500.609 304.913 496.647 304.776C492.724 304.721 488.902 306.025 485.83 308.467C482.472 311.146 479.945 314.725 478.545 318.787C476.368 316.957 473.667 315.865 470.83 315.666C468.03 315.513 465.258 316.283 462.938 317.858C460.431 319.574 458.445 321.947 457.196 324.717C455.826 327.7 455.167 330.961 455.271 334.242L534.369 334.023Z" fill="#FFDE83"/>
</g>
<rect x="21" y="82" width="120" height="209" rx="4" fill="white" stroke="#3A3836" stroke-width="2"/>
<path d="M69.784 213.91H67.4509C67.2751 212.712 66.3642 211.982 65.1018 211.982C63.4132 211.982 62.3053 213.276 62.3053 215.545C62.3053 217.879 63.4292 219.109 65.0858 219.109C66.3163 219.109 67.2325 218.438 67.4509 217.271L69.784 217.282C69.5336 219.29 67.845 221.149 65.0485 221.149C62.1295 221.149 59.9668 219.104 59.9668 215.545C59.9668 211.977 62.1668 209.942 65.0485 209.942C67.5734 209.942 69.4803 211.391 69.784 213.91ZM73.6645 210.091V221H71.3953V210.091H73.6645ZM75.4822 221V212.818H77.7514V221H75.4822ZM76.6221 211.763C75.9509 211.763 75.397 211.247 75.397 210.613C75.397 209.984 75.9509 209.468 76.6221 209.468C77.2986 209.468 77.8526 209.984 77.8526 210.613C77.8526 211.247 77.2986 211.763 76.6221 211.763ZM83.2978 221.16C80.7783 221.16 79.2389 219.54 79.2389 216.946C79.2389 214.422 80.7996 212.712 83.2073 212.712C85.3699 212.712 87.0531 214.086 87.0531 216.866V217.49H81.4814V217.495C81.4814 218.715 82.2005 219.466 83.3351 219.466C84.0915 219.466 84.6774 219.141 84.9065 218.518L87.0052 218.656C86.6856 220.174 85.322 221.16 83.2978 221.16ZM81.4814 216.083H84.9171C84.9118 215.109 84.23 214.406 83.2445 214.406C82.2378 214.406 81.5293 215.151 81.4814 216.083ZM90.8031 216.27V221H88.534V212.818H90.6966V214.262H90.7925C91.16 213.308 92.0389 212.712 93.2534 212.712C94.958 212.712 96.0766 213.884 96.0766 215.79V221H93.8074V216.195C93.8127 215.194 93.2641 214.597 92.3532 214.597C91.437 214.597 90.8085 215.215 90.8031 216.27ZM102.217 212.818V214.523H100.678V218.486C100.678 219.114 100.992 219.285 101.445 219.285C101.658 219.285 101.897 219.232 102.009 219.21L102.366 220.899C102.137 220.973 101.722 221.091 101.136 221.112C99.4897 221.181 98.3977 220.387 98.4083 218.784V214.523H97.2897V212.818H98.4083V210.858H100.678V212.818H102.217Z" fill="#3A3836"/>
<path d="M59 182H80H97H103V187H75.5V182H64V187H59V182Z" fill="url(#paint6_linear_294_2282)"/>
<rect x="80" y="152" width="17" height="3" fill="url(#paint7_linear_294_2282)"/>
<rect x="64" y="178" width="11" height="3" fill="url(#paint8_linear_294_2282)"/>
<path d="M97 158H103V187H75" stroke="#6B6B6B" stroke-width="1.5" stroke-linecap="round" stroke-linejoin="round"/>
<path d="M64 187H59V158H80" stroke="#6B6B6B" stroke-width="1.5" stroke-linecap="round" stroke-linejoin="round"/>
<path d="M96 172H81C80.448 172 80 171.552 80 171V153C80 152.448 80.448 152 81 152H96C96.552 152 97 152.448 97 153V171C97 171.552 96.552 172 96 172Z" stroke="#6B6B6B" stroke-width="1.5" stroke-linecap="round" stroke-linejoin="round"/>
<path d="M74 194H65C64.448 194 64 193.552 64 193V179C64 178.448 64.448 178 65 178H74C74.552 178 75 178.448 75 179V193C75 193.552 74.552 194 74 194Z" stroke="#6B6B6B" stroke-width="1.5" stroke-linecap="round" stroke-linejoin="round"/>
<path d="M77 192L85 192" stroke="#6B6B6B" stroke-width="1.5" stroke-linecap="round" stroke-linejoin="round"/>
<path d="M81 192L81 187" stroke="#6B6B6B" stroke-width="1.5" stroke-linecap="round" stroke-linejoin="round"/>
<path d="M69 191H70" stroke="#6B6B6B" stroke-width="1.5" stroke-linecap="round" stroke-linejoin="round"/>
<path d="M87 169H90" stroke="#6B6B6B" stroke-width="1.5" stroke-linecap="round" stroke-linejoin="round"/>
<path d="M17.8709 145.405L26.2755 148.138L17.8709 150.882L15.1378 159.287L12.4045 150.882L4 148.138L12.4045 145.405L15.1378 137L17.8709 145.405Z" fill="white" stroke="#3A3836" stroke-width="2" stroke-miterlimit="10"/>
<path d="M35.6915 118.865L41.5564 120.778L35.6915 122.703L33.7782 128.568L31.865 122.703L26 120.778L31.865 118.865L33.7782 113L35.6915 118.865Z" fill="#3A3836"/>
<mask id="mask1_294_2282" style="mask-type:luminance" maskUnits="userSpaceOnUse" x="78" y="259" width="134" height="56">
<path d="M209.327 259L78 263.678L79.8276 314.985L211.154 310.307L209.327 259Z" fill="white"/>
</mask>
<g mask="url(#mask1_294_2282)">
<path d="M210.394 310.106C210.273 305.598 209.196 301.167 207.234 297.106C205.428 293.293 202.711 289.982 199.324 287.466C196.201 285.155 192.473 283.803 188.594 283.576C184.784 283.415 181.013 284.397 177.764 286.396C175.528 279.573 171.46 273.495 166.004 268.826C161.038 264.584 154.781 262.152 148.254 261.926C141.791 261.835 135.494 263.983 130.434 268.006C124.903 272.419 120.741 278.316 118.434 285.006C114.847 281.993 110.398 280.193 105.724 279.866C101.113 279.613 96.5455 280.882 92.7244 283.476C88.5944 286.304 85.3218 290.213 83.2644 294.776C81.0074 299.69 79.9223 305.061 80.0944 310.466L210.394 310.106Z" fill="#FFDE83"/>
</g>
<rect x="163" y="82" width="120" height="209" rx="4" fill="white" stroke="#3A3836" stroke-width="2"/>
<path d="M199.068 218H196.596L200.362 207.091H203.334L207.095 218H204.623L203.814 215.512H199.877L199.068 218ZM200.463 213.712H203.233L201.891 209.584H201.806L200.463 213.712ZM208.408 218V207.091H212.712C215.189 207.091 216.622 208.62 216.622 210.788C216.622 212.966 215.162 214.463 212.653 214.463H210.715V218H208.408ZM210.715 212.615H212.281C213.602 212.615 214.246 211.869 214.246 210.788C214.246 209.701 213.602 208.977 212.27 208.977H210.715V212.615ZM220.426 207.091V218H218.12V207.091H220.426ZM225.753 218V207.091H228.022V212.924H228.145L230.766 209.818H233.37L230.334 213.36L233.525 218H230.867L228.635 214.703L228.022 215.401V218H225.753ZM237.875 218.16C235.356 218.16 233.816 216.54 233.816 213.946C233.816 211.422 235.377 209.712 237.785 209.712C239.948 209.712 241.631 211.086 241.631 213.866V214.49H236.059V214.495C236.059 215.715 236.778 216.466 237.913 216.466C238.669 216.466 239.255 216.141 239.484 215.518L241.583 215.656C241.263 217.174 239.9 218.16 237.875 218.16ZM236.059 213.083H239.495C239.489 212.109 238.808 211.406 237.822 211.406C236.815 211.406 236.107 212.151 236.059 213.083ZM244.278 221.068C243.703 221.068 243.176 220.972 242.851 220.834L243.362 219.14C244.161 219.385 244.731 219.348 245.029 218.581L245.162 218.234L242.227 209.818H244.614L246.308 215.827H246.393L248.103 209.818H250.505L247.325 218.884C246.862 220.205 245.967 221.068 244.278 221.068Z" fill="#3A3836"/>
<path d="M220.325 169C219.643 167.564 218.494 166.403 217.065 165.707C215.636 165.011 214.013 164.822 212.462 165.171C210.912 165.52 209.526 166.386 208.534 167.628C207.541 168.869 207 170.411 207 172C207 173.589 207.541 175.131 208.534 176.372C209.526 177.614 210.912 178.48 212.462 178.829C214.013 179.178 215.636 178.989 217.065 178.293C218.494 177.597 219.643 176.436 220.325 175H226.025L229.025 177L232.025 175H237.025L238.025 169H220.325Z" fill="url(#paint9_linear_294_2282)" stroke="#6B6B6B" stroke-width="1.5" stroke-linecap="round" stroke-linejoin="round"/>
<path d="M244.192 151H201.808C200.81 151 200 151.727 200 152.621V187.825C200 188.719 200.81 189.446 201.808 189.446H244.192C245.19 189.446 246 188.719 246 187.825V152.621C246 151.727 245.19 151 244.192 151Z" stroke="#6B6B6B" stroke-width="1.5" stroke-linecap="round" stroke-linejoin="round"/>
<path d="M204.177 155.437C204.759 155.437 205.237 154.969 205.237 154.377C205.237 153.785 204.769 153.317 204.177 153.317C203.585 153.317 203.117 153.785 203.117 154.377C203.117 154.969 203.585 155.437 204.177 155.437Z" fill="#6B6B6B"/>
<path d="M208.146 155.437C208.728 155.437 209.206 154.969 209.206 154.377C209.206 153.785 208.739 153.317 208.146 153.317C207.554 153.317 207.086 153.785 207.086 154.377C207.086 154.969 207.554 155.437 208.146 155.437Z" fill="#6B6B6B"/>
<path d="M212.116 155.437C212.697 155.437 213.175 154.969 213.175 154.377C213.175 153.785 212.708 153.317 212.116 153.317C211.523 153.317 211.056 153.785 211.056 154.377C211.056 154.969 211.523 155.437 212.116 155.437Z" fill="#6B6B6B"/>
<path d="M200 157.868H244.94" stroke="#6B6B6B" stroke-width="1.5" stroke-linecap="round" stroke-linejoin="round"/>
<path d="M213.024 174C214.129 174 215.024 173.105 215.024 172C215.024 170.895 214.129 170 213.024 170C211.92 170 211.024 170.895 211.024 172C211.024 173.105 211.92 174 213.024 174Z" fill="#6B6B6B"/>
<path d="M226.603 299.945C244.497 311.704 259.199 309.809 259.199 309.809L262.642 290.342C252.065 293.163 241.445 289.352 235.234 286.282C231.85 284.618 227.765 285.532 225.377 288.454C222.521 291.959 222.823 297.464 226.603 299.945Z" fill="white" stroke="#3A3836" stroke-width="2" stroke-linecap="round" stroke-linejoin="round"/>
<path d="M257.046 319.398C257.046 319.398 267.662 351.224 297.667 343.929L309.505 338.45L316.616 340.707L316.046 350.678C316.046 350.678 316.32 358.841 324.803 359.229C333.287 359.617 333.602 352.479 333.602 352.479L334.343 344.351L345.802 346.697C345.802 346.697 353.616 346.637 354.499 339.147C355.382 331.657 349.17 330.151 349.17 330.151L337.259 326.501C337.259 326.501 339.538 315.624 333.999 310.807C328.461 305.99 325.037 305.017 317.63 305.499L308.171 312.295L304.835 314.291L302.571 307.329C302.571 307.329 322.023 300.358 327.736 290.608C327.736 290.608 334.987 286.209 330.629 279.049C326.264 271.901 317.191 278.185 317.191 278.185C317.191 278.185 313.463 286.502 293.342 289.846L279.102 281.505L259.831 292.438L256.22 319.826L257.062 319.382L257.046 319.398Z" fill="white"/>
<path d="M296.793 289.469C296.793 289.469 305.393 289.638 319.513 276.343C319.513 276.343 327.699 272.27 330.991 279.897C330.991 279.897 334.996 285.393 326.496 292.559L281.867 305.433L281.609 296.662L285.638 289.733L296.79 289.459L296.793 289.469Z" fill="white"/>
<path d="M284.121 308.502L284.121 313.612C284.121 313.612 291.777 317.945 303.461 311.515L302.299 307.368C302.299 307.368 291.568 311.005 284.118 308.493L284.121 308.502Z" fill="#E3E8F8"/>
<path d="M282.009 297.625C295.091 293.192 302.102 278.993 297.67 265.911C293.237 252.829 279.038 245.818 265.956 250.251C252.874 254.684 245.863 268.882 250.295 281.964C254.728 295.046 268.927 302.058 282.009 297.625Z" fill="white" stroke="#3A3836" stroke-width="2" stroke-linecap="round" stroke-linejoin="round"/>
<path d="M274.787 284.973C276.075 283.354 275.804 280.997 274.176 279.711C272.557 278.423 270.199 278.694 268.914 280.322C267.625 281.942 267.896 284.299 269.525 285.585C271.144 286.873 273.502 286.602 274.787 284.973Z" stroke="#3A3836" stroke-width="2" stroke-linecap="round" stroke-linejoin="round"/>
<path d="M243.631 265.133C245.565 265.449 247.39 264.134 247.703 262.19C248.015 260.247 246.704 258.432 244.76 258.119C242.827 257.803 241.002 259.118 240.689 261.062C240.373 262.995 241.688 264.82 243.631 265.133Z" fill="#FC8653" stroke="#3A3836" stroke-width="2" stroke-miterlimit="10"/>
<path d="M247.375 263.22L250.76 264.639" stroke="#3A3836" stroke-width="2" stroke-miterlimit="10"/>
<path d="M297.662 282.614C289.644 281.655 284.131 274.878 284.145 266.598C284.148 261.749 285.907 257.751 289.296 254.806" stroke="#3A3836" stroke-width="2" stroke-linecap="round" stroke-linejoin="round"/>
<path d="M260.46 292.267C260.46 292.267 249.197 328.952 275.29 341.766C284.245 346.165 294.771 345.882 303.698 341.41C309.512 338.501 317.178 333.548 326.269 325.136" stroke="#3A3836" stroke-width="2" stroke-linecap="round" stroke-linejoin="round"/>
<path d="M309.496 338.453L316.607 340.711" stroke="#3A3836" stroke-width="2" stroke-linecap="round" stroke-linejoin="round"/>
<path d="M335.105 344.98L344.029 346.728C348.473 347.598 352.878 345.018 354.276 340.701C355.88 335.775 352.992 330.524 347.974 329.237L337.243 326.485" stroke="#3A3836" stroke-width="2" stroke-linecap="round" stroke-linejoin="round"/>
<path d="M253.428 291.145L276.708 290.488C280.379 290.416 283.34 293.109 283.411 296.59L284.037 327.135C284.105 330.67 281.179 333.72 277.449 333.992L255.433 334.61C251.649 334.879 248.486 332.181 248.37 328.599L246.489 298.089C246.366 294.393 249.538 291.227 253.437 291.141L253.428 291.145Z" fill="white" stroke="#3A3836" stroke-width="2" stroke-linecap="round" stroke-linejoin="round"/>
<path d="M255.093 291.045L255.578 300.763C255.69 302.995 257.546 304.732 259.772 304.695L283.498 303.857" stroke="#3A3836" stroke-width="2" stroke-linecap="round" stroke-linejoin="round"/>
<path d="M264.385 315.412C263.111 315.453 262.047 314.462 262.006 313.188C261.955 311.917 262.955 310.849 264.23 310.808C265.504 310.767 266.568 311.758 266.609 313.032C266.65 314.306 265.659 315.371 264.395 315.409L264.385 315.412Z" fill="#FC8653" stroke="#3A3836" stroke-width="2" stroke-miterlimit="10"/>
<path d="M271.344 315.165C270.07 315.206 269.006 314.215 268.965 312.941C268.914 311.67 269.914 310.603 271.189 310.562C272.463 310.521 273.527 311.511 273.568 312.786C273.609 314.06 272.618 315.124 271.354 315.162L271.344 315.165Z" fill="#FC8653" stroke="#3A3836" stroke-width="2" stroke-miterlimit="10"/>
<path d="M283.2 310.24L277.933 310.43C276.931 310.464 276.164 311.536 276.209 312.883C276.253 314.199 277.103 315.241 278.102 315.198L283.37 315.008" stroke="#3A3836" stroke-width="2" stroke-linecap="round" stroke-linejoin="round"/>
<path d="M255.094 325.603L283.693 324.095Z" fill="#E3E8F8"/>
<path d="M283.524 319.327L254.925 320.835C253.923 320.868 253.154 321.963 253.201 323.288C253.249 324.612 254.095 325.645 255.094 325.602L283.693 324.094" fill="#E3E8F8"/>
<path d="M283.524 319.327L254.925 320.835C253.923 320.868 253.154 321.963 253.201 323.288C253.249 324.612 254.095 325.645 255.094 325.602L283.693 324.094" stroke="#3A3836" stroke-width="2" stroke-linecap="round" stroke-linejoin="round"/>
<path d="M302.552 307.336C302.552 307.336 290.489 312.057 283.763 308.317" stroke="#3A3836" stroke-width="2" stroke-linecap="round" stroke-linejoin="round"/>
<path d="M303.659 311.754C303.659 311.754 290.63 317.489 283.917 313.756" stroke="#3A3836" stroke-width="2" stroke-linecap="round" stroke-linejoin="round"/>
<path d="M317.769 332.208L315.854 348.272C315.115 353.664 319.354 358.975 324.791 359.223L325.895 359.271C330.744 359.497 333.834 355.874 334.395 351.048L337.789 321.771C338.58 314.977 333.468 308.273 327 306.041L328.067 306.324C323.306 304.674 317.345 304.751 313.44 307.933L304.813 314.288L302.549 307.326C302.549 307.326 317.127 304.635 330.569 287.97C333.41 284.452 332.015 279.118 328.224 276.654C325.057 274.601 320.888 274.979 318.175 277.599C313.199 282.421 304.253 289.296 293.32 289.843" stroke="#3A3836" stroke-width="2" stroke-linecap="round" stroke-linejoin="round"/>
<g style="mix-blend-mode:multiply">
<path d="M300.282 276.894C300.282 276.894 301.745 286.165 296.794 289.469L293.326 289.862C293.326 289.862 297.532 286.6 300.282 276.894Z" fill="#E3E3E3"/>
</g>
<g style="mix-blend-mode:multiply">
<path d="M270.262 334.189C270.262 334.189 274.122 342.309 291.932 344.859C291.932 344.859 275.172 346.684 265.902 334.346L270.252 334.192L270.262 334.189Z" fill="#E3E3E3"/>
</g>
<path d="M130.126 63.6073L137.652 54.3543L152.287 67.9858L147.725 73.0299L141.069 78.8558L132.37 84.9665L123.44 88.5382L118.078 86.9597L114.134 81.51L114.328 74.9937L119.333 70.4999L130.126 63.6073Z" fill="white"/>
<path d="M151.045 69.4611C151.045 69.4611 141.413 80.1366 126.841 87.2307C122.351 89.4136 116.935 87.599 114.722 83.1195C112.612 78.8385 114.169 73.6263 118.327 71.268C124.548 67.7308 133.048 61.9316 137.447 54.6595" stroke="#3A3836" stroke-width="2" stroke-linecap="round" stroke-linejoin="round"/>
<path d="M189.386 42.5699L183.101 32.1132C182.009 30.2868 179.651 29.6729 177.799 30.7221L169.606 35.0162" fill="white"/>
<path d="M189.386 42.5699L183.101 32.1132C182.009 30.2868 179.651 29.6729 177.799 30.7221L169.606 35.0162" stroke="#3A3836" stroke-width="2" stroke-linecap="round" stroke-linejoin="round"/>
<path d="M173.377 37.0883L189.159 42.6159C189.159 42.6159 207.168 50.272 213.793 58.301C213.793 58.301 218.998 61.7333 215.247 68.6037C211.496 75.4742 203.336 69.5742 203.336 69.5742L200.583 67.4799C200.583 67.4799 208.37 76.8701 203.504 84.1042C198.638 91.3383 196.855 91.7412 191.735 93.8191C187.856 95.396 183.161 96.7952 183.161 96.7952L195.113 112.664C195.113 112.664 199.562 119.315 192.53 124.507C185.5 129.69 178.955 120.07 178.955 120.07L167.753 107.912L167.573 125.884C167.573 125.884 166.258 133.397 156.832 131.726C156.832 131.726 150.459 130.663 150.865 122.43C151.262 114.196 148.03 103.029 149.129 97.1627C149.129 97.1627 148.418 87.3416 154.52 81.9995L158.96 78.3806L149.504 67.2029C149.504 67.2029 142.761 56.5163 138.312 54.9449" fill="white"/>
<path d="M126.839 36.4819C126.839 36.4819 125.036 23.3259 136.391 15.4072C147.746 7.48856 158.742 12.7261 158.742 12.7261C158.742 12.7261 170.497 16.6971 172.954 29.5609L173.587 32.8668" fill="white"/>
<path d="M167.109 49.9251C167.109 49.9251 167.042 61.7549 183.877 60.9988C183.877 60.9988 165.971 55.3953 176.085 37.9106L173.454 36.8451C173.454 36.8451 170.74 48.0302 167.109 49.9251Z" fill="#E3E8F8"/>
<path d="M147.667 57.3723C160.479 58.7409 171.975 49.4642 173.343 36.6523C174.712 23.8404 165.435 12.3448 152.623 10.9763C139.811 9.60772 128.316 18.8844 126.947 31.6963C125.579 44.5082 134.855 56.0038 147.667 57.3723Z" fill="white" stroke="#3A3836" stroke-width="2" stroke-linecap="round" stroke-linejoin="round"/>
<path d="M161.926 28.9561C161.183 30.7372 159.141 31.5852 157.35 30.8407C155.569 30.0973 154.721 28.0557 155.466 26.2647C156.21 24.4736 158.251 23.6356 160.042 24.3801C161.823 25.1234 162.671 27.1651 161.926 28.9561Z" stroke="#3A3836" stroke-width="2" stroke-linecap="round" stroke-linejoin="round"/>
<path d="M148.116 4.78255C148.041 6.61494 146.492 8.02842 144.67 7.95443C142.837 7.87938 141.424 6.33048 141.498 4.50803C141.572 2.68558 143.122 1.26216 144.944 1.33615C146.767 1.41014 148.19 2.96009 148.116 4.78255Z" fill="#FC8653" stroke="#3A3836" stroke-width="2" stroke-miterlimit="10"/>
<path d="M145.667 7.83984L146.324 11.1986" stroke="#3A3836" stroke-width="2" stroke-miterlimit="10"/>
<path d="M173.432 37.054C173.432 37.054 198.076 43.317 214.376 58.5847C217.191 61.2286 217.647 65.5314 215.382 68.6585C212.893 72.0936 208.077 72.8362 204.677 70.3007C200.114 66.8868 191.374 62.564 180.525 59.4339" stroke="#3A3836" stroke-width="2" stroke-linecap="round" stroke-linejoin="round"/>
<path d="M176.193 38.1234C176.193 38.1234 167.222 50.4603 180.46 59.3768" stroke="#3A3836" stroke-width="2" stroke-linecap="round" stroke-linejoin="round"/>
<path d="M184.832 61.0003L181.34 61.12C176.242 61.2996 171.357 58.7362 168.833 54.3031C168.02 52.8786 167.483 51.7854 167.486 50.2471" stroke="#3A3836" stroke-width="2" stroke-linecap="round" stroke-linejoin="round"/>
<path d="M145.484 57.1895C145.484 57.1895 145.626 61.6095 151.422 69.3891" stroke="#3A3836" stroke-width="0.92" stroke-linecap="round" stroke-linejoin="round"/>
<path d="M140.421 55.5425C140.421 55.5425 141.76 66.6375 151.056 69.3401" stroke="#3A3836" stroke-width="0.92" stroke-linecap="round" stroke-linejoin="round"/>
<path d="M145.354 56.3408C150.128 52.2246 149.852 44.0792 144.743 38.143C139.625 32.2058 131.938 30.4494 127.154 34.5645" stroke="#3A3836" stroke-width="2" stroke-linecap="round" stroke-linejoin="round"/>
<path d="M165.334 64.4464L167.752 63.3137C168.027 63.1848 168.146 62.8573 168.017 62.5823L166.188 58.6794C166.059 58.4043 165.732 58.2858 165.457 58.4146L163.039 59.5474C162.764 59.6762 162.645 60.0037 162.774 60.2788L164.603 64.1817C164.732 64.4567 165.059 64.5753 165.334 64.4464Z" fill="#F6D6CC" stroke="#3A3836" stroke-width="1.5" stroke-linecap="round" stroke-linejoin="round"/>
<g style="mix-blend-mode:multiply">
<path d="M165.162 52.0505C165.162 52.0505 156.178 62.3345 147.392 62.3011C147.392 62.3011 145.059 59.2862 145.795 56.8205C145.857 56.6159 145.801 57.1429 145.902 56.9525C145.902 56.9525 154.612 59.8641 165.162 52.0505Z" fill="#E4E4E4"/>
</g>
<path d="M151.401 69.397L153.813 71.9576L159.883 79.2436L157.062 80.5211C155.307 81.3193 153.732 82.5087 152.581 84.0552C151.021 86.1413 149.984 88.5951 149.603 91.2194C148.081 101.798 150.33 116.711 151.237 124.883C151.689 129.035 155.195 132.175 159.367 132.188C163.821 132.201 167.469 128.649 167.582 124.196L167.469 107.559" stroke="#3A3836" stroke-width="2" stroke-linecap="round" stroke-linejoin="round"/>
<path d="M181.457 78.2897C181.457 78.2897 162.835 77.98 158.029 87.2822C154.29 94.5159 173.257 114.574 181.877 123.128C184.304 125.539 187.958 126.262 191.126 124.951C196.25 122.833 198.017 116.455 194.701 112.007L177.34 88.6812" stroke="#3A3836" stroke-width="2" stroke-linecap="round" stroke-linejoin="round"/>
<path d="M139.204 54.98C139.204 54.98 141.533 67.7295 150.374 69.3175L150.821 68.2389C150.821 68.2389 146.156 62.1993 145.912 56.9537L139.204 54.98Z" fill="#E3E8F8" stroke="#3A3836" stroke-width="2" stroke-linecap="round" stroke-linejoin="round"/>
<path d="M201.013 68.1596L203.105 72.3052C203.952 73.9747 204.457 75.7483 204.64 77.5177C205.308 84.0658 201.244 90.1988 195.097 92.5693L184.04 96.8491" stroke="#3A3836" stroke-width="2" stroke-linecap="round" stroke-linejoin="round"/>
<path d="M639.671 370.033C639.643 370.047 639.618 370.065 639.598 370.088C639.578 370.111 639.562 370.138 639.552 370.167C639.542 370.195 639.538 370.226 639.54 370.256C639.542 370.287 639.55 370.316 639.564 370.344C639.624 370.464 639.648 370.599 639.633 370.733C639.618 370.866 639.563 370.993 639.477 371.096C639.44 371.144 639.423 371.204 639.429 371.264C639.436 371.323 639.466 371.378 639.512 371.417C639.559 371.455 639.619 371.474 639.679 371.469C639.74 371.464 639.796 371.436 639.836 371.391C639.98 371.219 640.071 371.008 640.096 370.785C640.122 370.563 640.082 370.337 639.981 370.137C639.954 370.082 639.905 370.041 639.847 370.022C639.789 370.002 639.726 370.007 639.671 370.033V370.033Z" fill="#BCBCBC"/>
<path d="M630.71 360.165C619.675 358.76 609.581 366.5 608.166 377.457C606.751 388.413 614.545 398.43 625.58 399.835C636.615 401.241 646.71 393.501 648.124 382.547C649.538 371.594 641.744 361.571 630.71 360.165ZM634.857 372.64C634.484 372.645 634.127 372.795 633.863 373.058L626.388 380.476L624.794 378.893C632.158 371.601 633.486 371.531 634.857 372.64ZM626.692 380.741L634.145 373.341C634.34 373.148 634.605 373.039 634.88 373.039C635.156 373.039 635.42 373.148 635.615 373.341C635.715 373.44 635.794 373.56 635.846 373.691C635.898 373.822 635.923 373.962 635.918 374.103C635.914 374.244 635.88 374.383 635.819 374.51C635.759 374.638 635.672 374.752 635.566 374.845L627.678 381.722L626.692 380.741ZM627.246 381.896L625.4 382.292C625.378 382.296 625.355 382.294 625.335 382.285C625.315 382.275 625.298 382.26 625.287 382.24C625.276 382.221 625.272 382.198 625.276 382.176C625.279 382.154 625.289 382.134 625.305 382.118L626.387 381.043L627.246 381.896ZM622.54 381.132L624.508 379.178L625.983 380.642L622.66 381.352C622.633 381.358 622.604 381.355 622.578 381.343C622.552 381.331 622.531 381.311 622.517 381.287C622.504 381.262 622.499 381.233 622.503 381.206C622.507 381.178 622.52 381.152 622.54 381.132ZM616.421 391.231C616.397 391.229 616.374 391.219 616.355 391.204C616.336 391.189 616.322 391.169 616.314 391.146C616.306 391.124 616.305 391.099 616.311 391.076C616.316 391.053 616.328 391.031 616.345 391.015L617.933 389.438L619.984 391.474L616.421 391.231ZM620.492 389.135C620.416 389.174 620.356 389.237 620.32 389.314C620.284 389.391 620.275 389.477 620.295 389.559L620.635 391.003C620.644 391.047 620.638 391.092 620.619 391.133C620.6 391.174 620.569 391.207 620.529 391.229C620.49 391.251 620.445 391.26 620.4 391.254C620.355 391.249 620.313 391.229 620.28 391.199L618.22 389.153L624.533 382.886L627.589 382.234L629.055 383.69C626.947 385.522 624.066 387.354 620.492 389.134V389.135ZM629.351 383.423L627.943 382.025L635.831 375.147C635.905 375.083 635.971 375.012 636.03 374.935C635.781 377.18 632.623 380.345 629.353 383.421L629.351 383.423ZM635.489 372.653C634.936 372.099 634.619 371.355 634.603 370.576C634.588 369.796 634.875 369.04 635.406 368.465C635.936 367.89 636.67 367.539 637.454 367.486C638.238 367.433 639.012 367.681 639.616 368.18L636.909 370.868C636.89 370.887 636.875 370.909 636.865 370.933C636.855 370.957 636.85 370.983 636.85 371.009C636.85 371.036 636.855 371.062 636.865 371.086C636.875 371.11 636.89 371.132 636.909 371.15L639.002 373.229C638.43 373.509 637.784 373.604 637.154 373.501C636.525 373.397 635.944 373.1 635.493 372.652L635.489 372.653ZM639.816 372.653C639.677 372.79 639.526 372.914 639.363 373.021L637.335 371.008L639.909 368.453C640.441 369.03 640.728 369.789 640.711 370.571C640.693 371.353 640.372 372.099 639.815 372.652L639.816 372.653Z" fill="#BCBCBC"/>
<defs>
<linearGradient id="paint0_linear_294_2282" x1="379.028" y1="158.309" x2="379.028" y2="169.366" gradientUnits="userSpaceOnUse">
<stop stop-color="#FF6C37"/>
<stop offset="1" stop-color="#FFB400"/>
</linearGradient>
<linearGradient id="paint1_linear_294_2282" x1="378.731" y1="144.897" x2="378.731" y2="155.214" gradientUnits="userSpaceOnUse">
<stop stop-color="#FF6C37"/>
<stop offset="1" stop-color="#FFB400"/>
</linearGradient>
<linearGradient id="paint2_linear_294_2282" x1="378.731" y1="172.114" x2="378.731" y2="182.431" gradientUnits="userSpaceOnUse">
<stop stop-color="#FF6C37"/>
<stop offset="1" stop-color="#FFB400"/>
</linearGradient>
<linearGradient id="paint3_linear_294_2282" x1="580.952" y1="85.4358" x2="580.952" y2="91.84" gradientUnits="userSpaceOnUse">
<stop stop-color="#FF6C37"/>
<stop offset="1" stop-color="#FFB400"/>
</linearGradient>
<linearGradient id="paint4_linear_294_2282" x1="580.952" y1="101.184" x2="580.952" y2="107.588" gradientUnits="userSpaceOnUse">
<stop stop-color="#FF6C37"/>
<stop offset="1" stop-color="#FFB400"/>
</linearGradient>
<linearGradient id="paint5_linear_294_2282" x1="570" y1="221" x2="570" y2="265" gradientUnits="userSpaceOnUse">
<stop stop-color="#FF6C37"/>
<stop offset="1" stop-color="#FFB400"/>
</linearGradient>
<linearGradient id="paint6_linear_294_2282" x1="81" y1="182" x2="81" y2="187" gradientUnits="userSpaceOnUse">
<stop stop-color="#FF6C37"/>
<stop offset="1" stop-color="#FFB400"/>
</linearGradient>
<linearGradient id="paint7_linear_294_2282" x1="88.5" y1="152" x2="88.5" y2="155" gradientUnits="userSpaceOnUse">
<stop stop-color="#FF6C37"/>
<stop offset="1" stop-color="#FFB400"/>
</linearGradient>
<linearGradient id="paint8_linear_294_2282" x1="69.5" y1="178" x2="69.5" y2="181" gradientUnits="userSpaceOnUse">
<stop stop-color="#FF6C37"/>
<stop offset="1" stop-color="#FFB400"/>
</linearGradient>
<linearGradient id="paint9_linear_294_2282" x1="222.512" y1="165" x2="222.512" y2="179" gradientUnits="userSpaceOnUse">
<stop stop-color="#FF6C37"/>
<stop offset="1" stop-color="#FFB400"/>
</linearGradient>
<clipPath id="clip0_294_2282">
<rect width="37.8889" height="44" fill="white" transform="translate(551 71)"/>
</clipPath>
</defs>
</svg>
