<svg width="763" height="419" viewBox="0 0 763 419" fill="none" xmlns="http://www.w3.org/2000/svg">
<path d="M94.6405 244H31.5468L0 298.595L31.5468 353.201H94.6405L126.187 298.595L94.6405 244Z" fill="#FFDE83"/>
<path d="M739.5 0H716.5L705 19.9982L716.5 40H739.5L751 19.9982L739.5 0Z" fill="#FFDE83"/>
<path d="M756.75 46H744.25L738 56.999L744.25 68H756.75L763 56.999L756.75 46Z" fill="#FFDE83"/>
<rect x="65" y="28" width="144" height="330" rx="4" fill="white" stroke="#3A3836" stroke-width="2"/>
<rect x="599" y="28" width="144" height="330" rx="4" fill="white" stroke="#3A3836" stroke-width="2"/>
<path d="M678.065 164.309H689.991C691.096 164.309 691.991 165.204 691.991 166.309V173.366C691.991 174.47 691.096 175.366 689.991 175.366H678.065V164.309Z" fill="url(#paint0_linear_294_2202)"/>
<path d="M677.644 150.897H689.819C690.923 150.897 691.819 151.792 691.819 152.897V159.214C691.819 160.319 690.923 161.214 689.819 161.214H677.644V150.897Z" fill="url(#paint1_linear_294_2202)"/>
<path d="M651 150.75H689C690.795 150.75 692.25 152.205 692.25 154V158.418C692.25 160.213 690.795 161.668 689 161.668H651C649.205 161.668 647.75 160.213 647.75 158.418V154C647.75 152.205 649.205 150.75 651 150.75Z" stroke="#6B6B6B" stroke-width="1.5"/>
<path d="M651 164.359H689C690.795 164.359 692.25 165.814 692.25 167.609V172.027C692.25 173.822 690.795 175.277 689 175.277H651C649.205 175.277 647.75 173.822 647.75 172.027V167.609C647.75 165.814 649.205 164.359 651 164.359Z" stroke="#6B6B6B" stroke-width="1.5"/>
<path d="M677.706 165.179V174.94" stroke="#6B6B6B" stroke-width="1.5" stroke-linecap="round"/>
<path d="M677.644 150.897V161.214" stroke="#6B6B6B" stroke-width="1.5" stroke-linecap="round"/>
<path d="M677.644 178.114H689.819C690.923 178.114 691.819 179.01 691.819 180.114V186.431C691.819 187.536 690.923 188.431 689.819 188.431H677.644V178.114Z" fill="url(#paint2_linear_294_2202)"/>
<path d="M651 177.967H689C690.795 177.967 692.25 179.422 692.25 181.217V185.635C692.25 187.43 690.795 188.885 689 188.885H651C649.205 188.885 647.75 187.43 647.75 185.635V181.217C647.75 179.422 649.205 177.967 651 177.967Z" stroke="#6B6B6B" stroke-width="1.5"/>
<path d="M677.644 178.114V188.431" stroke="#6B6B6B" stroke-width="1.5" stroke-linecap="round"/>
<circle cx="653.963" cy="156.213" r="1.60684" fill="#6B6B6B"/>
<circle cx="653.963" cy="169.818" r="1.60684" fill="#6B6B6B"/>
<circle cx="653.963" cy="183.422" r="1.60684" fill="#6B6B6B"/>
<path d="M659.024 214L659.834 211.512H663.77L664.58 214H667.052L663.291 203.091H660.319L656.553 214H659.024ZM660.42 209.712L661.762 205.584H661.847L663.19 209.712H660.42ZM668.365 214H670.671V210.463H672.61C675.119 210.463 676.578 208.966 676.578 206.788C676.578 204.62 675.146 203.091 672.669 203.091H668.365V214ZM670.671 208.615V204.977H672.227C673.558 204.977 674.203 205.701 674.203 206.788C674.203 207.869 673.558 208.615 672.237 208.615H670.671ZM680.383 203.091H678.077V214H680.383V203.091ZM652.969 224.228H655.18C655.148 222.284 653.55 220.942 651.121 220.942C648.729 220.942 646.977 222.263 646.987 224.244C646.982 225.853 648.117 226.775 649.96 227.217L651.147 227.515C652.335 227.803 652.996 228.143 653.001 228.879C652.996 229.678 652.239 230.221 651.068 230.221C649.869 230.221 649.006 229.667 648.932 228.575H646.7C646.758 230.935 648.447 232.154 651.094 232.154C653.758 232.154 655.324 230.881 655.329 228.884C655.324 227.067 653.955 226.103 652.058 225.677L651.078 225.443C650.13 225.224 649.336 224.873 649.352 224.09C649.352 223.387 649.976 222.87 651.105 222.87C652.207 222.87 652.884 223.371 652.969 224.228ZM660.566 232.16C662.591 232.16 663.954 231.174 664.274 229.656L662.175 229.518C661.946 230.141 661.36 230.466 660.604 230.466C659.469 230.466 658.75 229.715 658.75 228.495V228.49H664.322V227.866C664.322 225.086 662.638 223.712 660.476 223.712C658.068 223.712 656.507 225.422 656.507 227.946C656.507 230.54 658.047 232.16 660.566 232.16ZM658.75 227.083C658.798 226.151 659.506 225.406 660.513 225.406C661.499 225.406 662.18 226.109 662.186 227.083H658.75ZM665.803 232H668.072V227.371C668.072 226.364 668.807 225.672 669.808 225.672C670.122 225.672 670.554 225.725 670.767 225.794V223.781C670.565 223.733 670.282 223.701 670.053 223.701C669.137 223.701 668.386 224.234 668.088 225.246H668.002V223.818H665.803V232ZM679.817 223.818H677.415L675.721 229.672H675.636L673.936 223.818H671.539L674.4 232H676.957L679.817 223.818ZM684.429 232.16C686.453 232.16 687.816 231.174 688.136 229.656L686.037 229.518C685.808 230.141 685.222 230.466 684.466 230.466C683.331 230.466 682.612 229.715 682.612 228.495V228.49H688.184V227.866C688.184 225.086 686.501 223.712 684.338 223.712C681.93 223.712 680.37 225.422 680.37 227.946C680.37 230.54 681.909 232.16 684.429 232.16ZM682.612 227.083C682.66 226.151 683.369 225.406 684.375 225.406C685.361 225.406 686.043 226.109 686.048 227.083H682.612ZM689.665 232H691.934V227.371C691.934 226.364 692.669 225.672 693.67 225.672C693.985 225.672 694.416 225.725 694.629 225.794V223.781C694.427 223.733 694.145 223.701 693.916 223.701C692.999 223.701 692.248 224.234 691.95 225.246H691.865V223.818H689.665V232Z" fill="#3A3836"/>
<path d="M616.871 31.4046L625.276 34.1378L616.871 36.8823L614.138 45.2869L611.405 36.8823L603 34.1378L611.405 31.4046L614.138 23L616.871 31.4046Z" fill="white" stroke="#3A3836" stroke-width="2" stroke-miterlimit="10"/>
<path d="M45.8709 204.405L54.2755 207.138L45.8709 209.882L43.1378 218.287L40.4045 209.882L32 207.138L40.4045 204.405L43.1378 196L45.8709 204.405Z" fill="white" stroke="#3A3836" stroke-width="2" stroke-miterlimit="10"/>
<path d="M755.691 244.865L761.556 246.778L755.691 248.703L753.778 254.568L751.865 248.703L746 246.778L751.865 244.865L753.778 239L755.691 244.865Z" fill="#3A3836"/>
<path d="M735.691 227.865L741.556 229.778L735.691 231.703L733.778 237.568L731.865 231.703L726 229.778L731.865 227.865L733.778 222L735.691 227.865Z" fill="#3A3836"/>
<path d="M63.6915 177.865L69.5564 179.778L63.6915 181.703L61.7782 187.568L59.865 181.703L54 179.778L59.865 177.865L61.7782 172L63.6915 177.865Z" fill="#3A3836"/>
<path d="M702.671 313.033C702.643 313.047 702.618 313.065 702.598 313.088C702.578 313.111 702.562 313.138 702.552 313.167C702.542 313.195 702.538 313.226 702.54 313.256C702.542 313.287 702.55 313.316 702.564 313.344C702.624 313.464 702.648 313.599 702.633 313.733C702.618 313.866 702.563 313.993 702.477 314.096C702.44 314.144 702.423 314.204 702.429 314.264C702.436 314.323 702.466 314.378 702.512 314.417C702.559 314.455 702.619 314.474 702.679 314.469C702.74 314.464 702.796 314.436 702.836 314.391C702.98 314.219 703.071 314.008 703.096 313.785C703.122 313.563 703.082 313.337 702.981 313.137C702.954 313.082 702.905 313.041 702.847 313.022C702.789 313.002 702.726 313.007 702.671 313.033V313.033Z" fill="#BCBCBC"/>
<path d="M125.784 214.91H123.451C123.275 213.712 122.364 212.982 121.102 212.982C119.413 212.982 118.305 214.276 118.305 216.545C118.305 218.879 119.429 220.109 121.086 220.109C122.316 220.109 123.232 219.438 123.451 218.271L125.784 218.282C125.534 220.29 123.845 222.149 121.049 222.149C118.129 222.149 115.967 220.104 115.967 216.545C115.967 212.977 118.167 210.942 121.049 210.942C123.573 210.942 125.48 212.391 125.784 214.91ZM129.664 211.091V222H127.395V211.091H129.664ZM131.482 222V213.818H133.751V222H131.482ZM132.622 212.763C131.951 212.763 131.397 212.247 131.397 211.613C131.397 210.984 131.951 210.468 132.622 210.468C133.299 210.468 133.853 210.984 133.853 211.613C133.853 212.247 133.299 212.763 132.622 212.763ZM139.298 222.16C136.778 222.16 135.239 220.54 135.239 217.946C135.239 215.422 136.8 213.712 139.207 213.712C141.37 213.712 143.053 215.086 143.053 217.866V218.49H137.481V218.495C137.481 219.715 138.201 220.466 139.335 220.466C140.091 220.466 140.677 220.141 140.906 219.518L143.005 219.656C142.686 221.174 141.322 222.16 139.298 222.16ZM137.481 217.083H140.917C140.912 216.109 140.23 215.406 139.245 215.406C138.238 215.406 137.529 216.151 137.481 217.083ZM146.803 217.27V222H144.534V213.818H146.697V215.262H146.792C147.16 214.308 148.039 213.712 149.253 213.712C150.958 213.712 152.077 214.884 152.077 216.79V222H149.807V217.195C149.813 216.194 149.264 215.597 148.353 215.597C147.437 215.597 146.808 216.215 146.803 217.27ZM158.217 213.818V215.523H156.678V219.486C156.678 220.114 156.992 220.285 157.445 220.285C157.658 220.285 157.897 220.232 158.009 220.21L158.366 221.899C158.137 221.973 157.722 222.091 157.136 222.112C155.49 222.181 154.398 221.387 154.408 219.784V215.523H153.29V213.818H154.408V211.858H156.678V213.818H158.217Z" fill="#3A3836"/>
<path d="M115 183H136H153H159V188H131.5V183H120V188H115V183Z" fill="url(#paint3_linear_294_2202)"/>
<rect x="136" y="153" width="17" height="3" fill="url(#paint4_linear_294_2202)"/>
<rect x="120" y="179" width="11" height="3" fill="url(#paint5_linear_294_2202)"/>
<path d="M153 159H159V188H131" stroke="#6B6B6B" stroke-width="1.5" stroke-linecap="round" stroke-linejoin="round"/>
<path d="M120 188H115V159H136" stroke="#6B6B6B" stroke-width="1.5" stroke-linecap="round" stroke-linejoin="round"/>
<path d="M152 173H137C136.448 173 136 172.552 136 172V154C136 153.448 136.448 153 137 153H152C152.552 153 153 153.448 153 154V172C153 172.552 152.552 173 152 173Z" stroke="#6B6B6B" stroke-width="1.5" stroke-linecap="round" stroke-linejoin="round"/>
<path d="M130 195H121C120.448 195 120 194.552 120 194V180C120 179.448 120.448 179 121 179H130C130.552 179 131 179.448 131 180V194C131 194.552 130.552 195 130 195Z" stroke="#6B6B6B" stroke-width="1.5" stroke-linecap="round" stroke-linejoin="round"/>
<path d="M133 193L141 193" stroke="#6B6B6B" stroke-width="1.5" stroke-linecap="round" stroke-linejoin="round"/>
<path d="M137 193L137 188" stroke="#6B6B6B" stroke-width="1.5" stroke-linecap="round" stroke-linejoin="round"/>
<path d="M125 192H126" stroke="#6B6B6B" stroke-width="1.5" stroke-linecap="round" stroke-linejoin="round"/>
<path d="M143 170H146" stroke="#6B6B6B" stroke-width="1.5" stroke-linecap="round" stroke-linejoin="round"/>
<path d="M597.707 95.7071C598.098 95.3166 598.098 94.6834 597.707 94.2929L591.343 87.9289C590.953 87.5384 590.319 87.5384 589.929 87.9289C589.538 88.3194 589.538 88.9526 589.929 89.3431L595.586 95L589.929 100.657C589.538 101.047 589.538 101.681 589.929 102.071C590.319 102.462 590.953 102.462 591.343 102.071L597.707 95.7071ZM210 96L597 96L597 94L210 94L210 96Z" fill="#3A3836"/>
<path d="M257 79H496.121C497.09 79 498.026 79.3517 498.755 79.9897L513.041 92.4897C514.862 94.0833 514.862 96.9167 513.041 98.5103L498.755 111.01C498.026 111.648 497.09 112 496.121 112H257C254.791 112 253 110.209 253 108V83C253 80.7909 254.791 79 257 79Z" fill="white" stroke="#3A3836" stroke-width="2"/>
<path d="M272.199 101V90.0909H276.087C278.617 90.0909 279.864 91.5025 279.864 93.5107C279.864 94.9755 279.198 96.0888 277.861 96.5842L280.279 101H278.404L276.188 96.8718C276.151 96.8718 276.119 96.8718 276.082 96.8718H273.844V101H272.199ZM273.844 95.4549H275.933C277.536 95.4549 278.207 94.7411 278.207 93.5107C278.207 92.2749 277.536 91.5025 275.911 91.5025H273.844V95.4549ZM285.162 101.165C282.749 101.165 281.269 99.5032 281.269 96.9624C281.269 94.4482 282.771 92.7116 285.051 92.7116C286.904 92.7116 288.673 93.8675 288.673 96.8239V97.3885H282.856C282.899 98.9652 283.815 99.8494 285.178 99.8494C286.084 99.8494 286.776 99.4553 287.064 98.6829L288.571 98.9545C288.209 100.286 286.947 101.165 285.162 101.165ZM282.861 96.1953H287.112C287.107 94.9435 286.297 94.0273 285.061 94.0273C283.767 94.0273 282.925 95.0341 282.861 96.1953ZM297.556 104.068H295.964V99.7269H295.868C295.58 100.249 294.994 101.16 293.503 101.16C291.521 101.16 290.083 99.5724 290.083 96.9251C290.083 94.2724 291.542 92.7116 293.519 92.7116C295.037 92.7116 295.585 93.6385 295.868 94.1445H296.001V92.8182H297.556V104.068ZM295.996 96.9091C295.996 95.1992 295.25 94.0646 293.86 94.0646C292.416 94.0646 291.692 95.2844 291.692 96.9091C291.692 98.5497 292.437 99.8015 293.86 99.8015C295.229 99.8015 295.996 98.6296 295.996 96.9091ZM304.881 97.6069V92.8182H306.479V101H304.912V99.5831H304.827C304.449 100.457 303.613 101.107 302.382 101.107C300.811 101.107 299.698 100.052 299.698 98.0224V92.8182H301.29V97.8306C301.29 98.9439 301.972 99.6577 302.958 99.6577C303.852 99.6577 304.886 98.9972 304.881 97.6069ZM312.145 101.165C309.732 101.165 308.251 99.5032 308.251 96.9624C308.251 94.4482 309.753 92.7116 312.033 92.7116C313.887 92.7116 315.655 93.8675 315.655 96.8239V97.3885H309.838C309.881 98.9652 310.797 99.8494 312.161 99.8494C313.066 99.8494 313.759 99.4553 314.046 98.6829L315.554 98.9545C315.192 100.286 313.929 101.165 312.145 101.165ZM309.844 96.1953H314.094C314.089 94.9435 313.279 94.0273 312.044 94.0273C310.749 94.0273 309.908 95.0341 309.844 96.1953ZM323.553 94.8157L322.11 95.0714C321.923 94.5227 321.465 93.9741 320.474 93.9741C319.569 93.9741 318.887 94.4215 318.892 95.0501C318.887 95.604 319.276 95.9077 320.176 96.1207L321.476 96.419C322.978 96.7653 323.713 97.479 323.713 98.6349C323.713 100.116 322.344 101.165 320.368 101.165C318.53 101.165 317.326 100.35 317.06 98.9013L318.599 98.6669C318.791 99.4712 319.404 99.8814 320.357 99.8814C321.401 99.8814 322.078 99.386 322.078 98.7521C322.078 98.2408 321.71 97.8892 320.922 97.7134L319.537 97.4098C318.003 97.0689 317.3 96.2965 317.3 95.1353C317.3 93.6864 318.61 92.7116 320.458 92.7116C322.227 92.7116 323.223 93.5426 323.553 94.8157ZM329.283 92.8182V94.0966H327.606V98.5977C327.606 99.5192 328.069 99.6896 328.586 99.6896C328.841 99.6896 329.038 99.6417 329.145 99.6204L329.433 100.936C329.246 101.005 328.905 101.101 328.399 101.107C327.142 101.133 326.008 100.414 326.013 98.9279V94.0966H324.814V92.8182H326.013V90.858H327.606V92.8182H329.283ZM337.044 94.8157L335.601 95.0714C335.415 94.5227 334.956 93.9741 333.966 93.9741C333.06 93.9741 332.378 94.4215 332.384 95.0501C332.378 95.604 332.767 95.9077 333.667 96.1207L334.967 96.419C336.469 96.7653 337.204 97.479 337.204 98.6349C337.204 100.116 335.835 101.165 333.859 101.165C332.021 101.165 330.818 100.35 330.551 98.9013L332.091 98.6669C332.282 99.4712 332.895 99.8814 333.848 99.8814C334.892 99.8814 335.569 99.386 335.569 98.7521C335.569 98.2408 335.201 97.8892 334.413 97.7134L333.028 97.4098C331.494 97.0689 330.791 96.2965 330.791 95.1353C330.791 93.6864 332.101 92.7116 333.95 92.7116C335.718 92.7116 336.714 93.5426 337.044 94.8157ZM345.306 101.181C343.751 101.181 342.542 100.297 342.542 98.6882C342.542 96.8292 344.129 96.4244 345.679 96.2433C347.149 96.0728 347.746 96.0835 347.746 95.5028V95.4656C347.746 94.5387 347.218 94.0007 346.19 94.0007C345.12 94.0007 344.523 94.56 344.289 95.1406L342.792 94.7997C343.325 93.3082 344.688 92.7116 346.169 92.7116C347.469 92.7116 349.344 93.1857 349.344 95.5668V101H347.788V99.8814H347.725C347.421 100.494 346.659 101.181 345.306 101.181ZM345.652 99.9027C346.979 99.9027 347.751 99.0185 347.751 98.049V96.9943C347.522 97.2234 346.297 97.3619 345.78 97.4311C344.859 97.5536 344.102 97.8572 344.102 98.7095C344.102 99.4979 344.752 99.9027 345.652 99.9027ZM355.435 104.068V92.8182H356.99V94.1445H357.123C357.406 93.6385 357.954 92.7116 359.473 92.7116C361.449 92.7116 362.908 94.2724 362.908 96.9251C362.908 99.5724 361.47 101.16 359.489 101.16C357.997 101.16 357.411 100.249 357.123 99.7269H357.028V104.068H355.435ZM356.996 96.9091C356.996 98.6296 357.763 99.8015 359.132 99.8015C360.554 99.8015 361.3 98.5497 361.3 96.9091C361.3 95.2844 360.575 94.0646 359.132 94.0646C357.741 94.0646 356.996 95.1992 356.996 96.9091ZM364.693 101V92.8182H366.232V94.1179H366.317C366.616 93.239 367.436 92.6957 368.395 92.6957C368.597 92.6957 368.911 92.7116 369.071 92.733V94.2564C368.943 94.2191 368.571 94.1605 368.24 94.1605C367.111 94.1605 366.285 94.9329 366.285 96.0036V101H364.693ZM373.603 101.165C371.297 101.165 369.789 99.4766 369.789 96.9464C369.789 94.4002 371.297 92.7116 373.603 92.7116C375.909 92.7116 377.417 94.4002 377.417 96.9464C377.417 99.4766 375.909 101.165 373.603 101.165ZM373.608 99.8281C375.105 99.8281 375.808 98.5124 375.808 96.9411C375.808 95.375 375.105 94.0433 373.608 94.0433C372.101 94.0433 371.398 95.375 371.398 96.9411C371.398 98.5124 372.101 99.8281 373.608 99.8281ZM383.014 92.8182V94.0966H381.336V98.5977C381.336 99.5192 381.799 99.6896 382.316 99.6896C382.572 99.6896 382.769 99.6417 382.875 99.6204L383.163 100.936C382.977 101.005 382.636 101.101 382.13 101.107C380.873 101.133 379.738 100.414 379.743 98.9279V94.0966H378.545V92.8182H379.743V90.858H381.336V92.8182H383.014ZM388.214 101.165C385.801 101.165 384.32 99.5032 384.32 96.9624C384.32 94.4482 385.822 92.7116 388.102 92.7116C389.956 92.7116 391.724 93.8675 391.724 96.8239V97.3885H385.908C385.95 98.9652 386.866 99.8494 388.23 99.8494C389.136 99.8494 389.828 99.4553 390.116 98.6829L391.623 98.9545C391.261 100.286 389.999 101.165 388.214 101.165ZM385.913 96.1953H390.164C390.158 94.9435 389.349 94.0273 388.113 94.0273C386.819 94.0273 385.977 95.0341 385.913 96.1953ZM396.938 101.165C394.562 101.165 393.124 99.4126 393.124 96.9464C393.124 94.4482 394.616 92.7116 396.922 92.7116C398.781 92.7116 400.129 93.8089 400.299 95.4602H398.749C398.579 94.6932 397.961 94.054 396.949 94.054C395.617 94.054 394.733 95.1566 394.733 96.9091C394.733 98.6935 395.601 99.8175 396.949 99.8175C397.859 99.8175 398.547 99.2955 398.749 98.4112H400.299C400.123 100.004 398.872 101.165 396.938 101.165ZM405.822 92.8182V94.0966H404.144V98.5977C404.144 99.5192 404.607 99.6896 405.124 99.6896C405.379 99.6896 405.577 99.6417 405.683 99.6204L405.971 100.936C405.784 101.005 405.443 101.101 404.937 101.107C403.68 101.133 402.546 100.414 402.551 98.9279V94.0966H401.352V92.8182H402.551V90.858H404.144V92.8182H405.822ZM411.022 101.165C408.609 101.165 407.128 99.5032 407.128 96.9624C407.128 94.4482 408.63 92.7116 410.91 92.7116C412.764 92.7116 414.532 93.8675 414.532 96.8239V97.3885H408.715C408.758 98.9652 409.674 99.8494 411.038 99.8494C411.943 99.8494 412.636 99.4553 412.923 98.6829L414.431 98.9545C414.069 100.286 412.806 101.165 411.022 101.165ZM408.721 96.1953H412.971C412.966 94.9435 412.156 94.0273 410.921 94.0273C409.626 94.0273 408.785 95.0341 408.721 96.1953ZM419.362 101.16C417.375 101.16 415.942 99.5724 415.942 96.9251C415.942 94.2724 417.396 92.7116 419.373 92.7116C420.896 92.7116 421.439 93.6385 421.727 94.1445H421.823V90.0909H423.416V101H421.86V99.7269H421.727C421.439 100.249 420.854 101.16 419.362 101.16ZM419.714 99.8015C421.088 99.8015 421.85 98.6296 421.85 96.9091C421.85 95.1992 421.104 94.0646 419.714 94.0646C418.275 94.0646 417.551 95.2844 417.551 96.9091C417.551 98.5497 418.291 99.8015 419.714 99.8015ZM429.659 101V92.8182H431.198V94.1179H431.283C431.581 93.239 432.402 92.6957 433.361 92.6957C433.563 92.6957 433.877 92.7116 434.037 92.733V94.2564C433.909 94.2191 433.536 94.1605 433.206 94.1605C432.077 94.1605 431.251 94.9329 431.251 96.0036V101H429.659ZM438.649 101.165C436.236 101.165 434.755 99.5032 434.755 96.9624C434.755 94.4482 436.257 92.7116 438.537 92.7116C440.391 92.7116 442.159 93.8675 442.159 96.8239V97.3885H436.342C436.385 98.9652 437.301 99.8494 438.665 99.8494C439.57 99.8494 440.263 99.4553 440.55 98.6829L442.058 98.9545C441.696 100.286 440.433 101.165 438.649 101.165ZM436.348 96.1953H440.598C440.593 94.9435 439.783 94.0273 438.547 94.0273C437.253 94.0273 436.411 95.0341 436.348 96.1953ZM450.057 94.8157L448.614 95.0714C448.427 94.5227 447.969 93.9741 446.978 93.9741C446.073 93.9741 445.391 94.4215 445.396 95.0501C445.391 95.604 445.78 95.9077 446.68 96.1207L447.98 96.419C449.482 96.7653 450.217 97.479 450.217 98.6349C450.217 100.116 448.848 101.165 446.872 101.165C445.034 101.165 443.83 100.35 443.564 98.9013L445.103 98.6669C445.295 99.4712 445.908 99.8814 446.861 99.8814C447.905 99.8814 448.582 99.386 448.582 98.7521C448.582 98.2408 448.214 97.8892 447.426 97.7134L446.041 97.4098C444.507 97.0689 443.804 96.2965 443.804 95.1353C443.804 93.6864 445.114 92.7116 446.962 92.7116C448.731 92.7116 449.727 93.5426 450.057 94.8157ZM455.415 101.165C453.108 101.165 451.601 99.4766 451.601 96.9464C451.601 94.4002 453.108 92.7116 455.415 92.7116C457.721 92.7116 459.228 94.4002 459.228 96.9464C459.228 99.4766 457.721 101.165 455.415 101.165ZM455.42 99.8281C456.917 99.8281 457.62 98.5124 457.62 96.9411C457.62 95.375 456.917 94.0433 455.42 94.0433C453.912 94.0433 453.209 95.375 453.209 96.9411C453.209 98.5124 453.912 99.8281 455.42 99.8281ZM466.189 97.6069V92.8182H467.787V101H466.221V99.5831H466.136C465.758 100.457 464.921 101.107 463.691 101.107C462.119 101.107 461.006 100.052 461.006 98.0224V92.8182H462.599V97.8306C462.599 98.9439 463.281 99.6577 464.266 99.6577C465.161 99.6577 466.194 98.9972 466.189 97.6069ZM469.927 101V92.8182H471.467V94.1179H471.552C471.85 93.239 472.67 92.6957 473.629 92.6957C473.832 92.6957 474.146 92.7116 474.306 92.733V94.2564C474.178 94.2191 473.805 94.1605 473.475 94.1605C472.345 94.1605 471.52 94.9329 471.52 96.0036V101H469.927ZM478.837 101.165C476.462 101.165 475.023 99.4126 475.023 96.9464C475.023 94.4482 476.515 92.7116 478.821 92.7116C480.68 92.7116 482.028 93.8089 482.199 95.4602H480.648C480.478 94.6932 479.86 94.054 478.848 94.054C477.516 94.054 476.632 95.1566 476.632 96.9091C476.632 98.6935 477.5 99.8175 478.848 99.8175C479.759 99.8175 480.446 99.2955 480.648 98.4112H482.199C482.023 100.004 480.771 101.165 478.837 101.165ZM487.428 101.165C485.015 101.165 483.534 99.5032 483.534 96.9624C483.534 94.4482 485.036 92.7116 487.316 92.7116C489.17 92.7116 490.938 93.8675 490.938 96.8239V97.3885H485.122C485.164 98.9652 486.08 99.8494 487.444 99.8494C488.35 99.8494 489.042 99.4553 489.33 98.6829L490.837 98.9545C490.475 100.286 489.212 101.165 487.428 101.165ZM485.127 96.1953H489.378C489.372 94.9435 488.563 94.0273 487.327 94.0273C486.032 94.0273 485.191 95.0341 485.127 96.1953Z" fill="#3A3836"/>
<path d="M210.293 160.293C209.902 160.683 209.902 161.317 210.293 161.707L216.657 168.071C217.047 168.462 217.681 168.462 218.071 168.071C218.462 167.681 218.462 167.047 218.071 166.657L212.414 161L218.071 155.343C218.462 154.953 218.462 154.319 218.071 153.929C217.681 153.538 217.047 153.538 216.657 153.929L210.293 160.293ZM598 160L211 160V162L598 162V160Z" fill="#3A3836"/>
<path d="M316.879 144H551C553.209 144 555 145.791 555 148V173C555 175.209 553.209 177 551 177H316.879C315.91 177 314.974 176.648 314.245 176.01L299.959 163.51C298.138 161.917 298.138 159.083 299.959 157.49L314.245 144.99C314.974 144.352 315.91 144 316.879 144Z" fill="white" stroke="#3A3836" stroke-width="2"/>
<path d="M320.845 166V155.091H324.733C327.264 155.091 328.51 156.502 328.51 158.511C328.51 159.975 327.844 161.089 326.507 161.584L328.926 166H327.051L324.835 161.872C324.797 161.872 324.765 161.872 324.728 161.872H322.491V166H320.845ZM322.491 160.455H324.579C326.182 160.455 326.854 159.741 326.854 158.511C326.854 157.275 326.182 156.502 324.558 156.502H322.491V160.455ZM333.809 166.165C331.396 166.165 329.915 164.503 329.915 161.962C329.915 159.448 331.417 157.712 333.697 157.712C335.551 157.712 337.319 158.868 337.319 161.824V162.388H331.502C331.545 163.965 332.461 164.849 333.825 164.849C334.73 164.849 335.423 164.455 335.71 163.683L337.218 163.955C336.856 165.286 335.593 166.165 333.809 166.165ZM331.508 161.195H335.758C335.753 159.944 334.943 159.027 333.708 159.027C332.413 159.027 331.572 160.034 331.508 161.195ZM346.203 169.068H344.61V164.727H344.514C344.227 165.249 343.641 166.16 342.149 166.16C340.168 166.16 338.729 164.572 338.729 161.925C338.729 159.272 340.189 157.712 342.165 157.712C343.683 157.712 344.232 158.638 344.514 159.145H344.647V157.818H346.203V169.068ZM344.642 161.909C344.642 160.199 343.896 159.065 342.506 159.065C341.062 159.065 340.338 160.284 340.338 161.909C340.338 163.55 341.084 164.801 342.506 164.801C343.875 164.801 344.642 163.63 344.642 161.909ZM353.527 162.607V157.818H355.125V166H353.559V164.583H353.474C353.096 165.457 352.259 166.107 351.029 166.107C349.457 166.107 348.344 165.052 348.344 163.022V157.818H349.937V162.831C349.937 163.944 350.619 164.658 351.604 164.658C352.499 164.658 353.532 163.997 353.527 162.607ZM360.791 166.165C358.378 166.165 356.897 164.503 356.897 161.962C356.897 159.448 358.4 157.712 360.679 157.712C362.533 157.712 364.302 158.868 364.302 161.824V162.388H358.485C358.527 163.965 359.444 164.849 360.807 164.849C361.713 164.849 362.405 164.455 362.693 163.683L364.2 163.955C363.838 165.286 362.576 166.165 360.791 166.165ZM358.49 161.195H362.741C362.736 159.944 361.926 159.027 360.69 159.027C359.396 159.027 358.554 160.034 358.49 161.195ZM372.2 159.816L370.756 160.071C370.57 159.523 370.112 158.974 369.121 158.974C368.215 158.974 367.534 159.422 367.539 160.05C367.534 160.604 367.922 160.908 368.823 161.121L370.122 161.419C371.624 161.765 372.36 162.479 372.36 163.635C372.36 165.116 370.991 166.165 369.014 166.165C367.177 166.165 365.973 165.35 365.706 163.901L367.246 163.667C367.438 164.471 368.05 164.881 369.004 164.881C370.048 164.881 370.724 164.386 370.724 163.752C370.724 163.241 370.357 162.889 369.568 162.713L368.183 162.41C366.649 162.069 365.946 161.297 365.946 160.135C365.946 158.686 367.257 157.712 369.105 157.712C370.873 157.712 371.869 158.543 372.2 159.816ZM377.93 157.818V159.097H376.252V163.598C376.252 164.519 376.715 164.69 377.232 164.69C377.488 164.69 377.685 164.642 377.791 164.62L378.079 165.936C377.893 166.005 377.552 166.101 377.046 166.107C375.789 166.133 374.654 165.414 374.659 163.928V159.097H373.461V157.818H374.659V155.858H376.252V157.818H377.93ZM385.691 159.816L384.247 160.071C384.061 159.523 383.603 158.974 382.612 158.974C381.707 158.974 381.025 159.422 381.03 160.05C381.025 160.604 381.414 160.908 382.314 161.121L383.614 161.419C385.116 161.765 385.851 162.479 385.851 163.635C385.851 165.116 384.482 166.165 382.506 166.165C380.668 166.165 379.464 165.35 379.198 163.901L380.737 163.667C380.929 164.471 381.541 164.881 382.495 164.881C383.539 164.881 384.215 164.386 384.215 163.752C384.215 163.241 383.848 162.889 383.06 162.713L381.675 162.41C380.141 162.069 379.437 161.297 379.437 160.135C379.437 158.686 380.748 157.712 382.596 157.712C384.365 157.712 385.361 158.543 385.691 159.816ZM396.755 162.607V157.818H398.353V166H396.786V164.583H396.701C396.323 165.457 395.487 166.107 394.256 166.107C392.685 166.107 391.572 165.052 391.572 163.022V157.818H393.164V162.831C393.164 163.944 393.846 164.658 394.832 164.658C395.726 164.658 396.76 163.997 396.755 162.607ZM406.624 159.816L405.18 160.071C404.994 159.523 404.536 158.974 403.545 158.974C402.639 158.974 401.957 159.422 401.963 160.05C401.957 160.604 402.346 160.908 403.246 161.121L404.546 161.419C406.048 161.765 406.783 162.479 406.783 163.635C406.783 165.116 405.414 166.165 403.438 166.165C401.6 166.165 400.397 165.35 400.13 163.901L401.67 163.667C401.862 164.471 402.474 164.881 403.428 164.881C404.472 164.881 405.148 164.386 405.148 163.752C405.148 163.241 404.781 162.889 403.992 162.713L402.607 162.41C401.073 162.069 400.37 161.297 400.37 160.135C400.37 158.686 401.68 157.712 403.529 157.712C405.297 157.712 406.293 158.543 406.624 159.816ZM412.061 166.165C409.648 166.165 408.167 164.503 408.167 161.962C408.167 159.448 409.669 157.712 411.949 157.712C413.803 157.712 415.571 158.868 415.571 161.824V162.388H409.754C409.797 163.965 410.713 164.849 412.077 164.849C412.982 164.849 413.675 164.455 413.962 163.683L415.47 163.955C415.108 165.286 413.845 166.165 412.061 166.165ZM409.76 161.195H414.01C414.005 159.944 413.195 159.027 411.96 159.027C410.665 159.027 409.824 160.034 409.76 161.195ZM417.338 166V157.818H418.878V159.118H418.963C419.261 158.239 420.081 157.696 421.04 157.696C421.243 157.696 421.557 157.712 421.717 157.733V159.256C421.589 159.219 421.216 159.161 420.886 159.161C419.757 159.161 418.931 159.933 418.931 161.004V166H417.338ZM424.688 161.142V166H423.095V157.818H424.624V159.15H424.725C425.103 158.282 425.908 157.712 427.138 157.712C428.811 157.712 429.924 158.772 429.924 160.796V166H428.331V160.988C428.331 159.8 427.676 159.091 426.595 159.091C425.487 159.091 424.688 159.837 424.688 161.142ZM434.441 166.181C432.886 166.181 431.676 165.297 431.676 163.688C431.676 161.829 433.264 161.424 434.814 161.243C436.284 161.073 436.881 161.083 436.881 160.503V160.466C436.881 159.539 436.353 159.001 435.325 159.001C434.255 159.001 433.658 159.56 433.424 160.141L431.927 159.8C432.459 158.308 433.823 157.712 435.304 157.712C436.604 157.712 438.479 158.186 438.479 160.567V166H436.923V164.881H436.859C436.556 165.494 435.794 166.181 434.441 166.181ZM434.787 164.903C436.114 164.903 436.886 164.018 436.886 163.049V161.994C436.657 162.223 435.432 162.362 434.915 162.431C433.994 162.554 433.237 162.857 433.237 163.71C433.237 164.498 433.887 164.903 434.787 164.903ZM440.6 166V157.818H442.129V159.15H442.23C442.571 158.25 443.375 157.712 444.456 157.712C445.548 157.712 446.3 158.255 446.656 159.15H446.742C447.136 158.276 448.02 157.712 449.197 157.712C450.678 157.712 451.722 158.644 451.722 160.513V166H450.129V160.663C450.129 159.555 449.437 159.086 448.595 159.086C447.557 159.086 446.955 159.8 446.955 160.785V166H445.367V160.561C445.367 159.672 444.755 159.086 443.871 159.086C442.965 159.086 442.193 159.853 442.193 160.956V166H440.6ZM457.383 166.165C454.97 166.165 453.489 164.503 453.489 161.962C453.489 159.448 454.991 157.712 457.271 157.712C459.125 157.712 460.893 158.868 460.893 161.824V162.388H455.077C455.119 163.965 456.035 164.849 457.399 164.849C458.305 164.849 458.997 164.455 459.285 163.683L460.792 163.955C460.43 165.286 459.168 166.165 457.383 166.165ZM455.082 161.195H459.333C459.327 159.944 458.518 159.027 457.282 159.027C455.987 159.027 455.146 160.034 455.082 161.195ZM466.815 154.58L463.3 167.641H461.877L465.393 154.58H466.815ZM468.168 169.068V157.818H469.724V159.145H469.857C470.139 158.638 470.688 157.712 472.206 157.712C474.182 157.712 475.642 159.272 475.642 161.925C475.642 164.572 474.203 166.16 472.222 166.16C470.73 166.16 470.145 165.249 469.857 164.727H469.761V169.068H468.168ZM469.729 161.909C469.729 163.63 470.496 164.801 471.865 164.801C473.287 164.801 474.033 163.55 474.033 161.909C474.033 160.284 473.309 159.065 471.865 159.065C470.475 159.065 469.729 160.199 469.729 161.909ZM479.807 166.181C478.252 166.181 477.043 165.297 477.043 163.688C477.043 161.829 478.63 161.424 480.18 161.243C481.65 161.073 482.247 161.083 482.247 160.503V160.466C482.247 159.539 481.719 159.001 480.691 159.001C479.621 159.001 479.024 159.56 478.79 160.141L477.293 159.8C477.826 158.308 479.189 157.712 480.67 157.712C481.97 157.712 483.845 158.186 483.845 160.567V166H482.289V164.881H482.225C481.922 165.494 481.16 166.181 479.807 166.181ZM480.153 164.903C481.48 164.903 482.252 164.018 482.252 163.049V161.994C482.023 162.223 480.798 162.362 480.281 162.431C479.36 162.554 478.603 162.857 478.603 163.71C478.603 164.498 479.253 164.903 480.153 164.903ZM492.097 159.816L490.654 160.071C490.467 159.523 490.009 158.974 489.018 158.974C488.113 158.974 487.431 159.422 487.436 160.05C487.431 160.604 487.82 160.908 488.72 161.121L490.02 161.419C491.522 161.765 492.257 162.479 492.257 163.635C492.257 165.116 490.888 166.165 488.912 166.165C487.074 166.165 485.87 165.35 485.604 163.901L487.143 163.667C487.335 164.471 487.948 164.881 488.901 164.881C489.945 164.881 490.622 164.386 490.622 163.752C490.622 163.241 490.254 162.889 489.466 162.713L488.081 162.41C486.547 162.069 485.844 161.297 485.844 160.135C485.844 158.686 487.154 157.712 489.002 157.712C490.771 157.712 491.767 158.543 492.097 159.816ZM500.139 159.816L498.696 160.071C498.509 159.523 498.051 158.974 497.06 158.974C496.155 158.974 495.473 159.422 495.478 160.05C495.473 160.604 495.862 160.908 496.762 161.121L498.062 161.419C499.564 161.765 500.299 162.479 500.299 163.635C500.299 165.116 498.93 166.165 496.954 166.165C495.116 166.165 493.912 165.35 493.646 163.901L495.185 163.667C495.377 164.471 495.99 164.881 496.943 164.881C497.987 164.881 498.664 164.386 498.664 163.752C498.664 163.241 498.296 162.889 497.508 162.713L496.123 162.41C494.589 162.069 493.886 161.297 493.886 160.135C493.886 158.686 495.196 157.712 497.044 157.712C498.813 157.712 499.809 158.543 500.139 159.816ZM503.824 166L501.416 157.818H503.062L504.666 163.827H504.745L506.354 157.818H508L509.598 163.8H509.678L511.271 157.818H512.917L510.514 166H508.89L507.228 160.093H507.105L505.443 166H503.824ZM517.625 166.165C515.319 166.165 513.812 164.477 513.812 161.946C513.812 159.4 515.319 157.712 517.625 157.712C519.932 157.712 521.439 159.4 521.439 161.946C521.439 164.477 519.932 166.165 517.625 166.165ZM517.631 164.828C519.128 164.828 519.831 163.512 519.831 161.941C519.831 160.375 519.128 159.043 517.631 159.043C516.123 159.043 515.42 160.375 515.42 161.941C515.42 163.512 516.123 164.828 517.631 164.828ZM523.217 166V157.818H524.757V159.118H524.842C525.14 158.239 525.96 157.696 526.919 157.696C527.122 157.696 527.436 157.712 527.596 157.733V159.256C527.468 159.219 527.095 159.161 526.765 159.161C525.635 159.161 524.81 159.933 524.81 161.004V166H523.217ZM531.744 166.16C529.757 166.16 528.324 164.572 528.324 161.925C528.324 159.272 529.778 157.712 531.755 157.712C533.278 157.712 533.821 158.638 534.109 159.145H534.205V155.091H535.797V166H534.242V164.727H534.109C533.821 165.249 533.235 166.16 531.744 166.16ZM532.095 164.801C533.47 164.801 534.231 163.63 534.231 161.909C534.231 160.199 533.486 159.065 532.095 159.065C530.657 159.065 529.933 160.284 529.933 161.909C529.933 163.55 530.673 164.801 532.095 164.801Z" fill="#3A3836"/>
<path d="M598.707 225.707C599.098 225.317 599.098 224.683 598.707 224.293L592.343 217.929C591.953 217.538 591.319 217.538 590.929 217.929C590.538 218.319 590.538 218.953 590.929 219.343L596.586 225L590.929 230.657C590.538 231.047 590.538 231.681 590.929 232.071C591.319 232.462 591.953 232.462 592.343 232.071L598.707 225.707ZM210 226L598 226L598 224L210 224L210 226Z" fill="#3A3836"/>
<path d="M255 209H469.121C470.09 209 471.026 209.352 471.755 209.99L486.041 222.49C487.862 224.083 487.862 226.917 486.041 228.51L471.755 241.01C471.026 241.648 470.09 242 469.121 242H255C252.791 242 251 240.209 251 238V213C251 210.791 252.791 209 255 209Z" fill="white" stroke="#3A3836" stroke-width="2"/>
<path d="M276.148 222.957C276.031 221.95 275.142 221.364 273.89 221.364C272.548 221.364 271.701 222.051 271.701 222.978C271.695 224.022 272.83 224.422 273.682 224.64L274.748 224.917C276.132 225.258 277.885 226.02 277.885 227.985C277.885 229.833 276.409 231.181 273.847 231.181C271.402 231.181 269.874 229.961 269.767 227.985H271.418C271.514 229.173 272.569 229.738 273.837 229.738C275.238 229.738 276.255 229.034 276.255 227.969C276.255 227 275.355 226.616 274.188 226.307L272.899 225.956C271.147 225.482 270.06 224.592 270.06 223.074C270.06 221.194 271.738 219.942 273.927 219.942C276.143 219.942 277.688 221.21 277.736 222.957H276.148ZM283.25 231.165C280.837 231.165 279.356 229.503 279.356 226.962C279.356 224.448 280.859 222.712 283.138 222.712C284.992 222.712 286.761 223.868 286.761 226.824V227.388H280.944C280.986 228.965 281.903 229.849 283.266 229.849C284.172 229.849 284.864 229.455 285.152 228.683L286.659 228.955C286.297 230.286 285.035 231.165 283.25 231.165ZM280.949 226.195H285.2C285.195 224.944 284.385 224.027 283.149 224.027C281.855 224.027 281.013 225.034 280.949 226.195ZM290.12 226.142V231H288.528V222.818H290.056V224.15H290.158C290.536 223.282 291.34 222.712 292.571 222.712C294.243 222.712 295.357 223.772 295.357 225.796V231H293.764V225.988C293.764 224.8 293.109 224.091 292.027 224.091C290.919 224.091 290.12 224.837 290.12 226.142ZM300.555 231.16C298.569 231.16 297.136 229.572 297.136 226.925C297.136 224.272 298.59 222.712 300.566 222.712C302.089 222.712 302.633 223.638 302.92 224.145H303.016V220.091H304.609V231H303.054V229.727H302.92C302.633 230.249 302.047 231.16 300.555 231.16ZM300.907 229.801C302.281 229.801 303.043 228.63 303.043 226.909C303.043 225.199 302.297 224.065 300.907 224.065C299.469 224.065 298.744 225.284 298.744 226.909C298.744 228.55 299.485 229.801 300.907 229.801ZM313.013 224.816L311.57 225.071C311.383 224.523 310.925 223.974 309.934 223.974C309.029 223.974 308.347 224.422 308.352 225.05C308.347 225.604 308.736 225.908 309.636 226.121L310.936 226.419C312.438 226.765 313.173 227.479 313.173 228.635C313.173 230.116 311.804 231.165 309.828 231.165C307.99 231.165 306.786 230.35 306.52 228.901L308.059 228.667C308.251 229.471 308.864 229.881 309.817 229.881C310.861 229.881 311.538 229.386 311.538 228.752C311.538 228.241 311.17 227.889 310.382 227.713L308.997 227.41C307.463 227.069 306.76 226.297 306.76 225.135C306.76 223.686 308.07 222.712 309.918 222.712C311.687 222.712 312.683 223.543 313.013 224.816ZM324.077 227.607V222.818H325.675V231H324.109V229.583H324.024C323.645 230.457 322.809 231.107 321.579 231.107C320.007 231.107 318.894 230.052 318.894 228.022V222.818H320.487V227.831C320.487 228.944 321.168 229.658 322.154 229.658C323.049 229.658 324.082 228.997 324.077 227.607ZM333.946 224.816L332.502 225.071C332.316 224.523 331.858 223.974 330.867 223.974C329.961 223.974 329.28 224.422 329.285 225.05C329.28 225.604 329.669 225.908 330.569 226.121L331.868 226.419C333.371 226.765 334.106 227.479 334.106 228.635C334.106 230.116 332.737 231.165 330.76 231.165C328.923 231.165 327.719 230.35 327.453 228.901L328.992 228.667C329.184 229.471 329.796 229.881 330.75 229.881C331.794 229.881 332.47 229.386 332.47 228.752C332.47 228.241 332.103 227.889 331.314 227.713L329.93 227.41C328.395 227.069 327.692 226.297 327.692 225.135C327.692 223.686 329.003 222.712 330.851 222.712C332.619 222.712 333.616 223.543 333.946 224.816ZM339.383 231.165C336.97 231.165 335.489 229.503 335.489 226.962C335.489 224.448 336.991 222.712 339.271 222.712C341.125 222.712 342.893 223.868 342.893 226.824V227.388H337.077C337.119 228.965 338.035 229.849 339.399 229.849C340.305 229.849 340.997 229.455 341.285 228.683L342.792 228.955C342.43 230.286 341.168 231.165 339.383 231.165ZM337.082 226.195H341.333C341.327 224.944 340.518 224.027 339.282 224.027C337.987 224.027 337.146 225.034 337.082 226.195ZM344.661 231V222.818H346.2V224.118H346.285C346.583 223.239 347.404 222.696 348.363 222.696C348.565 222.696 348.879 222.712 349.039 222.733V224.256C348.911 224.219 348.538 224.161 348.208 224.161C347.079 224.161 346.253 224.933 346.253 226.004V231H344.661ZM352.01 226.142V231H350.417V222.818H351.946V224.15H352.047C352.426 223.282 353.23 222.712 354.46 222.712C356.133 222.712 357.246 223.772 357.246 225.796V231H355.653V225.988C355.653 224.8 354.998 224.091 353.917 224.091C352.809 224.091 352.01 224.837 352.01 226.142ZM361.763 231.181C360.208 231.181 358.999 230.297 358.999 228.688C358.999 226.829 360.586 226.424 362.136 226.243C363.606 226.073 364.203 226.083 364.203 225.503V225.466C364.203 224.539 363.676 224.001 362.647 224.001C361.577 224.001 360.98 224.56 360.746 225.141L359.249 224.8C359.782 223.308 361.145 222.712 362.626 222.712C363.926 222.712 365.801 223.186 365.801 225.567V231H364.245V229.881H364.182C363.878 230.494 363.116 231.181 361.763 231.181ZM362.109 229.903C363.436 229.903 364.208 229.018 364.208 228.049V226.994C363.979 227.223 362.754 227.362 362.237 227.431C361.316 227.554 360.559 227.857 360.559 228.71C360.559 229.498 361.209 229.903 362.109 229.903ZM367.922 231V222.818H369.451V224.15H369.552C369.893 223.25 370.697 222.712 371.779 222.712C372.871 222.712 373.622 223.255 373.979 224.15H374.064C374.458 223.276 375.342 222.712 376.52 222.712C378 222.712 379.044 223.644 379.044 225.513V231H377.452V225.663C377.452 224.555 376.759 224.086 375.918 224.086C374.879 224.086 374.277 224.8 374.277 225.785V231H372.69V225.561C372.69 224.672 372.077 224.086 371.193 224.086C370.287 224.086 369.515 224.853 369.515 225.956V231H367.922ZM384.705 231.165C382.292 231.165 380.812 229.503 380.812 226.962C380.812 224.448 382.314 222.712 384.593 222.712C386.447 222.712 388.216 223.868 388.216 226.824V227.388H382.399C382.441 228.965 383.358 229.849 384.721 229.849C385.627 229.849 386.319 229.455 386.607 228.683L388.114 228.955C387.752 230.286 386.49 231.165 384.705 231.165ZM382.404 226.195H386.655C386.65 224.944 385.84 224.027 384.604 224.027C383.31 224.027 382.468 225.034 382.404 226.195ZM394.138 219.58L390.622 232.641H389.2L392.715 219.58H394.138ZM395.491 234.068V222.818H397.046V224.145H397.179C397.461 223.638 398.01 222.712 399.528 222.712C401.504 222.712 402.964 224.272 402.964 226.925C402.964 229.572 401.526 231.16 399.544 231.16C398.053 231.16 397.467 230.249 397.179 229.727H397.083V234.068H395.491ZM397.051 226.909C397.051 228.63 397.818 229.801 399.187 229.801C400.61 229.801 401.355 228.55 401.355 226.909C401.355 225.284 400.631 224.065 399.187 224.065C397.797 224.065 397.051 225.199 397.051 226.909ZM407.129 231.181C405.574 231.181 404.365 230.297 404.365 228.688C404.365 226.829 405.952 226.424 407.502 226.243C408.972 226.073 409.569 226.083 409.569 225.503V225.466C409.569 224.539 409.042 224.001 408.014 224.001C406.943 224.001 406.346 224.56 406.112 225.141L404.615 224.8C405.148 223.308 406.512 222.712 407.992 222.712C409.292 222.712 411.167 223.186 411.167 225.567V231H409.612V229.881H409.548C409.244 230.494 408.482 231.181 407.129 231.181ZM407.476 229.903C408.802 229.903 409.574 229.018 409.574 228.049V226.994C409.345 227.223 408.12 227.362 407.604 227.431C406.682 227.554 405.926 227.857 405.926 228.71C405.926 229.498 406.575 229.903 407.476 229.903ZM419.419 224.816L417.976 225.071C417.79 224.523 417.331 223.974 416.341 223.974C415.435 223.974 414.753 224.422 414.759 225.05C414.753 225.604 415.142 225.908 416.042 226.121L417.342 226.419C418.844 226.765 419.579 227.479 419.579 228.635C419.579 230.116 418.21 231.165 416.234 231.165C414.396 231.165 413.193 230.35 412.926 228.901L414.466 228.667C414.657 229.471 415.27 229.881 416.223 229.881C417.267 229.881 417.944 229.386 417.944 228.752C417.944 228.241 417.576 227.889 416.788 227.713L415.403 227.41C413.869 227.069 413.166 226.297 413.166 225.135C413.166 223.686 414.476 222.712 416.325 222.712C418.093 222.712 419.089 223.543 419.419 224.816ZM427.461 224.816L426.018 225.071C425.831 224.523 425.373 223.974 424.383 223.974C423.477 223.974 422.795 224.422 422.801 225.05C422.795 225.604 423.184 225.908 424.084 226.121L425.384 226.419C426.886 226.765 427.621 227.479 427.621 228.635C427.621 230.116 426.252 231.165 424.276 231.165C422.438 231.165 421.235 230.35 420.968 228.901L422.508 228.667C422.699 229.471 423.312 229.881 424.265 229.881C425.309 229.881 425.986 229.386 425.986 228.752C425.986 228.241 425.618 227.889 424.83 227.713L423.445 227.41C421.911 227.069 421.208 226.297 421.208 225.135C421.208 223.686 422.518 222.712 424.367 222.712C426.135 222.712 427.131 223.543 427.461 224.816ZM431.146 231L428.739 222.818H430.384L431.988 228.827H432.068L433.676 222.818H435.322L436.92 228.8H437L438.593 222.818H440.239L437.837 231H436.212L434.55 225.093H434.427L432.766 231H431.146ZM444.948 231.165C442.641 231.165 441.134 229.477 441.134 226.946C441.134 224.4 442.641 222.712 444.948 222.712C447.254 222.712 448.762 224.4 448.762 226.946C448.762 229.477 447.254 231.165 444.948 231.165ZM444.953 229.828C446.45 229.828 447.153 228.512 447.153 226.941C447.153 225.375 446.45 224.043 444.953 224.043C443.446 224.043 442.742 225.375 442.742 226.941C442.742 228.512 443.446 229.828 444.953 229.828ZM450.539 231V222.818H452.079V224.118H452.164C452.462 223.239 453.283 222.696 454.241 222.696C454.444 222.696 454.758 222.712 454.918 222.733V224.256C454.79 224.219 454.417 224.161 454.087 224.161C452.958 224.161 452.132 224.933 452.132 226.004V231H450.539ZM459.066 231.16C457.079 231.16 455.646 229.572 455.646 226.925C455.646 224.272 457.101 222.712 459.077 222.712C460.6 222.712 461.144 223.638 461.431 224.145H461.527V220.091H463.12V231H461.564V229.727H461.431C461.144 230.249 460.558 231.16 459.066 231.16ZM459.418 229.801C460.792 229.801 461.554 228.63 461.554 226.909C461.554 225.199 460.808 224.065 459.418 224.065C457.979 224.065 457.255 225.284 457.255 226.909C457.255 228.55 457.995 229.801 459.418 229.801Z" fill="#3A3836"/>
<path d="M210.293 290.293C209.902 290.683 209.902 291.317 210.293 291.707L216.657 298.071C217.047 298.462 217.681 298.462 218.071 298.071C218.462 297.681 218.462 297.047 218.071 296.657L212.414 291L218.071 285.343C218.462 284.953 218.462 284.319 218.071 283.929C217.681 283.538 217.047 283.538 216.657 283.929L210.293 290.293ZM598 290L211 290V292L598 292V290Z" fill="#3A3836"/>
<path d="M334.879 274H552C554.209 274 556 275.791 556 278V303C556 305.209 554.209 307 552 307H334.879C333.91 307 332.974 306.648 332.245 306.01L317.959 293.51C316.138 291.917 316.138 289.083 317.959 287.49L332.245 274.99C332.974 274.352 333.91 274 334.879 274Z" fill="white" stroke="#3A3836" stroke-width="2"/>
<path d="M339.599 296V285.091H343.487C346.018 285.091 347.264 286.502 347.264 288.511C347.264 289.975 346.598 291.089 345.261 291.584L347.68 296H345.805L343.589 291.872C343.551 291.872 343.519 291.872 343.482 291.872H341.245V296H339.599ZM341.245 290.455H343.333C344.936 290.455 345.607 289.741 345.607 288.511C345.607 287.275 344.936 286.502 343.312 286.502H341.245V290.455ZM352.563 296.165C350.15 296.165 348.669 294.503 348.669 291.962C348.669 289.448 350.171 287.712 352.451 287.712C354.305 287.712 356.073 288.868 356.073 291.824V292.388H350.256C350.299 293.965 351.215 294.849 352.579 294.849C353.484 294.849 354.177 294.455 354.464 293.683L355.972 293.955C355.61 295.286 354.347 296.165 352.563 296.165ZM350.262 291.195H354.512C354.507 289.944 353.697 289.027 352.462 289.027C351.167 289.027 350.326 290.034 350.262 291.195ZM361.659 287.818V289.097H359.982V293.598C359.982 294.519 360.445 294.69 360.962 294.69C361.217 294.69 361.414 294.642 361.521 294.62L361.809 295.936C361.622 296.005 361.281 296.101 360.775 296.107C359.518 296.133 358.384 295.414 358.389 293.928V289.097H357.19V287.818H358.389V285.858H359.982V287.818H361.659ZM368.604 292.607V287.818H370.202V296H368.636V294.583H368.551C368.173 295.457 367.336 296.107 366.106 296.107C364.535 296.107 363.421 295.052 363.421 293.022V287.818H365.014V292.831C365.014 293.944 365.696 294.658 366.681 294.658C367.576 294.658 368.609 293.997 368.604 292.607ZM372.342 296V287.818H373.882V289.118H373.967C374.265 288.239 375.085 287.696 376.044 287.696C376.247 287.696 376.561 287.712 376.721 287.733V289.256C376.593 289.219 376.22 289.161 375.89 289.161C374.76 289.161 373.935 289.933 373.935 291.004V296H372.342ZM379.692 291.142V296H378.099V287.818H379.628V289.15H379.729C380.107 288.282 380.911 287.712 382.142 287.712C383.815 287.712 384.928 288.772 384.928 290.796V296H383.335V290.988C383.335 289.8 382.68 289.091 381.599 289.091C380.491 289.091 379.692 289.837 379.692 291.142ZM393.195 289.816L391.751 290.071C391.565 289.523 391.107 288.974 390.116 288.974C389.21 288.974 388.529 289.422 388.534 290.05C388.529 290.604 388.918 290.908 389.818 291.121L391.117 291.419C392.62 291.765 393.355 292.479 393.355 293.635C393.355 295.116 391.986 296.165 390.009 296.165C388.172 296.165 386.968 295.35 386.702 293.901L388.241 293.667C388.433 294.471 389.045 294.881 389.999 294.881C391.043 294.881 391.719 294.386 391.719 293.752C391.719 293.241 391.352 292.889 390.563 292.713L389.179 292.41C387.644 292.069 386.941 291.297 386.941 290.135C386.941 288.686 388.252 287.712 390.1 287.712C391.869 287.712 392.865 288.543 393.195 289.816ZM399.076 296V287.818H400.615V289.118H400.7C400.998 288.239 401.819 287.696 402.778 287.696C402.98 287.696 403.294 287.712 403.454 287.733V289.256C403.326 289.219 402.953 289.161 402.623 289.161C401.494 289.161 400.668 289.933 400.668 291.004V296H399.076ZM408.066 296.165C405.653 296.165 404.172 294.503 404.172 291.962C404.172 289.448 405.674 287.712 407.954 287.712C409.808 287.712 411.576 288.868 411.576 291.824V292.388H405.759C405.802 293.965 406.718 294.849 408.082 294.849C408.987 294.849 409.68 294.455 409.967 293.683L411.475 293.955C411.113 295.286 409.85 296.165 408.066 296.165ZM405.765 291.195H410.015C410.01 289.944 409.2 289.027 407.964 289.027C406.67 289.027 405.828 290.034 405.765 291.195ZM420.46 299.068H418.867V294.727H418.771C418.483 295.249 417.897 296.16 416.406 296.16C414.424 296.16 412.986 294.572 412.986 291.925C412.986 289.272 414.446 287.712 416.422 287.712C417.94 287.712 418.489 288.638 418.771 289.145H418.904V287.818H420.46V299.068ZM418.899 291.909C418.899 290.199 418.153 289.065 416.763 289.065C415.319 289.065 414.595 290.284 414.595 291.909C414.595 293.55 415.341 294.801 416.763 294.801C418.132 294.801 418.899 293.63 418.899 291.909ZM427.784 292.607V287.818H429.382V296H427.816V294.583H427.731C427.352 295.457 426.516 296.107 425.286 296.107C423.714 296.107 422.601 295.052 422.601 293.022V287.818H424.194V292.831C424.194 293.944 424.875 294.658 425.861 294.658C426.756 294.658 427.789 293.997 427.784 292.607ZM435.048 296.165C432.635 296.165 431.154 294.503 431.154 291.962C431.154 289.448 432.656 287.712 434.936 287.712C436.79 287.712 438.558 288.868 438.558 291.824V292.388H432.742C432.784 293.965 433.7 294.849 435.064 294.849C435.97 294.849 436.662 294.455 436.95 293.683L438.457 293.955C438.095 295.286 436.833 296.165 435.048 296.165ZM432.747 291.195H436.998C436.992 289.944 436.183 289.027 434.947 289.027C433.653 289.027 432.811 290.034 432.747 291.195ZM446.457 289.816L445.013 290.071C444.827 289.523 444.369 288.974 443.378 288.974C442.472 288.974 441.79 289.422 441.796 290.05C441.79 290.604 442.179 290.908 443.079 291.121L444.379 291.419C445.881 291.765 446.616 292.479 446.616 293.635C446.616 295.116 445.247 296.165 443.271 296.165C441.434 296.165 440.23 295.35 439.963 293.901L441.503 293.667C441.695 294.471 442.307 294.881 443.261 294.881C444.305 294.881 444.981 294.386 444.981 293.752C444.981 293.241 444.614 292.889 443.825 292.713L442.44 292.41C440.906 292.069 440.203 291.297 440.203 290.135C440.203 288.686 441.513 287.712 443.362 287.712C445.13 287.712 446.126 288.543 446.457 289.816ZM452.187 287.818V289.097H450.509V293.598C450.509 294.519 450.972 294.69 451.489 294.69C451.745 294.69 451.942 294.642 452.048 294.62L452.336 295.936C452.15 296.005 451.809 296.101 451.303 296.107C450.045 296.133 448.911 295.414 448.916 293.928V289.097H447.718V287.818H448.916V285.858H450.509V287.818H452.187ZM457.387 296.165C454.974 296.165 453.493 294.503 453.493 291.962C453.493 289.448 454.995 287.712 457.275 287.712C459.129 287.712 460.897 288.868 460.897 291.824V292.388H455.081C455.123 293.965 456.039 294.849 457.403 294.849C458.309 294.849 459.001 294.455 459.289 293.683L460.796 293.955C460.434 295.286 459.171 296.165 457.387 296.165ZM455.086 291.195H459.337C459.331 289.944 458.522 289.027 457.286 289.027C455.991 289.027 455.15 290.034 455.086 291.195ZM465.727 296.16C463.74 296.16 462.308 294.572 462.308 291.925C462.308 289.272 463.762 287.712 465.738 287.712C467.261 287.712 467.805 288.638 468.092 289.145H468.188V285.091H469.781V296H468.225V294.727H468.092C467.805 295.249 467.219 296.16 465.727 296.16ZM466.079 294.801C467.453 294.801 468.215 293.63 468.215 291.909C468.215 290.199 467.469 289.065 466.079 289.065C464.641 289.065 463.916 290.284 463.916 291.909C463.916 293.55 464.657 294.801 466.079 294.801ZM476.024 296V287.818H477.563V289.118H477.648C477.947 288.239 478.767 287.696 479.726 287.696C479.928 287.696 480.243 287.712 480.402 287.733V289.256C480.275 289.219 479.902 289.161 479.571 289.161C478.442 289.161 477.616 289.933 477.616 291.004V296H476.024ZM485.014 296.165C482.601 296.165 481.12 294.503 481.12 291.962C481.12 289.448 482.622 287.712 484.902 287.712C486.756 287.712 488.524 288.868 488.524 291.824V292.388H482.707C482.75 293.965 483.666 294.849 485.03 294.849C485.935 294.849 486.628 294.455 486.916 293.683L488.423 293.955C488.061 295.286 486.798 296.165 485.014 296.165ZM482.713 291.195H486.964C486.958 289.944 486.149 289.027 484.913 289.027C483.618 289.027 482.777 290.034 482.713 291.195ZM496.422 289.816L494.979 290.071C494.792 289.523 494.334 288.974 493.344 288.974C492.438 288.974 491.756 289.422 491.762 290.05C491.756 290.604 492.145 290.908 493.045 291.121L494.345 291.419C495.847 291.765 496.582 292.479 496.582 293.635C496.582 295.116 495.213 296.165 493.237 296.165C491.399 296.165 490.195 295.35 489.929 293.901L491.469 293.667C491.66 294.471 492.273 294.881 493.226 294.881C494.27 294.881 494.947 294.386 494.947 293.752C494.947 293.241 494.579 292.889 493.791 292.713L492.406 292.41C490.872 292.069 490.169 291.297 490.169 290.135C490.169 288.686 491.479 287.712 493.328 287.712C495.096 287.712 496.092 288.543 496.422 289.816ZM501.78 296.165C499.473 296.165 497.966 294.477 497.966 291.946C497.966 289.4 499.473 287.712 501.78 287.712C504.086 287.712 505.594 289.4 505.594 291.946C505.594 294.477 504.086 296.165 501.78 296.165ZM501.785 294.828C503.282 294.828 503.985 293.512 503.985 291.941C503.985 290.375 503.282 289.043 501.785 289.043C500.278 289.043 499.574 290.375 499.574 291.941C499.574 293.512 500.278 294.828 501.785 294.828ZM512.554 292.607V287.818H514.152V296H512.586V294.583H512.501C512.123 295.457 511.287 296.107 510.056 296.107C508.485 296.107 507.371 295.052 507.371 293.022V287.818H508.964V292.831C508.964 293.944 509.646 294.658 510.631 294.658C511.526 294.658 512.56 293.997 512.554 292.607ZM516.292 296V287.818H517.832V289.118H517.917C518.215 288.239 519.036 287.696 519.994 287.696C520.197 287.696 520.511 287.712 520.671 287.733V289.256C520.543 289.219 520.17 289.161 519.84 289.161C518.711 289.161 517.885 289.933 517.885 291.004V296H516.292ZM525.203 296.165C522.827 296.165 521.389 294.413 521.389 291.946C521.389 289.448 522.88 287.712 525.187 287.712C527.046 287.712 528.393 288.809 528.564 290.46H527.014C526.843 289.693 526.225 289.054 525.213 289.054C523.882 289.054 522.997 290.157 522.997 291.909C522.997 293.694 523.866 294.817 525.213 294.817C526.124 294.817 526.811 294.295 527.014 293.411H528.564C528.388 295.004 527.136 296.165 525.203 296.165ZM533.793 296.165C531.38 296.165 529.899 294.503 529.899 291.962C529.899 289.448 531.402 287.712 533.681 287.712C535.535 287.712 537.304 288.868 537.304 291.824V292.388H531.487C531.529 293.965 532.446 294.849 533.809 294.849C534.715 294.849 535.407 294.455 535.695 293.683L537.202 293.955C536.84 295.286 535.578 296.165 533.793 296.165ZM531.492 291.195H535.743C535.737 289.944 534.928 289.027 533.692 289.027C532.398 289.027 531.556 290.034 531.492 291.195Z" fill="#3A3836"/>
<circle cx="244.5" cy="95.5" r="14.5" fill="#3A3836"/>
<path d="M245.803 90.0909V101H243.827V92.0138H243.763L241.211 93.6438V91.8327L243.923 90.0909H245.803Z" fill="white"/>
<circle cx="564.5" cy="160.5" r="14.5" fill="#3A3836"/>
<path d="M560.311 166V164.572L564.099 160.86C565.175 159.768 565.729 159.118 565.729 158.207C565.729 157.179 564.956 156.545 563.917 156.545C562.831 156.545 562.128 157.243 562.128 158.356H560.247C560.247 156.284 561.781 154.942 563.944 154.942C566.139 154.942 567.625 156.279 567.625 158.106C567.625 159.336 567.039 160.327 564.919 162.362L563.039 164.274V164.349H567.79V166H560.311Z" fill="white"/>
<circle cx="244.5" cy="224.5" r="14.5" fill="#3A3836"/>
<path d="M243.999 230.149C241.698 230.149 240.052 228.876 239.999 227.033H242.002C242.05 227.923 242.897 228.493 243.994 228.493C245.161 228.493 245.997 227.832 245.992 226.868C245.997 225.882 245.177 225.19 243.797 225.19H242.833V223.667H243.797C244.926 223.667 245.715 223.033 245.709 222.079C245.715 221.163 245.038 220.545 244.021 220.545C243.014 220.545 242.162 221.115 242.13 222.031H240.228C240.271 220.204 241.911 218.942 244.031 218.942C246.21 218.942 247.627 220.3 247.621 221.962C247.627 223.187 246.833 224.066 245.651 224.322V224.407C247.179 224.625 248.032 225.605 248.026 226.969C248.032 228.812 246.332 230.149 243.999 230.149Z" fill="white"/>
<circle cx="564.5" cy="290.5" r="14.5" fill="#3A3836"/>
<path d="M559.777 293.976V292.404L564.406 285.091H566.867V292.351H568.263V293.976H566.867V296H564.981V293.976H559.777ZM565.003 292.351V287.328H564.918L561.801 292.266V292.351H565.003Z" fill="white"/>
<path d="M735.671 389.033C735.643 389.047 735.618 389.065 735.598 389.088C735.578 389.111 735.562 389.138 735.552 389.167C735.542 389.195 735.538 389.226 735.54 389.256C735.542 389.287 735.55 389.316 735.564 389.344C735.624 389.464 735.648 389.599 735.633 389.733C735.618 389.866 735.563 389.993 735.477 390.096C735.44 390.144 735.423 390.204 735.429 390.264C735.436 390.323 735.466 390.378 735.512 390.417C735.559 390.455 735.619 390.474 735.679 390.469C735.74 390.464 735.796 390.436 735.836 390.391C735.98 390.219 736.071 390.008 736.096 389.785C736.122 389.563 736.082 389.337 735.981 389.137C735.954 389.082 735.905 389.041 735.847 389.022C735.789 389.002 735.726 389.007 735.671 389.033V389.033Z" fill="#BCBCBC"/>
<path d="M726.71 379.165C715.675 377.76 705.581 385.5 704.166 396.457C702.751 407.413 710.545 417.43 721.58 418.835C732.615 420.241 742.71 412.501 744.124 401.547C745.538 390.594 737.744 380.571 726.71 379.165ZM730.857 391.64C730.484 391.645 730.127 391.795 729.863 392.058L722.388 399.476L720.794 397.893C728.158 390.601 729.486 390.531 730.857 391.64ZM722.692 399.741L730.145 392.341C730.34 392.148 730.605 392.039 730.88 392.039C731.156 392.039 731.42 392.148 731.615 392.341C731.715 392.44 731.794 392.56 731.846 392.691C731.898 392.822 731.923 392.962 731.918 393.103C731.914 393.244 731.88 393.383 731.819 393.51C731.759 393.638 731.672 393.752 731.566 393.845L723.678 400.722L722.692 399.741ZM723.246 400.896L721.4 401.292C721.378 401.296 721.355 401.294 721.335 401.285C721.315 401.275 721.298 401.26 721.287 401.24C721.276 401.221 721.272 401.198 721.276 401.176C721.279 401.154 721.289 401.134 721.305 401.118L722.387 400.043L723.246 400.896ZM718.54 400.132L720.508 398.178L721.983 399.642L718.66 400.352C718.633 400.358 718.604 400.355 718.578 400.343C718.552 400.331 718.531 400.311 718.517 400.287C718.504 400.262 718.499 400.233 718.503 400.206C718.507 400.178 718.52 400.152 718.54 400.132ZM712.421 410.231C712.397 410.229 712.374 410.219 712.355 410.204C712.336 410.189 712.322 410.169 712.314 410.146C712.306 410.124 712.305 410.099 712.311 410.076C712.316 410.053 712.328 410.031 712.345 410.015L713.933 408.438L715.984 410.474L712.421 410.231ZM716.492 408.135C716.416 408.174 716.356 408.237 716.32 408.314C716.284 408.391 716.275 408.477 716.295 408.559L716.635 410.003C716.644 410.047 716.638 410.092 716.619 410.133C716.6 410.174 716.569 410.207 716.529 410.229C716.49 410.251 716.445 410.26 716.4 410.254C716.355 410.249 716.313 410.229 716.28 410.199L714.22 408.153L720.533 401.886L723.589 401.234L725.055 402.69C722.947 404.522 720.066 406.354 716.492 408.134V408.135ZM725.351 402.423L723.943 401.025L731.831 394.147C731.905 394.083 731.971 394.012 732.03 393.935C731.781 396.18 728.623 399.345 725.353 402.421L725.351 402.423ZM731.489 391.653C730.936 391.099 730.619 390.355 730.603 389.576C730.588 388.796 730.875 388.04 731.406 387.465C731.936 386.89 732.67 386.539 733.454 386.486C734.238 386.433 735.012 386.681 735.616 387.18L732.909 389.868C732.89 389.887 732.875 389.909 732.865 389.933C732.855 389.957 732.85 389.983 732.85 390.009C732.85 390.036 732.855 390.062 732.865 390.086C732.875 390.11 732.89 390.132 732.909 390.15L735.002 392.229C734.43 392.509 733.784 392.604 733.154 392.501C732.525 392.397 731.944 392.1 731.493 391.652L731.489 391.653ZM735.816 391.653C735.677 391.79 735.526 391.914 735.363 392.021L733.335 390.008L735.909 387.453C736.441 388.03 736.728 388.789 736.711 389.571C736.693 390.353 736.372 391.099 735.815 391.652L735.816 391.653Z" fill="#BCBCBC"/>
<defs>
<linearGradient id="paint0_linear_294_2202" x1="685.028" y1="164.309" x2="685.028" y2="175.366" gradientUnits="userSpaceOnUse">
<stop stop-color="#FF6C37"/>
<stop offset="1" stop-color="#FFB400"/>
</linearGradient>
<linearGradient id="paint1_linear_294_2202" x1="684.731" y1="150.897" x2="684.731" y2="161.214" gradientUnits="userSpaceOnUse">
<stop stop-color="#FF6C37"/>
<stop offset="1" stop-color="#FFB400"/>
</linearGradient>
<linearGradient id="paint2_linear_294_2202" x1="684.731" y1="178.114" x2="684.731" y2="188.431" gradientUnits="userSpaceOnUse">
<stop stop-color="#FF6C37"/>
<stop offset="1" stop-color="#FFB400"/>
</linearGradient>
<linearGradient id="paint3_linear_294_2202" x1="137" y1="183" x2="137" y2="188" gradientUnits="userSpaceOnUse">
<stop stop-color="#FF6C37"/>
<stop offset="1" stop-color="#FFB400"/>
</linearGradient>
<linearGradient id="paint4_linear_294_2202" x1="144.5" y1="153" x2="144.5" y2="156" gradientUnits="userSpaceOnUse">
<stop stop-color="#FF6C37"/>
<stop offset="1" stop-color="#FFB400"/>
</linearGradient>
<linearGradient id="paint5_linear_294_2202" x1="125.5" y1="179" x2="125.5" y2="182" gradientUnits="userSpaceOnUse">
<stop stop-color="#FF6C37"/>
<stop offset="1" stop-color="#FFB400"/>
</linearGradient>
</defs>
</svg>
