<svg width="692" height="392" viewBox="0 0 692 392" fill="none" xmlns="http://www.w3.org/2000/svg">
<rect x="1" y="16" width="144" height="315" rx="4" fill="white" stroke="#3A3836" stroke-width="2"/>
<rect x="546" y="16" width="144" height="315" rx="4" fill="white" stroke="#3A3836" stroke-width="2"/>
<path d="M480.871 40.4046L489.276 43.1378L480.871 45.8823L478.138 54.2869L475.405 45.8823L467 43.1378L475.405 40.4046L478.138 32L480.871 40.4046Z" fill="white" stroke="#3A3836" stroke-width="2" stroke-miterlimit="10"/>
<path d="M460.691 62.865L466.556 64.7782L460.691 66.7028L458.778 72.5678L456.865 66.7028L451 64.7782L456.865 62.865L458.778 57L460.691 62.865Z" fill="#3A3836"/>
<path d="M200.691 33.865L206.556 35.7782L200.691 37.7028L198.778 43.5678L196.865 37.7028L191 35.7782L196.865 33.865L198.778 28L200.691 33.865Z" fill="#3A3836"/>
<rect x="16" y="103" width="113" height="108" rx="4" fill="white" stroke="#E6E6E6" stroke-width="2"/>
<rect x="561" y="75" width="113" height="108" rx="4" fill="white" stroke="#E6E6E6" stroke-width="2"/>
<rect x="561" y="203" width="113" height="108" rx="4" fill="white" stroke="#E6E6E6" stroke-width="2"/>
<path d="M46.0288 182.455C45.9265 181.594 45.1254 181.091 44.0685 181.091C42.9094 181.091 42.1424 181.705 42.1424 182.54C42.1424 183.477 43.1822 183.818 43.8299 183.989L44.7163 184.227C45.6197 184.466 47.1708 184.994 47.1708 186.631C47.1708 188.045 46.0288 189.153 44.0174 189.153C42.1424 189.153 40.9833 188.182 40.881 186.75H41.9719C42.0572 187.739 42.9776 188.199 44.0174 188.199C45.2276 188.199 46.1481 187.568 46.1481 186.614C46.1481 185.744 45.3299 185.42 44.4094 185.165L43.3356 184.858C41.9719 184.466 41.1197 183.767 41.1197 182.591C41.1197 181.125 42.4322 180.153 44.1026 180.153C45.7901 180.153 47.0046 181.138 47.0515 182.455H46.0288ZM51.6186 182.455V183.307H50.2209V187.125C50.2209 187.977 50.647 188.114 51.0902 188.114C51.3118 188.114 51.4482 188.08 51.5334 188.062L51.7379 188.966C51.6016 189.017 51.3629 189.085 50.9879 189.085C50.1357 189.085 49.2152 188.54 49.2152 187.398V183.307H48.2266V182.455H49.2152V180.886H50.2209V182.455H51.6186ZM55.7202 189.136C53.9474 189.136 52.7543 187.79 52.7543 185.761C52.7543 183.716 53.9474 182.369 55.7202 182.369C57.4929 182.369 58.6861 183.716 58.6861 185.761C58.6861 187.79 57.4929 189.136 55.7202 189.136ZM55.7202 188.233C57.0668 188.233 57.6804 187.074 57.6804 185.761C57.6804 184.449 57.0668 183.273 55.7202 183.273C54.3736 183.273 53.7599 184.449 53.7599 185.761C53.7599 187.074 54.3736 188.233 55.7202 188.233ZM60.2212 189V182.455H61.1928V183.443H61.261C61.4996 182.795 62.1815 182.352 62.9656 182.352C63.1147 182.352 63.3789 182.361 63.494 182.369V183.392C63.4258 183.375 63.1488 183.324 62.8803 183.324C61.9258 183.324 61.2269 183.972 61.2269 184.858V189H60.2212ZM67.2312 189.136C65.3391 189.136 64.18 187.79 64.18 185.778C64.18 183.767 65.3562 182.369 67.1289 182.369C68.4925 182.369 69.9414 183.205 69.9414 185.642V186.068H65.19C65.2369 187.47 66.0508 188.233 67.2312 188.233C68.0195 188.233 68.6119 187.892 68.8675 187.21L69.8391 187.483C69.5323 188.472 68.5607 189.136 67.2312 189.136ZM65.19 185.199H68.9187C68.9187 184.091 68.2198 183.273 67.1289 183.273C65.9783 183.273 65.2582 184.18 65.19 185.199ZM76.1076 183.92L75.2042 184.176C75.0295 183.724 74.6673 183.239 73.7894 183.239C72.9883 183.239 72.3917 183.648 72.3917 184.21C72.3917 184.713 72.7411 184.973 73.5167 185.165L74.4883 185.403C75.6559 185.689 76.2269 186.264 76.2269 187.176C76.2269 188.305 75.1914 189.136 73.6701 189.136C72.332 189.136 71.4158 188.544 71.1815 187.432L72.136 187.193C72.315 187.896 72.8306 188.25 73.6531 188.25C74.5906 188.25 75.1871 187.79 75.1871 187.227C75.1871 186.776 74.8761 186.46 74.2156 186.307L73.1246 186.051C71.9229 185.77 71.386 185.165 71.386 184.261C71.386 183.153 72.4087 182.369 73.7894 182.369C75.0849 182.369 75.7923 182.991 76.1076 183.92ZM84.593 180.273H85.6499V186.511C85.6499 188.186 84.6783 189.119 83.1612 189.119C81.7294 189.119 80.6896 188.297 80.6896 186.955H81.7294C81.7294 187.696 82.3303 188.182 83.1612 188.182C84.0732 188.182 84.593 187.598 84.593 186.511V180.273ZM89.353 189L86.9666 180.273H88.0405L89.8643 187.381H89.9496L91.8075 180.273H93.0007L94.8587 187.381H94.9439L96.7678 180.273H97.8416L95.4553 189H94.3643L92.4382 182.045H92.37L90.4439 189H89.353ZM98.6811 181.21V180.273H105.227V181.21H102.482V189H101.425V181.21H98.6811Z" fill="#3A3836"/>
<path d="M589.447 155H588.39C588.134 153.79 587.094 153.142 585.935 153.142C584.35 153.142 583.106 154.369 583.106 156.636C583.106 158.903 584.35 160.131 585.935 160.131C587.094 160.131 588.134 159.483 588.39 158.273H589.447C589.123 160.062 587.691 161.119 585.935 161.119C583.702 161.119 582.083 159.398 582.083 156.636C582.083 153.875 583.702 152.153 585.935 152.153C587.691 152.153 589.123 153.21 589.447 155ZM591.018 161V154.455H591.99V155.443H592.058C592.297 154.795 592.978 154.352 593.762 154.352C593.912 154.352 594.176 154.361 594.291 154.369V155.392C594.223 155.375 593.946 155.324 593.677 155.324C592.723 155.324 592.024 155.972 592.024 156.858V161H591.018ZM598.028 161.136C596.136 161.136 594.977 159.79 594.977 157.778C594.977 155.767 596.153 154.369 597.926 154.369C599.289 154.369 600.738 155.205 600.738 157.642V158.068H595.987C596.034 159.47 596.848 160.233 598.028 160.233C598.816 160.233 599.409 159.892 599.664 159.21L600.636 159.483C600.329 160.472 599.358 161.136 598.028 161.136ZM595.987 157.199H599.716C599.716 156.091 599.017 155.273 597.926 155.273C596.775 155.273 596.055 156.18 595.987 157.199ZM604.194 161.153C602.95 161.153 601.961 160.42 601.961 159.142C601.961 157.642 603.287 157.374 604.501 157.216C605.694 157.062 606.189 157.105 606.189 156.619V156.585C606.189 155.746 605.733 155.256 604.808 155.256C603.849 155.256 603.325 155.767 603.103 156.244L602.149 155.903C602.66 154.71 603.785 154.369 604.774 154.369C605.609 154.369 607.194 154.608 607.194 156.688V161H606.189V160.114H606.137C605.933 160.54 605.336 161.153 604.194 161.153ZM604.348 160.25C605.541 160.25 606.189 159.449 606.189 158.631V157.71C606.018 157.915 604.876 158.034 604.45 158.085C603.666 158.188 602.967 158.426 602.967 159.193C602.967 159.892 603.547 160.25 604.348 160.25ZM611.876 154.455V155.307H610.479V159.125C610.479 159.977 610.905 160.114 611.348 160.114C611.57 160.114 611.706 160.08 611.791 160.062L611.996 160.966C611.859 161.017 611.621 161.085 611.246 161.085C610.393 161.085 609.473 160.54 609.473 159.398V155.307H608.484V154.455H609.473V152.886H610.479V154.455H611.876ZM616.063 161.136C614.171 161.136 613.012 159.79 613.012 157.778C613.012 155.767 614.188 154.369 615.961 154.369C617.325 154.369 618.773 155.205 618.773 157.642V158.068H614.022C614.069 159.47 614.883 160.233 616.063 160.233C616.852 160.233 617.444 159.892 617.7 159.21L618.671 159.483C618.364 160.472 617.393 161.136 616.063 161.136ZM614.022 157.199H617.751C617.751 156.091 617.052 155.273 615.961 155.273C614.81 155.273 614.09 156.18 614.022 157.199ZM624.94 155.92L624.036 156.176C623.862 155.724 623.499 155.239 622.621 155.239C621.82 155.239 621.224 155.648 621.224 156.21C621.224 156.713 621.573 156.973 622.349 157.165L623.32 157.403C624.488 157.689 625.059 158.264 625.059 159.176C625.059 160.305 624.023 161.136 622.502 161.136C621.164 161.136 620.248 160.544 620.013 159.432L620.968 159.193C621.147 159.896 621.663 160.25 622.485 160.25C623.423 160.25 624.019 159.79 624.019 159.227C624.019 158.776 623.708 158.46 623.048 158.307L621.957 158.051C620.755 157.77 620.218 157.165 620.218 156.261C620.218 155.153 621.241 154.369 622.621 154.369C623.917 154.369 624.624 154.991 624.94 155.92ZM633.425 152.273H634.482V158.511C634.482 160.186 633.51 161.119 631.993 161.119C630.561 161.119 629.522 160.297 629.522 158.955H630.561C630.561 159.696 631.162 160.182 631.993 160.182C632.905 160.182 633.425 159.598 633.425 158.511V152.273ZM638.185 161L635.799 152.273H636.873L638.696 159.381H638.782L640.64 152.273H641.833L643.691 159.381H643.776L645.6 152.273H646.674L644.287 161H643.196L641.27 154.045H641.202L639.276 161H638.185ZM647.513 153.21V152.273H654.059V153.21H651.314V161H650.257V153.21H647.513Z" fill="#3A3836"/>
<path d="M582.132 283H581.075C580.82 281.79 579.78 281.142 578.621 281.142C577.036 281.142 575.791 282.369 575.791 284.636C575.791 286.903 577.036 288.131 578.621 288.131C579.78 288.131 580.82 287.483 581.075 286.273H582.132C581.808 288.062 580.377 289.119 578.621 289.119C576.388 289.119 574.769 287.398 574.769 284.636C574.769 281.875 576.388 280.153 578.621 280.153C580.377 280.153 581.808 281.21 582.132 283ZM586.363 289.136C584.59 289.136 583.397 287.79 583.397 285.761C583.397 283.716 584.59 282.369 586.363 282.369C588.135 282.369 589.329 283.716 589.329 285.761C589.329 287.79 588.135 289.136 586.363 289.136ZM586.363 288.233C587.709 288.233 588.323 287.074 588.323 285.761C588.323 284.449 587.709 283.273 586.363 283.273C585.016 283.273 584.403 284.449 584.403 285.761C584.403 287.074 585.016 288.233 586.363 288.233ZM590.864 289V282.455H591.835V283.477H591.921C592.193 282.778 592.824 282.369 593.676 282.369C594.537 282.369 595.108 282.778 595.432 283.477H595.5C595.837 282.8 596.523 282.369 597.46 282.369C598.628 282.369 599.455 283.081 599.455 284.619V289H598.449V284.619C598.449 283.652 597.835 283.273 597.119 283.273C596.199 283.273 595.671 283.895 595.671 284.739V289H594.648V284.517C594.648 283.771 594.115 283.273 593.352 283.273C592.568 283.273 591.869 283.95 591.869 284.909V289H590.864ZM601.294 291.455V282.455H602.265V283.494H602.384C602.606 283.153 602.998 282.369 604.276 282.369C605.93 282.369 607.072 283.682 607.072 285.744C607.072 287.824 605.93 289.136 604.294 289.136C603.032 289.136 602.606 288.352 602.384 287.994H602.299V291.455H601.294ZM602.282 285.727C602.282 287.21 602.947 288.233 604.157 288.233C605.419 288.233 606.066 287.125 606.066 285.727C606.066 284.347 605.436 283.273 604.157 283.273C602.93 283.273 602.282 284.261 602.282 285.727ZM610.532 289.153C609.288 289.153 608.299 288.42 608.299 287.142C608.299 285.642 609.624 285.374 610.839 285.216C612.032 285.062 612.526 285.105 612.526 284.619V284.585C612.526 283.746 612.07 283.256 611.146 283.256C610.187 283.256 609.663 283.767 609.441 284.244L608.487 283.903C608.998 282.71 610.123 282.369 611.112 282.369C611.947 282.369 613.532 282.608 613.532 284.688V289H612.526V288.114H612.475C612.271 288.54 611.674 289.153 610.532 289.153ZM610.686 288.25C611.879 288.25 612.526 287.449 612.526 286.631V285.71C612.356 285.915 611.214 286.034 610.788 286.085C610.004 286.188 609.305 286.426 609.305 287.193C609.305 287.892 609.884 288.25 610.686 288.25ZM615.368 289V282.455H616.339V283.443H616.407C616.646 282.795 617.328 282.352 618.112 282.352C618.261 282.352 618.525 282.361 618.64 282.369V283.392C618.572 283.375 618.295 283.324 618.027 283.324C617.072 283.324 616.373 283.972 616.373 284.858V289H615.368ZM622.378 289.136C620.486 289.136 619.327 287.79 619.327 285.778C619.327 283.767 620.503 282.369 622.275 282.369C623.639 282.369 625.088 283.205 625.088 285.642V286.068H620.336C620.383 287.47 621.197 288.233 622.378 288.233C623.166 288.233 623.758 287.892 624.014 287.21L624.986 287.483C624.679 288.472 623.707 289.136 622.378 289.136ZM620.336 285.199H624.065C624.065 284.091 623.366 283.273 622.275 283.273C621.125 283.273 620.405 284.18 620.336 285.199ZM631.254 283.92L630.351 284.176C630.176 283.724 629.814 283.239 628.936 283.239C628.135 283.239 627.538 283.648 627.538 284.21C627.538 284.713 627.888 284.973 628.663 285.165L629.635 285.403C630.802 285.689 631.373 286.264 631.373 287.176C631.373 288.305 630.338 289.136 628.817 289.136C627.479 289.136 626.562 288.544 626.328 287.432L627.282 287.193C627.461 287.896 627.977 288.25 628.8 288.25C629.737 288.25 630.334 287.79 630.334 287.227C630.334 286.776 630.023 286.46 629.362 286.307L628.271 286.051C627.069 285.77 626.532 285.165 626.532 284.261C626.532 283.153 627.555 282.369 628.936 282.369C630.231 282.369 630.939 282.991 631.254 283.92ZM639.74 280.273H640.796V286.511C640.796 288.186 639.825 289.119 638.308 289.119C636.876 289.119 635.836 288.297 635.836 286.955H636.876C636.876 287.696 637.477 288.182 638.308 288.182C639.22 288.182 639.74 287.598 639.74 286.511V280.273ZM644.499 289L642.113 280.273H643.187L645.011 287.381H645.096L646.954 280.273H648.147L650.005 287.381H650.09L651.914 280.273H652.988L650.602 289H649.511L647.585 282.045H647.517L645.59 289H644.499ZM653.828 281.21V280.273H660.373V281.21H657.629V289H656.572V281.21H653.828Z" fill="#3A3836"/>
<path d="M47.7805 54.364C42.6285 54.364 39.3805 50.696 39.3805 45.544C39.3805 40.42 42.7685 36.836 47.8365 36.836C52.3165 36.836 55.2285 39.664 55.7885 43.92L52.7085 44.452C52.2605 41.54 50.6365 39.72 47.7525 39.72C44.3925 39.72 42.5445 42.296 42.5445 45.544C42.5445 49.044 44.3925 51.48 47.7805 51.48C50.6925 51.48 52.2325 49.604 52.7365 46.608L55.7605 47.084C55.2565 51.34 52.2325 54.364 47.7805 54.364ZM60.751 36.836V54H57.727V36.836H60.751ZM66.6756 39.076H63.3996V36.836H66.6756V39.076ZM66.5636 54H63.5396V40.84H66.5636V54ZM75.3623 43.052C73.3743 43.052 72.1143 44.032 71.7783 46.16H78.6663C78.4983 44.116 77.4343 43.052 75.3623 43.052ZM75.4463 54.336C71.4143 54.336 68.7263 51.928 68.7263 47.588C68.7263 43.136 71.3583 40.504 75.4463 40.504C79.4503 40.504 81.4663 43.024 81.4663 46.636C81.4663 47.168 81.4663 47.7 81.4103 48.4H71.7503C72.0303 50.612 73.3183 51.704 75.4743 51.704C77.5743 51.704 78.3583 50.668 78.7503 49.324L81.3823 50.08C80.7103 52.6 78.9183 54.336 75.4463 54.336ZM86.4874 46.216V54H83.4634V40.84H86.4874V44.452H86.5154C87.1034 41.652 88.7834 40.504 90.9954 40.504C94.1594 40.504 95.3634 42.576 95.3634 45.432V54H92.3394V46.216C92.3394 44.62 91.6394 43.22 89.5954 43.22C87.6634 43.22 86.4874 44.34 86.4874 46.216ZM98.7533 49.996V43.388H96.9613V40.84H98.7533V37.34H101.749V40.84H105.641V43.388H101.749V49.492C101.749 50.78 102.253 51.424 103.569 51.424C104.241 51.424 104.857 51.256 105.445 51.116L105.809 53.888C104.857 54.196 104.157 54.364 102.869 54.364C99.9853 54.364 98.7533 52.46 98.7533 49.996Z" fill="#3A3836"/>
<path d="M587.931 54.364C582.835 54.336 580.791 51.676 580.399 48.428L583.479 47.812C583.927 50.192 585.551 51.592 588.127 51.592C590.283 51.592 591.403 50.752 591.403 49.408C591.403 48.036 590.423 47.336 587.259 46.86C582.611 46.132 581.127 44.256 581.127 41.708C581.127 38.74 583.311 36.836 587.399 36.836C591.823 36.836 593.615 39.216 594.259 42.296L591.123 42.94C590.591 40.728 589.639 39.552 587.259 39.552C585.383 39.552 584.347 40.392 584.347 41.652C584.347 42.772 584.963 43.584 588.659 44.2C593.391 44.956 594.651 46.916 594.651 49.296C594.651 52.32 592.551 54.364 587.931 54.364ZM602.69 43.052C600.702 43.052 599.442 44.032 599.106 46.16H605.994C605.826 44.116 604.762 43.052 602.69 43.052ZM602.774 54.336C598.742 54.336 596.054 51.928 596.054 47.588C596.054 43.136 598.686 40.504 602.774 40.504C606.778 40.504 608.794 43.024 608.794 46.636C608.794 47.168 608.794 47.7 608.738 48.4H599.078C599.358 50.612 600.646 51.704 602.802 51.704C604.902 51.704 605.686 50.668 606.078 49.324L608.71 50.08C608.038 52.6 606.246 54.336 602.774 54.336ZM613.815 54H610.791V40.84H613.815V45.152H613.871C614.459 41.736 615.635 40.84 617.623 40.84H618.379V44.228H617.091C614.739 44.228 613.815 45.04 613.815 47.336V54ZM627.047 54H623.603L618.395 40.84H621.671L623.463 45.936C624.079 47.7 624.751 49.576 625.311 51.256H625.367C625.955 49.576 626.599 47.7 627.215 45.936L629.035 40.84H632.199L627.047 54ZM639.227 43.052C637.239 43.052 635.979 44.032 635.643 46.16H642.531C642.363 44.116 641.299 43.052 639.227 43.052ZM639.311 54.336C635.279 54.336 632.591 51.928 632.591 47.588C632.591 43.136 635.223 40.504 639.311 40.504C643.315 40.504 645.331 43.024 645.331 46.636C645.331 47.168 645.331 47.7 645.275 48.4H635.615C635.895 50.612 637.183 51.704 639.339 51.704C641.439 51.704 642.223 50.668 642.615 49.324L645.247 50.08C644.575 52.6 642.783 54.336 639.311 54.336ZM650.352 54H647.328V40.84H650.352V45.152H650.408C650.996 41.736 652.172 40.84 654.16 40.84H654.916V44.228H653.628C651.276 44.228 650.352 45.04 650.352 47.336V54Z" fill="#3A3836"/>
<path d="M559.707 102.707C560.098 102.317 560.098 101.683 559.707 101.293L553.343 94.9289C552.953 94.5384 552.319 94.5384 551.929 94.9289C551.538 95.3194 551.538 95.9526 551.929 96.3431L557.586 102L551.929 107.657C551.538 108.047 551.538 108.681 551.929 109.071C552.319 109.462 552.953 109.462 553.343 109.071L559.707 102.707ZM146 103L559 103L559 101L146 101L146 103Z" fill="#3A3836"/>
<path d="M560.707 235.707C561.098 235.317 561.098 234.683 560.707 234.293L554.343 227.929C553.953 227.538 553.319 227.538 552.929 227.929C552.538 228.319 552.538 228.953 552.929 229.343L558.586 235L552.929 240.657C552.538 241.047 552.538 241.681 552.929 242.071C553.319 242.462 553.953 242.462 554.343 242.071L560.707 235.707ZM146 236L560 236L560 234L146 234L146 236Z" fill="#3A3836"/>
<path d="M130.293 156.293C129.902 156.683 129.902 157.317 130.293 157.707L136.657 164.071C137.047 164.462 137.681 164.462 138.071 164.071C138.462 163.681 138.462 163.047 138.071 162.657L132.414 157L138.071 151.343C138.462 150.953 138.462 150.319 138.071 149.929C137.681 149.538 137.047 149.538 136.657 149.929L130.293 156.293ZM560 156L131 156V158L560 158V156Z" fill="#3A3836"/>
<path d="M147.293 289.293C146.902 289.683 146.902 290.317 147.293 290.707L153.657 297.071C154.047 297.462 154.681 297.462 155.071 297.071C155.462 296.681 155.462 296.047 155.071 295.657L149.414 290L155.071 284.343C155.462 283.953 155.462 283.319 155.071 282.929C154.681 282.538 154.047 282.538 153.657 282.929L147.293 289.293ZM560 289L148 289V291L560 291V289Z" fill="#3A3836"/>
<path d="M181 85H292.121C293.09 85 294.026 85.3517 294.755 85.9897L309.041 98.4897C310.862 100.083 310.862 102.917 309.041 104.51L294.755 117.01C294.026 117.648 293.09 118 292.121 118H181C178.791 118 177 116.209 177 114V89C177 86.7909 178.791 85 181 85Z" fill="white" stroke="#3A3836" stroke-width="2"/>
<path d="M181 218H497.121C498.09 218 499.026 218.352 499.755 218.99L514.041 231.49C515.862 233.083 515.862 235.917 514.041 237.51L499.755 250.01C499.026 250.648 498.09 251 497.121 251H181C178.791 251 177 249.209 177 247V222C177 219.791 178.791 218 181 218Z" fill="white" stroke="#3A3836" stroke-width="2"/>
<path d="M327.879 140H511C513.209 140 515 141.791 515 144V169C515 171.209 513.209 173 511 173H327.879C326.91 173 325.974 172.648 325.245 172.01L310.959 159.51C309.138 157.917 309.138 155.083 310.959 153.49L325.245 140.99C325.974 140.352 326.91 140 327.879 140Z" fill="white" stroke="#3A3836" stroke-width="2"/>
<path d="M361.879 273H511C513.209 273 515 274.791 515 277V302C515 304.209 513.209 306 511 306H361.879C360.91 306 359.974 305.648 359.245 305.01L344.959 292.51C343.138 290.917 343.138 288.083 344.959 286.49L359.245 273.99C359.974 273.352 360.91 273 361.879 273Z" fill="white" stroke="#3A3836" stroke-width="2"/>
<path d="M211.214 96.0909H212.865V103.266C212.865 105.556 211.145 107.181 208.529 107.181C205.914 107.181 204.199 105.556 204.199 103.266V96.0909H205.844V103.133C205.844 104.614 206.873 105.679 208.529 105.679C210.191 105.679 211.214 104.614 211.214 103.133V96.0909ZM221.261 100.816L219.818 101.071C219.631 100.523 219.173 99.9741 218.182 99.9741C217.277 99.9741 216.595 100.422 216.6 101.05C216.595 101.604 216.984 101.908 217.884 102.121L219.184 102.419C220.686 102.765 221.421 103.479 221.421 104.635C221.421 106.116 220.052 107.165 218.076 107.165C216.238 107.165 215.034 106.35 214.768 104.901L216.307 104.667C216.499 105.471 217.112 105.881 218.065 105.881C219.109 105.881 219.786 105.386 219.786 104.752C219.786 104.241 219.418 103.889 218.63 103.713L217.245 103.41C215.711 103.069 215.008 102.297 215.008 101.135C215.008 99.6864 216.318 98.7116 218.166 98.7116C219.935 98.7116 220.931 99.5426 221.261 100.816ZM226.699 107.165C224.286 107.165 222.805 105.503 222.805 102.962C222.805 100.448 224.307 98.7116 226.587 98.7116C228.44 98.7116 230.209 99.8675 230.209 102.824V103.388H224.392C224.435 104.965 225.351 105.849 226.714 105.849C227.62 105.849 228.312 105.455 228.6 104.683L230.108 104.955C229.745 106.286 228.483 107.165 226.699 107.165ZM224.397 102.195H228.648C228.643 100.944 227.833 100.027 226.597 100.027C225.303 100.027 224.461 101.034 224.397 102.195ZM231.976 107V98.8182H233.515V100.118H233.601C233.899 99.239 234.719 98.6957 235.678 98.6957C235.88 98.6957 236.195 98.7116 236.354 98.733V100.256C236.227 100.219 235.854 100.161 235.524 100.161C234.394 100.161 233.569 100.933 233.569 102.004V107H231.976ZM243.295 96.0909V107H241.703V96.0909H243.295ZM248.884 107.165C246.578 107.165 245.07 105.477 245.07 102.946C245.07 100.4 246.578 98.7116 248.884 98.7116C251.191 98.7116 252.698 100.4 252.698 102.946C252.698 105.477 251.191 107.165 248.884 107.165ZM248.89 105.828C250.386 105.828 251.089 104.512 251.089 102.941C251.089 101.375 250.386 100.043 248.89 100.043C247.382 100.043 246.679 101.375 246.679 102.941C246.679 104.512 247.382 105.828 248.89 105.828ZM257.906 110.239C255.951 110.239 254.859 109.386 254.428 108.385L255.797 107.82C256.079 108.289 256.596 108.955 257.922 108.955C259.131 108.955 260.01 108.401 260.01 107.117V105.509H259.909C259.622 106.031 259.041 106.877 257.539 106.877C255.605 106.877 254.119 105.487 254.119 102.877C254.119 100.272 255.573 98.7116 257.549 98.7116C259.073 98.7116 259.638 99.6385 259.92 100.145H260.037V98.8182H261.598V107.181C261.598 109.285 259.989 110.239 257.906 110.239ZM257.89 105.556C259.265 105.556 260.026 104.544 260.026 102.856C260.026 101.199 259.281 100.065 257.89 100.065C256.452 100.065 255.728 101.284 255.728 102.856C255.728 104.464 256.468 105.556 257.89 105.556ZM269.865 100.816L268.421 101.071C268.235 100.523 267.777 99.9741 266.786 99.9741C265.88 99.9741 265.199 100.422 265.204 101.05C265.199 101.604 265.587 101.908 266.488 102.121L267.787 102.419C269.29 102.765 270.025 103.479 270.025 104.635C270.025 106.116 268.656 107.165 266.679 107.165C264.842 107.165 263.638 106.35 263.372 104.901L264.911 104.667C265.103 105.471 265.715 105.881 266.669 105.881C267.713 105.881 268.389 105.386 268.389 104.752C268.389 104.241 268.022 103.889 267.233 103.713L265.848 103.41C264.314 103.069 263.611 102.297 263.611 101.135C263.611 99.6864 264.922 98.7116 266.77 98.7116C268.538 98.7116 269.535 99.5426 269.865 100.816ZM275.745 107V98.8182H277.338V107H275.745ZM276.55 97.5558C275.996 97.5558 275.543 97.1296 275.543 96.6076C275.543 96.0856 275.996 95.6541 276.55 95.6541C277.098 95.6541 277.557 96.0856 277.557 96.6076C277.557 97.1296 277.098 97.5558 276.55 97.5558ZM281.074 102.142V107H279.481V98.8182H281.01V100.15H281.111C281.489 99.2816 282.293 98.7116 283.524 98.7116C285.196 98.7116 286.31 99.7717 286.31 101.796V107H284.717V101.988C284.717 100.8 284.062 100.091 282.98 100.091C281.873 100.091 281.074 100.837 281.074 102.142Z" fill="#3A3836"/>
<path d="M212.148 231.957C212.031 230.95 211.142 230.364 209.89 230.364C208.548 230.364 207.701 231.051 207.701 231.978C207.695 233.022 208.83 233.422 209.682 233.64L210.748 233.917C212.132 234.258 213.885 235.02 213.885 236.985C213.885 238.833 212.409 240.181 209.847 240.181C207.402 240.181 205.874 238.961 205.767 236.985H207.418C207.514 238.173 208.569 238.738 209.837 238.738C211.238 238.738 212.255 238.034 212.255 236.969C212.255 236 211.355 235.616 210.188 235.307L208.899 234.956C207.147 234.482 206.06 233.592 206.06 232.074C206.06 230.194 207.738 228.942 209.927 228.942C212.143 228.942 213.688 230.21 213.736 231.957H212.148ZM219.25 240.165C216.837 240.165 215.356 238.503 215.356 235.962C215.356 233.448 216.859 231.712 219.138 231.712C220.992 231.712 222.761 232.868 222.761 235.824V236.388H216.944C216.986 237.965 217.903 238.849 219.266 238.849C220.172 238.849 220.864 238.455 221.152 237.683L222.659 237.955C222.297 239.286 221.035 240.165 219.25 240.165ZM216.949 235.195H221.2C221.195 233.944 220.385 233.027 219.149 233.027C217.855 233.027 217.013 234.034 216.949 235.195ZM226.12 235.142V240H224.528V231.818H226.056V233.15H226.158C226.536 232.282 227.34 231.712 228.571 231.712C230.243 231.712 231.357 232.772 231.357 234.796V240H229.764V234.988C229.764 233.8 229.109 233.091 228.027 233.091C226.919 233.091 226.12 233.837 226.12 235.142ZM236.555 240.16C234.569 240.16 233.136 238.572 233.136 235.925C233.136 233.272 234.59 231.712 236.566 231.712C238.089 231.712 238.633 232.638 238.92 233.145H239.016V229.091H240.609V240H239.054V238.727H238.92C238.633 239.249 238.047 240.16 236.555 240.16ZM236.907 238.801C238.281 238.801 239.043 237.63 239.043 235.909C239.043 234.199 238.297 233.065 236.907 233.065C235.469 233.065 234.744 234.284 234.744 235.909C234.744 237.55 235.485 238.801 236.907 238.801ZM249.013 233.816L247.57 234.071C247.383 233.523 246.925 232.974 245.934 232.974C245.029 232.974 244.347 233.422 244.352 234.05C244.347 234.604 244.736 234.908 245.636 235.121L246.936 235.419C248.438 235.765 249.173 236.479 249.173 237.635C249.173 239.116 247.804 240.165 245.828 240.165C243.99 240.165 242.786 239.35 242.52 237.901L244.059 237.667C244.251 238.471 244.864 238.881 245.817 238.881C246.861 238.881 247.538 238.386 247.538 237.752C247.538 237.241 247.17 236.889 246.382 236.713L244.997 236.41C243.463 236.069 242.76 235.297 242.76 234.135C242.76 232.686 244.07 231.712 245.918 231.712C247.687 231.712 248.683 232.543 249.013 233.816ZM255.943 240H254.196L258.122 229.091H260.024L263.949 240H262.202L261.206 237.113H256.945L255.943 240ZM257.424 235.728H260.727L259.118 231.072H259.033L257.424 235.728ZM270.58 236.607V231.818H272.178V240H270.612V238.583H270.526C270.148 239.457 269.312 240.107 268.081 240.107C266.51 240.107 265.397 239.052 265.397 237.022V231.818H266.99V236.831C266.99 237.944 267.671 238.658 268.657 238.658C269.552 238.658 270.585 237.997 270.58 236.607ZM278.137 231.818V233.097H276.459V237.598C276.459 238.519 276.922 238.69 277.439 238.69C277.695 238.69 277.892 238.642 277.998 238.62L278.286 239.936C278.1 240.005 277.759 240.101 277.253 240.107C275.996 240.133 274.861 239.414 274.866 237.928V233.097H273.668V231.818H274.866V229.858H276.459V231.818H278.137ZM281.667 235.142V240H280.075V229.091H281.646V233.15H281.747C282.131 232.266 282.898 231.712 284.171 231.712C285.854 231.712 286.973 232.756 286.973 234.796V240H285.38V234.988C285.38 233.789 284.725 233.091 283.627 233.091C282.493 233.091 281.667 233.837 281.667 235.142ZM293.068 240V231.818H294.607V233.118H294.692C294.991 232.239 295.811 231.696 296.77 231.696C296.972 231.696 297.286 231.712 297.446 231.733V233.256C297.318 233.219 296.946 233.161 296.615 233.161C295.486 233.161 294.66 233.933 294.66 235.004V240H293.068ZM302.058 240.165C299.645 240.165 298.164 238.503 298.164 235.962C298.164 233.448 299.666 231.712 301.946 231.712C303.8 231.712 305.568 232.868 305.568 235.824V236.388H299.751C299.794 237.965 300.71 238.849 302.074 238.849C302.979 238.849 303.672 238.455 303.96 237.683L305.467 237.955C305.105 239.286 303.842 240.165 302.058 240.165ZM299.757 235.195H304.007C304.002 233.944 303.192 233.027 301.957 233.027C300.662 233.027 299.821 234.034 299.757 235.195ZM314.452 243.068H312.859V238.727H312.763C312.476 239.249 311.89 240.16 310.398 240.16C308.417 240.16 306.978 238.572 306.978 235.925C306.978 233.272 308.438 231.712 310.414 231.712C311.932 231.712 312.481 232.638 312.763 233.145H312.896V231.818H314.452V243.068ZM312.891 235.909C312.891 234.199 312.145 233.065 310.755 233.065C309.312 233.065 308.587 234.284 308.587 235.909C308.587 237.55 309.333 238.801 310.755 238.801C312.124 238.801 312.891 237.63 312.891 235.909ZM321.776 236.607V231.818H323.374V240H321.808V238.583H321.723C321.345 239.457 320.508 240.107 319.278 240.107C317.706 240.107 316.593 239.052 316.593 237.022V231.818H318.186V236.831C318.186 237.944 318.868 238.658 319.853 238.658C320.748 238.658 321.781 237.997 321.776 236.607ZM329.04 240.165C326.627 240.165 325.146 238.503 325.146 235.962C325.146 233.448 326.649 231.712 328.928 231.712C330.782 231.712 332.551 232.868 332.551 235.824V236.388H326.734C326.776 237.965 327.693 238.849 329.056 238.849C329.962 238.849 330.654 238.455 330.942 237.683L332.449 237.955C332.087 239.286 330.825 240.165 329.04 240.165ZM326.739 235.195H330.99C330.985 233.944 330.175 233.027 328.939 233.027C327.645 233.027 326.803 234.034 326.739 235.195ZM340.449 233.816L339.005 234.071C338.819 233.523 338.361 232.974 337.37 232.974C336.464 232.974 335.783 233.422 335.788 234.05C335.783 234.604 336.171 234.908 337.072 235.121L338.371 235.419C339.873 235.765 340.609 236.479 340.609 237.635C340.609 239.116 339.24 240.165 337.263 240.165C335.426 240.165 334.222 239.35 333.956 237.901L335.495 237.667C335.687 238.471 336.299 238.881 337.253 238.881C338.297 238.881 338.973 238.386 338.973 237.752C338.973 237.241 338.606 236.889 337.817 236.713L336.432 236.41C334.898 236.069 334.195 235.297 334.195 234.135C334.195 232.686 335.506 231.712 337.354 231.712C339.122 231.712 340.119 232.543 340.449 233.816ZM346.179 231.818V233.097H344.501V237.598C344.501 238.519 344.964 238.69 345.481 238.69C345.737 238.69 345.934 238.642 346.04 238.62L346.328 239.936C346.142 240.005 345.801 240.101 345.295 240.107C344.038 240.133 342.903 239.414 342.908 237.928V233.097H341.71V231.818H342.908V229.858H344.501V231.818H346.179ZM353.684 240L351.277 231.818H352.923L354.526 237.827H354.606L356.214 231.818H357.86L359.458 237.8H359.538L361.131 231.818H362.777L360.375 240H358.75L357.088 234.093H356.966L355.304 240H353.684ZM364.288 240V231.818H365.881V240H364.288ZM365.093 230.556C364.539 230.556 364.086 230.13 364.086 229.608C364.086 229.086 364.539 228.654 365.093 228.654C365.641 228.654 366.1 229.086 366.1 229.608C366.1 230.13 365.641 230.556 365.093 230.556ZM371.843 231.818V233.097H370.165V237.598C370.165 238.519 370.629 238.69 371.145 238.69C371.401 238.69 371.598 238.642 371.705 238.62L371.992 239.936C371.806 240.005 371.465 240.101 370.959 240.107C369.702 240.133 368.567 239.414 368.572 237.928V233.097H367.374V231.818H368.572V229.858H370.165V231.818H371.843ZM375.373 235.142V240H373.781V229.091H375.352V233.15H375.453C375.837 232.266 376.604 231.712 377.877 231.712C379.56 231.712 380.679 232.756 380.679 234.796V240H379.086V234.988C379.086 233.789 378.431 233.091 377.334 233.091C376.199 233.091 375.373 233.837 375.373 235.142ZM391.142 229.091H392.782V236.825C392.777 238.924 391.467 240.149 389.464 240.149C387.615 240.149 386.23 239.116 386.23 237.273H387.866C387.871 238.178 388.542 238.754 389.506 238.754C390.55 238.754 391.136 238.082 391.142 236.825V229.091ZM397.314 240L394.288 229.091H396.02L398.145 237.539H398.246L400.457 229.091H402.172L404.383 237.544H404.484L406.604 229.091H408.34L405.309 240H403.653L401.357 231.829H401.272L398.976 240H397.314ZM409.303 230.508V229.091H417.746V230.508H414.342V240H412.702V230.508H409.303ZM423.453 240V231.818H425.046V240H423.453ZM424.258 230.556C423.704 230.556 423.251 230.13 423.251 229.608C423.251 229.086 423.704 228.654 424.258 228.654C424.806 228.654 425.265 229.086 425.265 229.608C425.265 230.13 424.806 230.556 424.258 230.556ZM428.782 235.142V240H427.189V231.818H428.718V233.15H428.819C429.197 232.282 430.001 231.712 431.232 231.712C432.904 231.712 434.018 232.772 434.018 234.796V240H432.425V234.988C432.425 233.8 431.77 233.091 430.688 233.091C429.581 233.091 428.782 233.837 428.782 235.142ZM441.716 235.142V240H440.123V229.091H441.695V233.15H441.796C442.18 232.266 442.947 231.712 444.22 231.712C445.903 231.712 447.021 232.756 447.021 234.796V240H445.429V234.988C445.429 233.789 444.774 233.091 443.676 233.091C442.542 233.091 441.716 233.837 441.716 235.142ZM452.673 240.165C450.26 240.165 448.779 238.503 448.779 235.962C448.779 233.448 450.281 231.712 452.561 231.712C454.415 231.712 456.183 232.868 456.183 235.824V236.388H450.367C450.409 237.965 451.325 238.849 452.689 238.849C453.595 238.849 454.287 238.455 454.575 237.683L456.082 237.955C455.72 239.286 454.458 240.165 452.673 240.165ZM450.372 235.195H454.623C454.617 233.944 453.808 233.027 452.572 233.027C451.278 233.027 450.436 234.034 450.372 235.195ZM460.332 240.181C458.776 240.181 457.567 239.297 457.567 237.688C457.567 235.829 459.154 235.424 460.704 235.243C462.175 235.073 462.771 235.083 462.771 234.503V234.466C462.771 233.539 462.244 233.001 461.216 233.001C460.145 233.001 459.549 233.56 459.314 234.141L457.817 233.8C458.35 232.308 459.714 231.712 461.195 231.712C462.494 231.712 464.369 232.186 464.369 234.567V240H462.814V238.881H462.75C462.446 239.494 461.685 240.181 460.332 240.181ZM460.678 238.903C462.004 238.903 462.777 238.018 462.777 237.049V235.994C462.547 236.223 461.322 236.362 460.806 236.431C459.884 236.554 459.128 236.857 459.128 237.71C459.128 238.498 459.778 238.903 460.678 238.903ZM469.553 240.16C467.567 240.16 466.134 238.572 466.134 235.925C466.134 233.272 467.588 231.712 469.564 231.712C471.088 231.712 471.631 232.638 471.919 233.145H472.014V229.091H473.607V240H472.052V238.727H471.919C471.631 239.249 471.045 240.16 469.553 240.16ZM469.905 238.801C471.279 238.801 472.041 237.63 472.041 235.909C472.041 234.199 471.295 233.065 469.905 233.065C468.467 233.065 467.742 234.284 467.742 235.909C467.742 237.55 468.483 238.801 469.905 238.801ZM479.407 240.165C476.994 240.165 475.513 238.503 475.513 235.962C475.513 233.448 477.015 231.712 479.295 231.712C481.148 231.712 482.917 232.868 482.917 235.824V236.388H477.1C477.143 237.965 478.059 238.849 479.422 238.849C480.328 238.849 481.021 238.455 481.308 237.683L482.816 237.955C482.453 239.286 481.191 240.165 479.407 240.165ZM477.105 235.195H481.356C481.351 233.944 480.541 233.027 479.305 233.027C478.011 233.027 477.169 234.034 477.105 235.195ZM484.684 240V231.818H486.223V233.118H486.309C486.607 232.239 487.427 231.696 488.386 231.696C488.588 231.696 488.903 231.712 489.062 231.733V233.256C488.935 233.219 488.562 233.161 488.232 233.161C487.102 233.161 486.277 233.933 486.277 235.004V240H484.684Z" fill="#3A3836"/>
<path d="M341.148 153.957C341.031 152.95 340.142 152.364 338.89 152.364C337.548 152.364 336.701 153.051 336.701 153.978C336.695 155.022 337.83 155.422 338.682 155.64L339.748 155.917C341.132 156.258 342.885 157.02 342.885 158.985C342.885 160.833 341.409 162.181 338.847 162.181C336.402 162.181 334.874 160.961 334.767 158.985H336.418C336.514 160.173 337.569 160.738 338.837 160.738C340.238 160.738 341.255 160.034 341.255 158.969C341.255 158 340.355 157.616 339.188 157.307L337.899 156.956C336.147 156.482 335.06 155.592 335.06 154.074C335.06 152.194 336.738 150.942 338.927 150.942C341.143 150.942 342.688 152.21 342.736 153.957H341.148ZM348.25 162.165C345.837 162.165 344.356 160.503 344.356 157.962C344.356 155.448 345.859 153.712 348.138 153.712C349.992 153.712 351.761 154.868 351.761 157.824V158.388H345.944C345.986 159.965 346.903 160.849 348.266 160.849C349.172 160.849 349.864 160.455 350.152 159.683L351.659 159.955C351.297 161.286 350.035 162.165 348.25 162.165ZM345.949 157.195H350.2C350.195 155.944 349.385 155.027 348.149 155.027C346.855 155.027 346.013 156.034 345.949 157.195ZM355.12 157.142V162H353.528V153.818H355.056V155.15H355.158C355.536 154.282 356.34 153.712 357.571 153.712C359.243 153.712 360.357 154.772 360.357 156.796V162H358.764V156.988C358.764 155.8 358.109 155.091 357.027 155.091C355.919 155.091 355.12 155.837 355.12 157.142ZM365.555 162.16C363.569 162.16 362.136 160.572 362.136 157.925C362.136 155.272 363.59 153.712 365.566 153.712C367.089 153.712 367.633 154.638 367.92 155.145H368.016V151.091H369.609V162H368.054V160.727H367.92C367.633 161.249 367.047 162.16 365.555 162.16ZM365.907 160.801C367.281 160.801 368.043 159.63 368.043 157.909C368.043 156.199 367.297 155.065 365.907 155.065C364.469 155.065 363.744 156.284 363.744 157.909C363.744 159.55 364.485 160.801 365.907 160.801ZM378.013 155.816L376.57 156.071C376.383 155.523 375.925 154.974 374.934 154.974C374.029 154.974 373.347 155.422 373.352 156.05C373.347 156.604 373.736 156.908 374.636 157.121L375.936 157.419C377.438 157.765 378.173 158.479 378.173 159.635C378.173 161.116 376.804 162.165 374.828 162.165C372.99 162.165 371.786 161.35 371.52 159.901L373.059 159.667C373.251 160.471 373.864 160.881 374.817 160.881C375.861 160.881 376.538 160.386 376.538 159.752C376.538 159.241 376.17 158.889 375.382 158.713L373.997 158.41C372.463 158.069 371.76 157.297 371.76 156.135C371.76 154.686 373.07 153.712 374.918 153.712C376.687 153.712 377.683 154.543 378.013 155.816ZM387.42 162.165C385.007 162.165 383.526 160.503 383.526 157.962C383.526 155.448 385.028 153.712 387.308 153.712C389.162 153.712 390.93 154.868 390.93 157.824V158.388H385.114C385.156 159.965 386.073 160.849 387.436 160.849C388.342 160.849 389.034 160.455 389.322 159.683L390.829 159.955C390.467 161.286 389.205 162.165 387.42 162.165ZM385.119 157.195H389.37C389.364 155.944 388.555 155.027 387.319 155.027C386.025 155.027 385.183 156.034 385.119 157.195ZM394.29 157.142V162H392.698V153.818H394.226V155.15H394.328C394.706 154.282 395.51 153.712 396.741 153.712C398.413 153.712 399.526 154.772 399.526 156.796V162H397.934V156.988C397.934 155.8 397.279 155.091 396.197 155.091C395.089 155.091 394.29 155.837 394.29 157.142ZM405.109 162.165C402.733 162.165 401.295 160.413 401.295 157.946C401.295 155.448 402.786 153.712 405.093 153.712C406.952 153.712 408.3 154.809 408.47 156.46H406.92C406.749 155.693 406.132 155.054 405.119 155.054C403.788 155.054 402.904 156.157 402.904 157.909C402.904 159.694 403.772 160.817 405.119 160.817C406.03 160.817 406.718 160.295 406.92 159.411H408.47C408.294 161.004 407.042 162.165 405.109 162.165ZM410.173 162V153.818H411.713V155.118H411.798C412.096 154.239 412.916 153.696 413.875 153.696C414.078 153.696 414.392 153.712 414.552 153.733V155.256C414.424 155.219 414.051 155.161 413.721 155.161C412.592 155.161 411.766 155.933 411.766 157.004V162H410.173ZM417.186 165.068C416.706 165.068 416.291 164.978 416.099 164.892L416.483 163.587C417.356 163.827 417.926 163.737 418.331 162.65L418.528 162.107L415.535 153.818H417.239L419.311 160.168H419.396L421.468 153.818H423.178L419.807 163.092C419.332 164.381 418.502 165.068 417.186 165.068ZM424.675 165.068V153.818H426.231V155.145H426.364C426.646 154.638 427.195 153.712 428.713 153.712C430.689 153.712 432.149 155.272 432.149 157.925C432.149 160.572 430.71 162.16 428.729 162.16C427.237 162.16 426.651 161.249 426.364 160.727H426.268V165.068H424.675ZM426.236 157.909C426.236 159.63 427.003 160.801 428.372 160.801C429.794 160.801 430.54 159.55 430.54 157.909C430.54 156.284 429.815 155.065 428.372 155.065C426.982 155.065 426.236 156.199 426.236 157.909ZM437.752 153.818V155.097H436.074V159.598C436.074 160.519 436.538 160.69 437.054 160.69C437.31 160.69 437.507 160.642 437.614 160.62L437.901 161.936C437.715 162.005 437.374 162.101 436.868 162.107C435.611 162.133 434.476 161.414 434.482 159.928V155.097H433.283V153.818H434.482V151.858H436.074V153.818H437.752ZM442.952 162.165C440.539 162.165 439.059 160.503 439.059 157.962C439.059 155.448 440.561 153.712 442.841 153.712C444.694 153.712 446.463 154.868 446.463 157.824V158.388H440.646C440.689 159.965 441.605 160.849 442.968 160.849C443.874 160.849 444.566 160.455 444.854 159.683L446.362 159.955C445.999 161.286 444.737 162.165 442.952 162.165ZM440.651 157.195H444.902C444.897 155.944 444.087 155.027 442.851 155.027C441.557 155.027 440.715 156.034 440.651 157.195ZM451.293 162.16C449.306 162.16 447.873 160.572 447.873 157.925C447.873 155.272 449.327 153.712 451.303 153.712C452.827 153.712 453.37 154.638 453.658 155.145H453.754V151.091H455.346V162H453.791V160.727H453.658C453.37 161.249 452.784 162.16 451.293 162.16ZM451.644 160.801C453.019 160.801 453.78 159.63 453.78 157.909C453.78 156.199 453.035 155.065 451.644 155.065C450.206 155.065 449.482 156.284 449.482 157.909C449.482 159.55 450.222 160.801 451.644 160.801ZM465.957 151.091H467.598V158.825C467.592 160.924 466.282 162.149 464.279 162.149C462.431 162.149 461.046 161.116 461.046 159.273H462.681C462.687 160.178 463.358 160.754 464.322 160.754C465.366 160.754 465.952 160.082 465.957 158.825V151.091ZM472.129 162L469.104 151.091H470.835L472.96 159.539H473.062L475.272 151.091H476.987L479.198 159.544H479.299L481.419 151.091H483.156L480.125 162H478.468L476.172 153.829H476.087L473.791 162H472.129ZM484.119 152.508V151.091H492.561V152.508H489.158V162H487.517V152.508H484.119Z" fill="#3A3836"/>
<path d="M377.148 286.957C377.031 285.95 376.142 285.364 374.89 285.364C373.548 285.364 372.701 286.051 372.701 286.978C372.695 288.022 373.83 288.422 374.682 288.64L375.748 288.917C377.132 289.258 378.885 290.02 378.885 291.985C378.885 293.833 377.409 295.181 374.847 295.181C372.402 295.181 370.874 293.961 370.767 291.985H372.418C372.514 293.173 373.569 293.738 374.837 293.738C376.238 293.738 377.255 293.034 377.255 291.969C377.255 291 376.355 290.616 375.188 290.307L373.899 289.956C372.147 289.482 371.06 288.592 371.06 287.074C371.06 285.194 372.738 283.942 374.927 283.942C377.143 283.942 378.688 285.21 378.736 286.957H377.148ZM384.25 295.165C381.837 295.165 380.356 293.503 380.356 290.962C380.356 288.448 381.859 286.712 384.138 286.712C385.992 286.712 387.761 287.868 387.761 290.824V291.388H381.944C381.986 292.965 382.903 293.849 384.266 293.849C385.172 293.849 385.864 293.455 386.152 292.683L387.659 292.955C387.297 294.286 386.035 295.165 384.25 295.165ZM381.949 290.195H386.2C386.195 288.944 385.385 288.027 384.149 288.027C382.855 288.027 382.013 289.034 381.949 290.195ZM391.12 290.142V295H389.528V286.818H391.056V288.15H391.158C391.536 287.282 392.34 286.712 393.571 286.712C395.243 286.712 396.357 287.772 396.357 289.796V295H394.764V289.988C394.764 288.8 394.109 288.091 393.027 288.091C391.919 288.091 391.12 288.837 391.12 290.142ZM401.555 295.16C399.569 295.16 398.136 293.572 398.136 290.925C398.136 288.272 399.59 286.712 401.566 286.712C403.089 286.712 403.633 287.638 403.92 288.145H404.016V284.091H405.609V295H404.054V293.727H403.92C403.633 294.249 403.047 295.16 401.555 295.16ZM401.907 293.801C403.281 293.801 404.043 292.63 404.043 290.909C404.043 289.199 403.297 288.065 401.907 288.065C400.469 288.065 399.744 289.284 399.744 290.909C399.744 292.55 400.485 293.801 401.907 293.801ZM414.013 288.816L412.57 289.071C412.383 288.523 411.925 287.974 410.934 287.974C410.029 287.974 409.347 288.422 409.352 289.05C409.347 289.604 409.736 289.908 410.636 290.121L411.936 290.419C413.438 290.765 414.173 291.479 414.173 292.635C414.173 294.116 412.804 295.165 410.828 295.165C408.99 295.165 407.786 294.35 407.52 292.901L409.059 292.667C409.251 293.471 409.864 293.881 410.817 293.881C411.861 293.881 412.538 293.386 412.538 292.752C412.538 292.241 412.17 291.889 411.382 291.713L409.997 291.41C408.463 291.069 407.76 290.297 407.76 289.135C407.76 287.686 409.07 286.712 410.918 286.712C412.687 286.712 413.683 287.543 414.013 288.816ZM419.894 295V286.818H421.433V288.118H421.519C421.817 287.239 422.637 286.696 423.596 286.696C423.798 286.696 424.113 286.712 424.272 286.733V288.256C424.145 288.219 423.772 288.161 423.441 288.161C422.312 288.161 421.487 288.933 421.487 290.004V295H419.894ZM428.884 295.165C426.471 295.165 424.99 293.503 424.99 290.962C424.99 288.448 426.492 286.712 428.772 286.712C430.626 286.712 432.394 287.868 432.394 290.824V291.388H426.578C426.62 292.965 427.536 293.849 428.9 293.849C429.806 293.849 430.498 293.455 430.786 292.683L432.293 292.955C431.931 294.286 430.669 295.165 428.884 295.165ZM426.583 290.195H430.834C430.828 288.944 430.019 288.027 428.783 288.027C427.488 288.027 426.647 289.034 426.583 290.195ZM440.293 288.816L438.849 289.071C438.663 288.523 438.204 287.974 437.214 287.974C436.308 287.974 435.626 288.422 435.632 289.05C435.626 289.604 436.015 289.908 436.915 290.121L438.215 290.419C439.717 290.765 440.452 291.479 440.452 292.635C440.452 294.116 439.083 295.165 437.107 295.165C435.269 295.165 434.066 294.35 433.799 292.901L435.339 292.667C435.53 293.471 436.143 293.881 437.097 293.881C438.141 293.881 438.817 293.386 438.817 292.752C438.817 292.241 438.449 291.889 437.661 291.713L436.276 291.41C434.742 291.069 434.039 290.297 434.039 289.135C434.039 287.686 435.349 286.712 437.198 286.712C438.966 286.712 439.962 287.543 440.293 288.816ZM442.203 298.068V286.818H443.759V288.145H443.892C444.174 287.638 444.723 286.712 446.241 286.712C448.217 286.712 449.677 288.272 449.677 290.925C449.677 293.572 448.239 295.16 446.257 295.16C444.766 295.16 444.18 294.249 443.892 293.727H443.796V298.068H442.203ZM443.764 290.909C443.764 292.63 444.531 293.801 445.9 293.801C447.322 293.801 448.068 292.55 448.068 290.909C448.068 289.284 447.344 288.065 445.9 288.065C444.51 288.065 443.764 289.199 443.764 290.909ZM454.908 295.165C452.601 295.165 451.094 293.477 451.094 290.946C451.094 288.4 452.601 286.712 454.908 286.712C457.214 286.712 458.722 288.4 458.722 290.946C458.722 293.477 457.214 295.165 454.908 295.165ZM454.913 293.828C456.41 293.828 457.113 292.512 457.113 290.941C457.113 289.375 456.41 288.043 454.913 288.043C453.406 288.043 452.702 289.375 452.702 290.941C452.702 292.512 453.406 293.828 454.913 293.828ZM462.092 290.142V295H460.499V286.818H462.028V288.15H462.129C462.508 287.282 463.312 286.712 464.542 286.712C466.215 286.712 467.328 287.772 467.328 289.796V295H465.736V289.988C465.736 288.8 465.08 288.091 463.999 288.091C462.891 288.091 462.092 288.837 462.092 290.142ZM475.595 288.816L474.152 289.071C473.965 288.523 473.507 287.974 472.516 287.974C471.611 287.974 470.929 288.422 470.934 289.05C470.929 289.604 471.318 289.908 472.218 290.121L473.518 290.419C475.02 290.765 475.755 291.479 475.755 292.635C475.755 294.116 474.386 295.165 472.41 295.165C470.572 295.165 469.368 294.35 469.102 292.901L470.641 292.667C470.833 293.471 471.446 293.881 472.399 293.881C473.443 293.881 474.12 293.386 474.12 292.752C474.12 292.241 473.752 291.889 472.964 291.713L471.579 291.41C470.045 291.069 469.342 290.297 469.342 289.135C469.342 287.686 470.652 286.712 472.5 286.712C474.269 286.712 475.265 287.543 475.595 288.816ZM481.032 295.165C478.619 295.165 477.139 293.503 477.139 290.962C477.139 288.448 478.641 286.712 480.921 286.712C482.774 286.712 484.543 287.868 484.543 290.824V291.388H478.726C478.769 292.965 479.685 293.849 481.048 293.849C481.954 293.849 482.646 293.455 482.934 292.683L484.442 292.955C484.079 294.286 482.817 295.165 481.032 295.165ZM478.731 290.195H482.982C482.977 288.944 482.167 288.027 480.931 288.027C479.637 288.027 478.795 289.034 478.731 290.195Z" fill="#3A3836"/>
<path d="M95 126H51V136H95V126Z" fill="url(#paint0_linear_294_1987)" stroke="#6B6B6B" stroke-width="1.5" stroke-linecap="round" stroke-linejoin="round"/>
<path d="M91 141V166H55V141" stroke="#6B6B6B" stroke-width="1.5" stroke-linecap="round" stroke-linejoin="round"/>
<path d="M79 144H67V150H79V144Z" stroke="#6B6B6B" stroke-width="1.5" stroke-linecap="round" stroke-linejoin="round"/>
<path d="M612 226H599C597.343 226 596 227.343 596 229V259C596 260.657 597.343 262 599 262H612C613.657 262 615 260.657 615 259V229C615 227.343 613.657 226 612 226Z" fill="url(#paint1_linear_294_1987)" stroke="#6B6B6B" stroke-width="2" stroke-linecap="round" stroke-linejoin="round"/>
<path d="M621 229C621 228.204 621.316 227.441 621.879 226.879C622.441 226.316 623.204 226 624 226" stroke="#6B6B6B" stroke-width="2" stroke-linecap="round" stroke-linejoin="round"/>
<path d="M640 229C640 228.204 639.684 227.441 639.121 226.879C638.559 226.316 637.796 226 637 226" stroke="#6B6B6B" stroke-width="2" stroke-linecap="round" stroke-linejoin="round"/>
<path d="M637 262C637.796 262 638.559 261.684 639.121 261.121C639.684 260.559 640 259.796 640 259V258" stroke="#6B6B6B" stroke-width="2" stroke-linecap="round" stroke-linejoin="round"/>
<path d="M624 262C623.204 262 622.441 261.684 621.879 261.121C621.316 260.559 621 259.796 621 259V258" stroke="#6B6B6B" stroke-width="2" stroke-linecap="round" stroke-linejoin="round"/>
<path d="M629 226H632" stroke="#6B6B6B" stroke-width="2" stroke-linecap="round" stroke-linejoin="round"/>
<path d="M629 262H632" stroke="#6B6B6B" stroke-width="2" stroke-linecap="round" stroke-linejoin="round"/>
<path d="M621 234V237" stroke="#6B6B6B" stroke-width="2" stroke-linecap="round" stroke-linejoin="round"/>
<path d="M621 242V245" stroke="#6B6B6B" stroke-width="2" stroke-linecap="round" stroke-linejoin="round"/>
<path d="M621 250V253" stroke="#6B6B6B" stroke-width="2" stroke-linecap="round" stroke-linejoin="round"/>
<path d="M640 234V237" stroke="#6B6B6B" stroke-width="2" stroke-linecap="round" stroke-linejoin="round"/>
<path d="M640 242V245" stroke="#6B6B6B" stroke-width="2" stroke-linecap="round" stroke-linejoin="round"/>
<path d="M640 250V253" stroke="#6B6B6B" stroke-width="2" stroke-linecap="round" stroke-linejoin="round"/>
<path d="M631.4 117.2L635.9 114.6C636.6 114.2 637.5 114.1 638.3 114.3C639.1 114.5 639.8 115.1 640.2 115.8V115.9C640.6 116.6 640.7 117.4 640.6 118.1C640.5 118.9 640.1 119.6 639.5 120.1L631.1 127.2C630.6 127.6 630 127.9 629.4 128.1L613.5 131.7C613 131.8 612.4 131.8 611.8 131.7C611.3 131.6 610.7 131.4 610.3 131.1L600.4 124.4C599.7 123.9 598.9 123.7 598.1 123.7H595.3V110.9L602.6 110C603.9 109.8 605.2 110 606.4 110.5L612 112.6C612.5 112.8 613 112.9 613.6 113L624.2 114.8C625 114.9 625.8 115.2 626.4 115.9C627 116.5 627.3 117.4 627.3 118.2C627.3 119.1 627 119.9 626.4 120.5C625.8 121.1 625 121.5 624.2 121.6L612.8 122.4" stroke="#6B6B6B" stroke-width="1.5" stroke-miterlimit="10" stroke-linecap="square"/>
<path d="M631 99.4L638 102.2L631 105L628.2 112L625.4 105L618.3 102.2L625.4 99.4L628.2 92.3L631 99.4Z" fill="url(#paint2_linear_294_1987)" stroke="#6B6B6B" stroke-width="1.5" stroke-linecap="round" stroke-linejoin="round"/>
<path d="M150.883 46.48C163.718 46.48 174.123 36.0751 174.123 23.24C174.123 10.4049 163.718 0 150.883 0C138.047 0 127.643 10.4049 127.643 23.24C127.643 36.0751 138.047 46.48 150.883 46.48Z" fill="#FFDE83"/>
<path d="M170.113 8.11C177.993 4.95 183.603 3.87 184.653 5.69C186.473 8.83 173.963 19.46 156.703 29.42C139.443 39.38 123.993 44.91 122.173 41.76C121.273 40.19 123.943 36.76 129.003 32.45" stroke="#3A3836" stroke-width="2" stroke-linecap="round" stroke-linejoin="round"/>
<circle cx="168.5" cy="101.5" r="14.5" fill="#3A3836"/>
<path d="M169.803 96.0909V107H167.827V98.0138H167.763L165.211 99.6438V97.8327L167.923 96.0909H169.803Z" fill="white"/>
<circle cx="523.5" cy="157.5" r="14.5" fill="#3A3836"/>
<path d="M519.311 163V161.572L523.099 157.86C524.175 156.768 524.729 156.118 524.729 155.207C524.729 154.179 523.956 153.545 522.917 153.545C521.831 153.545 521.128 154.243 521.128 155.356H519.247C519.247 153.284 520.781 151.942 522.944 151.942C525.139 151.942 526.625 153.279 526.625 155.106C526.625 156.336 526.039 157.327 523.919 159.362L522.039 161.274V161.349H526.79V163H519.311Z" fill="white"/>
<circle cx="168.5" cy="235.5" r="14.5" fill="#3A3836"/>
<path d="M167.999 241.149C165.698 241.149 164.052 239.876 163.999 238.033H166.002C166.05 238.923 166.897 239.493 167.994 239.493C169.161 239.493 169.997 238.832 169.992 237.868C169.997 236.882 169.177 236.19 167.797 236.19H166.833V234.667H167.797C168.926 234.667 169.715 234.033 169.709 233.079C169.715 232.163 169.038 231.545 168.021 231.545C167.014 231.545 166.162 232.115 166.13 233.031H164.228C164.271 231.204 165.911 229.942 168.031 229.942C170.21 229.942 171.627 231.3 171.621 232.962C171.627 234.187 170.833 235.066 169.651 235.322V235.407C171.179 235.625 172.032 236.605 172.026 237.969C172.032 239.812 170.332 241.149 167.999 241.149Z" fill="white"/>
<circle cx="523.5" cy="290.5" r="14.5" fill="#3A3836"/>
<path d="M518.777 293.976V292.404L523.406 285.091H525.867V292.351H527.263V293.976H525.867V296H523.981V293.976H518.777ZM524.003 292.351V287.328H523.918L520.801 292.266V292.351H524.003Z" fill="white"/>
<path d="M682.671 362.033C682.643 362.047 682.618 362.065 682.598 362.088C682.578 362.111 682.562 362.138 682.552 362.166C682.542 362.195 682.538 362.226 682.54 362.256C682.542 362.287 682.55 362.316 682.564 362.344C682.624 362.464 682.648 362.599 682.633 362.733C682.618 362.866 682.563 362.992 682.477 363.096C682.44 363.144 682.423 363.204 682.429 363.263C682.436 363.323 682.466 363.378 682.512 363.417C682.559 363.455 682.619 363.474 682.679 363.469C682.74 363.464 682.796 363.436 682.836 363.391C682.98 363.218 683.071 363.008 683.096 362.785C683.122 362.562 683.082 362.337 682.981 362.137C682.954 362.082 682.905 362.041 682.847 362.022C682.789 362.002 682.726 362.006 682.671 362.033V362.033Z" fill="#BCBCBC"/>
<path d="M673.71 352.165C662.675 350.76 652.581 358.5 651.166 369.457C649.751 380.413 657.545 390.43 668.58 391.835C679.615 393.241 689.71 385.501 691.124 374.547C692.538 363.594 684.744 353.571 673.71 352.165ZM677.857 364.64C677.484 364.645 677.127 364.795 676.863 365.058L669.388 372.476L667.794 370.893C675.158 363.601 676.486 363.531 677.857 364.64ZM669.692 372.741L677.145 365.341C677.34 365.148 677.605 365.039 677.88 365.039C678.156 365.039 678.42 365.148 678.615 365.341C678.715 365.44 678.794 365.56 678.846 365.691C678.898 365.822 678.923 365.962 678.918 366.103C678.914 366.244 678.88 366.383 678.819 366.51C678.759 366.638 678.672 366.752 678.566 366.845L670.678 373.722L669.692 372.741ZM670.246 373.896L668.4 374.292C668.378 374.296 668.355 374.294 668.335 374.285C668.315 374.275 668.298 374.26 668.287 374.24C668.276 374.221 668.272 374.198 668.276 374.176C668.279 374.154 668.289 374.134 668.305 374.118L669.387 373.043L670.246 373.896ZM665.54 373.132L667.508 371.178L668.983 372.642L665.66 373.352C665.633 373.358 665.604 373.355 665.578 373.343C665.552 373.331 665.531 373.311 665.517 373.287C665.504 373.262 665.499 373.233 665.503 373.206C665.507 373.178 665.52 373.152 665.54 373.132ZM659.421 383.231C659.397 383.229 659.374 383.219 659.355 383.204C659.336 383.189 659.322 383.169 659.314 383.146C659.306 383.124 659.305 383.099 659.311 383.076C659.316 383.053 659.328 383.031 659.345 383.015L660.933 381.438L662.984 383.474L659.421 383.231ZM663.492 381.135C663.416 381.174 663.356 381.237 663.32 381.314C663.284 381.391 663.275 381.477 663.295 381.559L663.635 383.003C663.644 383.047 663.638 383.092 663.619 383.133C663.6 383.174 663.569 383.207 663.529 383.229C663.49 383.251 663.445 383.26 663.4 383.254C663.355 383.249 663.313 383.229 663.28 383.199L661.22 381.153L667.533 374.886L670.589 374.234L672.055 375.69C669.947 377.522 667.066 379.354 663.492 381.134V381.135ZM672.351 375.423L670.943 374.025L678.831 367.147C678.905 367.083 678.971 367.012 679.03 366.935C678.781 369.18 675.623 372.345 672.353 375.421L672.351 375.423ZM678.489 364.653C677.936 364.099 677.619 363.355 677.603 362.576C677.588 361.796 677.875 361.04 678.406 360.465C678.936 359.89 679.67 359.539 680.454 359.486C681.238 359.433 682.012 359.681 682.616 360.18L679.909 362.868C679.89 362.887 679.875 362.909 679.865 362.933C679.855 362.957 679.85 362.983 679.85 363.009C679.85 363.036 679.855 363.062 679.865 363.086C679.875 363.11 679.89 363.132 679.909 363.15L682.002 365.229C681.43 365.509 680.784 365.604 680.154 365.501C679.525 365.397 678.944 365.1 678.493 364.652L678.489 364.653ZM682.816 364.653C682.677 364.79 682.526 364.914 682.363 365.021L680.335 363.008L682.909 360.453C683.441 361.03 683.728 361.789 683.711 362.571C683.693 363.353 683.372 364.099 682.815 364.652L682.816 364.653Z" fill="#BCBCBC"/>
<defs>
<linearGradient id="paint0_linear_294_1987" x1="73" y1="126" x2="73" y2="136" gradientUnits="userSpaceOnUse">
<stop stop-color="#FF6C37"/>
<stop offset="1" stop-color="#FFB400"/>
</linearGradient>
<linearGradient id="paint1_linear_294_1987" x1="605.5" y1="226" x2="605.5" y2="262" gradientUnits="userSpaceOnUse">
<stop stop-color="#FF6C37"/>
<stop offset="1" stop-color="#FFB400"/>
</linearGradient>
<linearGradient id="paint2_linear_294_1987" x1="628.15" y1="92.3" x2="628.15" y2="112" gradientUnits="userSpaceOnUse">
<stop stop-color="#FF6C37"/>
<stop offset="1" stop-color="#FFB400"/>
</linearGradient>
</defs>
</svg>
