<svg width="694" height="493" viewBox="0 0 694 493" fill="none" xmlns="http://www.w3.org/2000/svg">
<rect x="548" y="3" width="144" height="108" rx="4" fill="white" stroke="#3A3836" stroke-width="2"/>
<path d="M613.977 83.2727H615.034V89.0511C615.034 90.8409 613.696 92.1534 611.642 92.1534C609.588 92.1534 608.25 90.8409 608.25 89.0511V83.2727H609.307V88.9659C609.307 90.2443 610.185 91.1648 611.642 91.1648C613.1 91.1648 613.977 90.2443 613.977 88.9659V83.2727ZM621.645 86.9205L620.741 87.1761C620.567 86.7244 620.204 86.2386 619.327 86.2386C618.525 86.2386 617.929 86.6477 617.929 87.2102C617.929 87.7131 618.278 87.973 619.054 88.1648L620.025 88.4034C621.193 88.6889 621.764 89.2642 621.764 90.1761C621.764 91.3054 620.729 92.1364 619.207 92.1364C617.869 92.1364 616.953 91.544 616.719 90.4318L617.673 90.1932C617.852 90.8963 618.368 91.25 619.19 91.25C620.128 91.25 620.724 90.7898 620.724 90.2273C620.724 89.7756 620.413 89.4602 619.753 89.3068L618.662 89.0511C617.46 88.7699 616.923 88.1648 616.923 87.2614C616.923 86.1534 617.946 85.3693 619.327 85.3693C620.622 85.3693 621.329 85.9915 621.645 86.9205ZM626.022 92.1364C624.13 92.1364 622.971 90.7898 622.971 88.7784C622.971 86.767 624.147 85.3693 625.92 85.3693C627.284 85.3693 628.732 86.2045 628.732 88.642V89.0682H623.981C624.028 90.4702 624.842 91.233 626.022 91.233C626.811 91.233 627.403 90.892 627.659 90.2102L628.63 90.483C628.323 91.4716 627.352 92.1364 626.022 92.1364ZM623.981 88.1989H627.71C627.71 87.0909 627.011 86.2727 625.92 86.2727C624.769 86.2727 624.049 87.1804 623.981 88.1989ZM630.262 92V85.4545H631.234V86.4432H631.302C631.541 85.7955 632.222 85.3523 633.007 85.3523C633.156 85.3523 633.42 85.3608 633.535 85.3693V86.392C633.467 86.375 633.19 86.3239 632.921 86.3239C631.967 86.3239 631.268 86.9716 631.268 87.858V92H630.262Z" fill="#3A3836"/>
<g clip-path="url(#clip0_294_2057)">
<path d="M631.316 61.0818V54.1805C631.316 50.2143 628.075 46.9733 624.109 46.9733H616.902C612.935 46.9733 609.694 50.2143 609.694 54.1805V61.9884C609.694 61.9884 614.363 66.8725 622.25 65.1727C630.138 63.4729 631.327 61.0818 631.327 61.0818H631.316Z" fill="url(#paint0_linear_294_2057)"/>
<path d="M609.684 62.2603V54.4525C609.684 50.4862 612.925 47.2452 616.891 47.2452H624.098C628.064 47.2452 631.305 50.4862 631.305 54.4525V61.3538" stroke="#6B6B6B" stroke-width="1.59" stroke-linecap="round" stroke-linejoin="round"/>
<path d="M620.494 41.8286C624.461 41.8286 627.702 38.5876 627.702 34.6213C627.702 30.6551 624.461 27.4141 620.494 27.4141C616.528 27.4141 613.287 30.6551 613.287 34.6213C613.287 38.5876 616.528 41.8286 620.494 41.8286Z" fill="url(#paint1_linear_294_2057)"/>
<path d="M620.494 41.8286C624.461 41.8286 627.702 38.5876 627.702 34.6213C627.702 30.6551 624.461 27.4141 620.494 27.4141C616.528 27.4141 613.287 30.6551 613.287 34.6213C613.287 38.5876 616.528 41.8286 620.494 41.8286Z" stroke="#6B6B6B" stroke-width="1.59" stroke-linecap="round" stroke-linejoin="round"/>
<path d="M620.495 65.0935C632.423 65.0935 642.094 55.4232 642.094 43.4944C642.094 31.5655 632.423 21.8953 620.495 21.8953C608.566 21.8953 598.896 31.5655 598.896 43.4944C598.896 55.4232 608.566 65.0935 620.495 65.0935Z" stroke="#6B6B6B" stroke-width="1.59" stroke-linecap="round" stroke-linejoin="round"/>
</g>
<mask id="mask0_294_2057" style="mask-type:luminance" maskUnits="userSpaceOnUse" x="139" y="390" width="134" height="56">
<path d="M270.327 390L139 394.678L140.828 445.985L272.154 441.308L270.327 390Z" fill="white"/>
</mask>
<g mask="url(#mask0_294_2057)">
<path d="M271.394 441.106C271.273 436.598 270.196 432.167 268.234 428.106C266.428 424.293 263.711 420.982 260.324 418.466C257.201 416.155 253.473 414.803 249.594 414.576C245.784 414.415 242.013 415.397 238.764 417.396C236.528 410.573 232.46 404.495 227.004 399.826C222.038 395.584 215.781 393.152 209.254 392.926C202.791 392.835 196.494 394.983 191.434 399.006C185.903 403.419 181.741 409.316 179.434 416.006C175.847 412.993 171.398 411.193 166.724 410.866C162.113 410.613 157.546 411.882 153.724 414.476C149.594 417.304 146.322 421.213 144.264 425.776C142.007 430.69 140.922 436.061 141.094 441.466L271.394 441.106Z" fill="#FFDE83"/>
</g>
<rect x="30" y="1" width="144" height="431" rx="4" fill="white" stroke="#3A3836" stroke-width="2"/>
<rect x="548" y="133" width="144" height="299" rx="4" fill="white" stroke="#3A3836" stroke-width="2"/>
<path d="M37.8709 34.4046L46.2755 37.1378L37.8709 39.8823L35.1378 48.2869L32.4045 39.8823L24 37.1378L32.4045 34.4046L35.1378 26L37.8709 34.4046Z" fill="white" stroke="#3A3836" stroke-width="2" stroke-miterlimit="10"/>
<path d="M678.691 126.865L684.556 128.778L678.691 130.703L676.778 136.568L674.865 130.703L669 128.778L674.865 126.865L676.778 121L678.691 126.865Z" fill="#3A3836"/>
<rect x="563" y="176" width="113" height="108" rx="4" fill="white" stroke="#E6E6E6" stroke-width="2"/>
<rect x="563" y="304" width="113" height="108" rx="4" fill="white" stroke="#E6E6E6" stroke-width="2"/>
<path d="M582.522 257H581.414L584.619 248.273H585.71L588.914 257H587.806L586.928 254.528H583.4L582.522 257ZM583.732 253.591H586.596L585.198 249.653H585.13L583.732 253.591ZM594.262 254.324V250.455H595.268V257H594.262V255.892H594.194C593.887 256.557 593.24 257.085 592.251 257.085C591.024 257.085 590.137 256.284 590.137 254.614V250.455H591.143V254.545C591.143 255.5 591.74 256.114 592.575 256.114C593.325 256.114 594.262 255.551 594.262 254.324ZM599.956 250.455V251.307H598.559V255.125C598.559 255.977 598.985 256.114 599.428 256.114C599.65 256.114 599.786 256.08 599.871 256.062L600.076 256.966C599.939 257.017 599.701 257.085 599.326 257.085C598.474 257.085 597.553 256.54 597.553 255.398V251.307H596.564V250.455H597.553V248.886H598.559V250.455H599.956ZM602.616 253.062V257H601.61V248.273H602.616V251.477H602.701C603.008 250.8 603.596 250.369 604.627 250.369C605.965 250.369 606.86 251.158 606.86 252.841V257H605.854V252.909C605.854 251.869 605.283 251.273 604.337 251.273C603.344 251.273 602.616 251.92 602.616 253.062ZM611.359 257.136C609.586 257.136 608.393 255.79 608.393 253.761C608.393 251.716 609.586 250.369 611.359 250.369C613.132 250.369 614.325 251.716 614.325 253.761C614.325 255.79 613.132 257.136 611.359 257.136ZM611.359 256.233C612.705 256.233 613.319 255.074 613.319 253.761C613.319 252.449 612.705 251.273 611.359 251.273C610.012 251.273 609.399 252.449 609.399 253.761C609.399 255.074 610.012 256.233 611.359 256.233ZM615.86 257V250.455H616.831V251.443H616.9C617.138 250.795 617.82 250.352 618.604 250.352C618.753 250.352 619.018 250.361 619.133 250.369V251.392C619.064 251.375 618.787 251.324 618.519 251.324C617.564 251.324 616.866 251.972 616.866 252.858V257H615.86ZM620.325 257V250.455H621.33V257H620.325ZM620.836 249.364C620.444 249.364 620.12 249.057 620.12 248.682C620.12 248.307 620.444 248 620.836 248C621.228 248 621.552 248.307 621.552 248.682C621.552 249.057 621.228 249.364 620.836 249.364ZM622.985 257V256.233L626.701 251.46V251.392H623.104V250.455H627.996V251.256L624.383 255.994V256.062H628.116V257H622.985ZM631.591 257.153C630.346 257.153 629.358 256.42 629.358 255.142C629.358 253.642 630.683 253.374 631.898 253.216C633.091 253.062 633.585 253.105 633.585 252.619V252.585C633.585 251.746 633.129 251.256 632.204 251.256C631.246 251.256 630.721 251.767 630.5 252.244L629.545 251.903C630.057 250.71 631.182 250.369 632.17 250.369C633.006 250.369 634.591 250.608 634.591 252.688V257H633.585V256.114H633.534C633.329 256.54 632.733 257.153 631.591 257.153ZM631.744 256.25C632.937 256.25 633.585 255.449 633.585 254.631V253.71C633.415 253.915 632.273 254.034 631.846 254.085C631.062 254.188 630.363 254.426 630.363 255.193C630.363 255.892 630.943 256.25 631.744 256.25ZM639.273 250.455V251.307H637.875V255.125C637.875 255.977 638.301 256.114 638.744 256.114C638.966 256.114 639.102 256.08 639.188 256.062L639.392 256.966C639.256 257.017 639.017 257.085 638.642 257.085C637.79 257.085 636.869 256.54 636.869 255.398V251.307H635.881V250.455H636.869V248.886H637.875V250.455H639.273ZM640.786 257V250.455H641.791V257H640.786ZM641.297 249.364C640.905 249.364 640.581 249.057 640.581 248.682C640.581 248.307 640.905 248 641.297 248C641.689 248 642.013 248.307 642.013 248.682C642.013 249.057 641.689 249.364 641.297 249.364ZM646.292 257.136C644.52 257.136 643.327 255.79 643.327 253.761C643.327 251.716 644.52 250.369 646.292 250.369C648.065 250.369 649.258 251.716 649.258 253.761C649.258 255.79 648.065 257.136 646.292 257.136ZM646.292 256.233C647.639 256.233 648.253 255.074 648.253 253.761C648.253 252.449 647.639 251.273 646.292 251.273C644.946 251.273 644.332 252.449 644.332 253.761C644.332 255.074 644.946 256.233 646.292 256.233ZM651.799 253.062V257H650.794V250.455H651.765V251.477H651.85C652.157 250.812 652.771 250.369 653.759 250.369C655.085 250.369 655.975 251.17 655.975 252.841V257H654.97V252.909C654.97 251.882 654.403 251.273 653.47 251.273C652.507 251.273 651.799 251.92 651.799 253.062ZM606.651 266.92L605.747 267.176C605.572 266.724 605.21 266.239 604.332 266.239C603.531 266.239 602.935 266.648 602.935 267.21C602.935 267.713 603.284 267.973 604.06 268.165L605.031 268.403C606.199 268.689 606.77 269.264 606.77 270.176C606.77 271.305 605.734 272.136 604.213 272.136C602.875 272.136 601.959 271.544 601.724 270.432L602.679 270.193C602.858 270.896 603.374 271.25 604.196 271.25C605.134 271.25 605.73 270.79 605.73 270.227C605.73 269.776 605.419 269.46 604.759 269.307L603.668 269.051C602.466 268.77 601.929 268.165 601.929 267.261C601.929 266.153 602.952 265.369 604.332 265.369C605.628 265.369 606.335 265.991 606.651 266.92ZM611.028 272.136C609.136 272.136 607.977 270.79 607.977 268.778C607.977 266.767 609.153 265.369 610.926 265.369C612.289 265.369 613.738 266.205 613.738 268.642V269.068H608.987C609.034 270.47 609.848 271.233 611.028 271.233C611.816 271.233 612.409 270.892 612.664 270.21L613.636 270.483C613.329 271.472 612.358 272.136 611.028 272.136ZM608.987 268.199H612.716C612.716 267.091 612.017 266.273 610.926 266.273C609.775 266.273 609.055 267.18 608.987 268.199ZM615.268 272V265.455H616.24V266.443H616.308C616.547 265.795 617.228 265.352 618.012 265.352C618.162 265.352 618.426 265.361 618.541 265.369V266.392C618.473 266.375 618.196 266.324 617.927 266.324C616.973 266.324 616.274 266.972 616.274 267.858V272H615.268ZM625.284 265.455L622.864 272H621.841L619.421 265.455H620.512L622.319 270.67H622.387L624.194 265.455H625.284ZM629.122 272.136C627.23 272.136 626.071 270.79 626.071 268.778C626.071 266.767 627.247 265.369 629.02 265.369C630.383 265.369 631.832 266.205 631.832 268.642V269.068H627.081C627.127 270.47 627.941 271.233 629.122 271.233C629.91 271.233 630.502 270.892 630.758 270.21L631.73 270.483C631.423 271.472 630.451 272.136 629.122 272.136ZM627.081 268.199H630.809C630.809 267.091 630.11 266.273 629.02 266.273C627.869 266.273 627.149 267.18 627.081 268.199ZM633.362 272V265.455H634.333V266.443H634.402C634.64 265.795 635.322 265.352 636.106 265.352C636.255 265.352 636.52 265.361 636.635 265.369V266.392C636.566 266.375 636.289 266.324 636.021 266.324C635.066 266.324 634.368 266.972 634.368 267.858V272H633.362Z" fill="#3A3836"/>
<path d="M594.084 385V376.273H597.033C599.078 376.273 599.999 377.406 599.999 378.949C599.999 380.108 599.479 381.016 598.367 381.395L600.34 385H599.113L597.272 381.587C597.199 381.591 597.127 381.591 597.05 381.591H595.141V385H594.084ZM595.141 380.636H597.016C598.414 380.636 598.959 379.997 598.959 378.949C598.959 377.901 598.414 377.21 596.999 377.21H595.141V380.636ZM604.298 385.136C602.406 385.136 601.246 383.79 601.246 381.778C601.246 379.767 602.423 378.369 604.195 378.369C605.559 378.369 607.008 379.205 607.008 381.642V382.068H602.256C602.303 383.47 603.117 384.233 604.298 384.233C605.086 384.233 605.678 383.892 605.934 383.21L606.906 383.483C606.599 384.472 605.627 385.136 604.298 385.136ZM602.256 381.199H605.985C605.985 380.091 605.286 379.273 604.195 379.273C603.045 379.273 602.325 380.18 602.256 381.199ZM613.174 379.92L612.271 380.176C612.096 379.724 611.734 379.239 610.856 379.239C610.055 379.239 609.458 379.648 609.458 380.21C609.458 380.713 609.808 380.973 610.583 381.165L611.555 381.403C612.722 381.689 613.293 382.264 613.293 383.176C613.293 384.305 612.258 385.136 610.737 385.136C609.398 385.136 608.482 384.544 608.248 383.432L609.202 383.193C609.381 383.896 609.897 384.25 610.719 384.25C611.657 384.25 612.254 383.79 612.254 383.227C612.254 382.776 611.942 382.46 611.282 382.307L610.191 382.051C608.989 381.77 608.452 381.165 608.452 380.261C608.452 379.153 609.475 378.369 610.856 378.369C612.151 378.369 612.859 378.991 613.174 379.92ZM617.466 385.136C615.694 385.136 614.5 383.79 614.5 381.761C614.5 379.716 615.694 378.369 617.466 378.369C619.239 378.369 620.432 379.716 620.432 381.761C620.432 383.79 619.239 385.136 617.466 385.136ZM617.466 384.233C618.813 384.233 619.426 383.074 619.426 381.761C619.426 380.449 618.813 379.273 617.466 379.273C616.12 379.273 615.506 380.449 615.506 381.761C615.506 383.074 616.12 384.233 617.466 384.233ZM626.092 382.324V378.455H627.098V385H626.092V383.892H626.024C625.717 384.557 625.07 385.085 624.081 385.085C622.854 385.085 621.967 384.284 621.967 382.614V378.455H622.973V382.545C622.973 383.5 623.57 384.114 624.405 384.114C625.155 384.114 626.092 383.551 626.092 382.324ZM628.94 385V378.455H629.912V379.443H629.98C630.218 378.795 630.9 378.352 631.684 378.352C631.833 378.352 632.098 378.361 632.213 378.369V379.392C632.145 379.375 631.868 379.324 631.599 379.324C630.645 379.324 629.946 379.972 629.946 380.858V385H628.94ZM635.865 385.136C634.024 385.136 632.899 383.722 632.899 381.761C632.899 379.767 634.075 378.369 635.848 378.369C637.228 378.369 638.268 379.188 638.439 380.415H637.433C637.279 379.818 636.751 379.273 635.865 379.273C634.689 379.273 633.904 380.244 633.904 381.727C633.904 383.244 634.672 384.233 635.865 384.233C636.649 384.233 637.245 383.807 637.433 383.091H638.439C638.268 384.25 637.314 385.136 635.865 385.136ZM642.653 385.136C640.761 385.136 639.602 383.79 639.602 381.778C639.602 379.767 640.778 378.369 642.551 378.369C643.914 378.369 645.363 379.205 645.363 381.642V382.068H640.612C640.659 383.47 641.473 384.233 642.653 384.233C643.441 384.233 644.034 383.892 644.289 383.21L645.261 383.483C644.954 384.472 643.983 385.136 642.653 385.136ZM640.612 381.199H644.341C644.341 380.091 643.642 379.273 642.551 379.273C641.4 379.273 640.68 380.18 640.612 381.199ZM607.151 394.92L606.247 395.176C606.072 394.724 605.71 394.239 604.832 394.239C604.031 394.239 603.435 394.648 603.435 395.21C603.435 395.713 603.784 395.973 604.56 396.165L605.531 396.403C606.699 396.689 607.27 397.264 607.27 398.176C607.27 399.305 606.234 400.136 604.713 400.136C603.375 400.136 602.459 399.544 602.224 398.432L603.179 398.193C603.358 398.896 603.874 399.25 604.696 399.25C605.634 399.25 606.23 398.79 606.23 398.227C606.23 397.776 605.919 397.46 605.259 397.307L604.168 397.051C602.966 396.77 602.429 396.165 602.429 395.261C602.429 394.153 603.452 393.369 604.832 393.369C606.128 393.369 606.835 393.991 607.151 394.92ZM611.528 400.136C609.636 400.136 608.477 398.79 608.477 396.778C608.477 394.767 609.653 393.369 611.426 393.369C612.789 393.369 614.238 394.205 614.238 396.642V397.068H609.487C609.534 398.47 610.348 399.233 611.528 399.233C612.316 399.233 612.909 398.892 613.164 398.21L614.136 398.483C613.829 399.472 612.858 400.136 611.528 400.136ZM609.487 396.199H613.216C613.216 395.091 612.517 394.273 611.426 394.273C610.275 394.273 609.555 395.18 609.487 396.199ZM615.768 400V393.455H616.74V394.443H616.808C617.047 393.795 617.728 393.352 618.512 393.352C618.662 393.352 618.926 393.361 619.041 393.369V394.392C618.973 394.375 618.696 394.324 618.427 394.324C617.473 394.324 616.774 394.972 616.774 395.858V400H615.768ZM625.784 393.455L623.364 400H622.341L619.921 393.455H621.012L622.819 398.67H622.887L624.694 393.455H625.784ZM629.622 400.136C627.73 400.136 626.571 398.79 626.571 396.778C626.571 394.767 627.747 393.369 629.52 393.369C630.883 393.369 632.332 394.205 632.332 396.642V397.068H627.581C627.627 398.47 628.441 399.233 629.622 399.233C630.41 399.233 631.002 398.892 631.258 398.21L632.23 398.483C631.923 399.472 630.951 400.136 629.622 400.136ZM627.581 396.199H631.309C631.309 395.091 630.61 394.273 629.52 394.273C628.369 394.273 627.649 395.18 627.581 396.199ZM633.862 400V393.455H634.833V394.443H634.902C635.14 393.795 635.822 393.352 636.606 393.352C636.755 393.352 637.02 393.361 637.135 393.369V394.392C637.066 394.375 636.789 394.324 636.521 394.324C635.566 394.324 634.868 394.972 634.868 395.858V400H633.862Z" fill="#3A3836"/>
<path d="M80 209H101H118H124V214H96.5V209H85V214H80V209Z" fill="url(#paint2_linear_294_2057)"/>
<rect x="101" y="179" width="17" height="3" fill="url(#paint3_linear_294_2057)"/>
<rect x="85" y="205" width="11" height="3" fill="url(#paint4_linear_294_2057)"/>
<path d="M118 185H124V214H96" stroke="#6B6B6B" stroke-width="1.5" stroke-linecap="round" stroke-linejoin="round"/>
<path d="M85 214H80V185H101" stroke="#6B6B6B" stroke-width="1.5" stroke-linecap="round" stroke-linejoin="round"/>
<path d="M117 199H102C101.448 199 101 198.552 101 198V180C101 179.448 101.448 179 102 179H117C117.552 179 118 179.448 118 180V198C118 198.552 117.552 199 117 199Z" stroke="#6B6B6B" stroke-width="1.5" stroke-linecap="round" stroke-linejoin="round"/>
<path d="M95 221H86C85.448 221 85 220.552 85 220V206C85 205.448 85.448 205 86 205H95C95.552 205 96 205.448 96 206V220C96 220.552 95.552 221 95 221Z" stroke="#6B6B6B" stroke-width="1.5" stroke-linecap="round" stroke-linejoin="round"/>
<path d="M98 219L106 219" stroke="#6B6B6B" stroke-width="1.5" stroke-linecap="round" stroke-linejoin="round"/>
<path d="M102 219L102 214" stroke="#6B6B6B" stroke-width="1.5" stroke-linecap="round" stroke-linejoin="round"/>
<path d="M90 218H91" stroke="#6B6B6B" stroke-width="1.5" stroke-linecap="round" stroke-linejoin="round"/>
<path d="M108 196H111" stroke="#6B6B6B" stroke-width="1.5" stroke-linecap="round" stroke-linejoin="round"/>
<path d="M49.2595 252L47.7195 247.828H40.4955L38.9275 252H35.6235L42.3435 235.2H45.9835L52.7035 252H49.2595ZM42.2315 243.264L41.5035 245.224H46.7395L46.0115 243.264C45.3955 241.668 44.7515 239.932 44.2195 238.336H44.0235C43.4915 239.932 42.8475 241.668 42.2315 243.264ZM60.3509 249.648C62.6189 249.648 63.7389 248.052 63.7389 245.364C63.7389 242.732 62.6749 241.22 60.3509 241.22C58.1669 241.22 56.8229 242.676 56.8229 245.28V245.504C56.8229 248.024 58.1669 249.648 60.3509 249.648ZM66.7349 245.364C66.7349 249.732 64.8869 252.364 61.5549 252.364C58.9229 252.364 57.4669 250.936 56.8789 248.248H56.8229V255.836H53.7989V238.84H56.8229V242.564H56.8789C57.4949 239.904 59.0069 238.504 61.5829 238.504C64.9709 238.504 66.7349 241.108 66.7349 245.364ZM75.237 249.648C77.505 249.648 78.625 248.052 78.625 245.364C78.625 242.732 77.561 241.22 75.237 241.22C73.053 241.22 71.709 242.676 71.709 245.28V245.504C71.709 248.024 73.053 249.648 75.237 249.648ZM81.621 245.364C81.621 249.732 79.773 252.364 76.441 252.364C73.809 252.364 72.353 250.936 71.765 248.248H71.709V255.836H68.685V238.84H71.709V242.564H71.765C72.381 239.904 73.893 238.504 76.469 238.504C79.857 238.504 81.621 241.108 81.621 245.364ZM86.5951 234.836V252H83.5711V234.836H86.5951ZM92.5197 237.076H89.2437V234.836H92.5197V237.076ZM92.4077 252H89.3837V238.84H92.4077V252ZM104.734 244.328C104.342 242.48 103.362 241.248 101.318 241.248C99.1624 241.248 97.6504 242.592 97.6504 245.42C97.6504 248.108 99.1344 249.592 101.374 249.592C103.586 249.592 104.37 248.192 104.79 246.316L107.674 246.904C107.142 250.264 105.238 252.364 101.43 252.364C97.2864 252.364 94.5704 249.928 94.5704 245.448C94.5704 241.08 97.3424 238.504 101.346 238.504C105.294 238.504 107.114 240.464 107.646 243.852L104.734 244.328ZM115.431 249.62C117.587 249.62 118.931 248.164 118.931 245.56V245.336C118.931 242.816 117.587 241.192 115.431 241.192C113.135 241.192 112.015 242.788 112.015 245.476C112.015 248.108 113.079 249.62 115.431 249.62ZM109.019 245.476C109.019 241.108 110.895 238.476 114.199 238.504C116.831 238.476 118.315 239.904 118.903 242.62H118.931V238.84H121.955V252H118.931V248.276H118.875C118.287 250.936 116.747 252.364 114.199 252.364C110.783 252.364 109.019 249.732 109.019 245.476ZM125.445 247.996V241.388H123.653V238.84H125.445V235.34H128.441V238.84H132.333V241.388H128.441V247.492C128.441 248.78 128.945 249.424 130.261 249.424C130.933 249.424 131.549 249.256 132.137 249.116L132.501 251.888C131.549 252.196 130.849 252.364 129.561 252.364C126.677 252.364 125.445 250.46 125.445 247.996ZM137.599 237.076H134.323V234.836H137.599V237.076ZM137.487 252H134.463V238.84H137.487V252ZM146.398 252.364C142.17 252.364 139.65 249.704 139.65 245.392C139.65 241.052 142.338 238.504 146.398 238.504C150.43 238.504 153.118 241.052 153.118 245.392C153.118 249.704 150.57 252.364 146.398 252.364ZM146.398 241.248C144.046 241.248 142.674 242.844 142.674 245.364C142.674 247.912 143.99 249.592 146.37 249.592C148.778 249.592 150.122 247.912 150.122 245.364C150.122 242.844 148.722 241.248 146.398 241.248ZM158.095 244.216V252H155.071V238.84H158.095V242.452H158.123C158.711 239.652 160.391 238.504 162.603 238.504C165.767 238.504 166.971 240.576 166.971 243.432V252H163.947V244.216C163.947 242.62 163.247 241.22 161.203 241.22C159.271 241.22 158.095 242.34 158.095 244.216Z" fill="#3A3836"/>
<path d="M584.149 153.228C584.064 152.371 583.388 151.87 582.285 151.87C581.156 151.87 580.532 152.387 580.532 153.09C580.517 153.873 581.31 154.224 582.258 154.443L583.238 154.677C585.135 155.103 586.504 156.067 586.509 157.884C586.504 159.881 584.938 161.154 582.274 161.154C579.627 161.154 577.938 159.935 577.88 157.575H580.112C580.186 158.667 581.049 159.221 582.248 159.221C583.42 159.221 584.176 158.678 584.181 157.879C584.176 157.143 583.515 156.803 582.328 156.515L581.14 156.217C579.297 155.775 578.162 154.853 578.167 153.244C578.157 151.263 579.909 149.942 582.301 149.942C584.73 149.942 586.328 151.284 586.36 153.228H584.149ZM591.747 161.16C589.227 161.16 587.688 159.54 587.688 156.946C587.688 154.422 589.248 152.712 591.656 152.712C593.819 152.712 595.502 154.086 595.502 156.866V157.49H589.93V157.495C589.93 158.715 590.649 159.466 591.784 159.466C592.54 159.466 593.126 159.141 593.355 158.518L595.454 158.656C595.134 160.174 593.771 161.16 591.747 161.16ZM589.93 156.083H593.366C593.361 155.109 592.679 154.406 591.693 154.406C590.687 154.406 589.978 155.151 589.93 156.083ZM596.983 161V152.818H599.183V154.246H599.268C599.566 153.234 600.317 152.701 601.233 152.701C601.462 152.701 601.745 152.733 601.947 152.781V154.794C601.734 154.725 601.303 154.672 600.988 154.672C599.987 154.672 599.252 155.364 599.252 156.371V161H596.983ZM610.997 152.818L608.137 161H605.58L602.72 152.818H605.117L606.816 158.672H606.901L608.595 152.818H610.997ZM612.158 161V152.818H614.428V161H612.158ZM613.298 151.763C612.627 151.763 612.073 151.247 612.073 150.613C612.073 149.984 612.627 149.468 613.298 149.468C613.975 149.468 614.529 149.984 614.529 150.613C614.529 151.247 613.975 151.763 613.298 151.763ZM619.942 161.16C617.423 161.16 615.915 159.429 615.915 156.941C615.915 154.432 617.449 152.712 619.931 152.712C622.067 152.712 623.5 153.953 623.596 155.844H621.455C621.332 155.029 620.8 154.48 619.969 154.48C618.914 154.48 618.222 155.364 618.222 156.909C618.222 158.475 618.909 159.365 619.969 159.365C620.746 159.365 621.322 158.875 621.455 158.001H623.596C623.49 159.881 622.121 161.16 619.942 161.16ZM628.778 161.16C626.258 161.16 624.719 159.54 624.719 156.946C624.719 154.422 626.28 152.712 628.687 152.712C630.85 152.712 632.533 154.086 632.533 156.866V157.49H626.961V157.495C626.961 158.715 627.68 159.466 628.815 159.466C629.571 159.466 630.157 159.141 630.386 158.518L632.485 158.656C632.166 160.174 630.802 161.16 628.778 161.16ZM626.961 156.083H630.397C630.392 155.109 629.71 154.406 628.725 154.406C627.718 154.406 627.009 155.151 626.961 156.083ZM639.409 161H636.937L640.703 150.091H643.675L647.436 161H644.964L644.155 158.512H640.218L639.409 161ZM640.804 156.712H643.574L642.232 152.584H642.146L640.804 156.712ZM648.749 161V150.091H653.053C655.53 150.091 656.963 151.62 656.963 153.788C656.963 155.966 655.503 157.463 652.994 157.463H651.055V161H648.749ZM651.055 155.615H652.621C653.942 155.615 654.587 154.869 654.587 153.788C654.587 152.701 653.942 151.977 652.611 151.977H651.055V155.615ZM660.767 150.091V161H658.461V150.091H660.767Z" fill="#3A3836"/>
<path d="M546.707 41.7071C547.098 41.3165 547.098 40.6834 546.707 40.2929L540.343 33.9289C539.953 33.5384 539.319 33.5384 538.929 33.9289C538.538 34.3194 538.538 34.9526 538.929 35.3431L544.586 41L538.929 46.6568C538.538 47.0473 538.538 47.6805 538.929 48.071C539.319 48.4616 539.953 48.4616 540.343 48.071L546.707 41.7071ZM175 42L546 42L546 40L175 40L175 42Z" fill="#3A3836"/>
<path d="M220 25H394.121C395.09 25 396.026 25.3517 396.755 25.9897L411.041 38.4897C412.862 40.0833 412.862 42.9167 411.041 44.5103L396.755 57.0103C396.026 57.6483 395.09 58 394.121 58H220C217.791 58 216 56.2091 216 54V29C216 26.7909 217.791 25 220 25Z" fill="white" stroke="#3A3836" stroke-width="2"/>
<path d="M238.12 47H236.373L240.299 36.0909H242.2L246.126 47H244.379L243.383 44.1129H239.121L238.12 47ZM239.601 42.728H242.903L241.295 38.0724H241.21L239.601 42.728ZM252.756 43.6069V38.8182H254.354V47H252.788V45.5831H252.703C252.325 46.4567 251.489 47.1065 250.258 47.1065C248.687 47.1065 247.574 46.0518 247.574 44.0224V38.8182H249.166V43.8306C249.166 44.9439 249.848 45.6577 250.834 45.6577C251.728 45.6577 252.762 44.9972 252.756 43.6069ZM260.314 38.8182V40.0966H258.636V44.5977C258.636 45.5192 259.099 45.6896 259.616 45.6896C259.872 45.6896 260.069 45.6417 260.175 45.6204L260.463 46.9361C260.276 47.0053 259.936 47.1012 259.43 47.1065C258.172 47.1332 257.038 46.4141 257.043 44.9279V40.0966H255.845V38.8182H257.043V36.858H258.636V38.8182H260.314ZM263.844 42.142V47H262.251V36.0909H263.823V40.1499H263.924C264.307 39.2656 265.074 38.7116 266.348 38.7116C268.031 38.7116 269.149 39.7557 269.149 41.7958V47H267.557V41.9876C267.557 40.7891 266.902 40.0913 265.804 40.0913C264.67 40.0913 263.844 40.837 263.844 42.142ZM274.721 47.1651C272.415 47.1651 270.907 45.4766 270.907 42.9464C270.907 40.4002 272.415 38.7116 274.721 38.7116C277.028 38.7116 278.535 40.4002 278.535 42.9464C278.535 45.4766 277.028 47.1651 274.721 47.1651ZM274.726 45.8281C276.223 45.8281 276.926 44.5124 276.926 42.9411C276.926 41.375 276.223 40.0433 274.726 40.0433C273.219 40.0433 272.516 41.375 272.516 42.9411C272.516 44.5124 273.219 45.8281 274.726 45.8281ZM280.313 47V38.8182H281.852V40.1179H281.938C282.236 39.239 283.056 38.6957 284.015 38.6957C284.217 38.6957 284.532 38.7116 284.691 38.733V40.2564C284.564 40.2191 284.191 40.1605 283.86 40.1605C282.731 40.1605 281.906 40.9329 281.906 42.0036V47H280.313ZM286.07 47V38.8182H287.662V47H286.07ZM286.874 37.5558C286.32 37.5558 285.867 37.1296 285.867 36.6076C285.867 36.0856 286.32 35.6541 286.874 35.6541C287.423 35.6541 287.881 36.0856 287.881 36.6076C287.881 37.1296 287.423 37.5558 286.874 37.5558ZM289.635 47V45.908L294.066 40.2777V40.2031H289.778V38.8182H296.053V39.9794L291.792 45.5405V45.6151H296.202V47H289.635ZM300.462 47.1811C298.907 47.1811 297.698 46.2969 297.698 44.6882C297.698 42.8292 299.285 42.4244 300.835 42.2433C302.305 42.0728 302.902 42.0835 302.902 41.5028V41.4656C302.902 40.5387 302.375 40.0007 301.347 40.0007C300.276 40.0007 299.679 40.56 299.445 41.1406L297.948 40.7997C298.481 39.3082 299.845 38.7116 301.325 38.7116C302.625 38.7116 304.5 39.1857 304.5 41.5668V47H302.945V45.8814H302.881C302.577 46.494 301.815 47.1811 300.462 47.1811ZM300.809 45.9027C302.135 45.9027 302.907 45.0185 302.907 44.049V42.9943C302.678 43.2234 301.453 43.3619 300.937 43.4311C300.015 43.5536 299.259 43.8572 299.259 44.7095C299.259 45.4979 299.908 45.9027 300.809 45.9027ZM310.441 38.8182V40.0966H308.763V44.5977C308.763 45.5192 309.226 45.6896 309.743 45.6896C309.999 45.6896 310.196 45.6417 310.302 45.6204L310.59 46.9361C310.403 47.0053 310.062 47.1012 309.556 47.1065C308.299 47.1332 307.165 46.4141 307.17 44.9279V40.0966H305.972V38.8182H307.17V36.858H308.763V38.8182H310.441ZM312.203 47V38.8182H313.795V47H312.203ZM313.007 37.5558C312.453 37.5558 312 37.1296 312 36.6076C312 36.0856 312.453 35.6541 313.007 35.6541C313.555 35.6541 314.014 36.0856 314.014 36.6076C314.014 37.1296 313.555 37.5558 313.007 37.5558ZM319.384 47.1651C317.078 47.1651 315.57 45.4766 315.57 42.9464C315.57 40.4002 317.078 38.7116 319.384 38.7116C321.691 38.7116 323.198 40.4002 323.198 42.9464C323.198 45.4766 321.691 47.1651 319.384 47.1651ZM319.39 45.8281C320.886 45.8281 321.589 44.5124 321.589 42.9411C321.589 41.375 320.886 40.0433 319.39 40.0433C317.882 40.0433 317.179 41.375 317.179 42.9411C317.179 44.5124 317.882 45.8281 319.39 45.8281ZM326.569 42.142V47H324.976V38.8182H326.505V40.1499H326.606C326.984 39.2816 327.788 38.7116 329.019 38.7116C330.691 38.7116 331.805 39.7717 331.805 41.7958V47H330.212V41.9876C330.212 40.7997 329.557 40.0913 328.476 40.0913C327.368 40.0913 326.569 40.837 326.569 42.142ZM337.911 47V38.8182H339.45V40.1179H339.535C339.833 39.239 340.654 38.6957 341.613 38.6957C341.815 38.6957 342.129 38.7116 342.289 38.733V40.2564C342.161 40.2191 341.788 40.1605 341.458 40.1605C340.329 40.1605 339.503 40.9329 339.503 42.0036V47H337.911ZM346.901 47.1651C344.488 47.1651 343.007 45.5032 343.007 42.9624C343.007 40.4482 344.509 38.7116 346.789 38.7116C348.642 38.7116 350.411 39.8675 350.411 42.8239V43.3885H344.594C344.637 44.9652 345.553 45.8494 346.917 45.8494C347.822 45.8494 348.515 45.4553 348.802 44.6829L350.31 44.9545C349.948 46.2862 348.685 47.1651 346.901 47.1651ZM344.6 42.1953H348.85C348.845 40.9435 348.035 40.0273 346.799 40.0273C345.505 40.0273 344.663 41.0341 344.6 42.1953ZM359.295 50.0682H357.702V45.7269H357.606C357.318 46.2489 356.732 47.1598 355.241 47.1598C353.259 47.1598 351.821 45.5724 351.821 42.9251C351.821 40.2724 353.281 38.7116 355.257 38.7116C356.775 38.7116 357.324 39.6385 357.606 40.1445H357.739V38.8182H359.295V50.0682ZM357.734 42.9091C357.734 41.1992 356.988 40.0646 355.598 40.0646C354.154 40.0646 353.43 41.2844 353.43 42.9091C353.43 44.5497 354.176 45.8015 355.598 45.8015C356.967 45.8015 357.734 44.6296 357.734 42.9091ZM366.619 43.6069V38.8182H368.217V47H366.651V45.5831H366.566C366.187 46.4567 365.351 47.1065 364.121 47.1065C362.549 47.1065 361.436 46.0518 361.436 44.0224V38.8182H363.029V43.8306C363.029 44.9439 363.71 45.6577 364.696 45.6577C365.591 45.6577 366.624 44.9972 366.619 43.6069ZM373.883 47.1651C371.47 47.1651 369.989 45.5032 369.989 42.9624C369.989 40.4482 371.491 38.7116 373.771 38.7116C375.625 38.7116 377.393 39.8675 377.393 42.8239V43.3885H371.577C371.619 44.9652 372.535 45.8494 373.899 45.8494C374.805 45.8494 375.497 45.4553 375.785 44.6829L377.292 44.9545C376.93 46.2862 375.668 47.1651 373.883 47.1651ZM371.582 42.1953H375.833C375.827 40.9435 375.018 40.0273 373.782 40.0273C372.487 40.0273 371.646 41.0341 371.582 42.1953ZM385.292 40.8157L383.848 41.0714C383.662 40.5227 383.203 39.9741 382.213 39.9741C381.307 39.9741 380.625 40.4215 380.631 41.0501C380.625 41.604 381.014 41.9077 381.914 42.1207L383.214 42.419C384.716 42.7653 385.451 43.479 385.451 44.6349C385.451 46.1158 384.082 47.1651 382.106 47.1651C380.268 47.1651 379.065 46.3501 378.798 44.9013L380.338 44.6669C380.529 45.4712 381.142 45.8814 382.096 45.8814C383.14 45.8814 383.816 45.386 383.816 44.7521C383.816 44.2408 383.449 43.8892 382.66 43.7134L381.275 43.4098C379.741 43.0689 379.038 42.2965 379.038 41.1353C379.038 39.6864 380.348 38.7116 382.197 38.7116C383.965 38.7116 384.961 39.5426 385.292 40.8157ZM391.022 38.8182V40.0966H389.344V44.5977C389.344 45.5192 389.807 45.6896 390.324 45.6896C390.58 45.6896 390.777 45.6417 390.883 45.6204L391.171 46.9361C390.984 47.0053 390.644 47.1012 390.138 47.1065C388.88 47.1332 387.746 46.4141 387.751 44.9279V40.0966H386.553V38.8182H387.751V36.858H389.344V38.8182H391.022Z" fill="#3A3836"/>
<path d="M175.293 86.2929C174.902 86.6834 174.902 87.3166 175.293 87.7071L181.657 94.0711C182.047 94.4616 182.681 94.4616 183.071 94.0711C183.462 93.6805 183.462 93.0474 183.071 92.6569L177.414 87L183.071 81.3431C183.462 80.9526 183.462 80.3195 183.071 79.9289C182.681 79.5384 182.047 79.5384 181.657 79.9289L175.293 86.2929ZM547 86L176 86V88L547 88V86Z" fill="#3A3836"/>
<path d="M343.879 70H504C506.209 70 508 71.7909 508 74V99C508 101.209 506.209 103 504 103H343.879C342.91 103 341.974 102.648 341.245 102.01L326.959 89.5103C325.138 87.9167 325.138 85.0833 326.959 83.4897L341.245 70.9897C341.974 70.3517 342.91 70 343.879 70Z" fill="white" stroke="#3A3836" stroke-width="2"/>
<path d="M351.253 92H349.506L353.431 81.0909H355.333L359.259 92H357.512L356.516 89.1129H352.254L351.253 92ZM352.734 87.728H356.036L354.428 83.0724H354.342L352.734 87.728ZM365.889 88.6069V83.8182H367.487V92H365.921V90.5831H365.836C365.458 91.4567 364.622 92.1065 363.391 92.1065C361.82 92.1065 360.706 91.0518 360.706 89.0224V83.8182H362.299V88.8306C362.299 89.9439 362.981 90.6577 363.966 90.6577C364.861 90.6577 365.895 89.9972 365.889 88.6069ZM373.447 83.8182V85.0966H371.769V89.5977C371.769 90.5192 372.232 90.6896 372.749 90.6896C373.004 90.6896 373.202 90.6417 373.308 90.6204L373.596 91.9361C373.409 92.0053 373.068 92.1012 372.562 92.1065C371.305 92.1332 370.171 91.4141 370.176 89.9279V85.0966H368.977V83.8182H370.176V81.858H371.769V83.8182H373.447ZM376.977 87.142V92H375.384V81.0909H376.956V85.1499H377.057C377.44 84.2656 378.207 83.7116 379.48 83.7116C381.164 83.7116 382.282 84.7557 382.282 86.7958V92H380.69V86.9876C380.69 85.7891 380.034 85.0913 378.937 85.0913C377.802 85.0913 376.977 85.837 376.977 87.142ZM387.854 92.1651C385.547 92.1651 384.04 90.4766 384.04 87.9464C384.04 85.4002 385.547 83.7116 387.854 83.7116C390.16 83.7116 391.668 85.4002 391.668 87.9464C391.668 90.4766 390.16 92.1651 387.854 92.1651ZM387.859 90.8281C389.356 90.8281 390.059 89.5124 390.059 87.9411C390.059 86.375 389.356 85.0433 387.859 85.0433C386.352 85.0433 385.649 86.375 385.649 87.9411C385.649 89.5124 386.352 90.8281 387.859 90.8281ZM393.446 92V83.8182H394.985V85.1179H395.07C395.369 84.239 396.189 83.6957 397.148 83.6957C397.35 83.6957 397.664 83.7116 397.824 83.733V85.2564C397.696 85.2191 397.324 85.1605 396.993 85.1605C395.864 85.1605 395.038 85.9329 395.038 87.0036V92H393.446ZM399.203 92V83.8182H400.795V92H399.203ZM400.007 82.5558C399.453 82.5558 399 82.1296 399 81.6076C399 81.0856 399.453 80.6541 400.007 80.6541C400.555 80.6541 401.014 81.0856 401.014 81.6076C401.014 82.1296 400.555 82.5558 400.007 82.5558ZM402.767 92V90.908L407.199 85.2777V85.2031H402.911V83.8182H409.186V84.9794L404.925 90.5405V90.6151H409.335V92H402.767ZM413.595 92.1811C412.04 92.1811 410.831 91.2969 410.831 89.6882C410.831 87.8292 412.418 87.4244 413.968 87.2433C415.438 87.0728 416.035 87.0835 416.035 86.5028V86.4656C416.035 85.5387 415.508 85.0007 414.479 85.0007C413.409 85.0007 412.812 85.56 412.578 86.1406L411.081 85.7997C411.614 84.3082 412.977 83.7116 414.458 83.7116C415.758 83.7116 417.633 84.1857 417.633 86.5668V92H416.078V90.8814H416.014C415.71 91.494 414.948 92.1811 413.595 92.1811ZM413.941 90.9027C415.268 90.9027 416.04 90.0185 416.04 89.049V87.9943C415.811 88.2234 414.586 88.3619 414.069 88.4311C413.148 88.5536 412.391 88.8572 412.391 89.7095C412.391 90.4979 413.041 90.9027 413.941 90.9027ZM423.574 83.8182V85.0966H421.896V89.5977C421.896 90.5192 422.359 90.6896 422.876 90.6896C423.131 90.6896 423.328 90.6417 423.435 90.6204L423.723 91.9361C423.536 92.0053 423.195 92.1012 422.689 92.1065C421.432 92.1332 420.298 91.4141 420.303 89.9279V85.0966H419.104V83.8182H420.303V81.858H421.896V83.8182H423.574ZM425.335 92V83.8182H426.928V92H425.335ZM426.14 82.5558C425.586 82.5558 425.133 82.1296 425.133 81.6076C425.133 81.0856 425.586 80.6541 426.14 80.6541C426.688 80.6541 427.146 81.0856 427.146 81.6076C427.146 82.1296 426.688 82.5558 426.14 82.5558ZM432.517 92.1651C430.211 92.1651 428.703 90.4766 428.703 87.9464C428.703 85.4002 430.211 83.7116 432.517 83.7116C434.824 83.7116 436.331 85.4002 436.331 87.9464C436.331 90.4766 434.824 92.1651 432.517 92.1651ZM432.522 90.8281C434.019 90.8281 434.722 89.5124 434.722 87.9411C434.722 86.375 434.019 85.0433 432.522 85.0433C431.015 85.0433 430.312 86.375 430.312 87.9411C430.312 89.5124 431.015 90.8281 432.522 90.8281ZM439.701 87.142V92H438.109V83.8182H439.638V85.1499H439.739C440.117 84.2816 440.921 83.7116 442.152 83.7116C443.824 83.7116 444.938 84.7717 444.938 86.7958V92H443.345V86.9876C443.345 85.7997 442.69 85.0913 441.608 85.0913C440.5 85.0913 439.701 85.837 439.701 87.142ZM454.474 95.2386C452.519 95.2386 451.427 94.3864 450.995 93.3849L452.364 92.8203C452.647 93.2891 453.163 93.9549 454.49 93.9549C455.699 93.9549 456.578 93.4009 456.578 92.1172V90.5085H456.477C456.189 91.0305 455.608 91.8775 454.106 91.8775C452.173 91.8775 450.686 90.4872 450.686 87.8771C450.686 85.2724 452.141 83.7116 454.117 83.7116C455.64 83.7116 456.205 84.6385 456.487 85.1445H456.604V83.8182H458.165V92.1811C458.165 94.2852 456.556 95.2386 454.474 95.2386ZM454.458 90.5565C455.832 90.5565 456.594 89.5444 456.594 87.8558C456.594 86.1992 455.848 85.0646 454.458 85.0646C453.02 85.0646 452.295 86.2844 452.295 87.8558C452.295 89.4645 453.036 90.5565 454.458 90.5565ZM460.301 92V83.8182H461.841V85.1179H461.926C462.224 84.239 463.044 83.6957 464.003 83.6957C464.206 83.6957 464.52 83.7116 464.68 83.733V85.2564C464.552 85.2191 464.179 85.1605 463.849 85.1605C462.719 85.1605 461.894 85.9329 461.894 87.0036V92H460.301ZM468.366 92.1811C466.81 92.1811 465.601 91.2969 465.601 89.6882C465.601 87.8292 467.189 87.4244 468.739 87.2433C470.209 87.0728 470.805 87.0835 470.805 86.5028V86.4656C470.805 85.5387 470.278 85.0007 469.25 85.0007C468.179 85.0007 467.583 85.56 467.348 86.1406L465.852 85.7997C466.384 84.3082 467.748 83.7116 469.229 83.7116C470.528 83.7116 472.403 84.1857 472.403 86.5668V92H470.848V90.8814H470.784C470.48 91.494 469.719 92.1811 468.366 92.1811ZM468.712 90.9027C470.038 90.9027 470.811 90.0185 470.811 89.049V87.9943C470.582 88.2234 469.357 88.3619 468.84 88.4311C467.918 88.5536 467.162 88.8572 467.162 89.7095C467.162 90.4979 467.812 90.9027 468.712 90.9027ZM476.117 87.142V92H474.525V83.8182H476.054V85.1499H476.155C476.533 84.2816 477.337 83.7116 478.568 83.7116C480.24 83.7116 481.354 84.7717 481.354 86.7958V92H479.761V86.9876C479.761 85.7997 479.106 85.0913 478.024 85.0913C476.916 85.0913 476.117 85.837 476.117 87.142ZM487.309 83.8182V85.0966H485.631V89.5977C485.631 90.5192 486.094 90.6896 486.611 90.6896C486.867 90.6896 487.064 90.6417 487.17 90.6204L487.458 91.9361C487.272 92.0053 486.931 92.1012 486.425 92.1065C485.168 92.1332 484.033 91.4141 484.038 89.9279V85.0966H482.84V83.8182H484.038V81.858H485.631V83.8182H487.309Z" fill="#3A3836"/>
<path d="M547.707 207.707C548.098 207.317 548.098 206.683 547.707 206.293L541.343 199.929C540.953 199.538 540.319 199.538 539.929 199.929C539.538 200.319 539.538 200.953 539.929 201.343L545.586 207L539.929 212.657C539.538 213.047 539.538 213.681 539.929 214.071C540.319 214.462 540.953 214.462 541.343 214.071L547.707 207.707ZM175 208L547 208L547 206L175 206L175 208Z" fill="#3A3836"/>
<path d="M218 191H379.121C380.09 191 381.026 191.352 381.755 191.99L396.041 204.49C397.862 206.083 397.862 208.917 396.041 210.51L381.755 223.01C381.026 223.648 380.09 224 379.121 224H218C215.791 224 214 222.209 214 220V195C214 192.791 215.791 191 218 191Z" fill="white" stroke="#3A3836" stroke-width="2"/>
<path d="M236.12 213H234.373L238.299 202.091H240.2L244.126 213H242.379L241.383 210.113H237.121L236.12 213ZM237.601 208.728H240.903L239.295 204.072H239.21L237.601 208.728ZM250.756 209.607V204.818H252.354V213H250.788V211.583H250.703C250.325 212.457 249.489 213.107 248.258 213.107C246.687 213.107 245.574 212.052 245.574 210.022V204.818H247.166V209.831C247.166 210.944 247.848 211.658 248.834 211.658C249.728 211.658 250.762 210.997 250.756 209.607ZM258.314 204.818V206.097H256.636V210.598C256.636 211.519 257.099 211.69 257.616 211.69C257.872 211.69 258.069 211.642 258.175 211.62L258.463 212.936C258.276 213.005 257.936 213.101 257.43 213.107C256.172 213.133 255.038 212.414 255.043 210.928V206.097H253.845V204.818H255.043V202.858H256.636V204.818H258.314ZM261.844 208.142V213H260.251V202.091H261.823V206.15H261.924C262.307 205.266 263.074 204.712 264.348 204.712C266.031 204.712 267.149 205.756 267.149 207.796V213H265.557V207.988C265.557 206.789 264.902 206.091 263.804 206.091C262.67 206.091 261.844 206.837 261.844 208.142ZM272.721 213.165C270.415 213.165 268.907 211.477 268.907 208.946C268.907 206.4 270.415 204.712 272.721 204.712C275.028 204.712 276.535 206.4 276.535 208.946C276.535 211.477 275.028 213.165 272.721 213.165ZM272.726 211.828C274.223 211.828 274.926 210.512 274.926 208.941C274.926 207.375 274.223 206.043 272.726 206.043C271.219 206.043 270.516 207.375 270.516 208.941C270.516 210.512 271.219 211.828 272.726 211.828ZM278.313 213V204.818H279.852V206.118H279.938C280.236 205.239 281.056 204.696 282.015 204.696C282.217 204.696 282.532 204.712 282.691 204.733V206.256C282.564 206.219 282.191 206.161 281.86 206.161C280.731 206.161 279.906 206.933 279.906 208.004V213H278.313ZM284.07 213V204.818H285.662V213H284.07ZM284.874 203.556C284.32 203.556 283.867 203.13 283.867 202.608C283.867 202.086 284.32 201.654 284.874 201.654C285.423 201.654 285.881 202.086 285.881 202.608C285.881 203.13 285.423 203.556 284.874 203.556ZM287.635 213V211.908L292.066 206.278V206.203H287.778V204.818H294.053V205.979L289.792 211.54V211.615H294.202V213H287.635ZM298.462 213.181C296.907 213.181 295.698 212.297 295.698 210.688C295.698 208.829 297.285 208.424 298.835 208.243C300.305 208.073 300.902 208.083 300.902 207.503V207.466C300.902 206.539 300.375 206.001 299.347 206.001C298.276 206.001 297.679 206.56 297.445 207.141L295.948 206.8C296.481 205.308 297.845 204.712 299.325 204.712C300.625 204.712 302.5 205.186 302.5 207.567V213H300.945V211.881H300.881C300.577 212.494 299.815 213.181 298.462 213.181ZM298.809 211.903C300.135 211.903 300.907 211.018 300.907 210.049V208.994C300.678 209.223 299.453 209.362 298.937 209.431C298.015 209.554 297.259 209.857 297.259 210.71C297.259 211.498 297.908 211.903 298.809 211.903ZM308.441 204.818V206.097H306.763V210.598C306.763 211.519 307.226 211.69 307.743 211.69C307.999 211.69 308.196 211.642 308.302 211.62L308.59 212.936C308.403 213.005 308.062 213.101 307.556 213.107C306.299 213.133 305.165 212.414 305.17 210.928V206.097H303.972V204.818H305.17V202.858H306.763V204.818H308.441ZM310.203 213V204.818H311.795V213H310.203ZM311.007 203.556C310.453 203.556 310 203.13 310 202.608C310 202.086 310.453 201.654 311.007 201.654C311.555 201.654 312.014 202.086 312.014 202.608C312.014 203.13 311.555 203.556 311.007 203.556ZM317.384 213.165C315.078 213.165 313.57 211.477 313.57 208.946C313.57 206.4 315.078 204.712 317.384 204.712C319.691 204.712 321.198 206.4 321.198 208.946C321.198 211.477 319.691 213.165 317.384 213.165ZM317.39 211.828C318.886 211.828 319.589 210.512 319.589 208.941C319.589 207.375 318.886 206.043 317.39 206.043C315.882 206.043 315.179 207.375 315.179 208.941C315.179 210.512 315.882 211.828 317.39 211.828ZM324.569 208.142V213H322.976V204.818H324.505V206.15H324.606C324.984 205.282 325.788 204.712 327.019 204.712C328.691 204.712 329.805 205.772 329.805 207.796V213H328.212V207.988C328.212 206.8 327.557 206.091 326.476 206.091C325.368 206.091 324.569 206.837 324.569 208.142ZM339.341 216.239C337.386 216.239 336.294 215.386 335.863 214.385L337.232 213.82C337.514 214.289 338.031 214.955 339.357 214.955C340.566 214.955 341.445 214.401 341.445 213.117V211.509H341.344C341.056 212.031 340.475 212.877 338.973 212.877C337.04 212.877 335.554 211.487 335.554 208.877C335.554 206.272 337.008 204.712 338.984 204.712C340.507 204.712 341.072 205.638 341.354 206.145H341.472V204.818H343.032V213.181C343.032 215.285 341.424 216.239 339.341 216.239ZM339.325 211.556C340.699 211.556 341.461 210.544 341.461 208.856C341.461 207.199 340.715 206.065 339.325 206.065C337.887 206.065 337.162 207.284 337.162 208.856C337.162 210.464 337.903 211.556 339.325 211.556ZM345.168 213V204.818H346.708V206.118H346.793C347.091 205.239 347.912 204.696 348.87 204.696C349.073 204.696 349.387 204.712 349.547 204.733V206.256C349.419 206.219 349.046 206.161 348.716 206.161C347.587 206.161 346.761 206.933 346.761 208.004V213H345.168ZM353.233 213.181C351.678 213.181 350.468 212.297 350.468 210.688C350.468 208.829 352.056 208.424 353.606 208.243C355.076 208.073 355.673 208.083 355.673 207.503V207.466C355.673 206.539 355.145 206.001 354.117 206.001C353.047 206.001 352.45 206.56 352.216 207.141L350.719 206.8C351.251 205.308 352.615 204.712 354.096 204.712C355.396 204.712 357.271 205.186 357.271 207.567V213H355.715V211.881H355.651C355.348 212.494 354.586 213.181 353.233 213.181ZM353.579 211.903C354.906 211.903 355.678 211.018 355.678 210.049V208.994C355.449 209.223 354.224 209.362 353.707 209.431C352.786 209.554 352.029 209.857 352.029 210.71C352.029 211.498 352.679 211.903 353.579 211.903ZM360.985 208.142V213H359.392V204.818H360.921V206.15H361.022C361.4 205.282 362.204 204.712 363.435 204.712C365.108 204.712 366.221 205.772 366.221 207.796V213H364.628V207.988C364.628 206.8 363.973 206.091 362.892 206.091C361.784 206.091 360.985 206.837 360.985 208.142ZM372.176 204.818V206.097H370.498V210.598C370.498 211.519 370.962 211.69 371.478 211.69C371.734 211.69 371.931 211.642 372.038 211.62L372.325 212.936C372.139 213.005 371.798 213.101 371.292 213.107C370.035 213.133 368.9 212.414 368.905 210.928V206.097H367.707V204.818H368.905V202.858H370.498V204.818H372.176Z" fill="#3A3836"/>
<path d="M175.293 252.293C174.902 252.683 174.902 253.317 175.293 253.707L181.657 260.071C182.047 260.462 182.681 260.462 183.071 260.071C183.462 259.681 183.462 259.047 183.071 258.657L177.414 253L183.071 247.343C183.462 246.953 183.462 246.319 183.071 245.929C182.681 245.538 182.047 245.538 181.657 245.929L175.293 252.293ZM547 252L176 252V254L547 254V252Z" fill="#3A3836"/>
<path d="M386.879 236H505C507.209 236 509 237.791 509 240V265C509 267.209 507.209 269 505 269H386.879C385.91 269 384.974 268.648 384.245 268.01L369.959 255.51C368.138 253.917 368.138 251.083 369.959 249.49L384.245 236.99C384.974 236.352 385.91 236 386.879 236Z" fill="white" stroke="#3A3836" stroke-width="2"/>
<path d="M394.558 258H392.81L396.736 247.091H398.638L402.564 258H400.816L399.82 255.113H395.559L394.558 258ZM396.038 253.728H399.341L397.732 249.072H397.647L396.038 253.728ZM407.326 258.165C404.95 258.165 403.512 256.413 403.512 253.946C403.512 251.448 405.003 249.712 407.31 249.712C409.169 249.712 410.516 250.809 410.687 252.46H409.137C408.966 251.693 408.348 251.054 407.336 251.054C406.005 251.054 405.12 252.157 405.12 253.909C405.12 255.694 405.989 256.817 407.336 256.817C408.247 256.817 408.934 256.295 409.137 255.411H410.687C410.511 257.004 409.259 258.165 407.326 258.165ZM415.836 258.165C413.461 258.165 412.022 256.413 412.022 253.946C412.022 251.448 413.514 249.712 415.82 249.712C417.679 249.712 419.027 250.809 419.198 252.46H417.647C417.477 251.693 416.859 251.054 415.847 251.054C414.515 251.054 413.631 252.157 413.631 253.909C413.631 255.694 414.499 256.817 415.847 256.817C416.758 256.817 417.445 256.295 417.647 255.411H419.198C419.022 257.004 417.77 258.165 415.836 258.165ZM424.427 258.165C422.014 258.165 420.533 256.503 420.533 253.962C420.533 251.448 422.035 249.712 424.315 249.712C426.169 249.712 427.937 250.868 427.937 253.824V254.388H422.121C422.163 255.965 423.079 256.849 424.443 256.849C425.349 256.849 426.041 256.455 426.329 255.683L427.836 255.955C427.474 257.286 426.211 258.165 424.427 258.165ZM422.126 253.195H426.377C426.371 251.944 425.562 251.027 424.326 251.027C423.031 251.027 422.19 252.034 422.126 253.195ZM435.835 251.816L434.392 252.071C434.206 251.523 433.747 250.974 432.757 250.974C431.851 250.974 431.169 251.422 431.175 252.05C431.169 252.604 431.558 252.908 432.458 253.121L433.758 253.419C435.26 253.765 435.995 254.479 435.995 255.635C435.995 257.116 434.626 258.165 432.65 258.165C430.812 258.165 429.609 257.35 429.342 255.901L430.882 255.667C431.073 256.471 431.686 256.881 432.639 256.881C433.684 256.881 434.36 256.386 434.36 255.752C434.36 255.241 433.992 254.889 433.204 254.713L431.819 254.41C430.285 254.069 429.582 253.297 429.582 252.135C429.582 250.686 430.892 249.712 432.741 249.712C434.509 249.712 435.505 250.543 435.835 251.816ZM443.877 251.816L442.434 252.071C442.248 251.523 441.789 250.974 440.799 250.974C439.893 250.974 439.211 251.422 439.217 252.05C439.211 252.604 439.6 252.908 440.5 253.121L441.8 253.419C443.302 253.765 444.037 254.479 444.037 255.635C444.037 257.116 442.668 258.165 440.692 258.165C438.854 258.165 437.651 257.35 437.384 255.901L438.924 255.667C439.115 256.471 439.728 256.881 440.681 256.881C441.725 256.881 442.402 256.386 442.402 255.752C442.402 255.241 442.034 254.889 441.246 254.713L439.861 254.41C438.327 254.069 437.624 253.297 437.624 252.135C437.624 250.686 438.934 249.712 440.783 249.712C442.551 249.712 443.547 250.543 443.877 251.816ZM453.577 249.818V251.097H451.9V255.598C451.9 256.519 452.363 256.69 452.88 256.69C453.135 256.69 453.332 256.642 453.439 256.62L453.727 257.936C453.54 258.005 453.199 258.101 452.693 258.107C451.436 258.133 450.301 257.414 450.307 255.928V251.097H449.108V249.818H450.307V247.858H451.9V249.818H453.577ZM458.698 258.165C456.391 258.165 454.884 256.477 454.884 253.946C454.884 251.4 456.391 249.712 458.698 249.712C461.004 249.712 462.512 251.4 462.512 253.946C462.512 256.477 461.004 258.165 458.698 258.165ZM458.703 256.828C460.2 256.828 460.903 255.512 460.903 253.941C460.903 252.375 460.2 251.043 458.703 251.043C457.196 251.043 456.492 252.375 456.492 253.941C456.492 255.512 457.196 256.828 458.703 256.828ZM464.289 258V247.091H465.882V253.281H466.021L469.281 249.818H471.188L467.874 253.328L471.411 258H469.456L466.676 254.303L465.882 255.097V258H464.289ZM475.828 258.165C473.415 258.165 471.935 256.503 471.935 253.962C471.935 251.448 473.437 249.712 475.717 249.712C477.57 249.712 479.339 250.868 479.339 253.824V254.388H473.522C473.565 255.965 474.481 256.849 475.844 256.849C476.75 256.849 477.442 256.455 477.73 255.683L479.237 255.955C478.875 257.286 477.613 258.165 475.828 258.165ZM473.527 253.195H477.778C477.773 251.944 476.963 251.027 475.727 251.027C474.433 251.027 473.591 252.034 473.527 253.195ZM482.699 253.142V258H481.106V249.818H482.635V251.15H482.736C483.114 250.282 483.918 249.712 485.149 249.712C486.821 249.712 487.935 250.772 487.935 252.796V258H486.342V252.988C486.342 251.8 485.687 251.091 484.605 251.091C483.498 251.091 482.699 251.837 482.699 253.142Z" fill="#3A3836"/>
<path d="M547.707 335.707C548.098 335.317 548.098 334.683 547.707 334.293L541.343 327.929C540.953 327.538 540.319 327.538 539.929 327.929C539.538 328.319 539.538 328.953 539.929 329.343L545.586 335L539.929 340.657C539.538 341.047 539.538 341.681 539.929 342.071C540.319 342.462 540.953 342.462 541.343 342.071L547.707 335.707ZM175 336L547 336L547 334L175 334L175 336Z" fill="#3A3836"/>
<path d="M219 319H337.121C338.09 319 339.026 319.352 339.755 319.99L354.041 332.49C355.862 334.083 355.862 336.917 354.041 338.51L339.755 351.01C339.026 351.648 338.09 352 337.121 352H219C216.791 352 215 350.209 215 348V323C215 320.791 216.791 319 219 319Z" fill="white" stroke="#3A3836" stroke-width="2"/>
<path d="M237.12 341H235.373L239.299 330.091H241.2L245.126 341H243.379L242.383 338.113H238.121L237.12 341ZM238.601 336.728H241.903L240.295 332.072H240.21L238.601 336.728ZM249.888 341.165C247.512 341.165 246.074 339.413 246.074 336.946C246.074 334.448 247.566 332.712 249.872 332.712C251.731 332.712 253.079 333.809 253.249 335.46H251.699C251.529 334.693 250.911 334.054 249.899 334.054C248.567 334.054 247.683 335.157 247.683 336.909C247.683 338.694 248.551 339.817 249.899 339.817C250.81 339.817 251.497 339.295 251.699 338.411H253.249C253.074 340.004 251.822 341.165 249.888 341.165ZM258.399 341.165C256.023 341.165 254.585 339.413 254.585 336.946C254.585 334.448 256.076 332.712 258.383 332.712C260.242 332.712 261.59 333.809 261.76 335.46H260.21C260.04 334.693 259.422 334.054 258.41 334.054C257.078 334.054 256.194 335.157 256.194 336.909C256.194 338.694 257.062 339.817 258.41 339.817C259.32 339.817 260.008 339.295 260.21 338.411H261.76C261.584 340.004 260.332 341.165 258.399 341.165ZM266.99 341.165C264.577 341.165 263.096 339.503 263.096 336.962C263.096 334.448 264.598 332.712 266.878 332.712C268.731 332.712 270.5 333.868 270.5 336.824V337.388H264.683C264.726 338.965 265.642 339.849 267.006 339.849C267.911 339.849 268.604 339.455 268.891 338.683L270.399 338.955C270.036 340.286 268.774 341.165 266.99 341.165ZM264.688 336.195H268.939C268.934 334.944 268.124 334.027 266.888 334.027C265.594 334.027 264.752 335.034 264.688 336.195ZM278.398 334.816L276.954 335.071C276.768 334.523 276.31 333.974 275.319 333.974C274.414 333.974 273.732 334.422 273.737 335.05C273.732 335.604 274.121 335.908 275.021 336.121L276.321 336.419C277.823 336.765 278.558 337.479 278.558 338.635C278.558 340.116 277.189 341.165 275.213 341.165C273.375 341.165 272.171 340.35 271.905 338.901L273.444 338.667C273.636 339.471 274.248 339.881 275.202 339.881C276.246 339.881 276.922 339.386 276.922 338.752C276.922 338.241 276.555 337.889 275.767 337.713L274.382 337.41C272.848 337.069 272.144 336.297 272.144 335.135C272.144 333.686 273.455 332.712 275.303 332.712C277.072 332.712 278.068 333.543 278.398 334.816ZM286.44 334.816L284.996 335.071C284.81 334.523 284.352 333.974 283.361 333.974C282.456 333.974 281.774 334.422 281.779 335.05C281.774 335.604 282.163 335.908 283.063 336.121L284.363 336.419C285.865 336.765 286.6 337.479 286.6 338.635C286.6 340.116 285.231 341.165 283.255 341.165C281.417 341.165 280.213 340.35 279.947 338.901L281.486 338.667C281.678 339.471 282.29 339.881 283.244 339.881C284.288 339.881 284.964 339.386 284.964 338.752C284.964 338.241 284.597 337.889 283.809 337.713L282.424 337.41C280.89 337.069 280.186 336.297 280.186 335.135C280.186 333.686 281.497 332.712 283.345 332.712C285.114 332.712 286.11 333.543 286.44 334.816ZM296.14 332.818V334.097H294.462V338.598C294.462 339.519 294.925 339.69 295.442 339.69C295.698 339.69 295.895 339.642 296.001 339.62L296.289 340.936C296.103 341.005 295.762 341.101 295.256 341.107C293.999 341.133 292.864 340.414 292.869 338.928V334.097H291.671V332.818H292.869V330.858H294.462V332.818H296.14ZM301.26 341.165C298.954 341.165 297.446 339.477 297.446 336.946C297.446 334.4 298.954 332.712 301.26 332.712C303.567 332.712 305.074 334.4 305.074 336.946C305.074 339.477 303.567 341.165 301.26 341.165ZM301.266 339.828C302.762 339.828 303.465 338.512 303.465 336.941C303.465 335.375 302.762 334.043 301.266 334.043C299.758 334.043 299.055 335.375 299.055 336.941C299.055 338.512 299.758 339.828 301.266 339.828ZM306.852 341V330.091H308.445V336.281H308.583L311.843 332.818H313.75L310.437 336.328L313.974 341H312.019L309.238 337.303L308.445 338.097V341H306.852ZM318.391 341.165C315.978 341.165 314.497 339.503 314.497 336.962C314.497 334.448 315.999 332.712 318.279 332.712C320.133 332.712 321.901 333.868 321.901 336.824V337.388H316.084C316.127 338.965 317.043 339.849 318.407 339.849C319.312 339.849 320.005 339.455 320.293 338.683L321.8 338.955C321.438 340.286 320.175 341.165 318.391 341.165ZM316.09 336.195H320.34C320.335 334.944 319.525 334.027 318.29 334.027C316.995 334.027 316.154 335.034 316.09 336.195ZM325.261 336.142V341H323.668V332.818H325.197V334.15H325.298C325.676 333.282 326.481 332.712 327.711 332.712C329.384 332.712 330.497 333.772 330.497 335.796V341H328.904V335.988C328.904 334.8 328.249 334.091 327.168 334.091C326.06 334.091 325.261 334.837 325.261 336.142Z" fill="#3A3836"/>
<path d="M175.293 380.293C174.902 380.683 174.902 381.317 175.293 381.707L181.657 388.071C182.047 388.462 182.681 388.462 183.071 388.071C183.462 387.681 183.462 387.047 183.071 386.657L177.414 381L183.071 375.343C183.462 374.953 183.462 374.319 183.071 373.929C182.681 373.538 182.047 373.538 181.657 373.929L175.293 380.293ZM547 380L176 380V382L547 382V380Z" fill="#3A3836"/>
<path d="M343.879 364H503C505.209 364 507 365.791 507 368V393C507 395.209 505.209 397 503 397H343.879C342.91 397 341.974 396.648 341.245 396.01L326.959 383.51C325.138 381.917 325.138 379.083 326.959 377.49L341.245 364.99C341.974 364.352 342.91 364 343.879 364Z" fill="white" stroke="#3A3836" stroke-width="2"/>
<path d="M350.591 386V375.091H354.48C357.015 375.091 358.256 376.614 358.256 378.623C358.256 380.636 357.004 382.165 354.474 382.165H352.237V386H350.591ZM352.237 380.769H354.325C355.934 380.769 356.6 379.858 356.6 378.623C356.6 377.387 355.934 376.502 354.304 376.502H352.237V380.769ZM360.058 386V377.818H361.597V379.118H361.683C361.981 378.239 362.801 377.696 363.76 377.696C363.962 377.696 364.277 377.712 364.437 377.733V379.256C364.309 379.219 363.936 379.161 363.606 379.161C362.476 379.161 361.651 379.933 361.651 381.004V386H360.058ZM368.968 386.165C366.662 386.165 365.154 384.477 365.154 381.946C365.154 379.4 366.662 377.712 368.968 377.712C371.275 377.712 372.782 379.4 372.782 381.946C372.782 384.477 371.275 386.165 368.968 386.165ZM368.974 384.828C370.47 384.828 371.173 383.512 371.173 381.941C371.173 380.375 370.47 379.043 368.974 379.043C367.466 379.043 366.763 380.375 366.763 381.941C366.763 383.512 367.466 384.828 368.974 384.828ZM378.379 377.818V379.097H376.701V383.598C376.701 384.519 377.165 384.69 377.681 384.69C377.937 384.69 378.134 384.642 378.241 384.62L378.528 385.936C378.342 386.005 378.001 386.101 377.495 386.107C376.238 386.133 375.103 385.414 375.109 383.928V379.097H373.91V377.818H375.109V375.858H376.701V377.818H378.379ZM383.579 386.165C381.166 386.165 379.686 384.503 379.686 381.962C379.686 379.448 381.188 377.712 383.468 377.712C385.321 377.712 387.09 378.868 387.09 381.824V382.388H381.273C381.316 383.965 382.232 384.849 383.595 384.849C384.501 384.849 385.193 384.455 385.481 383.683L386.988 383.955C386.626 385.286 385.364 386.165 383.579 386.165ZM381.278 381.195H385.529C385.524 379.944 384.714 379.027 383.478 379.027C382.184 379.027 381.342 380.034 381.278 381.195ZM392.303 386.165C389.927 386.165 388.489 384.413 388.489 381.946C388.489 379.448 389.981 377.712 392.287 377.712C394.146 377.712 395.494 378.809 395.664 380.46H394.114C393.944 379.693 393.326 379.054 392.314 379.054C390.982 379.054 390.098 380.157 390.098 381.909C390.098 383.694 390.966 384.817 392.314 384.817C393.225 384.817 393.912 384.295 394.114 383.411H395.664C395.489 385.004 394.237 386.165 392.303 386.165ZM401.187 377.818V379.097H399.509V383.598C399.509 384.519 399.972 384.69 400.489 384.69C400.745 384.69 400.942 384.642 401.048 384.62L401.336 385.936C401.15 386.005 400.809 386.101 400.303 386.107C399.045 386.133 397.911 385.414 397.916 383.928V379.097H396.718V377.818H397.916V375.858H399.509V377.818H401.187ZM406.387 386.165C403.974 386.165 402.493 384.503 402.493 381.962C402.493 379.448 403.995 377.712 406.275 377.712C408.129 377.712 409.897 378.868 409.897 381.824V382.388H404.081C404.123 383.965 405.039 384.849 406.403 384.849C407.309 384.849 408.001 384.455 408.289 383.683L409.796 383.955C409.434 385.286 408.171 386.165 406.387 386.165ZM404.086 381.195H408.337C408.331 379.944 407.522 379.027 406.286 379.027C404.991 379.027 404.15 380.034 404.086 381.195ZM414.727 386.16C412.74 386.16 411.308 384.572 411.308 381.925C411.308 379.272 412.762 377.712 414.738 377.712C416.261 377.712 416.805 378.638 417.092 379.145H417.188V375.091H418.781V386H417.225V384.727H417.092C416.805 385.249 416.219 386.16 414.727 386.16ZM415.079 384.801C416.453 384.801 417.215 383.63 417.215 381.909C417.215 380.199 416.469 379.065 415.079 379.065C413.641 379.065 412.916 380.284 412.916 381.909C412.916 383.55 413.657 384.801 415.079 384.801ZM425.024 386V377.818H426.563V379.118H426.648C426.947 378.239 427.767 377.696 428.726 377.696C428.928 377.696 429.243 377.712 429.402 377.733V379.256C429.275 379.219 428.902 379.161 428.571 379.161C427.442 379.161 426.616 379.933 426.616 381.004V386H425.024ZM434.014 386.165C431.601 386.165 430.12 384.503 430.12 381.962C430.12 379.448 431.622 377.712 433.902 377.712C435.756 377.712 437.524 378.868 437.524 381.824V382.388H431.707C431.75 383.965 432.666 384.849 434.03 384.849C434.935 384.849 435.628 384.455 435.916 383.683L437.423 383.955C437.061 385.286 435.798 386.165 434.014 386.165ZM431.713 381.195H435.964C435.958 379.944 435.149 379.027 433.913 379.027C432.618 379.027 431.777 380.034 431.713 381.195ZM445.422 379.816L443.979 380.071C443.792 379.523 443.334 378.974 442.344 378.974C441.438 378.974 440.756 379.422 440.762 380.05C440.756 380.604 441.145 380.908 442.045 381.121L443.345 381.419C444.847 381.765 445.582 382.479 445.582 383.635C445.582 385.116 444.213 386.165 442.237 386.165C440.399 386.165 439.195 385.35 438.929 383.901L440.469 383.667C440.66 384.471 441.273 384.881 442.226 384.881C443.27 384.881 443.947 384.386 443.947 383.752C443.947 383.241 443.579 382.889 442.791 382.713L441.406 382.41C439.872 382.069 439.169 381.297 439.169 380.135C439.169 378.686 440.479 377.712 442.328 377.712C444.096 377.712 445.092 378.543 445.422 379.816ZM450.78 386.165C448.473 386.165 446.966 384.477 446.966 381.946C446.966 379.4 448.473 377.712 450.78 377.712C453.086 377.712 454.594 379.4 454.594 381.946C454.594 384.477 453.086 386.165 450.78 386.165ZM450.785 384.828C452.282 384.828 452.985 383.512 452.985 381.941C452.985 380.375 452.282 379.043 450.785 379.043C449.278 379.043 448.574 380.375 448.574 381.941C448.574 383.512 449.278 384.828 450.785 384.828ZM461.554 382.607V377.818H463.152V386H461.586V384.583H461.501C461.123 385.457 460.287 386.107 459.056 386.107C457.485 386.107 456.371 385.052 456.371 383.022V377.818H457.964V382.831C457.964 383.944 458.646 384.658 459.631 384.658C460.526 384.658 461.56 383.997 461.554 382.607ZM465.292 386V377.818H466.832V379.118H466.917C467.215 378.239 468.036 377.696 468.994 377.696C469.197 377.696 469.511 377.712 469.671 377.733V379.256C469.543 379.219 469.17 379.161 468.84 379.161C467.711 379.161 466.885 379.933 466.885 381.004V386H465.292ZM474.203 386.165C471.827 386.165 470.389 384.413 470.389 381.946C470.389 379.448 471.88 377.712 474.187 377.712C476.046 377.712 477.393 378.809 477.564 380.46H476.014C475.843 379.693 475.225 379.054 474.213 379.054C472.882 379.054 471.997 380.157 471.997 381.909C471.997 383.694 472.866 384.817 474.213 384.817C475.124 384.817 475.811 384.295 476.014 383.411H477.564C477.388 385.004 476.136 386.165 474.203 386.165ZM482.793 386.165C480.38 386.165 478.899 384.503 478.899 381.962C478.899 379.448 480.402 377.712 482.681 377.712C484.535 377.712 486.304 378.868 486.304 381.824V382.388H480.487C480.529 383.965 481.446 384.849 482.809 384.849C483.715 384.849 484.407 384.455 484.695 383.683L486.202 383.955C485.84 385.286 484.578 386.165 482.793 386.165ZM480.492 381.195H484.743C484.737 379.944 483.928 379.027 482.692 379.027C481.398 379.027 480.556 380.034 480.492 381.195Z" fill="#3A3836"/>
<path d="M465.691 166.865L471.556 168.778L465.691 170.703L463.778 176.568L461.865 170.703L456 168.778L461.865 166.865L463.778 161L465.691 166.865Z" fill="#3A3836"/>
<path opacity="0.6" d="M492.372 148.606C492.372 148.606 459.399 145.275 403 180.772C403 180.772 444.641 140.006 492.419 130.037" fill="#D1DAFA"/>
<path d="M490.111 137.032L483.106 139.307L490.112 141.598L492.373 148.606L494.672 141.606L501.687 139.314L494.695 137.019L492.421 130.014L490.111 137.032Z" fill="white" stroke="#3A3836" stroke-width="2" stroke-miterlimit="10"/>
<mask id="mask1_294_2057" style="mask-type:luminance" maskUnits="userSpaceOnUse" x="0" y="358" width="86" height="36">
<path d="M84.3465 358L0 361.004L1.174 393.963L85.5205 390.959L84.3465 358Z" fill="white"/>
</mask>
<g mask="url(#mask1_294_2057)">
<path d="M85.0256 390.827C84.9588 387.93 84.277 385.081 83.0256 382.467C81.8618 380.021 80.1179 377.896 77.9456 376.277C75.9403 374.794 73.5457 373.929 71.0556 373.787C68.5933 373.672 66.1535 374.303 64.0556 375.597C62.6176 371.215 60.0022 367.313 56.4956 364.317C53.3125 361.589 49.2953 360.027 45.1056 359.887C40.9518 359.817 36.9033 361.196 33.6556 363.787C30.1018 366.626 27.4279 370.417 25.9456 374.717C23.6424 372.783 20.7859 371.628 17.7856 371.417C14.8237 371.259 11.8912 372.073 9.43563 373.737C6.78606 375.556 4.68648 378.067 3.36563 380.997C1.92295 384.156 1.23808 387.607 1.36563 391.077L85.0256 390.827Z" fill="#FFDE83"/>
</g>
<g clip-path="url(#clip1_294_2057)">
<path d="M622.01 224.53C628.096 224.53 633.03 218.835 633.03 211.81C633.03 204.785 628.096 199.09 622.01 199.09C615.924 199.09 610.99 204.785 610.99 211.81C610.99 218.835 615.924 224.53 622.01 224.53Z" fill="url(#paint5_linear_294_2057)"/>
<path d="M608.6 204.88C606.67 207.76 605.84 211.39 606.58 215.06" stroke="#6B6B6B" stroke-width="1.5" stroke-linecap="round" stroke-linejoin="round"/>
<path d="M625.95 200.37C623.33 199.03 620.25 198.53 617.15 199.16C614.58 199.68 612.34 200.89 610.56 202.56" stroke="#6B6B6B" stroke-width="1.5" stroke-linecap="round" stroke-linejoin="round"/>
<path d="M633.03 209.72C632.39 206.56 630.7 203.89 628.4 201.99" stroke="#6B6B6B" stroke-width="1.5" stroke-linecap="round" stroke-linejoin="round"/>
<path d="M633.3 212.66C633.32 211.69 633.23 210.71 633.03 209.72" stroke="#6B6B6B" stroke-width="1.5" stroke-linecap="round" stroke-linejoin="round"/>
<path d="M606.59 215.05C606.63 215.24 606.67 215.44 606.72 215.63" stroke="#6B6B6B" stroke-width="1.5" stroke-linecap="round" stroke-linejoin="round"/>
<path d="M616.32 225.42C619.34 221.98 620.78 217.22 619.81 212.39" stroke="#6B6B6B" stroke-width="1.5" stroke-linecap="round" stroke-linejoin="round"/>
<path d="M620.24 225.87C622.97 221.88 624.21 216.17 623.12 211.72C622.63 209.67 620.97 208.7 619.14 209.07C617.31 209.44 616.14 211.14 616.51 213.05C617.32 217.27 615.89 221.31 612.99 224.02" stroke="#6B6B6B" stroke-width="1.5" stroke-linecap="round" stroke-linejoin="round"/>
<path d="M613.35 214.84C613.53 217.61 612.33 220.24 610.27 221.93" stroke="#6B6B6B" stroke-width="1.5" stroke-linecap="round" stroke-linejoin="round"/>
<path d="M626.78 213.61C626.71 212.76 626.59 211.91 626.42 211.05C625.68 207.4 622.12 205.03 618.47 205.77C615.48 206.37 613.36 208.86 613.08 211.75" stroke="#6B6B6B" stroke-width="1.5" stroke-linecap="round" stroke-linejoin="round"/>
<path d="M624.65 224.98C625.9 222.42 626.65 219.6 626.83 216.68" stroke="#6B6B6B" stroke-width="1.5" stroke-linecap="round" stroke-linejoin="round"/>
<path d="M616.72 202.75C611.87 204.3 608.86 209.28 609.89 214.39C610.27 216.26 609.56 218.11 608.19 219.26" stroke="#6B6B6B" stroke-width="1.5" stroke-linecap="round" stroke-linejoin="round"/>
<path d="M629.38 221.89C630.35 218.25 630.52 214.33 629.73 210.39C628.76 205.58 624.54 202.27 619.81 202.27" stroke="#6B6B6B" stroke-width="1.5" stroke-linecap="round" stroke-linejoin="round"/>
<path d="M626.53 190.75H638.37C639.75 190.75 640.87 191.87 640.87 193.25V230.37C640.87 231.75 639.75 232.87 638.37 232.87H601.25C599.87 232.87 598.75 231.75 598.75 230.37V193.25C598.75 191.87 599.87 190.75 601.25 190.75H626.53Z" stroke="#6B6B6B" stroke-width="1.5" stroke-linecap="round" stroke-linejoin="round"/>
</g>
<path d="M628.352 334.44H640.406C641.51 334.44 642.406 335.336 642.406 336.44V343.599C642.406 344.704 641.51 345.599 640.406 345.599H628.352V334.44Z" fill="url(#paint6_linear_294_2057)"/>
<path d="M627.926 320.905H640.231C641.336 320.905 642.231 321.801 642.231 322.905V329.317C642.231 330.422 641.336 331.317 640.231 331.317H627.926V320.905Z" fill="url(#paint7_linear_294_2057)"/>
<path d="M601 320.75H639.423C641.218 320.75 642.673 322.205 642.673 324V328.532C642.673 330.327 641.218 331.782 639.423 331.782H601C599.205 331.782 597.75 330.327 597.75 328.532V324C597.75 322.205 599.205 320.75 601 320.75Z" stroke="#6B6B6B" stroke-width="1.5"/>
<path d="M601 334.484H639.423C641.218 334.484 642.673 335.939 642.673 337.734V342.266C642.673 344.061 641.218 345.516 639.423 345.516H601C599.205 345.516 597.75 344.061 597.75 342.266V337.734C597.75 335.939 599.205 334.484 601 334.484Z" stroke="#6B6B6B" stroke-width="1.5"/>
<path d="M627.989 335.319V345.17" stroke="#6B6B6B" stroke-width="1.5" stroke-linecap="round"/>
<path d="M627.926 320.905V331.317" stroke="#6B6B6B" stroke-width="1.5" stroke-linecap="round"/>
<path d="M627.926 348.373H640.231C641.336 348.373 642.231 349.269 642.231 350.373V356.785C642.231 357.89 641.336 358.785 640.231 358.785H627.926V348.373Z" fill="url(#paint8_linear_294_2057)"/>
<path d="M601 348.218H639.423C641.218 348.218 642.673 349.673 642.673 351.468V356C642.673 357.795 641.218 359.25 639.423 359.25H601C599.205 359.25 597.75 357.795 597.75 356V351.468C597.75 349.673 599.205 348.218 601 348.218Z" stroke="#6B6B6B" stroke-width="1.5"/>
<path d="M627.926 348.373V358.785" stroke="#6B6B6B" stroke-width="1.5" stroke-linecap="round"/>
<circle cx="604.027" cy="326.27" r="1.62162" fill="#6B6B6B"/>
<circle cx="604.027" cy="340" r="1.62162" fill="#6B6B6B"/>
<circle cx="604.027" cy="353.73" r="1.62162" fill="#6B6B6B"/>
<circle cx="207.5" cy="40.5" r="14.5" fill="#3A3836"/>
<path d="M208.803 35.0909V46H206.827V37.0138H206.763L204.211 38.6438V36.8327L206.923 35.0909H208.803Z" fill="white"/>
<circle cx="515.5" cy="85.5" r="14.5" fill="#3A3836"/>
<path d="M511.311 91V89.5724L515.099 85.8597C516.175 84.7678 516.729 84.1179 516.729 83.207C516.729 82.179 515.956 81.5451 514.917 81.5451C513.831 81.5451 513.128 82.2429 513.128 83.3562H511.247C511.247 81.2841 512.781 79.9418 514.944 79.9418C517.139 79.9418 518.625 81.2788 518.625 83.1058C518.625 84.3363 518.039 85.3271 515.919 87.3619L514.039 89.2741V89.3487H518.79V91H511.311Z" fill="white"/>
<circle cx="207.5" cy="206.5" r="14.5" fill="#3A3836"/>
<path d="M206.999 212.149C204.698 212.149 203.052 210.876 202.999 209.033H205.002C205.05 209.923 205.897 210.493 206.994 210.493C208.161 210.493 208.997 209.832 208.992 208.868C208.997 207.882 208.177 207.19 206.797 207.19H205.833V205.667H206.797C207.926 205.667 208.715 205.033 208.709 204.079C208.715 203.163 208.038 202.545 207.021 202.545C206.014 202.545 205.162 203.115 205.13 204.031H203.228C203.271 202.204 204.911 200.942 207.031 200.942C209.21 200.942 210.627 202.3 210.621 203.962C210.627 205.187 209.833 206.066 208.651 206.322V206.407C210.179 206.625 211.032 207.605 211.026 208.969C211.032 210.812 209.332 212.149 206.999 212.149Z" fill="white"/>
<circle cx="515.5" cy="251.5" r="14.5" fill="#3A3836"/>
<path d="M510.777 254.976V253.404L515.406 246.091H517.867V253.351H519.263V254.976H517.867V257H515.981V254.976H510.777ZM516.003 253.351V248.328H515.918L512.801 253.266V253.351H516.003Z" fill="white"/>
<circle cx="207.5" cy="334.5" r="14.5" fill="#3A3836"/>
<path d="M207.016 340.149C204.885 340.149 203.303 338.844 203.25 337.033H205.168C205.237 337.928 206.031 338.551 207.016 338.551C208.183 338.551 209.024 337.683 209.019 336.463C209.024 335.227 208.161 334.343 206.963 334.338C206.308 334.332 205.615 334.604 205.248 335.009L203.463 334.716L204.033 329.091H210.361V330.742H205.668L205.354 333.635H205.418C205.823 333.155 206.606 332.804 207.49 332.804C209.472 332.804 210.931 334.316 210.931 336.415C210.931 338.583 209.322 340.149 207.016 340.149Z" fill="white"/>
<circle cx="515.5" cy="379.5" r="14.5" fill="#3A3836"/>
<path d="M515.101 385.149C513.008 385.138 510.93 383.855 510.936 379.854C510.936 376.126 512.592 373.942 515.213 373.942C517.275 373.942 518.697 375.268 518.931 377.031H516.987C516.784 376.195 516.151 375.652 515.213 375.652C513.7 375.652 512.859 377.047 512.853 379.343H512.928C513.45 378.406 514.483 377.836 515.655 377.836C517.567 377.836 519.038 379.327 519.032 381.388C519.038 383.546 517.456 385.165 515.101 385.149ZM515.091 383.551C516.246 383.551 517.12 382.624 517.115 381.431C517.12 380.259 516.273 379.343 515.117 379.343C513.961 379.343 513.077 380.302 513.066 381.447C513.072 382.587 513.924 383.551 515.091 383.551Z" fill="white"/>
<path d="M684.671 463.033C684.643 463.047 684.618 463.065 684.598 463.088C684.578 463.111 684.562 463.138 684.552 463.166C684.542 463.195 684.538 463.226 684.54 463.256C684.542 463.287 684.55 463.316 684.564 463.344C684.624 463.464 684.648 463.599 684.633 463.733C684.618 463.866 684.563 463.992 684.477 464.096C684.44 464.144 684.423 464.204 684.429 464.263C684.436 464.323 684.466 464.378 684.512 464.417C684.559 464.455 684.619 464.474 684.679 464.469C684.74 464.464 684.796 464.436 684.836 464.391C684.98 464.218 685.071 464.008 685.096 463.785C685.122 463.562 685.082 463.337 684.981 463.137C684.954 463.082 684.905 463.041 684.847 463.022C684.789 463.002 684.726 463.006 684.671 463.033V463.033Z" fill="#BCBCBC"/>
<path d="M675.71 453.165C664.675 451.76 654.581 459.5 653.166 470.457C651.751 481.413 659.545 491.43 670.58 492.835C681.615 494.241 691.71 486.501 693.124 475.547C694.538 464.594 686.744 454.571 675.71 453.165ZM679.857 465.64C679.484 465.645 679.127 465.795 678.863 466.058L671.388 473.476L669.794 471.893C677.158 464.601 678.486 464.531 679.857 465.64ZM671.692 473.741L679.145 466.341C679.34 466.148 679.605 466.039 679.88 466.039C680.156 466.039 680.42 466.148 680.615 466.341C680.715 466.44 680.794 466.56 680.846 466.691C680.898 466.822 680.923 466.962 680.918 467.103C680.914 467.244 680.88 467.383 680.819 467.51C680.759 467.638 680.672 467.752 680.566 467.845L672.678 474.722L671.692 473.741ZM672.246 474.896L670.4 475.292C670.378 475.296 670.355 475.294 670.335 475.285C670.315 475.275 670.298 475.26 670.287 475.24C670.276 475.221 670.272 475.198 670.276 475.176C670.279 475.154 670.289 475.134 670.305 475.118L671.387 474.043L672.246 474.896ZM667.54 474.132L669.508 472.178L670.983 473.642L667.66 474.352C667.633 474.358 667.604 474.355 667.578 474.343C667.552 474.331 667.531 474.311 667.517 474.287C667.504 474.262 667.499 474.233 667.503 474.206C667.507 474.178 667.52 474.152 667.54 474.132ZM661.421 484.231C661.397 484.229 661.374 484.219 661.355 484.204C661.336 484.189 661.322 484.169 661.314 484.146C661.306 484.124 661.305 484.099 661.311 484.076C661.316 484.053 661.328 484.031 661.345 484.015L662.933 482.438L664.984 484.474L661.421 484.231ZM665.492 482.135C665.416 482.174 665.356 482.237 665.32 482.314C665.284 482.391 665.275 482.477 665.295 482.559L665.635 484.003C665.644 484.047 665.638 484.092 665.619 484.133C665.6 484.174 665.569 484.207 665.529 484.229C665.49 484.251 665.445 484.26 665.4 484.254C665.355 484.249 665.313 484.229 665.28 484.199L663.22 482.153L669.533 475.886L672.589 475.234L674.055 476.69C671.947 478.522 669.066 480.354 665.492 482.134V482.135ZM674.351 476.423L672.943 475.025L680.831 468.147C680.905 468.083 680.971 468.012 681.03 467.935C680.781 470.18 677.623 473.345 674.353 476.421L674.351 476.423ZM680.489 465.653C679.936 465.099 679.619 464.355 679.603 463.576C679.588 462.796 679.875 462.04 680.406 461.465C680.936 460.89 681.67 460.539 682.454 460.486C683.238 460.433 684.012 460.681 684.616 461.18L681.909 463.868C681.89 463.887 681.875 463.909 681.865 463.933C681.855 463.957 681.85 463.983 681.85 464.009C681.85 464.036 681.855 464.062 681.865 464.086C681.875 464.11 681.89 464.132 681.909 464.15L684.002 466.229C683.43 466.509 682.784 466.604 682.154 466.501C681.525 466.397 680.944 466.1 680.493 465.652L680.489 465.653ZM684.816 465.653C684.677 465.79 684.526 465.914 684.363 466.021L682.335 464.008L684.909 461.453C685.441 462.03 685.728 462.789 685.711 463.571C685.693 464.353 685.372 465.099 684.815 465.652L684.816 465.653Z" fill="#BCBCBC"/>
<defs>
<linearGradient id="paint0_linear_294_2057" x1="620.511" y1="46.9733" x2="620.511" y2="65.532" gradientUnits="userSpaceOnUse">
<stop stop-color="#FF6C37"/>
<stop offset="1" stop-color="#FFB400"/>
</linearGradient>
<linearGradient id="paint1_linear_294_2057" x1="620.494" y1="27.4141" x2="620.494" y2="41.8286" gradientUnits="userSpaceOnUse">
<stop stop-color="#FF6C37"/>
<stop offset="1" stop-color="#FFB400"/>
</linearGradient>
<linearGradient id="paint2_linear_294_2057" x1="102" y1="209" x2="102" y2="214" gradientUnits="userSpaceOnUse">
<stop stop-color="#FF6C37"/>
<stop offset="1" stop-color="#FFB400"/>
</linearGradient>
<linearGradient id="paint3_linear_294_2057" x1="109.5" y1="179" x2="109.5" y2="182" gradientUnits="userSpaceOnUse">
<stop stop-color="#FF6C37"/>
<stop offset="1" stop-color="#FFB400"/>
</linearGradient>
<linearGradient id="paint4_linear_294_2057" x1="90.5" y1="205" x2="90.5" y2="208" gradientUnits="userSpaceOnUse">
<stop stop-color="#FF6C37"/>
<stop offset="1" stop-color="#FFB400"/>
</linearGradient>
<linearGradient id="paint5_linear_294_2057" x1="622.01" y1="199.09" x2="622.01" y2="224.53" gradientUnits="userSpaceOnUse">
<stop stop-color="#FF6C37"/>
<stop offset="1" stop-color="#FFB400"/>
</linearGradient>
<linearGradient id="paint6_linear_294_2057" x1="635.379" y1="334.44" x2="635.379" y2="345.599" gradientUnits="userSpaceOnUse">
<stop stop-color="#FF6C37"/>
<stop offset="1" stop-color="#FFB400"/>
</linearGradient>
<linearGradient id="paint7_linear_294_2057" x1="635.079" y1="320.905" x2="635.079" y2="331.317" gradientUnits="userSpaceOnUse">
<stop stop-color="#FF6C37"/>
<stop offset="1" stop-color="#FFB400"/>
</linearGradient>
<linearGradient id="paint8_linear_294_2057" x1="635.079" y1="348.373" x2="635.079" y2="358.785" gradientUnits="userSpaceOnUse">
<stop stop-color="#FF6C37"/>
<stop offset="1" stop-color="#FFB400"/>
</linearGradient>
<clipPath id="clip0_294_2057">
<rect width="45" height="45" fill="white" transform="translate(598 21)"/>
</clipPath>
<clipPath id="clip1_294_2057">
<rect width="43.62" height="43.62" fill="white" transform="translate(598 190)"/>
</clipPath>
</defs>
</svg>
